M48
;Layer_Color=9474304
;FILE_FORMAT=4:4
METRIC,LZ
;TYPE=PLATED
T1F00S00C0.3000
T2F00S00C0.8500
T3F00S00C1.0200
T4F00S00C1.4000
T5F00S00C4.0000
%
T01
X01601Y0059175
Y006115
X0162225Y00665576
X0162125Y00752714
X01575562Y0072263
X0154051Y00720344
Y00683768
X0153793Y0066679
X01512283Y00668585
X0152675Y006905
X01501902Y00713486
X0146525Y0070725
X014565Y00721613
X01448054Y0073225
X01454296Y00764974
X01464376
X01474456
X01484536
X01494616
Y0077575
X01484536
X01474456
X01464376
X01454296
Y00786855
X01464376
X01474456
X01484536
X01494616
X0141725Y00776
Y007635
X0135175Y0074525
X0129725Y00749
X01268Y0074875
X01239Y00725174
X01251Y0070575
X012315Y0068525
X0127576Y00661672
X0129025Y006995
X0140589Y00689356
X014224Y00662432
X01432306Y00657352
X0146575Y00668
X0144275Y00609
X014295Y0060675
X014115Y0062225
X01372Y00638055
X01368552Y00597408
X01378966Y00581406
X0135475Y005815
X01347Y00569
X0135475Y0055737
X013715Y005485
X0141969
X0143575
X014295Y0056425
X0145225Y0055725
Y0058125
X01454856Y0058958
X0149825Y0059725
X0150575Y00591
X0151425Y005935
X0152124Y0057825
X01521693Y00567871
X015215Y00534816
X0150375Y00529
X01485Y005615
X01458112Y0053475
X0144369Y0052294
X01439Y00512
X0145225Y0049025
X014085Y0049525
X0138025Y0047925
X0131475Y00513
X01303814Y00525026
X0131826Y00550672
X01522984Y00642112
X01554226Y00640588
X0157825Y0066075
X01584198Y00693674
X0156125Y0081125
X01539073Y0083606
Y0084575
X01528878Y00845754
Y0083606
X015288Y00855669
X01519085
Y00846004
X0150325Y0084575
X015035Y00832
X0148555Y00836426
X01473694
Y00849636
X0148555Y0085
X01484126Y00822695
X01474046
X01474354Y00811102
X01484434
X01494514
X0149412Y00797371
X0148404
X0147396
X0146388
X014538
X01454194Y00811102
X01464274
X01458112Y0083225
X014442Y00836426
X01443806Y00822695
X01400873Y008275
Y0084025
Y0081475
X01344657Y00814514
X0150325Y00871
T02
X016105Y006465
Y006965
T03
X01592Y00541
X015725Y00521
X0155075Y005045
X0152675Y0049025
X0150275Y0047725
X01476081Y0046775
X01359468Y00473
X0133675Y00483619
X0131625Y0049675
X0129775Y0051269
X0127875Y0053075
X012625Y005515
X01246629Y00572
X01234579Y00595
X0122775Y00618353
X0128185Y0061475
X0130725
X0133265Y0061475
Y0064015
X0130725Y0064015
X0128185Y0064015
X015595Y0077575
X015849
X014695Y00875
X01389634Y00877316
X01364234Y00873506
T04
X016375Y006365
Y007065
T05
X01427794Y0046775
Y00869937
M30
