M48
;Layer_Color=9474304
;FILE_FORMAT=4:4
METRIC,LZ
T6F00S00C5.0800
%
G90
G05
T06
G00X0144754Y00415092
M15
G01X01464175Y00416785
G01X01480662Y00419562
G01X01496934Y00423412
G01X01512918Y00428317
G01X01528547Y00434258
G01X01543754Y00441208
G01X01558475Y00449138
G01X01572644Y00458013
G01X01586204Y00467797
G01X01599094Y00478446
G01X0161126Y00489915
G01X0162265Y00502156
G01X01633215Y00515115
G01X0164291Y00528738
G01X01651693Y00542965
G01X01659527Y00557736
G01X01666378Y00572988
G01X01672217Y00588656
G01X01677018Y00604672
G01X01680762Y00620968
G01X01683432Y00637473
G01X01685017Y00654118
G01X0168551Y00670831
G01X01684908Y0068754
G01X01683215Y00704175
G01X01680438Y00720663
G01X01676588Y00736934
G01X01671683Y00752918
G01X01665742Y00768547
G01X01658792Y00783754
G01X01650862Y00798475
G01X01641987Y00812644
G01X01632204Y00826204
G01X01621554Y00839094
G01X01610085Y0085126
G01X01597844Y0086265
G01X01584885Y00873215
G01X01571262Y0088291
G01X01557035Y00891693
G01X01542264Y00899527
G01X01527012Y00906378
G01X01511344Y00912217
G01X01495328Y00917018
G01X01479032Y00920762
G01X01462527Y00923432
G01X01445882Y00925017
G01X01429169Y0092551
G01X0141246Y00924908
G01X01395825Y00923215
G01X01379338Y00920438
G01X01363066Y00916588
G01X01347082Y00911683
G01X01331453Y00905742
G01X01316246Y00898792
G01X01301525Y00890862
G01X01287356Y00881987
G01X01273796Y00872204
G01X01260906Y00861554
G01X0124874Y00850085
G01X0123735Y00837844
G01X01226785Y00824885
G01X0121709Y00811262
G01X01208307Y00797035
G01X01200473Y00782264
G01X01193622Y00767012
G01X01187783Y00751344
G01X01182982Y00735328
G01X01179238Y00719032
G01X01176568Y00702527
G01X01174983Y00685882
G01X0117449Y00669169
G01X01175092Y0065246
G01X01176785Y00635825
G01X01179562Y00619337
G01X01183412Y00603066
G01X01188317Y00587082
G01X01194258Y00571453
G01X01201208Y00556246
G01X01209138Y00541525
G01X01218013Y00527356
G01X01227796Y00513796
G01X01238446Y00500906
G01X01249915Y0048874
G01X01262156Y0047735
G01X01275115Y00466785
G01X01288738Y0045709
G01X01302965Y00448307
G01X01317736Y00440473
G01X01332988Y00433622
G01X01348656Y00427783
G01X01364672Y00422982
G01X01380968Y00419238
G01X01397473Y00416568
G01X01414118Y00414983
G01X01430831Y0041449
G01X0144754Y00415092
M16
M17
M30
