G04*
G04 #@! TF.GenerationSoftware,Altium Limited,Altium Designer,20.0.9 (164)*
G04*
G04 Layer_Physical_Order=2*
G04 Layer_Color=16711680*
%FSLAX25Y25*%
%MOIN*%
G70*
G01*
G75*
%ADD12C,0.01575*%
%ADD35R,0.04055X0.07362*%
%ADD36R,0.06890X0.06693*%
%ADD40R,0.04134X0.07087*%
%ADD47R,0.06791X0.06791*%
%ADD48C,0.06791*%
%ADD49C,0.05709*%
%ADD50C,0.07087*%
G04:AMPARAMS|DCode=51|XSize=70.87mil|YSize=70.87mil|CornerRadius=8.86mil|HoleSize=0mil|Usage=FLASHONLY|Rotation=270.000|XOffset=0mil|YOffset=0mil|HoleType=Round|Shape=RoundedRectangle|*
%AMROUNDEDRECTD51*
21,1,0.07087,0.05315,0,0,270.0*
21,1,0.05315,0.07087,0,0,270.0*
1,1,0.01772,-0.02657,-0.02657*
1,1,0.01772,-0.02657,0.02657*
1,1,0.01772,0.02657,0.02657*
1,1,0.01772,0.02657,-0.02657*
%
%ADD51ROUNDEDRECTD51*%
G04:AMPARAMS|DCode=52|XSize=70.87mil|YSize=70.87mil|CornerRadius=8.86mil|HoleSize=0mil|Usage=FLASHONLY|Rotation=180.000|XOffset=0mil|YOffset=0mil|HoleType=Round|Shape=RoundedRectangle|*
%AMROUNDEDRECTD52*
21,1,0.07087,0.05315,0,0,180.0*
21,1,0.05315,0.07087,0,0,180.0*
1,1,0.01772,-0.02657,0.02657*
1,1,0.01772,0.02657,0.02657*
1,1,0.01772,0.02657,-0.02657*
1,1,0.01772,-0.02657,-0.02657*
%
%ADD52ROUNDEDRECTD52*%
%ADD53C,0.01378*%
%ADD54C,0.03937*%
%ADD55C,0.01575*%
%ADD56R,0.03347X0.13504*%
%ADD57R,0.02559X0.07284*%
%ADD58R,0.03000X0.05000*%
%ADD59R,0.10512X0.10000*%
%ADD60R,0.07362X0.04055*%
%ADD61R,0.07087X0.04134*%
G04:AMPARAMS|DCode=62|XSize=78.74mil|YSize=15.75mil|CornerRadius=0mil|HoleSize=0mil|Usage=FLASHONLY|Rotation=45.000|XOffset=0mil|YOffset=0mil|HoleType=Round|Shape=Rectangle|*
%AMROTATEDRECTD62*
4,1,4,-0.02227,-0.03341,-0.03341,-0.02227,0.02227,0.03341,0.03341,0.02227,-0.02227,-0.03341,0.0*
%
%ADD62ROTATEDRECTD62*%

G36*
X18692Y10424D02*
X19080Y10164D01*
X18987Y9990D01*
X18521Y10183D01*
X17480Y10320D01*
X16440Y10183D01*
X15470Y9781D01*
X14637Y9142D01*
X13998Y8309D01*
X13803Y7837D01*
X13610Y7876D01*
Y15249D01*
X13792Y15324D01*
X18692Y10424D01*
D02*
G37*
G36*
X19685Y10012D02*
X25524D01*
X25562Y9819D01*
X25470Y9781D01*
X24637Y9142D01*
X23998Y8309D01*
X23597Y7340D01*
X23460Y6299D01*
X23597Y5259D01*
X23998Y4289D01*
X24387Y3782D01*
X23585Y2980D01*
X20009D01*
X19945Y3166D01*
X20323Y3456D01*
X20962Y4289D01*
X21364Y5259D01*
X21501Y6299D01*
X21364Y7340D01*
X20962Y8309D01*
X20323Y9142D01*
X19491Y9781D01*
X19169Y9914D01*
X19227Y10103D01*
X19685Y10012D01*
D02*
G37*
G36*
X157087Y394D02*
X25218Y394D01*
X25174Y540D01*
X25170Y591D01*
X26931Y2351D01*
X27480Y2279D01*
X28521Y2416D01*
X29491Y2817D01*
X30323Y3456D01*
X30962Y4289D01*
X31364Y5259D01*
X31501Y6299D01*
X31364Y7340D01*
X30962Y8309D01*
X30323Y9142D01*
X29491Y9781D01*
X29399Y9819D01*
X29437Y10012D01*
X31780D01*
X33847Y7945D01*
X33597Y7340D01*
X33460Y6299D01*
X33597Y5259D01*
X33998Y4289D01*
X34637Y3456D01*
X35470Y2817D01*
X36440Y2416D01*
X37480Y2279D01*
X38521Y2416D01*
X39491Y2817D01*
X40323Y3456D01*
X40962Y4289D01*
X41364Y5259D01*
X41501Y6299D01*
X41364Y7340D01*
X40962Y8309D01*
X40323Y9142D01*
X39491Y9781D01*
X38521Y10183D01*
X37480Y10320D01*
X36440Y10183D01*
X35834Y9932D01*
X33488Y12278D01*
X33570Y12475D01*
X104331D01*
X104830Y12574D01*
X105253Y12857D01*
X120804Y28408D01*
X120960Y28642D01*
X123917D01*
Y36909D01*
X118602D01*
Y33982D01*
X117827D01*
X117323Y34082D01*
X116785Y33975D01*
X116329Y33671D01*
X116025Y33215D01*
X115918Y32677D01*
X116025Y32140D01*
X116329Y31684D01*
X116785Y31379D01*
X117323Y31272D01*
X117827Y31373D01*
X118577D01*
Y29871D01*
X103790Y15084D01*
X99863D01*
X99788Y15266D01*
X111983Y27461D01*
X112411Y27747D01*
X112715Y28203D01*
X112822Y28740D01*
X112715Y29278D01*
X112411Y29734D01*
X111955Y30038D01*
X111417Y30145D01*
X110880Y30038D01*
X110424Y29734D01*
X110138Y29306D01*
X97786Y16954D01*
X61182D01*
X61107Y17136D01*
X61859Y17888D01*
X65059D01*
X65185Y17913D01*
X69095D01*
Y26181D01*
X63779D01*
Y20497D01*
X61319D01*
X60820Y20398D01*
X60396Y20115D01*
X59007Y18726D01*
X57284D01*
Y26181D01*
X51968D01*
Y24927D01*
X49596D01*
Y26280D01*
X49481Y26856D01*
X49155Y27344D01*
X48667Y27670D01*
X48091Y27785D01*
X42776D01*
X42200Y27670D01*
X41711Y27344D01*
X41385Y26856D01*
X41270Y26280D01*
Y20965D01*
X41385Y20389D01*
X41711Y19900D01*
X42200Y19574D01*
X42776Y19459D01*
X48091D01*
X48667Y19574D01*
X49155Y19900D01*
X49481Y20389D01*
X49596Y20965D01*
Y22317D01*
X51968D01*
Y18726D01*
X42174D01*
X39137Y21763D01*
X39461Y22543D01*
X39603Y23622D01*
X39461Y24701D01*
X39044Y25707D01*
X38381Y26570D01*
X37518Y27233D01*
X36512Y27650D01*
X35433Y27792D01*
X34354Y27650D01*
X33348Y27233D01*
X32485Y26570D01*
X31822Y25707D01*
X31406Y24701D01*
X31264Y23622D01*
X31406Y22543D01*
X31822Y21537D01*
X32485Y20674D01*
X33348Y20011D01*
X33371Y20002D01*
X33333Y19808D01*
X29436D01*
X25456Y23788D01*
Y37659D01*
X25357Y38158D01*
X25074Y38582D01*
X22831Y40824D01*
X23137Y41222D01*
X23553Y42228D01*
X23695Y43307D01*
X23553Y44386D01*
X23137Y45392D01*
X22474Y46255D01*
X21611Y46918D01*
X20605Y47335D01*
X19526Y47477D01*
X18447Y47335D01*
X17441Y46918D01*
X16578Y46255D01*
X15915Y45392D01*
X15498Y44386D01*
X15356Y43307D01*
X15498Y42228D01*
X15915Y41222D01*
X16578Y40359D01*
X17441Y39696D01*
X18447Y39280D01*
X19526Y39138D01*
X20605Y39280D01*
X20663Y39303D01*
X22847Y37119D01*
Y23248D01*
X22947Y22749D01*
X23229Y22326D01*
X27912Y17643D01*
X27830Y17446D01*
X26882D01*
X26378Y17547D01*
X25840Y17440D01*
X25385Y17135D01*
X25080Y16679D01*
X24973Y16142D01*
X25080Y15604D01*
X25296Y15281D01*
X25191Y15084D01*
X21480D01*
X5242Y31322D01*
Y32671D01*
X5438Y32683D01*
X5498Y32228D01*
X5915Y31222D01*
X6578Y30359D01*
X7441Y29696D01*
X8447Y29280D01*
X9526Y29138D01*
X10605Y29280D01*
X11611Y29696D01*
X12474Y30359D01*
X13137Y31222D01*
X13553Y32228D01*
X13695Y33307D01*
X13553Y34386D01*
X13137Y35392D01*
X12474Y36255D01*
X11611Y36918D01*
X10605Y37334D01*
X9526Y37477D01*
X8447Y37334D01*
X7441Y36918D01*
X6578Y36255D01*
X5915Y35392D01*
X5498Y34386D01*
X5438Y33931D01*
X5242Y33944D01*
Y37178D01*
X7666Y39603D01*
X8447Y39280D01*
X9526Y39138D01*
X10605Y39280D01*
X11611Y39696D01*
X12474Y40359D01*
X13137Y41222D01*
X13553Y42228D01*
X13695Y43307D01*
X13553Y44386D01*
X13137Y45392D01*
X12474Y46255D01*
X11611Y46918D01*
X10605Y47335D01*
X9526Y47477D01*
X8447Y47335D01*
X7441Y46918D01*
X6578Y46255D01*
X5915Y45392D01*
X5498Y44386D01*
X5356Y43307D01*
X5498Y42228D01*
X5822Y41448D01*
X3015Y38641D01*
X2732Y38217D01*
X2632Y37718D01*
Y30782D01*
X2732Y30283D01*
X3015Y29860D01*
X14785Y18089D01*
X14692Y17916D01*
X14567Y17940D01*
X14029Y17833D01*
X13783Y17669D01*
X13610Y17762D01*
Y17852D01*
X13503Y18390D01*
X13198Y18846D01*
X12742Y19150D01*
X12205Y19257D01*
X11667Y19150D01*
X11211Y18846D01*
X10907Y18390D01*
X10800Y17852D01*
Y10285D01*
X3494D01*
Y2313D01*
X11467D01*
Y2825D01*
X11648Y2900D01*
X13958Y591D01*
X13955Y540D01*
X13910Y394D01*
X394D01*
Y112205D01*
X157087D01*
Y394D01*
D02*
G37*
%LPC*%
G36*
X11467Y110285D02*
X3494D01*
Y102313D01*
X11467D01*
Y110285D01*
D02*
G37*
G36*
X137480Y110320D02*
X136440Y110183D01*
X135470Y109781D01*
X134637Y109142D01*
X133998Y108309D01*
X133597Y107340D01*
X133460Y106299D01*
X133597Y105259D01*
X133998Y104289D01*
X134637Y103456D01*
X134645Y103333D01*
X130058Y98746D01*
X115945D01*
X115446Y98646D01*
X115022Y98363D01*
X114038Y97379D01*
X113755Y96956D01*
X113656Y96457D01*
Y88336D01*
X110286Y84966D01*
X101772D01*
X101272Y84867D01*
X100849Y84584D01*
X98093Y81828D01*
X97811Y81405D01*
X97711Y80905D01*
Y67815D01*
X97811Y67316D01*
X98093Y66892D01*
X99215Y65770D01*
X99639Y65488D01*
X100138Y65388D01*
X100185D01*
X100453Y65335D01*
Y64626D01*
X108996D01*
Y69862D01*
X100453D01*
X100320Y70004D01*
Y80365D01*
X102312Y82357D01*
X110827D01*
X111326Y82456D01*
X111749Y82739D01*
X115883Y86873D01*
X116166Y87296D01*
X116265Y87795D01*
Y95916D01*
X116485Y96136D01*
X118185D01*
X118327Y96004D01*
X118327Y95939D01*
Y87461D01*
X123563D01*
Y95939D01*
X123563Y96004D01*
X123705Y96136D01*
X130598D01*
X131097Y96236D01*
X131520Y96518D01*
X137304Y102302D01*
X137480Y102279D01*
X138521Y102416D01*
X139491Y102817D01*
X140323Y103456D01*
X140962Y104289D01*
X141364Y105259D01*
X141501Y106299D01*
X141364Y107340D01*
X140962Y108309D01*
X140323Y109142D01*
X139491Y109781D01*
X138521Y110183D01*
X137480Y110320D01*
D02*
G37*
G36*
X117480D02*
X116440Y110183D01*
X115470Y109781D01*
X114637Y109142D01*
X113998Y108309D01*
X113597Y107340D01*
X113460Y106299D01*
X113597Y105259D01*
X113998Y104289D01*
X114637Y103456D01*
X115470Y102817D01*
X116440Y102416D01*
X117480Y102279D01*
X118521Y102416D01*
X119491Y102817D01*
X120323Y103456D01*
X120962Y104289D01*
X121364Y105259D01*
X121501Y106299D01*
X121364Y107340D01*
X120962Y108309D01*
X120323Y109142D01*
X119491Y109781D01*
X118521Y110183D01*
X117480Y110320D01*
D02*
G37*
G36*
X107480D02*
X106440Y110183D01*
X105470Y109781D01*
X104637Y109142D01*
X103998Y108309D01*
X103597Y107340D01*
X103460Y106299D01*
X103597Y105259D01*
X103998Y104289D01*
X104637Y103456D01*
X105470Y102817D01*
X106440Y102416D01*
X107480Y102279D01*
X108521Y102416D01*
X109491Y102817D01*
X110323Y103456D01*
X110962Y104289D01*
X111364Y105259D01*
X111501Y106299D01*
X111364Y107340D01*
X110962Y108309D01*
X110323Y109142D01*
X109491Y109781D01*
X108521Y110183D01*
X107480Y110320D01*
D02*
G37*
G36*
X97480D02*
X96440Y110183D01*
X95470Y109781D01*
X94637Y109142D01*
X93998Y108309D01*
X93597Y107340D01*
X93460Y106299D01*
X93597Y105259D01*
X93998Y104289D01*
X94637Y103456D01*
X95470Y102817D01*
X96440Y102416D01*
X97480Y102279D01*
X98521Y102416D01*
X99491Y102817D01*
X100323Y103456D01*
X100962Y104289D01*
X101364Y105259D01*
X101501Y106299D01*
X101364Y107340D01*
X100962Y108309D01*
X100323Y109142D01*
X99491Y109781D01*
X98521Y110183D01*
X97480Y110320D01*
D02*
G37*
G36*
X87480D02*
X86440Y110183D01*
X85470Y109781D01*
X84637Y109142D01*
X83998Y108309D01*
X83597Y107340D01*
X83460Y106299D01*
X83597Y105259D01*
X83998Y104289D01*
X84637Y103456D01*
X85470Y102817D01*
X86440Y102416D01*
X87480Y102279D01*
X88521Y102416D01*
X89491Y102817D01*
X90323Y103456D01*
X90962Y104289D01*
X91364Y105259D01*
X91501Y106299D01*
X91364Y107340D01*
X90962Y108309D01*
X90323Y109142D01*
X89491Y109781D01*
X88521Y110183D01*
X87480Y110320D01*
D02*
G37*
G36*
X77480D02*
X76440Y110183D01*
X75470Y109781D01*
X74637Y109142D01*
X73998Y108309D01*
X73597Y107340D01*
X73460Y106299D01*
X73597Y105259D01*
X73998Y104289D01*
X74637Y103456D01*
X75470Y102817D01*
X76440Y102416D01*
X77480Y102279D01*
X78521Y102416D01*
X79491Y102817D01*
X80323Y103456D01*
X80962Y104289D01*
X81364Y105259D01*
X81501Y106299D01*
X81364Y107340D01*
X80962Y108309D01*
X80323Y109142D01*
X79491Y109781D01*
X78521Y110183D01*
X77480Y110320D01*
D02*
G37*
G36*
X67480D02*
X66440Y110183D01*
X65470Y109781D01*
X64637Y109142D01*
X63998Y108309D01*
X63597Y107340D01*
X63460Y106299D01*
X63597Y105259D01*
X63998Y104289D01*
X64637Y103456D01*
X65470Y102817D01*
X66440Y102416D01*
X67480Y102279D01*
X68521Y102416D01*
X69491Y102817D01*
X70323Y103456D01*
X70962Y104289D01*
X71364Y105259D01*
X71501Y106299D01*
X71364Y107340D01*
X70962Y108309D01*
X70323Y109142D01*
X69491Y109781D01*
X68521Y110183D01*
X67480Y110320D01*
D02*
G37*
G36*
X73799Y95472D02*
X70059D01*
Y87008D01*
X73799D01*
Y95472D01*
D02*
G37*
G36*
X68799D02*
X65059D01*
Y87008D01*
X68799D01*
Y95472D01*
D02*
G37*
G36*
X63799D02*
X60059D01*
Y87008D01*
X63799D01*
Y95472D01*
D02*
G37*
G36*
X48799D02*
X45059D01*
Y87008D01*
X48799D01*
Y95472D01*
D02*
G37*
G36*
X83799D02*
X80059D01*
Y87008D01*
X80879D01*
Y84644D01*
X80985Y84106D01*
X81290Y83650D01*
X81309Y83631D01*
X81765Y83327D01*
X82302Y83220D01*
X82840Y83327D01*
X83296Y83631D01*
X83600Y84087D01*
X83707Y84625D01*
X83688Y84720D01*
Y87008D01*
X83799D01*
Y95472D01*
D02*
G37*
G36*
X78799D02*
X75059D01*
Y87008D01*
X75524D01*
Y83810D01*
X75009Y83295D01*
X74803D01*
X74265Y83188D01*
X73810Y82883D01*
X73505Y82427D01*
X73398Y81890D01*
X73505Y81352D01*
X73810Y80896D01*
X74265Y80592D01*
X74803Y80485D01*
X75590D01*
X76128Y80592D01*
X76584Y80896D01*
X77923Y82235D01*
X78227Y82691D01*
X78334Y83228D01*
Y87008D01*
X78799D01*
Y95472D01*
D02*
G37*
G36*
X147480Y110320D02*
X146440Y110183D01*
X145470Y109781D01*
X144637Y109142D01*
X143998Y108309D01*
X143597Y107340D01*
X143460Y106299D01*
X143597Y105259D01*
X143998Y104289D01*
X144588Y103520D01*
X133723Y92655D01*
X133440Y92232D01*
X133341Y91732D01*
Y74090D01*
X133144Y74071D01*
X133095Y74318D01*
X132812Y74741D01*
X131004Y76550D01*
Y80905D01*
X127517D01*
X127436Y81102D01*
X129663Y83329D01*
X129945Y83753D01*
X130045Y84252D01*
Y85631D01*
X130145Y86135D01*
X130038Y86673D01*
X129734Y87129D01*
X129278Y87433D01*
X128740Y87540D01*
X128202Y87433D01*
X127747Y87129D01*
X127442Y86673D01*
X127335Y86135D01*
X127436Y85631D01*
Y84792D01*
X125838Y83194D01*
X113423D01*
X112923Y83095D01*
X112500Y82812D01*
X111676Y81988D01*
X111393Y81565D01*
X111294Y81066D01*
Y78265D01*
X111097Y78103D01*
X110728Y78177D01*
X110191Y78070D01*
X109735Y77765D01*
X109430Y77309D01*
X109323Y76772D01*
Y66929D01*
X109430Y66391D01*
X109735Y65936D01*
X110191Y65631D01*
X110728Y65524D01*
X111097Y65597D01*
X111294Y65436D01*
Y61565D01*
X110889Y61160D01*
X110606Y60737D01*
X110506Y60237D01*
Y56515D01*
X110310Y56433D01*
X109844Y56899D01*
X109388Y57204D01*
X108850Y57310D01*
X96850D01*
X96313Y57204D01*
X95857Y56899D01*
X95552Y56443D01*
X95445Y55905D01*
X95552Y55368D01*
X95768Y55045D01*
X95663Y54848D01*
X94148D01*
X94077Y54834D01*
X93996Y54850D01*
X93458Y54743D01*
X93003Y54438D01*
X92698Y53983D01*
X92591Y53445D01*
X92698Y52907D01*
X93003Y52451D01*
X93458Y52147D01*
X93996Y52040D01*
X94534Y52147D01*
X94671Y52239D01*
X100453D01*
Y49823D01*
X108996D01*
Y53671D01*
X109193Y53802D01*
X109638Y53713D01*
X109744D01*
X110282Y53820D01*
X110333Y53854D01*
X110506Y53762D01*
Y48572D01*
X108318Y46383D01*
X103749D01*
X103738Y46395D01*
X103315Y46678D01*
X102815Y46777D01*
X99016D01*
Y49606D01*
X93701D01*
Y49474D01*
X93589Y49440D01*
X93504Y49423D01*
X93084Y49704D01*
X92250Y50538D01*
Y54578D01*
X96592Y58920D01*
X96875Y59343D01*
X96974Y59842D01*
Y97638D01*
X96875Y98137D01*
X96592Y98560D01*
X94630Y100522D01*
X94206Y100805D01*
X93707Y100905D01*
X86686D01*
X86655Y100911D01*
X63926D01*
X60782Y104055D01*
X60962Y104289D01*
X61364Y105259D01*
X61501Y106299D01*
X61364Y107340D01*
X60962Y108309D01*
X60323Y109142D01*
X59491Y109781D01*
X58521Y110183D01*
X57480Y110320D01*
X56440Y110183D01*
X55470Y109781D01*
X54637Y109142D01*
X53998Y108309D01*
X53597Y107340D01*
X53460Y106299D01*
X53597Y105259D01*
X53998Y104289D01*
X54637Y103456D01*
X55470Y102817D01*
X56440Y102416D01*
X57480Y102279D01*
X58521Y102416D01*
X58670Y102477D01*
X62220Y98927D01*
X62144Y98746D01*
X52941D01*
X49176Y102510D01*
X49215Y102703D01*
X49491Y102817D01*
X50323Y103456D01*
X50962Y104289D01*
X51364Y105259D01*
X51501Y106299D01*
X51364Y107340D01*
X50962Y108309D01*
X50323Y109142D01*
X49491Y109781D01*
X48521Y110183D01*
X47480Y110320D01*
X46440Y110183D01*
X45470Y109781D01*
X44637Y109142D01*
X43998Y108309D01*
X43597Y107340D01*
X43460Y106299D01*
X43597Y105259D01*
X43998Y104289D01*
X44637Y103456D01*
X45470Y102817D01*
X46176Y102525D01*
Y102361D01*
X46275Y101862D01*
X46558Y101439D01*
X51478Y96518D01*
X51901Y96236D01*
X52400Y96136D01*
X87551D01*
X87848Y96195D01*
X88389D01*
X88494Y95999D01*
X88491Y95983D01*
X88369Y95861D01*
X88086Y95437D01*
X87987Y94938D01*
Y87690D01*
X80574Y80277D01*
X80291Y79854D01*
X80191Y79355D01*
Y78738D01*
X79995Y78618D01*
X79528Y78711D01*
X78990Y78604D01*
X78534Y78299D01*
X78230Y77843D01*
X78123Y77306D01*
X78223Y76801D01*
Y75848D01*
X78041Y75772D01*
X72576Y81237D01*
X72153Y81520D01*
X71653Y81620D01*
X45422D01*
X44952Y82090D01*
X45045Y82263D01*
X45079Y82257D01*
X52786D01*
X53324Y82363D01*
X53779Y82668D01*
X55360Y84249D01*
X55664Y84704D01*
X55771Y85242D01*
Y86135D01*
X55664Y86673D01*
X55557Y86834D01*
X55649Y87008D01*
X58799D01*
Y95472D01*
X55059D01*
Y87549D01*
X54862Y87442D01*
X54366Y87540D01*
X53996Y87467D01*
X53799Y87628D01*
Y95472D01*
X50059D01*
Y91395D01*
X49907Y91293D01*
X49602Y90838D01*
X49495Y90300D01*
X49602Y89762D01*
X49907Y89307D01*
X50059Y89205D01*
Y87008D01*
X53083D01*
X53176Y86834D01*
X53068Y86673D01*
X52961Y86135D01*
Y85824D01*
X52204Y85066D01*
X45661D01*
X41012Y89715D01*
Y98819D01*
X40905Y99357D01*
X40600Y99812D01*
X38994Y101419D01*
Y102612D01*
X39491Y102817D01*
X40323Y103456D01*
X40962Y104289D01*
X41364Y105259D01*
X41501Y106299D01*
X41364Y107340D01*
X40962Y108309D01*
X40323Y109142D01*
X39491Y109781D01*
X38521Y110183D01*
X37480Y110320D01*
X36440Y110183D01*
X35470Y109781D01*
X34637Y109142D01*
X33998Y108309D01*
X33597Y107340D01*
X33460Y106299D01*
X33597Y105259D01*
X33998Y104289D01*
X34637Y103456D01*
X35470Y102817D01*
X36184Y102521D01*
Y100837D01*
X36291Y100299D01*
X36596Y99843D01*
X38202Y98237D01*
Y89133D01*
X38209Y89100D01*
X38035Y89007D01*
X28785Y98257D01*
Y102525D01*
X29491Y102817D01*
X30323Y103456D01*
X30962Y104289D01*
X31364Y105259D01*
X31501Y106299D01*
X31364Y107340D01*
X30962Y108309D01*
X30323Y109142D01*
X29491Y109781D01*
X28521Y110183D01*
X27480Y110320D01*
X26440Y110183D01*
X25470Y109781D01*
X24637Y109142D01*
X23998Y108309D01*
X23597Y107340D01*
X23460Y106299D01*
X23597Y105259D01*
X23998Y104289D01*
X24637Y103456D01*
X25470Y102817D01*
X26176Y102525D01*
Y98942D01*
X7479D01*
X6980Y98843D01*
X6556Y98560D01*
X3015Y95018D01*
X2732Y94595D01*
X2632Y94096D01*
Y48142D01*
X2532Y47638D01*
X2639Y47100D01*
X2944Y46644D01*
X3399Y46340D01*
X3937Y46233D01*
X4475Y46340D01*
X4930Y46644D01*
X5235Y47100D01*
X5342Y47638D01*
X5242Y48142D01*
Y50251D01*
X5438Y50271D01*
X5478Y50074D01*
X5804Y49585D01*
X6292Y49259D01*
X6868Y49144D01*
X12183D01*
X12759Y49259D01*
X13248Y49585D01*
X13574Y50074D01*
X13689Y50650D01*
Y55965D01*
X13574Y56541D01*
X13374Y56841D01*
Y58631D01*
X15936Y61194D01*
X41634D01*
X42171Y61300D01*
X42627Y61605D01*
X46251Y65229D01*
X58009D01*
X59835Y63403D01*
X59760Y63200D01*
X59338Y63116D01*
X55512D01*
X55013Y63016D01*
X54589Y62734D01*
X51007Y59151D01*
X50724Y58728D01*
X50711Y58661D01*
X50059D01*
Y50197D01*
X53799D01*
Y58254D01*
X56052Y60506D01*
X59338D01*
X59842Y60406D01*
X60358Y60509D01*
X60419Y60494D01*
X60555Y60421D01*
Y58661D01*
X60059D01*
Y50197D01*
X62168D01*
X64075Y48290D01*
X64498Y48007D01*
X64997Y47908D01*
X66170D01*
X75171Y38908D01*
X71632Y35369D01*
X71447Y35245D01*
X71324Y35061D01*
X69064Y32801D01*
X70856Y31009D01*
X70841Y30994D01*
X70558Y30571D01*
X70459Y30071D01*
Y29281D01*
X70277Y29206D01*
X68824Y30659D01*
Y43736D01*
X68725Y44235D01*
X68442Y44658D01*
X65879Y47222D01*
X65456Y47504D01*
X64956Y47604D01*
X60122D01*
X58234Y49492D01*
Y50197D01*
X58799D01*
Y58661D01*
X55059D01*
Y50197D01*
X55625D01*
Y48951D01*
X55724Y48452D01*
X56007Y48029D01*
X58440Y45595D01*
X58365Y45413D01*
X56949D01*
Y45106D01*
X55591D01*
X55492Y45125D01*
X55453D01*
Y47579D01*
X46909D01*
Y46287D01*
X44676D01*
X42350Y48614D01*
Y48917D01*
X45079D01*
Y50170D01*
X46437D01*
X46573Y50197D01*
X48799D01*
Y56246D01*
X48936Y56450D01*
X49043Y56988D01*
X48936Y57526D01*
X48799Y57730D01*
Y58661D01*
X45059D01*
Y54232D01*
X36811D01*
Y52881D01*
X35128D01*
Y54035D01*
X26860D01*
Y53747D01*
X23637D01*
X23553Y54386D01*
X23137Y55392D01*
X22474Y56255D01*
X21611Y56918D01*
X20605Y57335D01*
X19526Y57477D01*
X18447Y57335D01*
X17441Y56918D01*
X16578Y56255D01*
X15915Y55392D01*
X15498Y54386D01*
X15356Y53307D01*
X15498Y52228D01*
X15915Y51222D01*
X16578Y50359D01*
X17441Y49696D01*
X18447Y49280D01*
X19526Y49138D01*
X20605Y49280D01*
X21611Y49696D01*
X22474Y50359D01*
X22918Y50938D01*
X26860D01*
Y48720D01*
X34422D01*
Y42224D01*
X26860D01*
Y36909D01*
X34422D01*
Y34345D01*
X34529Y33807D01*
X34833Y33351D01*
X36838Y31346D01*
X37294Y31041D01*
X37832Y30935D01*
X38681D01*
Y28150D01*
X43996D01*
Y36417D01*
X38681D01*
Y33744D01*
X38414D01*
X37232Y34927D01*
Y37106D01*
X45079D01*
Y42421D01*
X37232D01*
Y48917D01*
X39540D01*
Y48031D01*
X39647Y47494D01*
X39951Y47038D01*
X43101Y43888D01*
X43557Y43584D01*
X44094Y43477D01*
X46909D01*
Y42342D01*
X52285D01*
X52421Y42316D01*
X55413D01*
X55512Y42296D01*
X56949D01*
Y40177D01*
X62677D01*
Y39757D01*
X62784Y39219D01*
X63088Y38763D01*
X64656Y37196D01*
X65112Y36891D01*
X65650Y36784D01*
X66018Y36857D01*
X66215Y36696D01*
Y30118D01*
X66314Y29619D01*
X66597Y29196D01*
X70650Y25143D01*
Y24203D01*
X70749Y23704D01*
X71032Y23281D01*
X75353Y18959D01*
X75777Y18677D01*
X76276Y18577D01*
X96260D01*
X96759Y18677D01*
X97182Y18959D01*
X103322Y25099D01*
X103749Y25385D01*
X104054Y25840D01*
X104161Y26378D01*
X104054Y26916D01*
X103749Y27371D01*
X103294Y27676D01*
X102756Y27783D01*
X102218Y27676D01*
X101762Y27371D01*
X101477Y26944D01*
X95719Y21186D01*
X95336D01*
X95261Y21368D01*
X103690Y29798D01*
X108819D01*
X109318Y29897D01*
X109741Y30180D01*
X111589Y32028D01*
X112017Y32314D01*
X112322Y32769D01*
X112429Y33307D01*
X112322Y33845D01*
X112017Y34301D01*
X111561Y34605D01*
X111024Y34712D01*
X110486Y34605D01*
X110030Y34301D01*
X109744Y33873D01*
X108279Y32407D01*
X103150D01*
X102650Y32308D01*
X102227Y32025D01*
X101771Y31569D01*
X101590Y31666D01*
X101662Y32027D01*
X101555Y32565D01*
X101250Y33020D01*
X100794Y33325D01*
X100257Y33432D01*
X99719Y33325D01*
X99682Y33300D01*
X99508Y33393D01*
Y35014D01*
X107023D01*
X107522Y35114D01*
X107946Y35396D01*
X114505Y41956D01*
X114788Y42379D01*
X114855Y42717D01*
X122146D01*
Y44072D01*
X125886D01*
Y42717D01*
X131970D01*
X133812Y40875D01*
Y38996D01*
X133918Y38458D01*
X134223Y38003D01*
X135134Y37091D01*
X135059Y36909D01*
X130413D01*
Y33341D01*
X130395Y33313D01*
X130288Y32776D01*
X130395Y32238D01*
X130413Y32210D01*
Y28642D01*
X135728D01*
Y36240D01*
X135910Y36316D01*
X136476Y35749D01*
Y29193D01*
X141713D01*
Y37736D01*
X138463D01*
X136621Y39578D01*
Y41457D01*
X136514Y41994D01*
X136210Y42450D01*
X133957Y44703D01*
Y46252D01*
X134037Y46279D01*
X134153Y46285D01*
X134439Y45857D01*
X134895Y45552D01*
X135433Y45445D01*
X135970Y45552D01*
X136426Y45857D01*
X136731Y46313D01*
X136838Y46850D01*
X136731Y47388D01*
X136426Y47844D01*
X136159Y48022D01*
X135950Y48231D01*
Y52699D01*
X136139Y52756D01*
X136188Y52682D01*
X137860Y51010D01*
Y41653D01*
X149553D01*
Y52532D01*
X149812D01*
X151090Y51253D01*
Y50335D01*
X150872D01*
Y44153D01*
X155053D01*
Y50335D01*
X153900D01*
Y51836D01*
X153793Y52373D01*
X153489Y52829D01*
X151387Y54931D01*
X150931Y55235D01*
X150394Y55342D01*
X145858D01*
X144300Y56899D01*
X143845Y57204D01*
X143307Y57310D01*
X142769Y57204D01*
X142314Y56899D01*
X142009Y56443D01*
X141902Y55905D01*
X142009Y55368D01*
X142314Y54912D01*
X142314Y54912D01*
X144194Y53031D01*
X144113Y52835D01*
X140009D01*
X138488Y54356D01*
X138480Y54399D01*
X138175Y54855D01*
X138100Y54931D01*
X137644Y55235D01*
X137106Y55342D01*
X136569Y55235D01*
X136147Y54953D01*
X135950Y55014D01*
Y91192D01*
X146784Y102026D01*
X146996Y102342D01*
X147480Y102279D01*
X148521Y102416D01*
X149491Y102817D01*
X150323Y103456D01*
X150962Y104289D01*
X151364Y105259D01*
X151501Y106299D01*
X151364Y107340D01*
X150962Y108309D01*
X150323Y109142D01*
X149491Y109781D01*
X148521Y110183D01*
X147480Y110320D01*
D02*
G37*
G36*
X32185Y36417D02*
X26870D01*
Y28150D01*
X32185D01*
Y36417D01*
D02*
G37*
G36*
X147480Y10320D02*
X146440Y10183D01*
X145470Y9781D01*
X144637Y9142D01*
X143998Y8309D01*
X143597Y7340D01*
X143460Y6299D01*
X143597Y5259D01*
X143998Y4289D01*
X144637Y3456D01*
X145470Y2817D01*
X146440Y2416D01*
X147480Y2279D01*
X148521Y2416D01*
X149491Y2817D01*
X150323Y3456D01*
X150962Y4289D01*
X151364Y5259D01*
X151501Y6299D01*
X151364Y7340D01*
X150962Y8309D01*
X150323Y9142D01*
X149491Y9781D01*
X148521Y10183D01*
X147480Y10320D01*
D02*
G37*
G36*
X137480D02*
X136440Y10183D01*
X135470Y9781D01*
X134637Y9142D01*
X133998Y8309D01*
X133597Y7340D01*
X133460Y6299D01*
X133597Y5259D01*
X133998Y4289D01*
X134637Y3456D01*
X135470Y2817D01*
X136440Y2416D01*
X137480Y2279D01*
X138521Y2416D01*
X139491Y2817D01*
X140323Y3456D01*
X140962Y4289D01*
X141364Y5259D01*
X141501Y6299D01*
X141364Y7340D01*
X140962Y8309D01*
X140323Y9142D01*
X139491Y9781D01*
X138521Y10183D01*
X137480Y10320D01*
D02*
G37*
G36*
X127480D02*
X126440Y10183D01*
X125470Y9781D01*
X124637Y9142D01*
X123998Y8309D01*
X123597Y7340D01*
X123460Y6299D01*
X123597Y5259D01*
X123998Y4289D01*
X124637Y3456D01*
X125470Y2817D01*
X126440Y2416D01*
X127480Y2279D01*
X128521Y2416D01*
X129491Y2817D01*
X130323Y3456D01*
X130962Y4289D01*
X131364Y5259D01*
X131501Y6299D01*
X131364Y7340D01*
X130962Y8309D01*
X130323Y9142D01*
X129491Y9781D01*
X128521Y10183D01*
X127480Y10320D01*
D02*
G37*
G36*
X117480D02*
X116440Y10183D01*
X115470Y9781D01*
X114637Y9142D01*
X113998Y8309D01*
X113597Y7340D01*
X113460Y6299D01*
X113597Y5259D01*
X113998Y4289D01*
X114637Y3456D01*
X115470Y2817D01*
X116440Y2416D01*
X117480Y2279D01*
X118521Y2416D01*
X119491Y2817D01*
X120323Y3456D01*
X120962Y4289D01*
X121364Y5259D01*
X121501Y6299D01*
X121364Y7340D01*
X120962Y8309D01*
X120323Y9142D01*
X119491Y9781D01*
X118521Y10183D01*
X117480Y10320D01*
D02*
G37*
G36*
X107480D02*
X106440Y10183D01*
X105470Y9781D01*
X104637Y9142D01*
X103998Y8309D01*
X103597Y7340D01*
X103460Y6299D01*
X103597Y5259D01*
X103998Y4289D01*
X104637Y3456D01*
X105470Y2817D01*
X106440Y2416D01*
X107480Y2279D01*
X108521Y2416D01*
X109491Y2817D01*
X110323Y3456D01*
X110962Y4289D01*
X111364Y5259D01*
X111501Y6299D01*
X111364Y7340D01*
X110962Y8309D01*
X110323Y9142D01*
X109491Y9781D01*
X108521Y10183D01*
X107480Y10320D01*
D02*
G37*
G36*
X97480D02*
X96440Y10183D01*
X95470Y9781D01*
X94637Y9142D01*
X93998Y8309D01*
X93597Y7340D01*
X93460Y6299D01*
X93597Y5259D01*
X93998Y4289D01*
X94637Y3456D01*
X95470Y2817D01*
X96440Y2416D01*
X97480Y2279D01*
X98521Y2416D01*
X99491Y2817D01*
X100323Y3456D01*
X100962Y4289D01*
X101364Y5259D01*
X101501Y6299D01*
X101364Y7340D01*
X100962Y8309D01*
X100323Y9142D01*
X99491Y9781D01*
X98521Y10183D01*
X97480Y10320D01*
D02*
G37*
G36*
X87480D02*
X86440Y10183D01*
X85470Y9781D01*
X84637Y9142D01*
X83998Y8309D01*
X83597Y7340D01*
X83460Y6299D01*
X83597Y5259D01*
X83998Y4289D01*
X84637Y3456D01*
X85470Y2817D01*
X86440Y2416D01*
X87480Y2279D01*
X88521Y2416D01*
X89491Y2817D01*
X90323Y3456D01*
X90962Y4289D01*
X91364Y5259D01*
X91501Y6299D01*
X91364Y7340D01*
X90962Y8309D01*
X90323Y9142D01*
X89491Y9781D01*
X88521Y10183D01*
X87480Y10320D01*
D02*
G37*
G36*
X77480D02*
X76440Y10183D01*
X75470Y9781D01*
X74637Y9142D01*
X73998Y8309D01*
X73597Y7340D01*
X73460Y6299D01*
X73597Y5259D01*
X73998Y4289D01*
X74637Y3456D01*
X75470Y2817D01*
X76440Y2416D01*
X77480Y2279D01*
X78521Y2416D01*
X79491Y2817D01*
X80323Y3456D01*
X80962Y4289D01*
X81364Y5259D01*
X81501Y6299D01*
X81364Y7340D01*
X80962Y8309D01*
X80323Y9142D01*
X79491Y9781D01*
X78521Y10183D01*
X77480Y10320D01*
D02*
G37*
G36*
X67480D02*
X66440Y10183D01*
X65470Y9781D01*
X64637Y9142D01*
X63998Y8309D01*
X63597Y7340D01*
X63460Y6299D01*
X63597Y5259D01*
X63998Y4289D01*
X64637Y3456D01*
X65470Y2817D01*
X66440Y2416D01*
X67480Y2279D01*
X68521Y2416D01*
X69491Y2817D01*
X70323Y3456D01*
X70962Y4289D01*
X71364Y5259D01*
X71501Y6299D01*
X71364Y7340D01*
X70962Y8309D01*
X70323Y9142D01*
X69491Y9781D01*
X68521Y10183D01*
X67480Y10320D01*
D02*
G37*
G36*
X57480D02*
X56440Y10183D01*
X55470Y9781D01*
X54637Y9142D01*
X53998Y8309D01*
X53597Y7340D01*
X53460Y6299D01*
X53597Y5259D01*
X53998Y4289D01*
X54637Y3456D01*
X55470Y2817D01*
X56440Y2416D01*
X57480Y2279D01*
X58521Y2416D01*
X59491Y2817D01*
X60323Y3456D01*
X60962Y4289D01*
X61364Y5259D01*
X61501Y6299D01*
X61364Y7340D01*
X60962Y8309D01*
X60323Y9142D01*
X59491Y9781D01*
X58521Y10183D01*
X57480Y10320D01*
D02*
G37*
G36*
X47480D02*
X46440Y10183D01*
X45470Y9781D01*
X44637Y9142D01*
X43998Y8309D01*
X43597Y7340D01*
X43460Y6299D01*
X43597Y5259D01*
X43998Y4289D01*
X44637Y3456D01*
X45470Y2817D01*
X46440Y2416D01*
X47480Y2279D01*
X48521Y2416D01*
X49491Y2817D01*
X50323Y3456D01*
X50962Y4289D01*
X51364Y5259D01*
X51501Y6299D01*
X51364Y7340D01*
X50962Y8309D01*
X50323Y9142D01*
X49491Y9781D01*
X48521Y10183D01*
X47480Y10320D01*
D02*
G37*
%LPD*%
G36*
X37087Y86264D02*
X37012Y86083D01*
X32776D01*
Y79962D01*
X32546Y79408D01*
X32458Y78740D01*
Y75321D01*
X29671Y72534D01*
X29261Y71999D01*
X29003Y71377D01*
X28980Y71201D01*
X27224D01*
Y65965D01*
X28217D01*
X28230Y65899D01*
X28534Y65444D01*
X28990Y65139D01*
X29528Y65032D01*
X30065Y65139D01*
X30521Y65444D01*
X31042Y65965D01*
X35768D01*
Y71201D01*
X35768Y71201D01*
X35768D01*
X35853Y71362D01*
X35882Y71398D01*
X37303D01*
Y73030D01*
X37532Y73584D01*
X37620Y74252D01*
Y75268D01*
X69528D01*
X69585Y75080D01*
X69479Y75009D01*
X69174Y74553D01*
X69068Y74016D01*
X69085Y73929D01*
X68917Y73764D01*
X68504Y73846D01*
X67966Y73739D01*
X67510Y73434D01*
X67206Y72979D01*
X67099Y72441D01*
X67199Y71936D01*
Y65570D01*
X65829Y64200D01*
X65547Y63777D01*
X65447Y63278D01*
Y61817D01*
X65237Y61503D01*
X65131Y60965D01*
X65237Y60427D01*
X65542Y59971D01*
X65998Y59667D01*
X66535Y59560D01*
X67073Y59667D01*
X67529Y59971D01*
X67568Y60030D01*
X67674Y60101D01*
X67957Y60524D01*
X68057Y61024D01*
Y62737D01*
X69053Y63733D01*
X69266Y63668D01*
X69273Y63636D01*
X69577Y63180D01*
X70033Y62875D01*
X70571Y62768D01*
X71109Y62875D01*
X71564Y63180D01*
X71869Y63636D01*
X71976Y64173D01*
X71869Y64711D01*
X71679Y64996D01*
Y65966D01*
X71876Y66015D01*
X73529Y64361D01*
X73895Y64116D01*
X73937Y63880D01*
X71363Y61306D01*
X70936Y61020D01*
X70631Y60565D01*
X70524Y60027D01*
X70631Y59489D01*
X70936Y59034D01*
X71198Y58858D01*
X71138Y58661D01*
X70059D01*
Y51070D01*
X69877Y50995D01*
X68799Y52073D01*
Y58661D01*
X65059D01*
Y51253D01*
X64877Y51178D01*
X63799Y52256D01*
Y58661D01*
X63365D01*
Y63265D01*
X63258Y63802D01*
X62954Y64258D01*
X59584Y67627D01*
X59129Y67932D01*
X58591Y68039D01*
X45669D01*
X45132Y67932D01*
X44676Y67627D01*
X41052Y64003D01*
X15354D01*
X14817Y63896D01*
X14361Y63592D01*
X10975Y60206D01*
X10671Y59750D01*
X10564Y59213D01*
Y57470D01*
X6868D01*
X6292Y57355D01*
X5804Y57029D01*
X5478Y56541D01*
X5438Y56343D01*
X5242Y56363D01*
Y75434D01*
X9244D01*
X9300Y75423D01*
X9357Y75434D01*
X13349D01*
Y80749D01*
X5242D01*
Y93555D01*
X8019Y96333D01*
X27019D01*
X37087Y86264D01*
D02*
G37*
G36*
X43959Y79392D02*
X44383Y79110D01*
X44882Y79010D01*
X71113D01*
X76254Y73869D01*
Y69402D01*
X76154Y68898D01*
X76261Y68360D01*
X76566Y67904D01*
X77021Y67600D01*
X77347Y67535D01*
X77404Y67347D01*
X75997Y65939D01*
X75761Y65982D01*
X75516Y66348D01*
X74240Y67624D01*
Y74437D01*
X74133Y74975D01*
X73828Y75431D01*
X71592Y77667D01*
X71136Y77971D01*
X70599Y78078D01*
X37620D01*
Y78740D01*
X37532Y79408D01*
X37303Y79962D01*
Y85791D01*
X37485Y85867D01*
X43959Y79392D01*
D02*
G37*
G36*
X92002Y95523D02*
Y63655D01*
X91806Y63595D01*
X91545Y63986D01*
X91089Y64290D01*
X90551Y64397D01*
X81095D01*
X81071Y64392D01*
X80978Y64566D01*
X82419Y66007D01*
X82701Y66430D01*
X82801Y66929D01*
Y78814D01*
X90214Y86228D01*
X90497Y86651D01*
X90596Y87150D01*
Y94375D01*
X90793Y94507D01*
X91098Y94962D01*
X91205Y95500D01*
X91118Y95938D01*
X91243Y96121D01*
X91388Y96137D01*
X92002Y95523D01*
D02*
G37*
G36*
X120349Y75050D02*
Y67040D01*
X120249Y66535D01*
X120355Y65998D01*
X120660Y65542D01*
X121116Y65237D01*
X121653Y65131D01*
X122191Y65237D01*
X122647Y65542D01*
X122720Y65651D01*
X122908Y65594D01*
Y64123D01*
X122294Y63509D01*
X119193D01*
Y71063D01*
X113903D01*
Y72638D01*
X119193D01*
Y75467D01*
X119932D01*
X120349Y75050D01*
D02*
G37*
G36*
X79695Y63016D02*
X79690Y62992D01*
X79797Y62454D01*
X80101Y61999D01*
X80557Y61694D01*
X81095Y61587D01*
X90551D01*
X91089Y61694D01*
X91207Y61537D01*
X89218Y59547D01*
X88790Y59261D01*
X88485Y58805D01*
X88457Y58661D01*
X85059D01*
Y50197D01*
X88799D01*
Y57059D01*
X88973Y57152D01*
X89246Y56970D01*
X89784Y56863D01*
X90321Y56970D01*
X90777Y57274D01*
X91063Y57702D01*
X94168Y60807D01*
X94365Y60726D01*
Y60383D01*
X90022Y56041D01*
X89740Y55617D01*
X89640Y55118D01*
Y49998D01*
X89740Y49499D01*
X90022Y49075D01*
X91239Y47859D01*
X91525Y47431D01*
X91980Y47127D01*
X92518Y47020D01*
X93056Y47127D01*
X93504Y47426D01*
X93589Y47409D01*
X93701Y47375D01*
Y45400D01*
X93504Y45380D01*
X93424Y45782D01*
X93119Y46238D01*
X92664Y46543D01*
X92126Y46650D01*
X91588Y46543D01*
X91132Y46238D01*
X90828Y45782D01*
X90721Y45245D01*
Y42708D01*
X89558Y41545D01*
X89253Y41089D01*
X89146Y40551D01*
X89253Y40014D01*
X89558Y39558D01*
X90013Y39253D01*
X90551Y39146D01*
X91089Y39253D01*
X91545Y39558D01*
X93119Y41133D01*
X93424Y41588D01*
X93504Y41990D01*
X93701Y41971D01*
Y41339D01*
X99016D01*
Y44168D01*
X102275D01*
X102287Y44156D01*
X102710Y43874D01*
X103209Y43774D01*
X108858D01*
X109358Y43874D01*
X109781Y44156D01*
X112096Y46472D01*
X112278Y46396D01*
Y43419D01*
X106483Y37624D01*
X99508D01*
Y40453D01*
X94193D01*
Y32185D01*
X98312D01*
X98388Y32003D01*
X91311Y24927D01*
X78707D01*
X78632Y25109D01*
X80800Y27276D01*
X80915Y27353D01*
X80992Y27468D01*
X84097Y30574D01*
X82667Y32003D01*
X82743Y32185D01*
X87697D01*
Y40453D01*
X84325D01*
X84002Y40668D01*
X83465Y40775D01*
X82927Y40668D01*
X82605Y40453D01*
X82382D01*
Y40230D01*
X82167Y39908D01*
X82060Y39370D01*
X82129Y39021D01*
X81948Y38924D01*
X70857Y50015D01*
X70932Y50197D01*
X72307D01*
X74255Y48249D01*
X74678Y47966D01*
X75178Y47867D01*
X75385Y47908D01*
X78671D01*
X79175Y47808D01*
X79713Y47915D01*
X80168Y48219D01*
X80473Y48675D01*
X80580Y49213D01*
X80473Y49750D01*
X80291Y50023D01*
X80383Y50197D01*
X83799D01*
Y58661D01*
X80059D01*
Y50488D01*
X79886Y50395D01*
X79713Y50511D01*
X79175Y50617D01*
X78951Y50573D01*
X78799Y50698D01*
Y58661D01*
X75059D01*
Y51392D01*
X74877Y51317D01*
X73799Y52395D01*
Y58661D01*
X72720D01*
X72660Y58858D01*
X72923Y59034D01*
X73208Y59461D01*
X76371Y62623D01*
X76643Y62617D01*
X76655Y62605D01*
X76548Y62067D01*
X76655Y61529D01*
X76959Y61073D01*
X77415Y60769D01*
X77953Y60662D01*
X78490Y60769D01*
X78946Y61073D01*
X79251Y61529D01*
X79358Y62067D01*
X79295Y62382D01*
Y62883D01*
X79521Y63109D01*
X79695Y63016D01*
D02*
G37*
G36*
X125886Y59589D02*
Y51772D01*
X133341D01*
Y50590D01*
X125886D01*
Y49235D01*
X122146D01*
Y50590D01*
X114887D01*
Y51772D01*
X122146D01*
Y56128D01*
X125707Y59689D01*
X125886Y59589D01*
D02*
G37*
G36*
X80191Y36990D02*
Y33942D01*
X74575Y28325D01*
X74364Y28009D01*
X74121Y27973D01*
X74121Y27973D01*
X73068Y29026D01*
Y29531D01*
X78979Y35443D01*
X79262Y35866D01*
X79362Y36365D01*
Y37563D01*
X79543Y37639D01*
X80191Y36990D01*
D02*
G37*
%LPC*%
G36*
X21988Y94823D02*
X16752D01*
Y86279D01*
X21988D01*
Y94823D01*
D02*
G37*
G36*
X19193Y86083D02*
X14665D01*
Y71398D01*
X15520D01*
Y69105D01*
X15515Y69083D01*
X15622Y68545D01*
X15927Y68089D01*
X16383Y67785D01*
X16920Y67678D01*
X17458Y67785D01*
X17914Y68089D01*
X17918Y68094D01*
X18223Y68549D01*
X18330Y69087D01*
Y71398D01*
X19193D01*
Y86083D01*
D02*
G37*
G36*
X87205Y49606D02*
X81890D01*
Y44438D01*
X81684Y44300D01*
X81379Y43845D01*
X81272Y43307D01*
X81379Y42769D01*
X81684Y42314D01*
X81890Y42176D01*
Y41339D01*
X87205D01*
Y49606D01*
D02*
G37*
%LPD*%
D12*
X82284Y84644D02*
X82302Y84625D01*
X82284Y84644D02*
Y90886D01*
X81929Y91240D02*
X82284Y90886D01*
X104173Y66693D02*
X104724Y67244D01*
X100689Y66693D02*
X104173D01*
X143307Y55905D02*
X143307D01*
X145276Y53937D02*
X150394D01*
X41634Y62598D02*
X45669Y66634D01*
X61960Y54460D02*
Y63265D01*
X58591Y66634D02*
X61960Y63265D01*
X61929Y54429D02*
X61960Y54460D01*
X45669Y66634D02*
X58591D01*
X15354Y62598D02*
X41634D01*
X11969Y59213D02*
X15354Y62598D01*
X9526Y53307D02*
X11969Y55750D01*
Y59213D01*
X110728Y66929D02*
Y76772D01*
X129921Y46654D02*
X130020D01*
X135216Y41457D01*
Y38996D02*
Y41457D01*
Y38996D02*
X139094Y35118D01*
Y33465D02*
Y35118D01*
X90551Y40551D02*
X92126Y42126D01*
Y45245D01*
X31093Y51476D02*
X40846D01*
X64082Y39757D02*
X65650Y38189D01*
X64082Y39757D02*
Y41555D01*
X62842Y42795D02*
X64082Y41555D01*
X60315Y43701D02*
X61221Y42795D01*
X62842D01*
X51181Y44961D02*
X52421Y43720D01*
X55492D02*
X55512Y43701D01*
X52421Y43720D02*
X55492D01*
X55512Y43701D02*
X60315D01*
X37832Y32339D02*
X40495D01*
X35827Y34345D02*
X37832Y32339D01*
X40945Y48031D02*
Y51575D01*
X30994Y51378D02*
X31093Y51476D01*
X40495Y32339D02*
X41339Y31496D01*
X35827Y34345D02*
Y51378D01*
X51102Y44882D02*
X51181Y44961D01*
X44094Y44882D02*
X51102D01*
X40945Y48031D02*
X44094Y44882D01*
X40945Y51575D02*
X46437D01*
X40945Y51575D02*
X40945Y51575D01*
X46437D02*
X46929Y52067D01*
Y54429D01*
X40846Y51476D02*
X40945Y51575D01*
X19526Y53307D02*
X20490Y52342D01*
X30030D01*
X30994Y51378D01*
X37480Y106299D02*
X37589Y106190D01*
Y100837D02*
Y106190D01*
X54366Y85242D02*
Y86135D01*
X52786Y83661D02*
X54366Y85242D01*
X45079Y83661D02*
X52786D01*
X39607Y89133D02*
X45079Y83661D01*
X39607Y89133D02*
Y98819D01*
X37589Y100837D02*
X39607Y98819D01*
X29528Y66437D02*
X31585Y68494D01*
X72835Y67042D02*
X74523Y65354D01*
X72835Y67042D02*
Y74437D01*
X70599Y76673D02*
X72835Y74437D01*
X35925Y76673D02*
X70599D01*
X81095Y62992D02*
X90551D01*
X143307Y55905D02*
X145276Y53937D01*
X109638Y55118D02*
X109744D01*
X75590Y81890D02*
X76929Y83228D01*
Y91240D01*
X74803Y81890D02*
X75590D01*
X35039Y75787D02*
X35925Y76673D01*
X137182Y53675D02*
Y53862D01*
X139238Y51457D02*
X143451Y47244D01*
X139238Y51457D02*
Y51619D01*
X137182Y53675D02*
X139238Y51619D01*
X143451Y47244D02*
X143707D01*
X137106Y53937D02*
X137182Y53862D01*
X108850Y55905D02*
X109638Y55118D01*
X96850Y55905D02*
X108850D01*
X152495Y47712D02*
Y51836D01*
X150394Y53937D02*
X152495Y51836D01*
Y47712D02*
X152963Y47244D01*
X12205Y4331D02*
Y17852D01*
X14567Y16535D02*
X19685Y11417D01*
X32362D02*
X37480Y6299D01*
X19685Y11417D02*
X32362D01*
X16925Y78736D02*
X16929Y78740D01*
X16925Y69087D02*
Y78736D01*
X16920Y69083D02*
X16925Y69087D01*
X27480Y4888D02*
Y6299D01*
X24168Y1575D02*
X27480Y4888D01*
X14961Y1575D02*
X24168D01*
X12205Y4331D02*
X14961Y1575D01*
D35*
X19370Y90551D02*
D03*
X8189D02*
D03*
X109764Y91732D02*
D03*
X120945D02*
D03*
X150276Y33465D02*
D03*
X139094D02*
D03*
D36*
X118110Y55709D02*
D03*
Y46654D02*
D03*
X129921Y55709D02*
D03*
Y46654D02*
D03*
D40*
X121260Y32776D02*
D03*
X133071D02*
D03*
X116535Y66929D02*
D03*
X128347D02*
D03*
X116535Y76772D02*
D03*
X128347D02*
D03*
X54626Y22047D02*
D03*
X66437D02*
D03*
X85039Y36319D02*
D03*
X96850D02*
D03*
X84547Y45472D02*
D03*
X96358D02*
D03*
X41339Y32283D02*
D03*
X29528Y32283D02*
D03*
D47*
X7480Y6299D02*
D03*
Y106299D02*
D03*
D48*
X17480Y6299D02*
D03*
X27480D02*
D03*
X37480D02*
D03*
X47480D02*
D03*
X57480D02*
D03*
X67480D02*
D03*
X77480D02*
D03*
X87480D02*
D03*
X97480D02*
D03*
X107480D02*
D03*
X117480D02*
D03*
X127480D02*
D03*
X137480D02*
D03*
X147480D02*
D03*
X17480Y106299D02*
D03*
X27480D02*
D03*
X37480D02*
D03*
X47480D02*
D03*
X57480D02*
D03*
X67480D02*
D03*
X77480D02*
D03*
X87480D02*
D03*
X97480D02*
D03*
X107480D02*
D03*
X117480D02*
D03*
X127480D02*
D03*
X137480D02*
D03*
X147480D02*
D03*
D49*
X138977Y83649D02*
D03*
Y63964D02*
D03*
D50*
X149606Y60027D02*
D03*
Y87586D02*
D03*
X19526Y53307D02*
D03*
X9526Y43307D02*
D03*
Y33307D02*
D03*
X19526D02*
D03*
Y43307D02*
D03*
X35433Y23622D02*
D03*
D51*
X9526Y53307D02*
D03*
D52*
X45433Y23622D02*
D03*
D53*
X100138Y66693D02*
X100689D01*
X99016Y67815D02*
X100138Y66693D01*
X134646Y91732D02*
X145862Y102948D01*
X135433Y46850D02*
Y46904D01*
X147480Y104834D02*
Y106299D01*
X145862Y103216D02*
X147480Y104834D01*
X26378Y16142D02*
X35039D01*
X55512Y61811D02*
X59842D01*
X67520Y30118D02*
Y43736D01*
Y30118D02*
X71955Y25683D01*
X59581Y46299D02*
X64956D01*
X67520Y43736D01*
X56929Y48951D02*
X59581Y46299D01*
X56929Y48951D02*
Y54429D01*
X98327Y15650D02*
X111417Y28740D01*
X39456Y15650D02*
X98327D01*
X76276Y19882D02*
X96260D01*
X77010Y21654D02*
X93701D01*
X77547Y23622D02*
X91852D01*
X73726Y24937D02*
X77010Y21654D01*
X75498Y25671D02*
X77547Y23622D01*
X96260Y19882D02*
X102756Y26378D01*
X91852Y23622D02*
X100257Y32027D01*
X93701Y21654D02*
X103150Y31102D01*
X71955Y24203D02*
X76276Y19882D01*
X27480Y97716D02*
X44882Y80315D01*
X27480Y97716D02*
Y106299D01*
X44882Y80315D02*
X71653D01*
X66752Y61024D02*
Y63278D01*
X71929Y60027D02*
X79528Y67625D01*
X77990Y63424D02*
X81496Y66929D01*
X77990Y62242D02*
Y63424D01*
X77953Y62205D02*
X77990Y62242D01*
X77953Y62067D02*
Y62205D01*
X70472Y69476D02*
Y74016D01*
X68504Y65029D02*
Y72441D01*
X66752Y63278D02*
X68504Y65029D01*
X70374Y69378D02*
X70472Y69476D01*
X70374Y64423D02*
Y69378D01*
Y64423D02*
X70571Y64227D01*
Y64173D02*
Y64227D01*
X79528Y67625D02*
Y77306D01*
X71653Y80315D02*
X77559Y74410D01*
Y68898D02*
Y74410D01*
X75219Y49213D02*
X79175D01*
X64997Y49213D02*
X66752D01*
X51929Y54429D02*
Y58228D01*
X71763Y28486D02*
X73726Y26523D01*
X67649Y51378D02*
X81496Y37531D01*
X66752Y49171D02*
X78057Y37866D01*
X75498Y25671D02*
Y27403D01*
X108819Y31102D02*
X111024Y33307D01*
X71929Y52420D02*
Y54429D01*
X66929Y51928D02*
X67480Y51378D01*
X61929Y52281D02*
X64997Y49213D01*
X71763Y28486D02*
Y30071D01*
X66929Y51928D02*
Y54429D01*
X51929Y58228D02*
X55512Y61811D01*
X81496Y33401D02*
Y37531D01*
X78057Y36365D02*
Y37866D01*
X61929Y52281D02*
Y54429D01*
X71955Y24203D02*
Y25683D01*
X71929Y52420D02*
X75178Y49171D01*
X71763Y30071D02*
X78057Y36365D01*
X75178Y49171D02*
X75219Y49213D01*
X66752Y49171D02*
Y49213D01*
X67480Y51378D02*
X67649D01*
X103150Y31102D02*
X108819D01*
X75498Y27403D02*
X81496Y33401D01*
X73726Y24937D02*
Y26523D01*
X81496Y79355D02*
X89291Y87150D01*
X81496Y66929D02*
Y79355D01*
X89291Y94938D02*
X89800Y95447D01*
X89291Y87150D02*
Y94938D01*
X89800Y95447D02*
Y95500D01*
X47480Y102361D02*
X52400Y97441D01*
X87551D01*
X91870Y97500D02*
X93307Y96063D01*
X87611Y97500D02*
X91870D01*
X87551Y97441D02*
X87611Y97500D01*
X105706Y67837D02*
X106299Y67244D01*
X104724D02*
X106299D01*
X90945Y55118D02*
X95669Y59842D01*
Y97638D01*
X93707Y99600D02*
X95669Y97638D01*
X93307Y61791D02*
Y96063D01*
X89784Y58268D02*
X93307Y61791D01*
X99016Y80905D02*
X101772Y83661D01*
X99016Y67815D02*
Y80905D01*
X102815Y45472D02*
X103209Y45079D01*
X96358Y45472D02*
X102815D01*
X103209Y45079D02*
X108858D01*
X111811Y48031D01*
Y60237D01*
X112598Y81066D02*
X113423Y81890D01*
X115157Y65447D02*
X116142Y66431D01*
X114469Y65447D02*
X115157D01*
X113583Y59504D02*
X116284Y62205D01*
X107023Y36319D02*
X113583Y42878D01*
X111811Y60237D02*
X112598Y61025D01*
Y81066D01*
X116142Y66431D02*
Y66929D01*
X113583Y42878D02*
Y59504D01*
X128347Y64173D02*
Y66929D01*
X124213Y63583D02*
Y77362D01*
X118110Y55709D02*
X119882D01*
X128347Y64173D01*
X122835Y62205D02*
X124213Y63583D01*
X116284Y62205D02*
X122835D01*
X122047Y79528D02*
X124213Y77362D01*
X116142Y76772D02*
X116535D01*
X120473D02*
X121653Y75590D01*
Y66535D02*
Y75590D01*
X116535Y76772D02*
X120473D01*
X96850Y36319D02*
X107023D01*
X101988Y52047D02*
Y53287D01*
X101732Y53543D02*
X101988Y53287D01*
X94049Y53445D02*
X94148Y53543D01*
X101732D01*
X93996Y53445D02*
X94049D01*
X134646Y47691D02*
X135433Y46904D01*
X134646Y47691D02*
Y91732D01*
X3937Y30782D02*
Y37718D01*
X104331Y13780D02*
X119882Y29331D01*
Y31398D02*
X121260Y32776D01*
X119882Y29331D02*
Y31398D01*
X121161Y32677D02*
X121260Y32776D01*
X3937Y30782D02*
X20940Y13780D01*
X104331D01*
X24152Y23248D02*
X28896Y18504D01*
X36601D01*
X39456Y15650D01*
X65059Y19193D02*
X66437Y20571D01*
X41634Y17421D02*
X59547D01*
X61319Y19193D02*
X65059D01*
X59547Y17421D02*
X61319Y19193D01*
X35433Y23622D02*
X41634Y17421D01*
X66437Y20571D02*
Y22047D01*
X24152Y23248D02*
Y37659D01*
X19526Y42285D02*
X24152Y37659D01*
X19526Y42285D02*
Y43307D01*
X145862Y102948D02*
Y103216D01*
X128937Y76772D02*
X131890Y73819D01*
Y57677D02*
Y73819D01*
X129921Y55709D02*
X131890Y57677D01*
X3937Y94096D02*
X7479Y97638D01*
X3937Y47638D02*
Y94096D01*
X57480Y105512D02*
X63386Y99606D01*
X57480Y105512D02*
Y106299D01*
X47480Y102361D02*
Y106299D01*
X7479Y97638D02*
X27402D01*
X27480Y97716D01*
X86661Y99600D02*
X93707D01*
X86655Y99606D02*
X86661Y99600D01*
X63386Y99606D02*
X86655D01*
X130598Y97441D02*
X139444Y106287D01*
X115945Y97441D02*
X130598D01*
X114961Y96457D02*
X115945Y97441D01*
X53150Y23622D02*
X55118Y21654D01*
X90945Y49998D02*
X92518Y48425D01*
X3937Y37718D02*
X9526Y43307D01*
X128347Y76772D02*
X128937D01*
X90945Y49998D02*
Y55118D01*
X101772Y83661D02*
X110827D01*
X114961Y87795D01*
Y96457D01*
X117323Y32677D02*
X121161D01*
X113423Y81890D02*
X126378D01*
X128740Y84252D01*
Y86135D01*
X45433Y23622D02*
X53150D01*
D54*
X118110Y46654D02*
X129921D01*
X31496Y68583D02*
Y70709D01*
X35039Y75787D02*
Y78740D01*
Y74252D02*
Y75787D01*
X31496Y70709D02*
X35039Y74252D01*
D55*
X82302Y84625D02*
D03*
X100689Y66693D02*
D03*
X143307Y55905D02*
D03*
X26378Y16142D02*
D03*
X35039D02*
D03*
X59842Y61811D02*
D03*
X35526Y60630D02*
D03*
X137282Y42077D02*
D03*
X106866Y46949D02*
D03*
X90551Y40551D02*
D03*
X65650Y38189D02*
D03*
X54366Y86135D02*
D03*
X66535Y60965D02*
D03*
X70571Y64173D02*
D03*
X74523Y65354D02*
D03*
X74803Y71260D02*
D03*
X70472Y74016D02*
D03*
X68504Y72441D02*
D03*
X79528Y77306D02*
D03*
X31496Y68583D02*
D03*
X29528Y66437D02*
D03*
X28740Y68504D02*
D03*
X19600Y91200D02*
D03*
X81095Y62992D02*
D03*
X82335Y64961D02*
D03*
X109744Y55118D02*
D03*
X74803Y81890D02*
D03*
X45669Y73622D02*
D03*
X77953Y62067D02*
D03*
X90551Y62992D02*
D03*
X79175Y49213D02*
D03*
X47638Y56988D02*
D03*
X102756Y26378D02*
D03*
X100257Y32027D02*
D03*
X50900Y90300D02*
D03*
X76772Y53543D02*
D03*
X111024Y33307D02*
D03*
X46929Y93799D02*
D03*
X77559Y68898D02*
D03*
X71929Y60027D02*
D03*
X75000Y47100D02*
D03*
X89784Y58268D02*
D03*
X96850Y55905D02*
D03*
X103839Y57874D02*
D03*
X124705Y51968D02*
D03*
X118110Y48819D02*
D03*
X137106Y53937D02*
D03*
X110728Y76772D02*
D03*
X114469Y65447D02*
D03*
X110728Y66929D02*
D03*
X120866Y64075D02*
D03*
X121653Y66535D02*
D03*
X135433Y46850D02*
D03*
X153131Y47182D02*
D03*
X138583Y56910D02*
D03*
X140945Y53937D02*
D03*
X124000Y41437D02*
D03*
X73900Y29400D02*
D03*
X12205Y17852D02*
D03*
X14567Y16535D02*
D03*
X19685Y22835D02*
D03*
X106868Y18961D02*
D03*
X42520Y9154D02*
D03*
X70472Y20472D02*
D03*
X131102Y15678D02*
D03*
X16920Y69083D02*
D03*
X31496Y75984D02*
D03*
X32283Y1969D02*
D03*
X57480Y38189D02*
D03*
X30400Y40600D02*
D03*
X41200Y40900D02*
D03*
X9300Y76828D02*
D03*
X89800Y95500D02*
D03*
X111900Y94600D02*
D03*
X35000Y31123D02*
D03*
X131200Y93994D02*
D03*
X64600Y84505D02*
D03*
X77500Y32600D02*
D03*
X66752Y27165D02*
D03*
X85444Y30709D02*
D03*
X106299Y79768D02*
D03*
X143701Y72404D02*
D03*
X102732Y41142D02*
D03*
X88976Y48151D02*
D03*
X90551Y35269D02*
D03*
X77348Y79921D02*
D03*
X116500Y84000D02*
D03*
X9115Y15884D02*
D03*
X45831Y32684D02*
D03*
X63779Y31872D02*
D03*
X62598Y23054D02*
D03*
X82677Y43307D02*
D03*
X83465Y39370D02*
D03*
X92126Y45245D02*
D03*
X92518Y48425D02*
D03*
X72441Y34252D02*
D03*
X3937Y47638D02*
D03*
X29528Y31102D02*
D03*
X111417Y28740D02*
D03*
X93996Y53445D02*
D03*
X79921Y28346D02*
D03*
X122047Y79528D02*
D03*
X121161Y91732D02*
D03*
X117323Y32677D02*
D03*
X131693Y32776D02*
D03*
X128740Y86135D02*
D03*
D56*
X16929Y78740D02*
D03*
X35039D02*
D03*
D57*
X46929Y91240D02*
D03*
X51929D02*
D03*
X56929D02*
D03*
X61929D02*
D03*
X66929D02*
D03*
X71929D02*
D03*
X76929D02*
D03*
X81929D02*
D03*
X86929D02*
D03*
Y54429D02*
D03*
X81929D02*
D03*
X76929D02*
D03*
X71929D02*
D03*
X66929D02*
D03*
X61929D02*
D03*
X56929D02*
D03*
X51929D02*
D03*
X46929D02*
D03*
D58*
X152963Y47244D02*
D03*
D59*
X143707D02*
D03*
D60*
X104724Y52441D02*
D03*
Y41260D02*
D03*
Y78425D02*
D03*
Y67244D02*
D03*
X31496Y57402D02*
D03*
Y68583D02*
D03*
X51181Y33779D02*
D03*
Y44961D02*
D03*
X61221Y42795D02*
D03*
Y31614D02*
D03*
D61*
X40945Y51575D02*
D03*
Y39764D02*
D03*
X30994Y51378D02*
D03*
Y39567D02*
D03*
X9215Y78091D02*
D03*
Y66280D02*
D03*
D62*
X73240Y35028D02*
D03*
X76581Y31687D02*
D03*
X79921Y28346D02*
D03*
M02*
