M48
;Layer_Color=9474304
;FILE_FORMAT=2:5
INCH,TZ
;TYPE=PLATED
T1F00S00C0.01181
T2F00S00C0.03346
T3F00S00C0.03937
T4F00S00C0.04528
T5F00S00C0.05512
;TYPE=NON_PLATED
%
T01
X9115Y15884
X12205Y15192
X14961Y14867
X19291Y23228
X27165Y17126
X36220Y16535
X42520Y10236
X32283Y1969
X35000Y31123
X29528Y31102
X30400Y40600
X41200Y40900
X45831Y32684
X57480Y38189
X63779Y40157
Y31872
X66752Y27165
X62598Y23054
X70600Y17900
X73900Y29400
X72441Y34252
X77500Y32600
X79921Y28346
X85444Y30709
X90551Y35269
X90551Y40551
X92126Y45245
X92518Y48425
X88976Y48151
X93996Y53445
X89784Y58268
X81673Y64603
X77953Y62205
X77559Y68898
X74500Y66400
X70571Y64173
X71929Y60027
X66535Y60965
X60630Y61811
X47638Y56988
X35526Y60843
X31299Y66831
X32800Y76000
X45965Y73343
X54366Y86135
X50900Y90300
X46929Y93799
X64600Y84505
X73737Y84646
X77348Y80315
X79823Y77263
X82676Y84251
X89800Y95500
X111900Y94600
X121161Y91732
X131200Y93994
X128740Y86135
X122047Y79528
X116500Y84000
X112598Y76772
X106299Y79768
X112598Y66929
X113484Y64567
X120866Y63779
X121653Y66535
X124705Y53445
X118110Y48819
X109055Y45929
X102732Y41142
X100257Y32027
X102756Y26378
X111417Y28740
X111024Y33307
X117323Y32677
X131693Y32776
X138400Y39600
X124000Y42000
X138583Y56910
X134646Y61024
X144882Y54284
X151591Y47602
X143701Y72404
X100689Y66142
X105118Y55965
X76772Y53543
X79175Y49213
X75000Y47100
X82677Y43307
X83465Y39370
X106931Y18898
X131102Y15678
X70571Y76279
X68500Y74300
X9300Y76828
X19600Y91200
X3937Y47638
T02
X138977Y63964
Y83649
T03
X9526Y33307
Y43307
Y53307
X19526
Y43307
Y33307
X35433Y23622
X45433Y23622
T04
X7480Y6299
X17480
X27480
X37480
X47480
X57480
X67480
X77480
X87480
X97480
X107480
X117480
X127480
X137480
X147480
Y106299
X137480
X127480
X117480
X107480
X97480
X87480
X77480
X67480
X57480
X47480
X37480
X27480
X17480
X7480
T05
X149606Y60027
Y87586
M30
