M48
;Layer_Color=9474304
;FILE_FORMAT=2:5
INCH,TZ
;TYPE=PLATED
T1F00S00C0.01181
T2F00S00C0.03346
T3F00S00C0.03937
T4F00S00C0.04528
T5F00S00C0.05512
;TYPE=NON_PLATED
%
T01
X9115Y15884
X12205Y17852
X14567Y16535
X19685Y22835
X26378Y16142
X35039
X42520Y9154
X32283Y1969
X35000Y31123
X29528Y31102
X30400Y40600
X41200Y40900
X45831Y32684
X57480Y38189
X65650
X63779Y31872
X66752Y27165
X62598Y23054
X70472Y20472
X73900Y29400
X72441Y34252
X77500Y32600
X79921Y28346
X85444Y30709
X90551Y35269
X90551Y40551
X92126Y45245
X92518Y48425
X88976Y48151
X93996Y53445
X96850Y55905
X103839Y57874
X109744Y55118
X106866Y46949
X102732Y41142
X100257Y32027
X102756Y26378
X111417Y28740
X111024Y33307
X117323Y32677
X131693Y32776
X137282Y42077
X135433Y46850
X137106Y53937
X140945
X143307Y55905
X138583Y56910
X124705Y51968
X118110Y48819
X124000Y41437
X120866Y64075
X121653Y66535
X114469Y65447
X110728Y66929
Y76772
X106299Y79768
X116500Y84000
X122047Y79528
X121161Y91732
X111900Y94600
X131200Y93994
X128740Y86135
X143701Y72404
X153131Y47182
X131102Y15678
X106868Y18961
X83465Y39370
X82677Y43307
X79175Y49213
X75000Y47100
X76772Y53543
X77953Y62067
X81095Y62992
X82335Y64961
X74523Y65354
X70571Y64173
X71929Y60027
X66535Y60965
X59842Y61811
X47638Y56988
X35526Y60630
X29528Y66437
X28740Y68504
X31496Y68583
X31496Y75984
X45669Y73622
X54366Y86135
X50900Y90300
X46929Y93799
X64600Y84505
X74803Y81890
X77348Y79921
X79528Y77306
X82302Y84625
X89800Y95500
X90551Y62992
X89784Y58268
X100689Y66693
X77559Y68898
X74803Y71260
X70472Y74016
X68504Y72441
X16920Y69083
X9300Y76828
X19600Y91200
X3937Y47638
T02
X138977Y63964
Y83649
T03
X9526Y33307
Y43307
Y53307
X19526
Y43307
Y33307
X35433Y23622
X45433Y23622
T04
X7480Y6299
X17480
X27480
X37480
X47480
X57480
X67480
X77480
X87480
X97480
X107480
X117480
X127480
X137480
X147480
Y106299
X137480
X127480
X117480
X107480
X97480
X87480
X77480
X67480
X57480
X47480
X37480
X27480
X17480
X7480
T05
X149606Y60027
Y87586
M30
