M48
;Layer_Color=9474304
;FILE_FORMAT=2:5
INCH,TZ
;TYPE=PLATED
T1F00S00C0.01181
T2F00S00C0.03346
T3F00S00C0.03937
T4F00S00C0.04528
T5F00S00C0.05512
;TYPE=NON_PLATED
%
T01
X9115Y15884
X12598Y18110
X14961Y19685
X19685Y22835
X26588Y15985
X35039Y15933
X42520Y9154
X32283Y1969
X35000Y31123
X29528Y31102
X30400Y40600
X41200Y40900
X45831Y32684
X57591Y38270
X65650Y38189
X63779Y31872
X62315Y26772
X74048Y29375
X77349Y32456
X79921Y28346
X85444Y30709
X90551Y35269
X88976Y39370
X92519Y42913
X92518Y48425
X88976Y48151
X80708Y49213
X77953Y44882
X75197Y46850
X76772Y53543
X77953Y62067
X77449Y68914
X74803Y71260
X70472Y74016
X67323
X70571Y64173
X71929Y60027
X66535Y60236
X59842Y61811
X47638Y56988
X37795Y58661
X29528Y66437
X28740Y68504
X31496Y75984
X44291Y74634
X54331Y75197
X54366Y86135
X50900Y90300
X47077Y93652
X41732Y99213
X20472Y101181
X19600Y91200
X24409Y90945
X9300Y76828
X16920Y69083
X25197Y50000
X3937Y47638
X72441Y34252
X81496Y40551
X102732Y41142
X106693Y48031
X117717Y46850
X117323Y39764
X124000Y41437
X124705Y51968
X134756Y48373
X137271Y42184
X131693Y32776
X115748Y32283
X111024Y33307
X110630Y27559
X105525Y18701
X99213Y23959
X100257Y32027
X93996Y53445
X89784Y58268
X87402Y60236
X84646Y66535
X90158Y74410
X88976Y80709
X82302Y84625
X77348Y79921
X74803Y81890
X79857Y77269
X64600Y84505
X63841Y101514
X89555Y95227
X110630Y94095
X121161Y91732
X121653Y101575
X131200Y93994
X128740Y86135
X122047Y79528
X116500Y84000
X110728Y76772
X106299Y79768
X110236Y66929
X115071Y66699
X121653Y66535
X121260Y64173
X100689Y66693
X103150Y58268
X141339Y72404
X147244Y96850
X150394Y17717
X128347Y14173
X69158Y19158
T02
X138977Y48819
Y68504
T03
X9526Y33307
Y43307
Y53307
X19526
Y43307
Y33307
X35433Y23622
X45433Y23622
T04
X7480Y6299
X17480
X27480
X37480
X47480
X57480
X67480
X77480
X87480
X97480
X107480
X117480
X127480
X137480
X147480
Y106299
X137480
X127480
X117480
X107480
X97480
X87480
X77480
X67480
X57480
X47480
X37480
X27480
X17480
X7480
T05
X149606Y44882
Y72441
M30
