G04*
G04 #@! TF.GenerationSoftware,Altium Limited,Altium Designer,20.0.9 (164)*
G04*
G04 Layer_Color=32896*
%FSLAX25Y25*%
%MOIN*%
G70*
G01*
G75*
%ADD10C,0.01000*%
%ADD14C,0.00787*%
%ADD15C,0.00394*%
%ADD16C,0.00197*%
D10*
X4526Y28307D02*
X14526D01*
X4526D02*
Y58307D01*
X14526D01*
X24526Y48307D02*
Y58307D01*
X14526D02*
X24526D01*
X14526Y28307D02*
X24526D01*
Y58307D01*
X40433Y18622D02*
X50433Y18622D01*
X50433Y28622D02*
X50433Y18622D01*
X30433Y18622D02*
X50433Y18622D01*
X30433Y28622D02*
X50433Y28622D01*
X30433Y18622D02*
Y28622D01*
X137794Y43409D02*
X152006D01*
Y51991D01*
X137794D02*
X152006D01*
X137794Y43409D02*
Y51991D01*
X5009Y82088D02*
Y96300D01*
X13591D01*
Y82088D02*
Y96300D01*
X5009Y82088D02*
X13591D01*
X71260Y84842D02*
X83858D01*
Y79724D02*
Y84842D01*
X71260Y79724D02*
X83858D01*
X71260D02*
Y84842D01*
X73936Y37951D02*
X82844Y29042D01*
X70317Y34332D02*
X73936Y37951D01*
X70317Y34332D02*
X79225Y25423D01*
X82844Y29042D01*
D14*
X154823Y57468D02*
Y90145D01*
X136909Y57468D02*
X154823D01*
X136909D02*
Y89948D01*
Y90145D02*
X154823D01*
D15*
X2480Y1299D02*
Y11299D01*
Y1299D02*
X152480D01*
Y11299D01*
X2480D02*
X152480D01*
X2480Y101299D02*
Y111299D01*
Y101299D02*
X152480D01*
Y111299D01*
X2480D02*
X152480D01*
X44193Y82598D02*
X49193Y87598D01*
X44193D02*
X89665D01*
Y58071D02*
Y87598D01*
X44193Y58071D02*
X89665D01*
X44193D02*
Y87598D01*
X140021Y37797D02*
X152619D01*
Y31498D02*
Y37797D01*
X140021Y31498D02*
X152619D01*
X140021D02*
Y37797D01*
X12450Y64001D02*
Y76599D01*
X6150Y64001D02*
X12450D01*
X6150D02*
Y76599D01*
X12450D01*
X10351D02*
X12450Y74501D01*
X48524Y56299D02*
X60925D01*
X48524D02*
Y62598D01*
X60925D01*
Y56299D02*
Y62598D01*
X60119Y41339D02*
X79606Y60826D01*
X99094Y41339D01*
X79606Y21851D02*
X99094Y41339D01*
X60119D02*
X79606Y21851D01*
X62346Y39112D02*
Y43566D01*
X42323Y71850D02*
Y85630D01*
X16732Y71850D02*
X42323D01*
X16732D02*
Y85630D01*
X42323D01*
X33268D02*
X42323Y76575D01*
X132283Y64567D02*
Y85433D01*
X92126Y64567D02*
X132283D01*
X92126D02*
Y85433D01*
X132283D01*
X129724D02*
X132283Y82874D01*
X66732Y71063D02*
Y86417D01*
X47441Y71063D02*
X66732D01*
X47441D02*
Y86417D01*
X66732D01*
X61732D02*
X66732Y81417D01*
X7480Y24803D02*
X20079D01*
Y18504D02*
Y24803D01*
X7480Y18504D02*
X20079D01*
X7480D02*
Y24803D01*
X120866Y33827D02*
X122965Y35925D01*
X120866Y29626D02*
Y35925D01*
Y29626D02*
X133465D01*
Y35925D01*
X120866D02*
X133465D01*
X42390Y52067D02*
X44488Y49968D01*
X38189Y52067D02*
X44488D01*
X38189Y39469D02*
Y52067D01*
Y39469D02*
X44488D01*
Y52067D01*
X133465Y40295D02*
X151378D01*
X133465D02*
Y53051D01*
X151378D01*
Y40295D02*
Y53051D01*
X101575Y40551D02*
X107874D01*
X101575D02*
Y53150D01*
X107874D01*
Y40551D02*
Y53150D01*
X74508Y87402D02*
Y93701D01*
Y87402D02*
X86910D01*
Y93701D01*
X74508D02*
X86910D01*
X90158Y65748D02*
Y72047D01*
X77559D02*
X90158D01*
X77559Y65748D02*
Y72047D01*
Y65748D02*
X90158D01*
X133366Y29626D02*
Y35925D01*
X120965Y29626D02*
X133366D01*
X120965D02*
Y35925D01*
X133366D01*
X139944Y22343D02*
Y28642D01*
Y22343D02*
X152542D01*
Y28642D01*
X139944D02*
X152542D01*
X37795Y39469D02*
X44094D01*
X37795D02*
Y51870D01*
X44094D01*
Y39469D02*
Y51870D01*
X7480Y87402D02*
Y93701D01*
X20079D01*
Y87402D02*
Y93701D01*
X7480Y87402D02*
X20079D01*
X114961Y44882D02*
Y57480D01*
Y44882D02*
X121260D01*
Y57480D01*
X114961D02*
X121260D01*
X114961Y55382D02*
X117059Y57480D01*
X126772Y44882D02*
Y57480D01*
Y44882D02*
X133071D01*
Y57480D01*
X126772D02*
X133071D01*
X126772Y55382D02*
X128870Y57480D01*
X33750Y39370D02*
Y51968D01*
X27451Y39370D02*
X33750D01*
X27451D02*
Y51968D01*
X33750D01*
X31652D02*
X33750Y49870D01*
X116240Y63779D02*
X128642D01*
Y70079D01*
X116240D02*
X128642D01*
X116240Y63779D02*
Y70079D01*
Y73622D02*
X128642D01*
Y79921D01*
X116240D02*
X128642D01*
X116240Y73622D02*
Y79921D01*
X54331Y18898D02*
X66732D01*
Y25197D01*
X54331D02*
X66732D01*
X54331Y18898D02*
Y25197D01*
X27845Y39272D02*
Y51673D01*
Y39272D02*
X34144D01*
Y51673D01*
X27845D02*
X34144D01*
X6066Y65985D02*
Y78387D01*
Y65985D02*
X12365D01*
Y78387D01*
X6066D02*
X12365D01*
X84744Y33169D02*
X97146D01*
Y39469D01*
X84744D02*
X97146D01*
X84744Y33169D02*
Y39469D01*
X84252Y42323D02*
X96653D01*
Y48622D01*
X84252D02*
X96653D01*
X84252Y42323D02*
Y48622D01*
X29232Y34646D02*
X41634D01*
X29232Y28346D02*
Y34646D01*
Y28346D02*
X41634D01*
Y34646D01*
X101575Y66535D02*
Y79134D01*
Y66535D02*
X107874D01*
Y79134D01*
X101575D02*
X107874D01*
X109055Y88583D02*
X121653D01*
Y94882D01*
X109055D02*
X121653D01*
X109055Y88583D02*
Y94882D01*
X138386Y36614D02*
X150984D01*
X138386Y30315D02*
Y36614D01*
Y30315D02*
X150984D01*
Y36614D01*
X34646Y56693D02*
Y69291D01*
X28346D02*
X34646D01*
X28346Y56693D02*
Y69291D01*
Y56693D02*
X34646D01*
X54331Y33071D02*
Y45669D01*
X48031D02*
X54331D01*
X48031Y33071D02*
Y45669D01*
Y33071D02*
X54331Y33071D01*
X58071Y30906D02*
Y43504D01*
Y30906D02*
X64370D01*
Y43504D01*
X58071D02*
X64370D01*
D16*
X43209Y95866D02*
X90650D01*
Y49803D02*
Y95866D01*
X43209Y49803D02*
X90650D01*
X43209D02*
Y95866D01*
X138111Y38939D02*
X154529D01*
Y30356D02*
Y38939D01*
X138111Y30356D02*
X154529D01*
X138111D02*
Y38939D01*
X14516Y60654D02*
Y79946D01*
X4084Y60654D02*
X14516D01*
X4084D02*
Y79946D01*
X14516D01*
X45768Y54921D02*
X63681D01*
X45768D02*
Y63976D01*
X63681D01*
Y54921D02*
Y63976D01*
X50375Y41339D02*
X79606Y70569D01*
X108837Y41339D01*
X79606Y12108D02*
X108837Y41339D01*
X50375D02*
X79606Y12108D01*
X43701Y61910D02*
Y95571D01*
X15354Y61910D02*
X43701D01*
X15354D02*
Y95571D01*
X43701D01*
X133858Y56496D02*
Y93504D01*
X90551Y56496D02*
X133858D01*
X90551D02*
Y93504D01*
X133858D01*
X67913Y64075D02*
Y93405D01*
X46260Y64075D02*
X67913D01*
X46260D02*
Y93405D01*
X67913D01*
X5571Y25945D02*
X21988D01*
Y17362D02*
Y25945D01*
X5571Y17362D02*
X21988D01*
X5571D02*
Y25945D01*
X117520Y27559D02*
Y37992D01*
Y27559D02*
X136811D01*
Y37992D01*
X117520D02*
X136811D01*
X36122Y55413D02*
X46555D01*
X36122Y36122D02*
Y55413D01*
Y36122D02*
X46555D01*
Y55413D01*
X130709Y38937D02*
X154134D01*
X130709D02*
Y54409D01*
X154134D01*
Y38937D02*
Y54409D01*
X100433Y38642D02*
X109016D01*
X100433D02*
Y55059D01*
X109016D01*
Y38642D02*
Y55059D01*
X71752Y86024D02*
Y95079D01*
Y86024D02*
X89665D01*
Y95079D01*
X71752D02*
X89665D01*
X92067Y64606D02*
Y73189D01*
X75650D02*
X92067D01*
X75650Y64606D02*
Y73189D01*
Y64606D02*
X92067D01*
X136122Y28248D02*
Y37303D01*
X118209Y28248D02*
X136122D01*
X118209D02*
Y37303D01*
X136122D01*
X138034Y21201D02*
Y29783D01*
Y21201D02*
X154451D01*
Y29783D01*
X138034D02*
X154451D01*
X36417Y36713D02*
X45472D01*
X36417D02*
Y54626D01*
X45472D01*
Y36713D02*
Y54626D01*
X5571Y86260D02*
Y94842D01*
X21988D01*
Y86260D02*
Y94842D01*
X5571Y86260D02*
X21988D01*
X112894Y41535D02*
Y60827D01*
Y41535D02*
X123327D01*
Y60827D01*
X112894D02*
X123327D01*
X124705Y41535D02*
Y60827D01*
Y41535D02*
X135138D01*
Y60827D01*
X124705D02*
X135138D01*
X35817Y36024D02*
Y55315D01*
X25384Y36024D02*
X35817D01*
X25384D02*
Y55315D01*
X35817D01*
X113484Y62402D02*
X131398D01*
Y71457D01*
X113484D02*
X131398D01*
X113484Y62402D02*
Y71457D01*
Y72244D02*
X131398D01*
Y81299D01*
X113484D02*
X131398D01*
X113484Y72244D02*
Y81299D01*
X51575Y17520D02*
X69488D01*
Y26575D01*
X51575D02*
X69488D01*
X51575Y17520D02*
Y26575D01*
X26467Y36516D02*
Y54429D01*
Y36516D02*
X35522D01*
Y54429D01*
X26467D02*
X35522D01*
X4688Y63229D02*
Y81142D01*
Y63229D02*
X13743D01*
Y81142D01*
X4688D02*
X13743D01*
X81988Y31791D02*
X99902D01*
Y40846D01*
X81988D02*
X99902D01*
X81988Y31791D02*
Y40846D01*
X81496Y40945D02*
X99410D01*
Y50000D01*
X81496D02*
X99410D01*
X81496Y40945D02*
Y50000D01*
X26476Y36024D02*
X44390Y36024D01*
X26476Y26969D02*
Y36024D01*
Y26969D02*
X44390D01*
Y36024D01*
X100433Y64626D02*
Y81043D01*
Y64626D02*
X109016D01*
Y81043D01*
X100433D02*
X109016D01*
X107146Y87441D02*
X123563D01*
Y96024D01*
X107146D02*
X123563D01*
X107146Y87441D02*
Y96024D01*
X136476Y37756D02*
X152894D01*
X136476Y29173D02*
Y37756D01*
Y29173D02*
X152894D01*
Y37756D01*
X35787Y54783D02*
Y71201D01*
X27205D02*
X35787D01*
X27205Y54783D02*
Y71201D01*
Y54783D02*
X35787D01*
X55472Y31161D02*
Y47579D01*
X46890D02*
X55472D01*
X46890Y31161D02*
Y47579D01*
Y31161D02*
X55472Y31161D01*
X56929Y28996D02*
Y45413D01*
Y28996D02*
X65512D01*
Y45413D01*
X56929D02*
X65512D01*
X1496Y315D02*
Y12284D01*
Y315D02*
X153465D01*
Y12284D01*
X1496D02*
X153465D01*
X1496Y100315D02*
Y112284D01*
Y100315D02*
X153465D01*
Y112284D01*
X1496D02*
X153465D01*
M02*
