G04*
G04 #@! TF.GenerationSoftware,Altium Limited,Altium Designer,20.1.12 (249)*
G04*
G04 Layer_Color=8388736*
%FSLAX25Y25*%
%MOIN*%
G70*
G04*
G04 #@! TF.SameCoordinates,79CD1AB7-34AE-4695-B2AC-D77BF95EA1B7*
G04*
G04*
G04 #@! TF.FilePolarity,Negative*
G04*
G01*
G75*
G04:AMPARAMS|DCode=33|XSize=59.06mil|YSize=19.68mil|CornerRadius=0mil|HoleSize=0mil|Usage=FLASHONLY|Rotation=45.000|XOffset=0mil|YOffset=0mil|HoleType=Round|Shape=Rectangle|*
%AMROTATEDRECTD33*
4,1,4,-0.01392,-0.02784,-0.02784,-0.01392,0.01392,0.02784,0.02784,0.01392,-0.01392,-0.02784,0.0*
%
%ADD33ROTATEDRECTD33*%

G04:AMPARAMS|DCode=34|XSize=59.06mil|YSize=19.68mil|CornerRadius=0mil|HoleSize=0mil|Usage=FLASHONLY|Rotation=135.000|XOffset=0mil|YOffset=0mil|HoleType=Round|Shape=Rectangle|*
%AMROTATEDRECTD34*
4,1,4,0.02784,-0.01392,0.01392,-0.02784,-0.02784,0.01392,-0.01392,0.02784,0.02784,-0.01392,0.0*
%
%ADD34ROTATEDRECTD34*%

%ADD35R,0.04134X0.07087*%
%ADD36R,0.04055X0.07362*%
%ADD37R,0.01575X0.07087*%
%ADD38R,0.06890X0.06693*%
%ADD39R,0.02559X0.06004*%
%ADD40R,0.10000X0.10512*%
%ADD41R,0.05000X0.03000*%
%ADD42R,0.03740X0.06890*%
%ADD43R,0.12598X0.06890*%
%ADD44R,0.10512X0.10000*%
%ADD45R,0.03000X0.05000*%
%ADD46R,0.07480X0.08268*%
%ADD47R,0.07480X0.05906*%
%ADD48R,0.05315X0.01575*%
%ADD49R,0.01575X0.07874*%
%ADD50R,0.06693X0.06890*%
%ADD51C,0.07087*%
G04:AMPARAMS|DCode=52|XSize=70.87mil|YSize=70.87mil|CornerRadius=8.86mil|HoleSize=0mil|Usage=FLASHONLY|Rotation=180.000|XOffset=0mil|YOffset=0mil|HoleType=Round|Shape=RoundedRectangle|*
%AMROUNDEDRECTD52*
21,1,0.07087,0.05315,0,0,180.0*
21,1,0.05315,0.07087,0,0,180.0*
1,1,0.01772,-0.02657,0.02657*
1,1,0.01772,0.02657,0.02657*
1,1,0.01772,0.02657,-0.02657*
1,1,0.01772,-0.02657,-0.02657*
%
%ADD52ROUNDEDRECTD52*%
G04:AMPARAMS|DCode=53|XSize=70.87mil|YSize=70.87mil|CornerRadius=8.86mil|HoleSize=0mil|Usage=FLASHONLY|Rotation=270.000|XOffset=0mil|YOffset=0mil|HoleType=Round|Shape=RoundedRectangle|*
%AMROUNDEDRECTD53*
21,1,0.07087,0.05315,0,0,270.0*
21,1,0.05315,0.07087,0,0,270.0*
1,1,0.01772,-0.02657,-0.02657*
1,1,0.01772,-0.02657,0.02657*
1,1,0.01772,0.02657,0.02657*
1,1,0.01772,0.02657,-0.02657*
%
%ADD53ROUNDEDRECTD53*%
%ADD54R,0.06791X0.06791*%
%ADD55C,0.06791*%
%ADD56C,0.05709*%
D33*
X59980Y37302D02*
D03*
X62207Y35075D02*
D03*
X64434Y32848D02*
D03*
X66661Y30621D02*
D03*
X68888Y28394D02*
D03*
X71115Y26166D02*
D03*
X73343Y23939D02*
D03*
X75570Y21712D02*
D03*
X99233Y45375D02*
D03*
X97006Y47602D02*
D03*
X94779Y49829D02*
D03*
X92551Y52056D02*
D03*
X90324Y54284D02*
D03*
X88097Y56511D02*
D03*
X85870Y58738D02*
D03*
X83643Y60965D02*
D03*
D34*
Y21712D02*
D03*
X85870Y23939D02*
D03*
X88097Y26166D02*
D03*
X90324Y28394D02*
D03*
X92551Y30621D02*
D03*
X94779Y32848D02*
D03*
X97006Y35075D02*
D03*
X99233Y37302D02*
D03*
X75570Y60965D02*
D03*
X73343Y58738D02*
D03*
X71115Y56511D02*
D03*
X68888Y54284D02*
D03*
X66661Y52056D02*
D03*
X64434Y49829D02*
D03*
X62207Y47602D02*
D03*
X59980Y45375D02*
D03*
D35*
X60630Y59449D02*
D03*
X48819D02*
D03*
X86614Y90551D02*
D03*
X74803D02*
D03*
D36*
X78268Y68898D02*
D03*
X89449D02*
D03*
X140729Y34647D02*
D03*
X151910D02*
D03*
X8189Y21654D02*
D03*
X19370D02*
D03*
X151833Y25492D02*
D03*
X140652D02*
D03*
D37*
X128839Y88976D02*
D03*
X126279D02*
D03*
X123721D02*
D03*
X121161D02*
D03*
X118602D02*
D03*
X116043D02*
D03*
X113484D02*
D03*
X110925D02*
D03*
X108366D02*
D03*
X105807D02*
D03*
X103248D02*
D03*
X100689D02*
D03*
X98130D02*
D03*
X95571D02*
D03*
Y61024D02*
D03*
X98130D02*
D03*
X100689D02*
D03*
X103248D02*
D03*
X105807D02*
D03*
X108366D02*
D03*
X110925D02*
D03*
X113484D02*
D03*
X116043D02*
D03*
X118602D02*
D03*
X121161D02*
D03*
X123721D02*
D03*
X126279D02*
D03*
X128839D02*
D03*
D38*
X41339Y41240D02*
D03*
Y50295D02*
D03*
X9300Y74828D02*
D03*
Y65772D02*
D03*
X30601Y50197D02*
D03*
Y41142D02*
D03*
D39*
X64587Y89417D02*
D03*
X59587D02*
D03*
X54587D02*
D03*
X49587D02*
D03*
Y68063D02*
D03*
X54587D02*
D03*
X59587D02*
D03*
X64587D02*
D03*
D40*
X9300Y86444D02*
D03*
D41*
Y95700D02*
D03*
D42*
X38583Y91142D02*
D03*
X29528D02*
D03*
X20472D02*
D03*
D43*
X29528Y66339D02*
D03*
D44*
X144095Y87008D02*
D03*
D45*
X153350D02*
D03*
D46*
X149606Y45473D02*
D03*
Y71850D02*
D03*
D47*
Y54724D02*
D03*
Y62598D02*
D03*
D48*
X138977Y58661D02*
D03*
Y61221D02*
D03*
Y56102D02*
D03*
Y63780D02*
D03*
Y53543D02*
D03*
D49*
X82284Y81890D02*
D03*
X77559D02*
D03*
X72835D02*
D03*
D50*
X131693Y32776D02*
D03*
X122638D02*
D03*
D51*
X35433Y23622D02*
D03*
X19526Y53307D02*
D03*
X9526Y43307D02*
D03*
Y33307D02*
D03*
X19526D02*
D03*
Y43307D02*
D03*
X149606Y44882D02*
D03*
Y72441D02*
D03*
D52*
X45433Y23622D02*
D03*
D53*
X9526Y53307D02*
D03*
D54*
X7480Y6299D02*
D03*
Y106299D02*
D03*
D55*
X17480Y6299D02*
D03*
X27480D02*
D03*
X37480D02*
D03*
X47480D02*
D03*
X57480D02*
D03*
X67480D02*
D03*
X77480D02*
D03*
X87480D02*
D03*
X97480D02*
D03*
X107480D02*
D03*
X117480D02*
D03*
X127480D02*
D03*
X137480D02*
D03*
X147480D02*
D03*
X17480Y106299D02*
D03*
X27480D02*
D03*
X37480D02*
D03*
X47480D02*
D03*
X57480D02*
D03*
X67480D02*
D03*
X77480D02*
D03*
X87480D02*
D03*
X97480D02*
D03*
X107480D02*
D03*
X117480D02*
D03*
X127480D02*
D03*
X137480D02*
D03*
X147480D02*
D03*
D56*
X138977Y68504D02*
D03*
Y48819D02*
D03*
M02*
