G04*
G04 #@! TF.GenerationSoftware,Altium Limited,Altium Designer,20.1.12 (249)*
G04*
G04 Layer_Physical_Order=2*
G04 Layer_Color=16711680*
%FSLAX25Y25*%
%MOIN*%
G70*
G04*
G04 #@! TF.SameCoordinates,79CD1AB7-34AE-4695-B2AC-D77BF95EA1B7*
G04*
G04*
G04 #@! TF.FilePolarity,Positive*
G04*
G01*
G75*
%ADD12C,0.01575*%
%ADD35R,0.04134X0.07087*%
%ADD36R,0.04055X0.07362*%
%ADD38R,0.06890X0.06693*%
%ADD51C,0.07087*%
G04:AMPARAMS|DCode=52|XSize=70.87mil|YSize=70.87mil|CornerRadius=8.86mil|HoleSize=0mil|Usage=FLASHONLY|Rotation=180.000|XOffset=0mil|YOffset=0mil|HoleType=Round|Shape=RoundedRectangle|*
%AMROUNDEDRECTD52*
21,1,0.07087,0.05315,0,0,180.0*
21,1,0.05315,0.07087,0,0,180.0*
1,1,0.01772,-0.02657,0.02657*
1,1,0.01772,0.02657,0.02657*
1,1,0.01772,0.02657,-0.02657*
1,1,0.01772,-0.02657,-0.02657*
%
%ADD52ROUNDEDRECTD52*%
G04:AMPARAMS|DCode=53|XSize=70.87mil|YSize=70.87mil|CornerRadius=8.86mil|HoleSize=0mil|Usage=FLASHONLY|Rotation=270.000|XOffset=0mil|YOffset=0mil|HoleType=Round|Shape=RoundedRectangle|*
%AMROUNDEDRECTD53*
21,1,0.07087,0.05315,0,0,270.0*
21,1,0.05315,0.07087,0,0,270.0*
1,1,0.01772,-0.02657,-0.02657*
1,1,0.01772,-0.02657,0.02657*
1,1,0.01772,0.02657,0.02657*
1,1,0.01772,0.02657,-0.02657*
%
%ADD53ROUNDEDRECTD53*%
%ADD54R,0.06791X0.06791*%
%ADD55C,0.06791*%
%ADD56C,0.05709*%
%ADD57C,0.01378*%
%ADD58C,0.03937*%
%ADD59C,0.01575*%
%ADD60R,0.03347X0.13504*%
%ADD61R,0.07087X0.04134*%
%ADD62R,0.07362X0.04055*%
%ADD63R,0.02559X0.07284*%
G04:AMPARAMS|DCode=64|XSize=78.74mil|YSize=15.75mil|CornerRadius=0mil|HoleSize=0mil|Usage=FLASHONLY|Rotation=45.000|XOffset=0mil|YOffset=0mil|HoleType=Round|Shape=Rectangle|*
%AMROTATEDRECTD64*
4,1,4,-0.02227,-0.03341,-0.03341,-0.02227,0.02227,0.03341,0.03341,0.02227,-0.02227,-0.03341,0.0*
%
%ADD64ROTATEDRECTD64*%

G36*
X157087Y394D02*
X25247Y394D01*
X25172Y576D01*
X26935Y2338D01*
X27480Y2267D01*
X28524Y2404D01*
X29497Y2807D01*
X30332Y3448D01*
X30973Y4283D01*
X31375Y5255D01*
X31513Y6299D01*
X31375Y7343D01*
X30973Y8315D01*
X30332Y9151D01*
X29497Y9792D01*
X29458Y9807D01*
X29497Y10000D01*
X31775D01*
X33833Y7942D01*
X33585Y7343D01*
X33448Y6299D01*
X33585Y5255D01*
X33988Y4283D01*
X34629Y3448D01*
X35464Y2807D01*
X36437Y2404D01*
X37480Y2267D01*
X38524Y2404D01*
X39497Y2807D01*
X40332Y3448D01*
X40973Y4283D01*
X41375Y5255D01*
X41513Y6299D01*
X41375Y7343D01*
X40973Y8315D01*
X40332Y9151D01*
X39497Y9792D01*
X38524Y10194D01*
X37480Y10332D01*
X36437Y10194D01*
X35837Y9946D01*
X33786Y11998D01*
X33861Y12179D01*
X38334D01*
X38549Y12036D01*
X39053Y11935D01*
X39053Y11935D01*
X103016D01*
X103520Y12036D01*
X103947Y12321D01*
X120256Y28630D01*
X123929D01*
Y36921D01*
X118779D01*
X118640Y37061D01*
Y39259D01*
X118740Y39764D01*
X118632Y40306D01*
X118325Y40766D01*
X117865Y41073D01*
X117323Y41181D01*
X116781Y41073D01*
X116321Y40766D01*
X116014Y40306D01*
X115906Y39764D01*
X116006Y39259D01*
Y36516D01*
X116106Y36012D01*
X116392Y35585D01*
X118591Y33386D01*
Y30689D01*
X102470Y14569D01*
X99365D01*
X99290Y14751D01*
X110694Y26155D01*
X111172Y26250D01*
X111632Y26557D01*
X111939Y27017D01*
X112047Y27559D01*
X111939Y28101D01*
X111632Y28561D01*
X111172Y28868D01*
X110630Y28976D01*
X110088Y28868D01*
X110041Y28837D01*
X109732Y28776D01*
X109305Y28490D01*
X97364Y16549D01*
X93886D01*
X93828Y16737D01*
X93901Y16785D01*
X99787Y22672D01*
X100215Y22957D01*
X100522Y23417D01*
X100630Y23959D01*
X100522Y24502D01*
X100215Y24961D01*
X99755Y25269D01*
X99478Y25324D01*
X99421Y25512D01*
X102514Y28605D01*
X107638D01*
X108142Y28705D01*
X108569Y28990D01*
X111598Y32019D01*
X112026Y32305D01*
X112333Y32765D01*
X112441Y33307D01*
X112333Y33849D01*
X112026Y34309D01*
X111566Y34616D01*
X111024Y34724D01*
X110481Y34616D01*
X110022Y34309D01*
X109736Y33881D01*
X107092Y31238D01*
X101969D01*
X101969Y31238D01*
X101587Y31162D01*
X101468Y31339D01*
X101566Y31485D01*
X101673Y32027D01*
X101566Y32569D01*
X101259Y33029D01*
X100799Y33336D01*
X100257Y33444D01*
X99714Y33336D01*
X99693Y33322D01*
X99520Y33415D01*
Y34510D01*
X106826D01*
X107330Y34610D01*
X107757Y34896D01*
X110628Y37766D01*
X110628Y37766D01*
X113923Y41062D01*
X114208Y41489D01*
X114309Y41993D01*
Y42705D01*
X122158D01*
Y44061D01*
X125874D01*
Y42705D01*
X130814D01*
Y41981D01*
X130922Y41439D01*
X131229Y40979D01*
X135106Y37103D01*
X135030Y36921D01*
X130402D01*
Y33345D01*
X130384Y33318D01*
X130276Y32776D01*
X130384Y32233D01*
X130402Y32207D01*
Y28630D01*
X135740D01*
Y36211D01*
X135922Y36287D01*
X136465Y35744D01*
Y29181D01*
X141724D01*
Y37748D01*
X138469D01*
X133709Y42508D01*
X133790Y42705D01*
X133968D01*
Y47019D01*
X134142Y47112D01*
X134214Y47064D01*
X134756Y46956D01*
X135298Y47064D01*
X135758Y47371D01*
X136065Y47831D01*
X136173Y48373D01*
X136065Y48915D01*
X135974Y49051D01*
Y59590D01*
X135962Y59649D01*
Y91974D01*
X146405Y102417D01*
X146437Y102404D01*
X147480Y102267D01*
X148524Y102404D01*
X149497Y102807D01*
X150332Y103448D01*
X150973Y104283D01*
X151375Y105255D01*
X151513Y106299D01*
X151375Y107343D01*
X150973Y108316D01*
X150332Y109151D01*
X149497Y109792D01*
X148524Y110194D01*
X147480Y110332D01*
X146437Y110194D01*
X145464Y109792D01*
X144629Y109151D01*
X143988Y108316D01*
X143585Y107343D01*
X143448Y106299D01*
X143585Y105255D01*
X143988Y104283D01*
X144231Y103967D01*
X133715Y93451D01*
X133429Y93024D01*
X133329Y92520D01*
Y74211D01*
X133132Y74192D01*
X133106Y74323D01*
X132821Y74750D01*
X131016Y76555D01*
Y80917D01*
X127546D01*
X127464Y81114D01*
X129671Y83321D01*
X129957Y83748D01*
X130057Y84252D01*
Y85631D01*
X130157Y86135D01*
X130049Y86677D01*
X129742Y87137D01*
X129282Y87444D01*
X128740Y87552D01*
X128198Y87444D01*
X127738Y87137D01*
X127431Y86677D01*
X127323Y86135D01*
X127424Y85631D01*
Y84797D01*
X125833Y83206D01*
X113799D01*
X113295Y83106D01*
X112868Y82821D01*
X112061Y82014D01*
X111776Y81586D01*
X111676Y81083D01*
Y78019D01*
X111502Y77926D01*
X111271Y78081D01*
X110728Y78189D01*
X110186Y78081D01*
X109726Y77774D01*
X109234Y77281D01*
X108927Y76822D01*
X108819Y76279D01*
Y69874D01*
X100441D01*
X100332Y70026D01*
Y80360D01*
X102317Y82345D01*
X110827D01*
X111331Y82445D01*
X111758Y82730D01*
X115892Y86864D01*
X116177Y87291D01*
X116277Y87795D01*
Y93549D01*
X118133Y95405D01*
X118315Y95330D01*
Y87449D01*
X123575D01*
Y96016D01*
X119001D01*
X118926Y96198D01*
X120624Y97896D01*
X131859D01*
X132362Y97996D01*
X132790Y98282D01*
X136857Y102349D01*
X137480Y102267D01*
X138524Y102404D01*
X139497Y102807D01*
X140332Y103448D01*
X140973Y104283D01*
X141375Y105255D01*
X141513Y106299D01*
X141375Y107343D01*
X140973Y108316D01*
X140332Y109151D01*
X139497Y109792D01*
X138524Y110194D01*
X137480Y110332D01*
X136437Y110194D01*
X135464Y109792D01*
X134629Y109151D01*
X133988Y108316D01*
X133585Y107343D01*
X133448Y106299D01*
X133585Y105255D01*
X133988Y104283D01*
X134456Y103673D01*
X131313Y100529D01*
X122863D01*
X122758Y100726D01*
X122963Y101032D01*
X123071Y101575D01*
X122963Y102117D01*
X122655Y102577D01*
X122196Y102884D01*
X121653Y102992D01*
X121347Y102931D01*
X119964D01*
X119901Y103117D01*
X120332Y103448D01*
X120973Y104283D01*
X121375Y105255D01*
X121513Y106299D01*
X121375Y107343D01*
X120973Y108316D01*
X120332Y109151D01*
X119497Y109792D01*
X118524Y110194D01*
X117480Y110332D01*
X116437Y110194D01*
X115464Y109792D01*
X114629Y109151D01*
X113988Y108316D01*
X113585Y107343D01*
X113448Y106299D01*
X113585Y105255D01*
X113988Y104283D01*
X114629Y103448D01*
X115060Y103117D01*
X114997Y102931D01*
X109964D01*
X109901Y103117D01*
X110332Y103448D01*
X110973Y104283D01*
X111375Y105255D01*
X111513Y106299D01*
X111375Y107343D01*
X110973Y108316D01*
X110332Y109151D01*
X109497Y109792D01*
X108524Y110194D01*
X107480Y110332D01*
X106437Y110194D01*
X105464Y109792D01*
X104629Y109151D01*
X103988Y108316D01*
X103585Y107343D01*
X103448Y106299D01*
X103585Y105255D01*
X103988Y104283D01*
X104629Y103448D01*
X105060Y103117D01*
X104997Y102931D01*
X99964D01*
X99901Y103117D01*
X100332Y103448D01*
X100973Y104283D01*
X101375Y105255D01*
X101513Y106299D01*
X101375Y107343D01*
X100973Y108316D01*
X100332Y109151D01*
X99497Y109792D01*
X98524Y110194D01*
X97480Y110332D01*
X96437Y110194D01*
X95464Y109792D01*
X94629Y109151D01*
X93988Y108316D01*
X93585Y107343D01*
X93448Y106299D01*
X93585Y105255D01*
X93988Y104283D01*
X94629Y103448D01*
X95060Y103117D01*
X94997Y102931D01*
X89964D01*
X89901Y103117D01*
X90332Y103448D01*
X90973Y104283D01*
X91375Y105255D01*
X91513Y106299D01*
X91375Y107343D01*
X90973Y108316D01*
X90332Y109151D01*
X89497Y109792D01*
X88524Y110194D01*
X87480Y110332D01*
X86437Y110194D01*
X85464Y109792D01*
X84629Y109151D01*
X83988Y108316D01*
X83585Y107343D01*
X83448Y106299D01*
X83585Y105255D01*
X83988Y104283D01*
X84629Y103448D01*
X85060Y103117D01*
X84996Y102931D01*
X79964D01*
X79901Y103117D01*
X80332Y103448D01*
X80973Y104283D01*
X81375Y105255D01*
X81513Y106299D01*
X81375Y107343D01*
X80973Y108316D01*
X80332Y109151D01*
X79497Y109792D01*
X78524Y110194D01*
X77480Y110332D01*
X76437Y110194D01*
X75464Y109792D01*
X74629Y109151D01*
X73988Y108316D01*
X73585Y107343D01*
X73448Y106299D01*
X73585Y105255D01*
X73988Y104283D01*
X74629Y103448D01*
X75060Y103117D01*
X74997Y102931D01*
X69964D01*
X69901Y103117D01*
X70332Y103448D01*
X70973Y104283D01*
X71375Y105255D01*
X71513Y106299D01*
X71375Y107343D01*
X70973Y108316D01*
X70332Y109151D01*
X69497Y109792D01*
X68524Y110194D01*
X67480Y110332D01*
X66437Y110194D01*
X65464Y109792D01*
X64629Y109151D01*
X63988Y108316D01*
X63585Y107343D01*
X63448Y106299D01*
X63585Y105255D01*
X63988Y104283D01*
X64629Y103448D01*
X65060Y103117D01*
X64996Y102931D01*
X64325D01*
X64174Y103032D01*
X63632Y103139D01*
X63090Y103032D01*
X62630Y102724D01*
X62323Y102265D01*
X62312Y102210D01*
X62124Y102153D01*
X60548Y103729D01*
X60973Y104283D01*
X61375Y105255D01*
X61513Y106299D01*
X61375Y107343D01*
X60973Y108316D01*
X60332Y109151D01*
X59497Y109792D01*
X58524Y110194D01*
X57480Y110332D01*
X56437Y110194D01*
X55464Y109792D01*
X54629Y109151D01*
X53988Y108316D01*
X53585Y107343D01*
X53448Y106299D01*
X53585Y105255D01*
X53988Y104283D01*
X54629Y103448D01*
X55464Y102807D01*
X56437Y102404D01*
X57480Y102267D01*
X58192Y102360D01*
X62049Y98504D01*
X62258Y98364D01*
X62199Y98167D01*
X57474D01*
X51086Y104556D01*
X51375Y105255D01*
X51513Y106299D01*
X51375Y107343D01*
X50973Y108316D01*
X50332Y109151D01*
X49497Y109792D01*
X48524Y110194D01*
X47480Y110332D01*
X46437Y110194D01*
X45464Y109792D01*
X44629Y109151D01*
X43988Y108316D01*
X43585Y107343D01*
X43448Y106299D01*
X43585Y105255D01*
X43988Y104283D01*
X44629Y103448D01*
X45464Y102807D01*
X46437Y102404D01*
X47480Y102267D01*
X48524Y102404D01*
X49224Y102694D01*
X55998Y95919D01*
X56355Y95681D01*
X56295Y95484D01*
X55047D01*
Y87571D01*
X54850Y87456D01*
X54366Y87552D01*
X54008Y87481D01*
X53811Y87643D01*
Y95484D01*
X50047D01*
Y91402D01*
X49898Y91302D01*
X49591Y90842D01*
X49483Y90300D01*
X49591Y89758D01*
X49898Y89298D01*
X50047Y89198D01*
Y86996D01*
X53061D01*
X53154Y86822D01*
X53057Y86677D01*
X52949Y86135D01*
Y85829D01*
X52199Y85078D01*
X47240D01*
X45505Y86814D01*
X45580Y86996D01*
X48811D01*
Y95484D01*
X45047D01*
Y87529D01*
X44865Y87454D01*
X38897Y93422D01*
Y102559D01*
X39497Y102807D01*
X40332Y103448D01*
X40973Y104283D01*
X41375Y105255D01*
X41513Y106299D01*
X41375Y107343D01*
X40973Y108316D01*
X40332Y109151D01*
X39497Y109792D01*
X38524Y110194D01*
X37480Y110332D01*
X36437Y110194D01*
X35464Y109792D01*
X34629Y109151D01*
X33988Y108316D01*
X33585Y107343D01*
X33448Y106299D01*
X33585Y105255D01*
X33988Y104283D01*
X34629Y103448D01*
X35464Y102807D01*
X36063Y102559D01*
Y92835D01*
X36171Y92292D01*
X36478Y91833D01*
X45652Y82660D01*
X46111Y82352D01*
X46654Y82244D01*
X52786D01*
X53328Y82352D01*
X53788Y82660D01*
X55368Y84240D01*
X55676Y84700D01*
X55783Y85242D01*
Y86135D01*
X55676Y86677D01*
X55579Y86822D01*
X55672Y86996D01*
X58811D01*
X58811Y95484D01*
X58987Y95534D01*
X59871D01*
X60047Y95484D01*
X60047Y95337D01*
Y86996D01*
X63811D01*
X63811Y95484D01*
X63987Y95534D01*
X64871D01*
X65047Y95484D01*
X65047Y95337D01*
Y86996D01*
X68811D01*
X68811Y95484D01*
X68987Y95534D01*
X69871D01*
X70047Y95484D01*
X70047Y95337D01*
Y86996D01*
X73811D01*
X73811Y95484D01*
X73987Y95534D01*
X74122D01*
X74626Y95634D01*
X75053Y95919D01*
X75272Y96138D01*
X88284D01*
X88376Y95964D01*
X88246Y95769D01*
X88138Y95227D01*
X88246Y94684D01*
X88447Y94383D01*
Y85191D01*
X83321Y80065D01*
X83036Y79638D01*
X82935Y79134D01*
Y69627D01*
X81636Y68327D01*
X81350Y67900D01*
X81174Y67955D01*
Y76764D01*
X81274Y77269D01*
X81166Y77811D01*
X80859Y78271D01*
X80400Y78578D01*
X79857Y78686D01*
X79315Y78578D01*
X78855Y78271D01*
X78548Y77811D01*
X78440Y77269D01*
X78541Y76764D01*
Y75424D01*
X78344Y75364D01*
X78096Y75734D01*
X72585Y81246D01*
X72157Y81531D01*
X71653Y81632D01*
X45427D01*
X28797Y98262D01*
Y102517D01*
X29497Y102807D01*
X30332Y103448D01*
X30973Y104283D01*
X31375Y105255D01*
X31513Y106299D01*
X31375Y107343D01*
X30973Y108316D01*
X30332Y109151D01*
X29497Y109792D01*
X28524Y110194D01*
X27480Y110332D01*
X26437Y110194D01*
X25464Y109792D01*
X24629Y109151D01*
X23988Y108316D01*
X23585Y107343D01*
X23448Y106299D01*
X23585Y105255D01*
X23988Y104283D01*
X24629Y103448D01*
X25464Y102807D01*
X26164Y102517D01*
Y98954D01*
X7479D01*
X6975Y98854D01*
X6548Y98569D01*
X3006Y95027D01*
X2721Y94600D01*
X2620Y94096D01*
Y48142D01*
X2520Y47638D01*
X2628Y47096D01*
X2935Y46636D01*
X3395Y46329D01*
X3937Y46221D01*
X4479Y46329D01*
X4939Y46636D01*
X5246Y47096D01*
X5354Y47638D01*
X5254Y48142D01*
Y50130D01*
X5451Y50150D01*
X5466Y50069D01*
X5796Y49577D01*
X6288Y49248D01*
X6868Y49132D01*
X12183D01*
X12764Y49248D01*
X13256Y49577D01*
X13585Y50069D01*
X13701Y50650D01*
Y55965D01*
X13585Y56545D01*
X13386Y56844D01*
Y58626D01*
X15941Y61181D01*
X41634D01*
X42176Y61289D01*
X42636Y61597D01*
X46256Y65217D01*
X57512D01*
X59410Y63319D01*
X59368Y63180D01*
X59323Y63128D01*
X55512D01*
X55008Y63027D01*
X54581Y62742D01*
X50998Y59159D01*
X50713Y58732D01*
X50701Y58673D01*
X50047D01*
Y50185D01*
X53811D01*
Y58248D01*
X56057Y60494D01*
X59338D01*
X59842Y60394D01*
X60385Y60502D01*
X60429Y60532D01*
X60603Y60439D01*
Y58673D01*
X60047D01*
Y50733D01*
X59865Y50658D01*
X58836Y51687D01*
Y53839D01*
X58811Y53966D01*
Y58673D01*
X55047D01*
Y50185D01*
X56614D01*
X61192Y45607D01*
X61117Y45425D01*
X56937D01*
Y45118D01*
X55591D01*
X55492Y45138D01*
X55465D01*
Y47591D01*
X46898D01*
Y46299D01*
X44681D01*
X42362Y48618D01*
Y48906D01*
X45090D01*
Y50158D01*
X46437D01*
X46574Y50185D01*
X48811D01*
Y56243D01*
X48947Y56446D01*
X49055Y56988D01*
X48947Y57530D01*
X48811Y57734D01*
Y58673D01*
X45047D01*
Y54244D01*
X36799D01*
Y52893D01*
X35140D01*
Y54047D01*
X26849D01*
Y53759D01*
X23648D01*
X23565Y54389D01*
X23147Y55398D01*
X22483Y56264D01*
X21617Y56928D01*
X20608Y57346D01*
X19526Y57489D01*
X18444Y57346D01*
X17435Y56928D01*
X16569Y56264D01*
X15905Y55398D01*
X15487Y54389D01*
X15344Y53307D01*
X15487Y52225D01*
X15905Y51216D01*
X16569Y50350D01*
X17435Y49686D01*
X18444Y49268D01*
X19526Y49126D01*
X20608Y49268D01*
X21617Y49686D01*
X22483Y50350D01*
X22924Y50925D01*
X26849D01*
Y48709D01*
X34804D01*
Y43099D01*
X34703Y42949D01*
X34595Y42406D01*
Y42236D01*
X26849D01*
Y36898D01*
X34595D01*
Y35642D01*
X34703Y35100D01*
X35010Y34640D01*
X36830Y32820D01*
X37290Y32513D01*
X37832Y32405D01*
X38669D01*
Y28138D01*
X44008D01*
Y36429D01*
X38669D01*
Y35239D01*
X38419D01*
X37429Y36229D01*
Y37095D01*
X45090D01*
Y42433D01*
X37756D01*
X37631Y42585D01*
X37637Y42615D01*
Y48906D01*
X39528D01*
Y48031D01*
X39636Y47489D01*
X39943Y47030D01*
X43093Y43880D01*
X43552Y43573D01*
X44094Y43465D01*
X46898D01*
Y42331D01*
X52284D01*
X52421Y42303D01*
X55413D01*
X55512Y42284D01*
X56937D01*
Y40165D01*
X62665D01*
Y39757D01*
X62773Y39215D01*
X63080Y38755D01*
X64648Y37187D01*
X65107Y36880D01*
X65650Y36772D01*
X66192Y36880D01*
X66652Y37187D01*
X66959Y37647D01*
X67067Y38189D01*
X66959Y38731D01*
X66652Y39191D01*
X65504Y40339D01*
Y44188D01*
X65686Y44263D01*
X67291Y42658D01*
Y32266D01*
X67392Y31762D01*
X67581Y31478D01*
Y26193D01*
X62685D01*
Y19764D01*
X61451Y18529D01*
X56213D01*
Y26193D01*
X50874D01*
Y24939D01*
X49608D01*
Y26280D01*
X49492Y26860D01*
X49163Y27352D01*
X48671Y27681D01*
X48091Y27797D01*
X42776D01*
X42195Y27681D01*
X41703Y27352D01*
X41374Y26860D01*
X41258Y26280D01*
Y20965D01*
X41374Y20384D01*
X41703Y19892D01*
X42195Y19563D01*
X42776Y19447D01*
X48091D01*
X48671Y19563D01*
X49163Y19892D01*
X49492Y20384D01*
X49608Y20965D01*
Y22305D01*
X50874D01*
Y18529D01*
X42388D01*
X39151Y21766D01*
X39472Y22540D01*
X39614Y23622D01*
X39472Y24704D01*
X39054Y25713D01*
X38390Y26579D01*
X37524Y27243D01*
X36515Y27661D01*
X35433Y27804D01*
X34351Y27661D01*
X33342Y27243D01*
X32476Y26579D01*
X31812Y25713D01*
X31394Y24704D01*
X31252Y23622D01*
X31394Y22540D01*
X31812Y21531D01*
X32476Y20665D01*
X33321Y20017D01*
X33314Y19858D01*
X33307Y19821D01*
X29441D01*
X25677Y23585D01*
Y37451D01*
X25577Y37954D01*
X25291Y38381D01*
X22847Y40826D01*
X23147Y41216D01*
X23565Y42225D01*
X23707Y43307D01*
X23565Y44389D01*
X23147Y45398D01*
X22483Y46264D01*
X21617Y46928D01*
X20608Y47346D01*
X19526Y47488D01*
X18444Y47346D01*
X17435Y46928D01*
X16569Y46264D01*
X15905Y45398D01*
X15487Y44389D01*
X15344Y43307D01*
X15487Y42225D01*
X15905Y41216D01*
X16569Y40350D01*
X17435Y39686D01*
X18444Y39268D01*
X19526Y39126D01*
X20608Y39268D01*
X20660Y39290D01*
X23044Y36905D01*
Y23040D01*
X23144Y22536D01*
X23429Y22108D01*
X27965Y17573D01*
X28154Y17447D01*
X28095Y17250D01*
X27221D01*
X26920Y17451D01*
X26378Y17559D01*
X25836Y17451D01*
X25376Y17144D01*
X25069Y16684D01*
X24961Y16142D01*
X25069Y15599D01*
X25376Y15140D01*
X25571Y15010D01*
X25511Y14813D01*
X22876D01*
X8646Y29043D01*
X8738Y29229D01*
X9526Y29126D01*
X10608Y29268D01*
X11617Y29686D01*
X12483Y30350D01*
X13147Y31216D01*
X13565Y32225D01*
X13707Y33307D01*
X13565Y34389D01*
X13147Y35398D01*
X12483Y36264D01*
X11617Y36928D01*
X10608Y37346D01*
X9526Y37488D01*
X8444Y37346D01*
X7435Y36928D01*
X6569Y36264D01*
X5905Y35398D01*
X5487Y34389D01*
X5451Y34113D01*
X5254Y34126D01*
Y37173D01*
X7670Y39589D01*
X8444Y39268D01*
X9526Y39126D01*
X10608Y39268D01*
X11617Y39686D01*
X12483Y40350D01*
X13147Y41216D01*
X13565Y42225D01*
X13707Y43307D01*
X13565Y44389D01*
X13147Y45398D01*
X12483Y46264D01*
X11617Y46928D01*
X10608Y47346D01*
X9526Y47488D01*
X8444Y47346D01*
X7435Y46928D01*
X6569Y46264D01*
X5905Y45398D01*
X5487Y44389D01*
X5344Y43307D01*
X5487Y42225D01*
X5807Y41451D01*
X3006Y38649D01*
X2721Y38222D01*
X2620Y37718D01*
Y31890D01*
X2721Y31386D01*
X3006Y30959D01*
X20949Y13016D01*
X20873Y12834D01*
X20272D01*
X16099Y17008D01*
X16085Y17078D01*
X15777Y17537D01*
X15318Y17845D01*
X14776Y17952D01*
X14233Y17845D01*
X13774Y17537D01*
X13466Y17078D01*
X13359Y16535D01*
Y16361D01*
X13203Y16229D01*
X13141Y16270D01*
X12598Y16378D01*
X12056Y16270D01*
X11597Y15963D01*
X11289Y15503D01*
X11181Y14961D01*
Y10297D01*
X3482D01*
Y2301D01*
X11478D01*
Y2775D01*
X11675Y2856D01*
X13956Y576D01*
X13881Y394D01*
X394D01*
Y112205D01*
X157087D01*
Y394D01*
D02*
G37*
G36*
X118919Y99915D02*
X114030Y95025D01*
X113744Y94598D01*
X113644Y94095D01*
Y88341D01*
X110281Y84978D01*
X101772D01*
X101268Y84878D01*
X100841Y84592D01*
X98085Y81836D01*
X97970Y81665D01*
X97773Y81725D01*
Y96063D01*
X97773Y96063D01*
X97673Y96567D01*
X97388Y96994D01*
X97388Y96994D01*
X94467Y99915D01*
X94542Y100097D01*
X118844D01*
X118919Y99915D01*
D02*
G37*
G36*
X120337Y75045D02*
Y67040D01*
X120237Y66535D01*
X120344Y65993D01*
X120652Y65534D01*
X121111Y65226D01*
X121653Y65118D01*
X122196Y65226D01*
X122655Y65534D01*
X122708Y65611D01*
X122896Y65554D01*
Y64128D01*
X121502Y62734D01*
X119381D01*
X119205Y62783D01*
Y71075D01*
X114309D01*
Y72626D01*
X119205D01*
Y75455D01*
X119927D01*
X120337Y75045D01*
D02*
G37*
G36*
X92778Y93549D02*
Y63124D01*
X89209Y59556D01*
X88781Y59270D01*
X88474Y58810D01*
X88447Y58673D01*
X87677D01*
X87657Y58870D01*
X87944Y58927D01*
X88403Y59234D01*
X88711Y59694D01*
X88819Y60236D01*
Y71067D01*
X91159Y73408D01*
X91467Y73867D01*
X91575Y74410D01*
X91467Y74952D01*
X91159Y75411D01*
X90700Y75719D01*
X90158Y75826D01*
X89615Y75719D01*
X89156Y75411D01*
X86400Y72655D01*
X86092Y72196D01*
X85985Y71653D01*
Y60236D01*
X86092Y59694D01*
X86400Y59234D01*
X86859Y58927D01*
X87146Y58870D01*
X87126Y58673D01*
X85047D01*
Y50185D01*
X88811D01*
Y57037D01*
X88985Y57130D01*
X89241Y56959D01*
X89784Y56851D01*
X89787Y56851D01*
X89906Y56674D01*
X89728Y56409D01*
X89628Y55905D01*
Y50051D01*
X89728Y49547D01*
X90014Y49120D01*
X91198Y47936D01*
X91209Y47883D01*
X91516Y47423D01*
X91976Y47116D01*
X92518Y47008D01*
X93060Y47116D01*
X93492Y47404D01*
X93689Y47348D01*
Y41327D01*
X99028D01*
Y44156D01*
X108071D01*
X108575Y44256D01*
X109002Y44541D01*
X111167Y46707D01*
X111453Y47134D01*
X111479Y47265D01*
X111676Y47245D01*
Y42538D01*
X108766Y39628D01*
X108766Y39628D01*
X106281Y37143D01*
X99520D01*
Y40465D01*
X94181D01*
Y32173D01*
X98284D01*
X98359Y31991D01*
X90519Y24151D01*
X77970D01*
X77888Y24348D01*
X80807Y27267D01*
X80923Y27345D01*
X81001Y27461D01*
X84114Y30574D01*
X82696Y31991D01*
X82771Y32173D01*
X87709D01*
Y38144D01*
X87897Y38201D01*
X87974Y38086D01*
X88434Y37778D01*
X88976Y37671D01*
X89519Y37778D01*
X89978Y38086D01*
X90285Y38545D01*
X90318Y38708D01*
X92943Y41333D01*
X93250Y41792D01*
X93358Y42335D01*
X93250Y42877D01*
X92943Y43337D01*
X92483Y43644D01*
X91941Y43752D01*
X91399Y43644D01*
X90939Y43337D01*
X87974Y40372D01*
X87897Y40256D01*
X87709Y40313D01*
Y40465D01*
X84282D01*
X83897Y40722D01*
X83354Y40830D01*
X82812Y40722D01*
X82427Y40465D01*
X82370D01*
Y40426D01*
X82352Y40415D01*
X82045Y39955D01*
X81937Y39413D01*
X81983Y39185D01*
X81801Y39088D01*
X70886Y50003D01*
X70961Y50185D01*
X71949D01*
X73852Y48282D01*
X74280Y47996D01*
X74783Y47896D01*
X74783Y47896D01*
X80315D01*
X80819Y47996D01*
X80832Y48005D01*
X81251Y48088D01*
X81681Y48376D01*
X81878Y48319D01*
Y44414D01*
X81583Y44217D01*
X81276Y43757D01*
X81168Y43215D01*
X81276Y42673D01*
X81583Y42213D01*
X81878Y42016D01*
Y41327D01*
X87217D01*
Y49618D01*
X82082D01*
X82018Y49940D01*
X81970Y50011D01*
X82063Y50185D01*
X83811D01*
Y58673D01*
X80047D01*
Y50627D01*
X79977Y50580D01*
X79958Y50576D01*
X79888Y50529D01*
X78811D01*
Y58673D01*
X75047D01*
Y51068D01*
X74865Y50993D01*
X73811Y52047D01*
Y58673D01*
X72759D01*
X72699Y58870D01*
X72931Y59025D01*
X73217Y59453D01*
X76460Y62696D01*
X76633Y62611D01*
X76642Y62599D01*
X76536Y62067D01*
X76644Y61525D01*
X76951Y61065D01*
X77411Y60758D01*
X77953Y60650D01*
X78495Y60758D01*
X78955Y61065D01*
X79241Y61493D01*
X83498Y65750D01*
X83783Y66177D01*
X83884Y66681D01*
Y66851D01*
X85183Y68151D01*
X85468Y68578D01*
X85569Y69081D01*
X85569Y69082D01*
Y78588D01*
X90695Y83715D01*
X90980Y84142D01*
X91080Y84646D01*
X91080Y84646D01*
Y94965D01*
X91080Y94965D01*
X91077Y94984D01*
X91250Y95077D01*
X92778Y93549D01*
D02*
G37*
G36*
X98085Y66884D02*
X99207Y65762D01*
X99634Y65477D01*
X100138Y65376D01*
X100184D01*
X100441Y65325D01*
Y64614D01*
X109008D01*
Y65926D01*
X109196Y65984D01*
X109234Y65927D01*
X109694Y65620D01*
X110236Y65512D01*
X110778Y65620D01*
X111238Y65927D01*
X111479Y66287D01*
X111676Y66228D01*
Y65506D01*
X109305Y63136D01*
X109020Y62709D01*
X108920Y62205D01*
Y55071D01*
X100441D01*
Y54860D01*
X94148D01*
X94077Y54846D01*
X93996Y54862D01*
X93454Y54754D01*
X92994Y54447D01*
X92687Y53987D01*
X92579Y53445D01*
X92687Y52903D01*
X92994Y52443D01*
X93454Y52136D01*
X93996Y52028D01*
X94538Y52136D01*
X94674Y52227D01*
X100441D01*
Y49811D01*
X108920D01*
Y48183D01*
X107526Y46789D01*
X99028D01*
Y49618D01*
X93689D01*
Y49501D01*
X93492Y49445D01*
X93253Y49605D01*
X92261Y50597D01*
Y55360D01*
X97388Y60486D01*
X97673Y60913D01*
X97773Y61417D01*
X97773Y61417D01*
Y66996D01*
X97970Y67055D01*
X98085Y66884D01*
D02*
G37*
G36*
X37058Y86276D02*
X36983Y86094D01*
X32764D01*
Y79964D01*
X32535Y79411D01*
X32446Y78740D01*
Y75326D01*
X29662Y72542D01*
X29250Y72005D01*
X28991Y71380D01*
X28969Y71213D01*
X27213D01*
Y65953D01*
X28207D01*
X28218Y65895D01*
X28526Y65435D01*
X28985Y65128D01*
X29528Y65020D01*
X30070Y65128D01*
X30529Y65435D01*
X31047Y65953D01*
X35780D01*
Y71213D01*
X35780Y71213D01*
X35780D01*
X35889Y71359D01*
X35910Y71386D01*
X37315D01*
Y73028D01*
X37544Y73581D01*
X37632Y74252D01*
Y78740D01*
X37544Y79411D01*
X37315Y79964D01*
Y85763D01*
X37497Y85838D01*
X43951Y79384D01*
X44378Y79099D01*
X44882Y78998D01*
X71108D01*
X75849Y74258D01*
Y69250D01*
X75949Y68747D01*
X76114Y68499D01*
X76140Y68371D01*
X76447Y67912D01*
X76907Y67605D01*
X77290Y67528D01*
X77355Y67315D01*
X71355Y61315D01*
X70927Y61029D01*
X70620Y60569D01*
X70512Y60027D01*
X70620Y59485D01*
X70927Y59025D01*
X71159Y58870D01*
X71099Y58673D01*
X70047D01*
Y51099D01*
X69865Y51024D01*
X68811Y52078D01*
Y58673D01*
X66811D01*
X66791Y58870D01*
X67078Y58927D01*
X67537Y59234D01*
X67845Y59694D01*
X67952Y60236D01*
X67852Y60741D01*
Y72630D01*
X68058Y72835D01*
X68325Y73014D01*
X68632Y73474D01*
X68740Y74016D01*
X68632Y74558D01*
X68325Y75018D01*
X67865Y75325D01*
X67323Y75433D01*
X66781Y75325D01*
X66321Y75018D01*
X66014Y74558D01*
X66003Y74505D01*
X65604Y74106D01*
X65319Y73679D01*
X65219Y73175D01*
Y60741D01*
X65118Y60236D01*
X65226Y59694D01*
X65534Y59234D01*
X65993Y58927D01*
X66280Y58870D01*
X66260Y58673D01*
X65047D01*
Y51282D01*
X64865Y51206D01*
X63811Y52261D01*
Y58673D01*
X63437D01*
Y62713D01*
X63329Y63255D01*
X63022Y63715D01*
X59101Y67636D01*
X58641Y67943D01*
X58099Y68051D01*
X45669D01*
X45127Y67943D01*
X44667Y67636D01*
X41047Y64015D01*
X15354D01*
X14812Y63908D01*
X14352Y63600D01*
X10966Y60215D01*
X10659Y59755D01*
X10552Y59213D01*
Y57482D01*
X6868D01*
X6288Y57366D01*
X5796Y57038D01*
X5466Y56545D01*
X5451Y56464D01*
X5254Y56484D01*
Y75422D01*
X9242D01*
X9300Y75411D01*
X9358Y75422D01*
X13361D01*
Y80761D01*
X5254D01*
Y93550D01*
X8024Y96321D01*
X27014D01*
X37058Y86276D01*
D02*
G37*
G36*
X125874Y58400D02*
Y51760D01*
X133341D01*
Y50602D01*
X125874D01*
Y49247D01*
X122158D01*
Y50602D01*
X114309D01*
Y51760D01*
X122158D01*
Y56144D01*
X122815D01*
X123319Y56244D01*
X123746Y56529D01*
X125692Y58476D01*
X125874Y58400D01*
D02*
G37*
G36*
X64066Y48282D02*
X64494Y47996D01*
X64997Y47896D01*
X66165D01*
X75154Y38907D01*
X71625Y35378D01*
X71439Y35254D01*
X71315Y35068D01*
X70106Y33860D01*
X69925Y33935D01*
Y43203D01*
X69824Y43707D01*
X69539Y44134D01*
X66443Y47230D01*
X66016Y47516D01*
X65512Y47616D01*
X62908D01*
X60520Y50003D01*
X60596Y50185D01*
X62163D01*
X64066Y48282D01*
D02*
G37*
G36*
X80179Y36985D02*
Y34208D01*
X73163Y27191D01*
X72877Y26764D01*
X72777Y26260D01*
Y25209D01*
X72601Y25095D01*
X72587Y25093D01*
X72576Y25099D01*
Y28982D01*
X79188Y35594D01*
X79474Y36021D01*
X79574Y36525D01*
Y37334D01*
X79756Y37409D01*
X80179Y36985D01*
D02*
G37*
G36*
X73085Y16785D02*
X73157Y16737D01*
X73100Y16549D01*
X63452D01*
X63376Y16731D01*
X64547Y17902D01*
X68024D01*
Y21589D01*
X68205Y21665D01*
X73085Y16785D01*
D02*
G37*
G36*
X19685Y10000D02*
X25464D01*
X25502Y9807D01*
X25464Y9792D01*
X24629Y9151D01*
X23988Y8315D01*
X23585Y7343D01*
X23448Y6299D01*
X23585Y5255D01*
X23988Y4283D01*
X24372Y3783D01*
X23187Y2598D01*
X19497D01*
X19458Y2791D01*
X19497Y2807D01*
X20332Y3448D01*
X20973Y4283D01*
X21375Y5255D01*
X21513Y6299D01*
X21375Y7343D01*
X20973Y8315D01*
X20332Y9151D01*
X19497Y9792D01*
X19285Y9879D01*
X19342Y10069D01*
X19685Y10000D01*
D02*
G37*
%LPC*%
G36*
X11478Y110297D02*
X3482D01*
Y102301D01*
X11478D01*
Y110297D01*
D02*
G37*
G36*
X83811Y95484D02*
X80047D01*
Y86996D01*
X80866D01*
Y84644D01*
X80974Y84101D01*
X81282Y83642D01*
X81300Y83623D01*
X81760Y83316D01*
X82302Y83208D01*
X82845Y83316D01*
X83304Y83623D01*
X83612Y84082D01*
X83719Y84625D01*
X83701Y84720D01*
Y86996D01*
X83811D01*
Y95484D01*
D02*
G37*
G36*
X78811D02*
X75047D01*
Y86996D01*
X75512D01*
Y83815D01*
X75004Y83307D01*
X74803D01*
X74261Y83199D01*
X73801Y82892D01*
X73494Y82432D01*
X73386Y81890D01*
X73494Y81348D01*
X73801Y80888D01*
X74261Y80581D01*
X74803Y80473D01*
X75590D01*
X76133Y80581D01*
X76592Y80888D01*
X77931Y82226D01*
X78238Y82686D01*
X78346Y83228D01*
Y86996D01*
X78811D01*
Y95484D01*
D02*
G37*
G36*
X32197Y36429D02*
X26858D01*
Y28138D01*
X32197D01*
Y36429D01*
D02*
G37*
G36*
X147480Y10332D02*
X146437Y10194D01*
X145464Y9792D01*
X144629Y9151D01*
X143988Y8315D01*
X143585Y7343D01*
X143448Y6299D01*
X143585Y5255D01*
X143988Y4283D01*
X144629Y3448D01*
X145464Y2807D01*
X146437Y2404D01*
X147480Y2267D01*
X148524Y2404D01*
X149497Y2807D01*
X150332Y3448D01*
X150973Y4283D01*
X151375Y5255D01*
X151513Y6299D01*
X151375Y7343D01*
X150973Y8315D01*
X150332Y9151D01*
X149497Y9792D01*
X148524Y10194D01*
X147480Y10332D01*
D02*
G37*
G36*
X137480D02*
X136437Y10194D01*
X135464Y9792D01*
X134629Y9151D01*
X133988Y8315D01*
X133585Y7343D01*
X133448Y6299D01*
X133585Y5255D01*
X133988Y4283D01*
X134629Y3448D01*
X135464Y2807D01*
X136437Y2404D01*
X137480Y2267D01*
X138524Y2404D01*
X139497Y2807D01*
X140332Y3448D01*
X140973Y4283D01*
X141375Y5255D01*
X141513Y6299D01*
X141375Y7343D01*
X140973Y8315D01*
X140332Y9151D01*
X139497Y9792D01*
X138524Y10194D01*
X137480Y10332D01*
D02*
G37*
G36*
X127480D02*
X126437Y10194D01*
X125464Y9792D01*
X124629Y9151D01*
X123988Y8315D01*
X123585Y7343D01*
X123448Y6299D01*
X123585Y5255D01*
X123988Y4283D01*
X124629Y3448D01*
X125464Y2807D01*
X126437Y2404D01*
X127480Y2267D01*
X128524Y2404D01*
X129497Y2807D01*
X130332Y3448D01*
X130973Y4283D01*
X131375Y5255D01*
X131513Y6299D01*
X131375Y7343D01*
X130973Y8315D01*
X130332Y9151D01*
X129497Y9792D01*
X128524Y10194D01*
X127480Y10332D01*
D02*
G37*
G36*
X117480D02*
X116437Y10194D01*
X115464Y9792D01*
X114629Y9151D01*
X113988Y8315D01*
X113585Y7343D01*
X113448Y6299D01*
X113585Y5255D01*
X113988Y4283D01*
X114629Y3448D01*
X115464Y2807D01*
X116437Y2404D01*
X117480Y2267D01*
X118524Y2404D01*
X119497Y2807D01*
X120332Y3448D01*
X120973Y4283D01*
X121375Y5255D01*
X121513Y6299D01*
X121375Y7343D01*
X120973Y8315D01*
X120332Y9151D01*
X119497Y9792D01*
X118524Y10194D01*
X117480Y10332D01*
D02*
G37*
G36*
X107480D02*
X106437Y10194D01*
X105464Y9792D01*
X104629Y9151D01*
X103988Y8315D01*
X103585Y7343D01*
X103448Y6299D01*
X103585Y5255D01*
X103988Y4283D01*
X104629Y3448D01*
X105464Y2807D01*
X106437Y2404D01*
X107480Y2267D01*
X108524Y2404D01*
X109497Y2807D01*
X110332Y3448D01*
X110973Y4283D01*
X111375Y5255D01*
X111513Y6299D01*
X111375Y7343D01*
X110973Y8315D01*
X110332Y9151D01*
X109497Y9792D01*
X108524Y10194D01*
X107480Y10332D01*
D02*
G37*
G36*
X97480D02*
X96437Y10194D01*
X95464Y9792D01*
X94629Y9151D01*
X93988Y8315D01*
X93585Y7343D01*
X93448Y6299D01*
X93585Y5255D01*
X93988Y4283D01*
X94629Y3448D01*
X95464Y2807D01*
X96437Y2404D01*
X97480Y2267D01*
X98524Y2404D01*
X99497Y2807D01*
X100332Y3448D01*
X100973Y4283D01*
X101375Y5255D01*
X101513Y6299D01*
X101375Y7343D01*
X100973Y8315D01*
X100332Y9151D01*
X99497Y9792D01*
X98524Y10194D01*
X97480Y10332D01*
D02*
G37*
G36*
X87480D02*
X86437Y10194D01*
X85464Y9792D01*
X84629Y9151D01*
X83988Y8315D01*
X83585Y7343D01*
X83448Y6299D01*
X83585Y5255D01*
X83988Y4283D01*
X84629Y3448D01*
X85464Y2807D01*
X86437Y2404D01*
X87480Y2267D01*
X88524Y2404D01*
X89497Y2807D01*
X90332Y3448D01*
X90973Y4283D01*
X91375Y5255D01*
X91513Y6299D01*
X91375Y7343D01*
X90973Y8315D01*
X90332Y9151D01*
X89497Y9792D01*
X88524Y10194D01*
X87480Y10332D01*
D02*
G37*
G36*
X77480D02*
X76437Y10194D01*
X75464Y9792D01*
X74629Y9151D01*
X73988Y8315D01*
X73585Y7343D01*
X73448Y6299D01*
X73585Y5255D01*
X73988Y4283D01*
X74629Y3448D01*
X75464Y2807D01*
X76437Y2404D01*
X77480Y2267D01*
X78524Y2404D01*
X79497Y2807D01*
X80332Y3448D01*
X80973Y4283D01*
X81375Y5255D01*
X81513Y6299D01*
X81375Y7343D01*
X80973Y8315D01*
X80332Y9151D01*
X79497Y9792D01*
X78524Y10194D01*
X77480Y10332D01*
D02*
G37*
G36*
X67480D02*
X66437Y10194D01*
X65464Y9792D01*
X64629Y9151D01*
X63988Y8315D01*
X63585Y7343D01*
X63448Y6299D01*
X63585Y5255D01*
X63988Y4283D01*
X64629Y3448D01*
X65464Y2807D01*
X66437Y2404D01*
X67480Y2267D01*
X68524Y2404D01*
X69497Y2807D01*
X70332Y3448D01*
X70973Y4283D01*
X71375Y5255D01*
X71513Y6299D01*
X71375Y7343D01*
X70973Y8315D01*
X70332Y9151D01*
X69497Y9792D01*
X68524Y10194D01*
X67480Y10332D01*
D02*
G37*
G36*
X57480D02*
X56437Y10194D01*
X55464Y9792D01*
X54629Y9151D01*
X53988Y8315D01*
X53585Y7343D01*
X53448Y6299D01*
X53585Y5255D01*
X53988Y4283D01*
X54629Y3448D01*
X55464Y2807D01*
X56437Y2404D01*
X57480Y2267D01*
X58524Y2404D01*
X59497Y2807D01*
X60332Y3448D01*
X60973Y4283D01*
X61375Y5255D01*
X61513Y6299D01*
X61375Y7343D01*
X60973Y8315D01*
X60332Y9151D01*
X59497Y9792D01*
X58524Y10194D01*
X57480Y10332D01*
D02*
G37*
G36*
X47480D02*
X46437Y10194D01*
X45464Y9792D01*
X44629Y9151D01*
X43988Y8315D01*
X43585Y7343D01*
X43448Y6299D01*
X43585Y5255D01*
X43988Y4283D01*
X44629Y3448D01*
X45464Y2807D01*
X46437Y2404D01*
X47480Y2267D01*
X48524Y2404D01*
X49497Y2807D01*
X50332Y3448D01*
X50973Y4283D01*
X51375Y5255D01*
X51513Y6299D01*
X51375Y7343D01*
X50973Y8315D01*
X50332Y9151D01*
X49497Y9792D01*
X48524Y10194D01*
X47480Y10332D01*
D02*
G37*
G36*
X22000Y94835D02*
X16740D01*
Y86291D01*
X16740Y86268D01*
X16683Y86094D01*
X14653D01*
Y71386D01*
X15508D01*
Y69105D01*
X15503Y69083D01*
X15611Y68540D01*
X15918Y68081D01*
X16378Y67773D01*
X16920Y67666D01*
X17462Y67773D01*
X17922Y68081D01*
X17927Y68085D01*
X18234Y68545D01*
X18342Y69087D01*
Y71386D01*
X19205D01*
Y86071D01*
X19205Y86094D01*
X19262Y86268D01*
X22000D01*
Y94835D01*
D02*
G37*
G36*
X70472Y75433D02*
X69930Y75325D01*
X69471Y75018D01*
X69163Y74558D01*
X69055Y74016D01*
X69156Y73511D01*
Y69873D01*
X69057Y69378D01*
Y64423D01*
X69158Y63920D01*
X69224Y63820D01*
X69262Y63631D01*
X69569Y63171D01*
X70029Y62864D01*
X70571Y62756D01*
X71113Y62864D01*
X71573Y63171D01*
X71880Y63631D01*
X71988Y64173D01*
X71880Y64715D01*
X71691Y64999D01*
Y68981D01*
X71789Y69476D01*
Y73511D01*
X71889Y74016D01*
X71782Y74558D01*
X71474Y75018D01*
X71015Y75325D01*
X70472Y75433D01*
D02*
G37*
%LPD*%
D12*
X121592Y101514D02*
X121653Y101575D01*
X63841Y101514D02*
X121592D01*
X63632Y101722D02*
X63841Y101514D01*
X82284Y84644D02*
X82302Y84625D01*
X76929Y83228D02*
Y91240D01*
X82284Y84644D02*
Y90886D01*
X74803Y81890D02*
X75590D01*
X76929Y83228D01*
X81929Y91240D02*
X82284Y90886D01*
X87402Y60236D02*
Y71653D01*
X90158Y74410D01*
X58099Y66634D02*
X62020Y62713D01*
X40945Y51575D02*
X46437D01*
X46929Y52067D02*
Y54429D01*
X46437Y51575D02*
X46929Y52067D01*
X62020Y54520D02*
Y62713D01*
X61929Y54429D02*
X62020Y54520D01*
X45669Y66634D02*
X58099D01*
X41634Y62598D02*
X45669Y66634D01*
X15354Y62598D02*
X41634D01*
X11969Y59213D02*
X15354Y62598D01*
X11969Y55750D02*
Y59213D01*
X9526Y53307D02*
X11969Y55750D01*
X40945Y51575D02*
X40945Y51575D01*
X88976Y39370D02*
X91941Y42335D01*
X88976Y39088D02*
Y39370D01*
X32362Y11417D02*
X37480Y6299D01*
X19685Y11417D02*
X32362D01*
X14776Y16327D02*
X19685Y11417D01*
X36012Y35642D02*
Y42406D01*
X41339Y31496D02*
Y32542D01*
X40059Y33822D02*
X41339Y32542D01*
X37832Y33822D02*
X40059D01*
X36012Y35642D02*
X37832Y33822D01*
X36012Y42406D02*
X36220Y42615D01*
Y51476D01*
X31093D02*
X36220D01*
X40846D01*
X14776Y16327D02*
Y16535D01*
X12598Y3937D02*
Y14961D01*
Y3937D02*
X15354Y1181D01*
X23774D02*
X27480Y4888D01*
X15354Y1181D02*
X23774D01*
X132231Y41981D02*
Y44343D01*
X129921Y46654D02*
X132231Y44343D01*
Y41981D02*
X139094Y35118D01*
X29528Y66437D02*
X31585Y68494D01*
X110236Y66929D02*
Y76279D01*
X110728Y76772D01*
X37480Y92835D02*
X46654Y83661D01*
X37480Y92835D02*
Y106299D01*
X46654Y83661D02*
X52786D01*
X104173Y66693D02*
X104724Y67244D01*
X100689Y66693D02*
X104173D01*
X139094Y33465D02*
Y35118D01*
X64082Y39757D02*
X65650Y38189D01*
X64082Y39757D02*
Y41555D01*
X62842Y42795D02*
X64082Y41555D01*
X60315Y43701D02*
X61221Y42795D01*
X62842D01*
X51181Y44961D02*
X52421Y43720D01*
X55492D02*
X55512Y43701D01*
X52421Y43720D02*
X55492D01*
X55512Y43701D02*
X60315D01*
X40945Y48031D02*
Y51575D01*
X30994Y51378D02*
X31093Y51476D01*
X51102Y44882D02*
X51181Y44961D01*
X44094Y44882D02*
X51102D01*
X40945Y48031D02*
X44094Y44882D01*
X40846Y51476D02*
X40945Y51575D01*
X19526Y53307D02*
X20490Y52342D01*
X30030D01*
X30994Y51378D01*
X54366Y85242D02*
Y86135D01*
X52786Y83661D02*
X54366Y85242D01*
X16925Y78736D02*
X16929Y78740D01*
X16925Y69087D02*
Y78736D01*
X16920Y69083D02*
X16925Y69087D01*
X27480Y4888D02*
Y6299D01*
D35*
X84547Y45472D02*
D03*
X96358D02*
D03*
X121260Y32776D02*
D03*
X133071D02*
D03*
X116535Y66929D02*
D03*
X128347D02*
D03*
X116535Y76772D02*
D03*
X128347D02*
D03*
X53543Y22047D02*
D03*
X65354D02*
D03*
X85039Y36319D02*
D03*
X96850D02*
D03*
X41339Y32283D02*
D03*
X29528Y32283D02*
D03*
D36*
X109764Y91732D02*
D03*
X120945D02*
D03*
X19370Y90551D02*
D03*
X8189D02*
D03*
X150276Y33465D02*
D03*
X139094D02*
D03*
D38*
X118110Y55709D02*
D03*
Y46654D02*
D03*
X129921Y55709D02*
D03*
Y46654D02*
D03*
D51*
X35433Y23622D02*
D03*
X19526Y53307D02*
D03*
X9526Y43307D02*
D03*
Y33307D02*
D03*
X19526D02*
D03*
Y43307D02*
D03*
X149606Y44882D02*
D03*
Y72441D02*
D03*
D52*
X45433Y23622D02*
D03*
D53*
X9526Y53307D02*
D03*
D54*
X7480Y6299D02*
D03*
Y106299D02*
D03*
D55*
X17480Y6299D02*
D03*
X27480D02*
D03*
X37480D02*
D03*
X47480D02*
D03*
X57480D02*
D03*
X67480D02*
D03*
X77480D02*
D03*
X87480D02*
D03*
X97480D02*
D03*
X107480D02*
D03*
X117480D02*
D03*
X127480D02*
D03*
X137480D02*
D03*
X147480D02*
D03*
X17480Y106299D02*
D03*
X27480D02*
D03*
X37480D02*
D03*
X47480D02*
D03*
X57480D02*
D03*
X67480D02*
D03*
X77480D02*
D03*
X87480D02*
D03*
X97480D02*
D03*
X107480D02*
D03*
X117480D02*
D03*
X127480D02*
D03*
X137480D02*
D03*
X147480D02*
D03*
D56*
X138977Y68504D02*
D03*
Y48819D02*
D03*
D57*
X120079Y99213D02*
X131859D01*
X114961Y94095D02*
X120079Y99213D01*
X131859D02*
X138933Y106287D01*
X114961Y87795D02*
Y94095D01*
X89555Y95174D02*
Y95227D01*
X74726Y97455D02*
X90734D01*
X94095Y94095D01*
X62980Y99435D02*
X93085D01*
X89555Y95174D02*
X89764Y94965D01*
X74122Y96850D02*
X74726Y97455D01*
X94095Y62579D02*
Y94095D01*
X89784Y58268D02*
X94095Y62579D01*
X89764Y84646D02*
Y94965D01*
X84252Y79134D02*
X89764Y84646D01*
X56929Y54429D02*
X57520Y53839D01*
X68608Y32266D02*
X68898Y31976D01*
X81496Y33663D02*
Y37531D01*
X61929Y52281D02*
X64997Y49213D01*
X101969Y29921D02*
X107638D01*
X78257Y36525D02*
Y37666D01*
X67480Y51378D02*
X67649D01*
X74094Y25119D02*
X76378Y22835D01*
X80462Y49360D02*
X80671D01*
X71929Y52067D02*
X74783Y49213D01*
X57520Y51142D02*
Y53839D01*
X55512Y61811D02*
X59842D01*
X71260Y29528D02*
X78257Y36525D01*
X74016Y17717D02*
X92970D01*
X75591Y20079D02*
X92126D01*
X66929Y51928D02*
Y54429D01*
X91064Y22835D02*
X100257Y32027D01*
X80315Y49213D02*
X80462Y49360D01*
X74094Y25119D02*
Y26260D01*
X51929Y58228D02*
X55512Y61811D01*
X65512Y46299D02*
X68608Y43203D01*
X62362Y46299D02*
X65512D01*
X66752Y49171D02*
X78257Y37666D01*
X68898Y22835D02*
Y31976D01*
X66752Y49171D02*
Y49213D01*
X74094Y26260D02*
X81496Y33663D01*
X71260Y24409D02*
Y29528D01*
X92126Y20079D02*
X101969Y29921D01*
X51929Y54429D02*
Y58228D01*
X66929Y51928D02*
X67480Y51378D01*
X80671Y49360D02*
X80709Y49398D01*
X68608Y32266D02*
Y43203D01*
X57520Y51142D02*
X62362Y46299D01*
X74783Y49213D02*
X80315D01*
X61929Y52281D02*
Y54429D01*
X76378Y22835D02*
X91064D01*
X64997Y49213D02*
X66752D01*
X107638Y29921D02*
X111024Y33307D01*
X71260Y24409D02*
X75591Y20079D01*
X67649Y51378D02*
X81496Y37531D01*
X71929Y52067D02*
Y54429D01*
X92970Y17717D02*
X99213Y23959D01*
X68898Y22835D02*
X74016Y17717D01*
X66535Y60236D02*
Y73175D01*
X67323Y73962D01*
X24361Y23040D02*
Y37451D01*
X19526Y42285D02*
Y43307D01*
Y42285D02*
X24361Y37451D01*
Y23040D02*
X28896Y18504D01*
X71929Y60027D02*
Y60027D01*
X79857Y67955D01*
X93085Y99435D02*
X96457Y96063D01*
X56929Y96850D02*
X74122D01*
X96457Y61417D02*
Y96063D01*
X47480Y106299D02*
X56929Y96850D01*
X57480Y104934D02*
X62980Y99435D01*
X90945Y55905D02*
X96457Y61417D01*
X90945Y50051D02*
Y55905D01*
X93996Y53445D02*
X94049D01*
X79857Y67955D02*
Y77269D01*
X82567Y66681D02*
Y67396D01*
X77953Y62067D02*
X82567Y66681D01*
Y67396D02*
X84252Y69081D01*
Y79134D01*
X92518Y48425D02*
Y48478D01*
X90945Y50051D02*
X92518Y48478D01*
X94049Y53445D02*
X94148Y53543D01*
X101732D01*
X101988Y52047D02*
Y53287D01*
X101732Y53543D02*
X101988Y53287D01*
X38809Y13496D02*
X39053Y13252D01*
X103016D01*
X36601Y18504D02*
X39873Y15232D01*
X103016Y13252D02*
X119685Y29921D01*
X39873Y15232D02*
X97909D01*
X110236Y27559D01*
X147480Y105354D02*
Y106299D01*
X134718Y48411D02*
Y48550D01*
X134646Y59602D02*
X134658Y59590D01*
X134646Y92520D02*
X147480Y105354D01*
X134718Y48411D02*
X134756Y48373D01*
X134646Y59602D02*
Y92520D01*
X134658Y48611D02*
Y59590D01*
Y48611D02*
X134718Y48550D01*
X97342Y35827D02*
X106826D01*
X109697Y38697D01*
X96850Y36319D02*
X97342Y35827D01*
X109697Y38697D02*
Y38697D01*
X112992Y41993D02*
Y59842D01*
X109697Y38697D02*
X112992Y41993D01*
X114567Y61417D02*
X122047D01*
X112992Y59842D02*
X114567Y61417D01*
X108071Y45472D02*
X110236Y47638D01*
Y62205D01*
X112992Y64961D01*
X115071Y66699D02*
X115912D01*
X112992Y64961D02*
Y81083D01*
X71653Y80315D02*
X77165Y74803D01*
X77449Y68914D02*
Y68967D01*
X77165Y69250D02*
X77449Y68967D01*
X77165Y69250D02*
Y74803D01*
X57480Y104934D02*
Y106299D01*
X26378Y16142D02*
X26431D01*
X26640Y15933D01*
X35039D01*
X61996Y17213D02*
X65354Y20571D01*
X35433Y23622D02*
X41842Y17213D01*
X61996D01*
X22331Y13496D02*
X38809D01*
X3937Y31890D02*
X22331Y13496D01*
X113799Y81890D02*
X126378D01*
X128740Y84252D01*
X112992Y81083D02*
X113799Y81890D01*
X124213Y63583D02*
Y77362D01*
X122047Y61417D02*
X124213Y63583D01*
X115912Y66699D02*
X116142Y66929D01*
X110236Y27559D02*
X110630D01*
X117323Y36516D02*
Y39764D01*
Y36516D02*
X121161Y32677D01*
X65354Y20571D02*
Y22047D01*
X45433Y23622D02*
X52165D01*
X53543Y22244D01*
Y22047D02*
Y22244D01*
X96358Y45472D02*
X108071D01*
X119882Y29921D02*
X121260Y31299D01*
Y32776D01*
X119685Y29921D02*
X119882D01*
X67323Y73962D02*
Y74016D01*
X118110Y55709D02*
X119862Y57460D01*
X122815D01*
X127480Y62126D01*
Y66063D01*
X128347Y66929D01*
X3937Y31890D02*
Y37718D01*
X100138Y66693D02*
X100689D01*
X99016Y67815D02*
X100138Y66693D01*
X27480Y97716D02*
X44882Y80315D01*
X27480Y97716D02*
Y106299D01*
X44882Y80315D02*
X71653D01*
X70472Y69476D02*
Y74016D01*
X70374Y69378D02*
X70472Y69476D01*
X70374Y64423D02*
Y69378D01*
Y64423D02*
X70571Y64227D01*
Y64173D02*
Y64227D01*
X99016Y80905D02*
X101772Y83661D01*
X99016Y67815D02*
Y80905D01*
X122047Y79528D02*
X124213Y77362D01*
X116142Y76772D02*
X116535D01*
X120473D02*
X121653Y75590D01*
Y66535D02*
Y75590D01*
X116535Y76772D02*
X120473D01*
X121161Y32677D02*
X121260Y32776D01*
X28896Y18504D02*
X36601D01*
X128937Y76772D02*
X131890Y73819D01*
Y57677D02*
Y73819D01*
X129921Y55709D02*
X131890Y57677D01*
X3937Y94096D02*
X7479Y97638D01*
X3937Y47638D02*
Y94096D01*
X7479Y97638D02*
X27402D01*
X27480Y97716D01*
X3937Y37718D02*
X9526Y43307D01*
X128347Y76772D02*
X128937D01*
X101772Y83661D02*
X110827D01*
X114961Y87795D01*
X128740Y84252D02*
Y86135D01*
D58*
X118110Y46654D02*
X129921D01*
X31496Y68583D02*
Y70709D01*
X35039Y74252D02*
Y78740D01*
X31496Y70709D02*
X35039Y74252D01*
D59*
X121653Y101575D02*
D03*
X89555Y95227D02*
D03*
X74803Y81890D02*
D03*
X99213Y23959D02*
D03*
X47638Y56988D02*
D03*
X47077Y93652D02*
D03*
X111024Y33307D02*
D03*
X100257Y32027D02*
D03*
X50900Y90300D02*
D03*
X80709Y49398D02*
D03*
X82302Y84625D02*
D03*
X76772Y53543D02*
D03*
X59842Y61811D02*
D03*
X87402Y60236D02*
D03*
X66535D02*
D03*
X79921Y28346D02*
D03*
X77349Y32456D02*
D03*
X74048Y29375D02*
D03*
X82585Y43215D02*
D03*
X76680Y47134D02*
D03*
X72441Y34252D02*
D03*
X83354Y39413D02*
D03*
X71929Y60027D02*
D03*
X89784Y58268D02*
D03*
X93996Y53445D02*
D03*
X85444Y30709D02*
D03*
X79857Y77269D02*
D03*
X92518Y48425D02*
D03*
X69158Y19158D02*
D03*
X117323Y39764D02*
D03*
X110630Y27559D02*
D03*
X65650Y38189D02*
D03*
X88976Y39088D02*
D03*
X77953Y62067D02*
D03*
X63779Y31872D02*
D03*
X134756Y48373D02*
D03*
X91941Y42335D02*
D03*
X70571Y64173D02*
D03*
X35039Y15933D02*
D03*
X115071Y66699D02*
D03*
X77449Y68914D02*
D03*
X37795Y58661D02*
D03*
X44291Y74634D02*
D03*
X26378Y16142D02*
D03*
X57591Y38270D02*
D03*
X62315Y26772D02*
D03*
X105525Y18701D02*
D03*
X45831Y32684D02*
D03*
X35000Y31123D02*
D03*
X14776Y16535D02*
D03*
X12598Y14961D02*
D03*
X116500Y84000D02*
D03*
X128347Y14173D02*
D03*
X90551Y35269D02*
D03*
X110630Y94095D02*
D03*
X90158Y74410D02*
D03*
X63632Y101722D02*
D03*
X29528Y66437D02*
D03*
X19600Y91200D02*
D03*
X28740Y68504D02*
D03*
X121260Y64173D02*
D03*
X84646Y66535D02*
D03*
X141339Y72404D02*
D03*
X110236Y66929D02*
D03*
X103150Y58268D02*
D03*
X122047Y79528D02*
D03*
X67323Y74016D02*
D03*
X117717Y46850D02*
D03*
X137271Y42184D02*
D03*
X100689Y66693D02*
D03*
X106693Y48031D02*
D03*
X54366Y86135D02*
D03*
X74803Y71260D02*
D03*
X70472Y74016D02*
D03*
X124705Y51968D02*
D03*
X110728Y76772D02*
D03*
X121653Y66535D02*
D03*
X124000Y41437D02*
D03*
X19685Y22835D02*
D03*
X42520Y9154D02*
D03*
X16920Y69083D02*
D03*
X31496Y75984D02*
D03*
X32283Y1969D02*
D03*
X30400Y40600D02*
D03*
X41200Y40900D02*
D03*
X9300Y76828D02*
D03*
X131200Y93994D02*
D03*
X64600Y84505D02*
D03*
X106299Y79768D02*
D03*
X102732Y41142D02*
D03*
X88976Y48151D02*
D03*
X77348Y79921D02*
D03*
X9115Y15884D02*
D03*
X3937Y47638D02*
D03*
X29528Y31102D02*
D03*
X121161Y91732D02*
D03*
X131693Y32776D02*
D03*
X128740Y86135D02*
D03*
D60*
X16929Y78740D02*
D03*
X35039D02*
D03*
D61*
X40945Y51575D02*
D03*
Y39764D02*
D03*
X30994Y51378D02*
D03*
Y39567D02*
D03*
X9215Y78091D02*
D03*
Y66280D02*
D03*
D62*
X104724Y78425D02*
D03*
Y67244D02*
D03*
X61221Y42795D02*
D03*
Y31614D02*
D03*
X104724Y52441D02*
D03*
Y41260D02*
D03*
X31496Y57402D02*
D03*
Y68583D02*
D03*
X51181Y33779D02*
D03*
Y44961D02*
D03*
D63*
X46929Y54429D02*
D03*
X51929D02*
D03*
X56929D02*
D03*
X61929D02*
D03*
X66929D02*
D03*
X71929D02*
D03*
X76929D02*
D03*
X81929D02*
D03*
X86929D02*
D03*
Y91240D02*
D03*
X81929D02*
D03*
X76929D02*
D03*
X71929D02*
D03*
X66929D02*
D03*
X61929D02*
D03*
X56929D02*
D03*
X51929D02*
D03*
X46929D02*
D03*
D64*
X73240Y35028D02*
D03*
X76581Y31687D02*
D03*
X79921Y28346D02*
D03*
M02*
