G04*
G04 #@! TF.GenerationSoftware,Altium Limited,Altium Designer,20.0.9 (164)*
G04*
G04 Layer_Physical_Order=1*
G04 Layer_Color=255*
%FSLAX25Y25*%
%MOIN*%
G70*
G01*
G75*
%ADD10C,0.01000*%
%ADD12C,0.01575*%
%ADD14C,0.00787*%
%ADD15C,0.00394*%
%ADD16C,0.00197*%
%ADD34R,0.10000X0.10512*%
%ADD35R,0.05000X0.03000*%
%ADD36R,0.04055X0.07362*%
%ADD37R,0.06890X0.06693*%
%ADD38R,0.07480X0.08268*%
%ADD39R,0.07480X0.05906*%
%ADD40R,0.05315X0.01575*%
%ADD41R,0.04134X0.07087*%
G04:AMPARAMS|DCode=42|XSize=59.06mil|YSize=19.68mil|CornerRadius=0mil|HoleSize=0mil|Usage=FLASHONLY|Rotation=45.000|XOffset=0mil|YOffset=0mil|HoleType=Round|Shape=Rectangle|*
%AMROTATEDRECTD42*
4,1,4,-0.01392,-0.02784,-0.02784,-0.01392,0.01392,0.02784,0.02784,0.01392,-0.01392,-0.02784,0.0*
%
%ADD42ROTATEDRECTD42*%

G04:AMPARAMS|DCode=43|XSize=59.06mil|YSize=19.68mil|CornerRadius=0mil|HoleSize=0mil|Usage=FLASHONLY|Rotation=135.000|XOffset=0mil|YOffset=0mil|HoleType=Round|Shape=Rectangle|*
%AMROTATEDRECTD43*
4,1,4,0.02784,-0.01392,0.01392,-0.02784,-0.02784,0.01392,-0.01392,0.02784,0.02784,-0.01392,0.0*
%
%ADD43ROTATEDRECTD43*%

%ADD44R,0.03740X0.06890*%
%ADD45R,0.12598X0.06890*%
%ADD46R,0.01575X0.07087*%
%ADD47R,0.02559X0.06004*%
%ADD48R,0.01575X0.07874*%
%ADD49R,0.06693X0.06890*%
%ADD50R,0.03347X0.13504*%
%ADD51R,0.06791X0.06791*%
%ADD52C,0.06791*%
%ADD53C,0.05709*%
%ADD54C,0.07087*%
G04:AMPARAMS|DCode=55|XSize=70.87mil|YSize=70.87mil|CornerRadius=8.86mil|HoleSize=0mil|Usage=FLASHONLY|Rotation=270.000|XOffset=0mil|YOffset=0mil|HoleType=Round|Shape=RoundedRectangle|*
%AMROUNDEDRECTD55*
21,1,0.07087,0.05315,0,0,270.0*
21,1,0.05315,0.07087,0,0,270.0*
1,1,0.01772,-0.02657,-0.02657*
1,1,0.01772,-0.02657,0.02657*
1,1,0.01772,0.02657,0.02657*
1,1,0.01772,0.02657,-0.02657*
%
%ADD55ROUNDEDRECTD55*%
G04:AMPARAMS|DCode=56|XSize=70.87mil|YSize=70.87mil|CornerRadius=8.86mil|HoleSize=0mil|Usage=FLASHONLY|Rotation=180.000|XOffset=0mil|YOffset=0mil|HoleType=Round|Shape=RoundedRectangle|*
%AMROUNDEDRECTD56*
21,1,0.07087,0.05315,0,0,180.0*
21,1,0.05315,0.07087,0,0,180.0*
1,1,0.01772,-0.02657,0.02657*
1,1,0.01772,0.02657,0.02657*
1,1,0.01772,0.02657,-0.02657*
1,1,0.01772,-0.02657,-0.02657*
%
%ADD56ROUNDEDRECTD56*%
%ADD57C,0.01378*%
%ADD58C,0.03937*%
%ADD59C,0.01575*%
G36*
X157087Y394D02*
X394D01*
Y112205D01*
X157087D01*
Y394D01*
D02*
G37*
%LPC*%
G36*
X147480Y110320D02*
X146440Y110183D01*
X145470Y109781D01*
X144637Y109142D01*
X143998Y108309D01*
X143597Y107340D01*
X143460Y106299D01*
X143597Y105259D01*
X143998Y104289D01*
X144637Y103456D01*
X145470Y102817D01*
X146440Y102416D01*
X147480Y102279D01*
X148521Y102416D01*
X149491Y102817D01*
X150323Y103456D01*
X150962Y104289D01*
X151364Y105259D01*
X151501Y106299D01*
X151364Y107340D01*
X150962Y108309D01*
X150323Y109142D01*
X149491Y109781D01*
X148521Y110183D01*
X147480Y110320D01*
D02*
G37*
G36*
X137480D02*
X136440Y110183D01*
X135470Y109781D01*
X134637Y109142D01*
X133998Y108309D01*
X133597Y107340D01*
X133460Y106299D01*
X133597Y105259D01*
X133998Y104289D01*
X134637Y103456D01*
X135470Y102817D01*
X136440Y102416D01*
X137480Y102279D01*
X138521Y102416D01*
X139491Y102817D01*
X140323Y103456D01*
X140962Y104289D01*
X141364Y105259D01*
X141501Y106299D01*
X141364Y107340D01*
X140962Y108309D01*
X140323Y109142D01*
X139491Y109781D01*
X138521Y110183D01*
X137480Y110320D01*
D02*
G37*
G36*
X57480D02*
X56440Y110183D01*
X55470Y109781D01*
X54637Y109142D01*
X53998Y108309D01*
X53597Y107340D01*
X53460Y106299D01*
X53597Y105259D01*
X53998Y104289D01*
X54637Y103456D01*
X55470Y102817D01*
X56440Y102416D01*
X57480Y102279D01*
X58521Y102416D01*
X59491Y102817D01*
X60323Y103456D01*
X60962Y104289D01*
X61364Y105259D01*
X61501Y106299D01*
X61364Y107340D01*
X60962Y108309D01*
X60323Y109142D01*
X59491Y109781D01*
X58521Y110183D01*
X57480Y110320D01*
D02*
G37*
G36*
X47480D02*
X46440Y110183D01*
X45470Y109781D01*
X44637Y109142D01*
X43998Y108309D01*
X43597Y107340D01*
X43460Y106299D01*
X43597Y105259D01*
X43998Y104289D01*
X44637Y103456D01*
X45470Y102817D01*
X46440Y102416D01*
X47480Y102279D01*
X48521Y102416D01*
X49491Y102817D01*
X50323Y103456D01*
X50962Y104289D01*
X51364Y105259D01*
X51501Y106299D01*
X51364Y107340D01*
X50962Y108309D01*
X50323Y109142D01*
X49491Y109781D01*
X48521Y110183D01*
X47480Y110320D01*
D02*
G37*
G36*
X27480D02*
X26440Y110183D01*
X25470Y109781D01*
X24637Y109142D01*
X23998Y108309D01*
X23597Y107340D01*
X23460Y106299D01*
X23597Y105259D01*
X23998Y104289D01*
X24637Y103456D01*
X25470Y102817D01*
X26440Y102416D01*
X27480Y102279D01*
X28521Y102416D01*
X29491Y102817D01*
X30323Y103456D01*
X30962Y104289D01*
X31364Y105259D01*
X31501Y106299D01*
X31364Y107340D01*
X30962Y108309D01*
X30323Y109142D01*
X29491Y109781D01*
X28521Y110183D01*
X27480Y110320D01*
D02*
G37*
G36*
X117480D02*
X116440Y110183D01*
X115470Y109781D01*
X114637Y109142D01*
X113998Y108309D01*
X113597Y107340D01*
X113460Y106299D01*
X113597Y105259D01*
X113998Y104289D01*
X114637Y103456D01*
X114650Y103269D01*
X107174Y95793D01*
X104982D01*
X104906Y95975D01*
X107652Y98721D01*
X108080Y99007D01*
X108474Y99400D01*
X108778Y99856D01*
X108885Y100394D01*
Y102567D01*
X109491Y102817D01*
X110323Y103456D01*
X110962Y104289D01*
X111364Y105259D01*
X111501Y106299D01*
X111364Y107340D01*
X110962Y108309D01*
X110323Y109142D01*
X109491Y109781D01*
X108521Y110183D01*
X107480Y110320D01*
X106440Y110183D01*
X105470Y109781D01*
X104637Y109142D01*
X103998Y108309D01*
X103597Y107340D01*
X103460Y106299D01*
X103597Y105259D01*
X103998Y104289D01*
X104637Y103456D01*
X105470Y102817D01*
X106075Y102567D01*
Y100967D01*
X105807Y100566D01*
X103200Y97958D01*
X95336D01*
X95261Y98140D01*
X98403Y101282D01*
X98686Y101706D01*
X98785Y102205D01*
Y102525D01*
X99491Y102817D01*
X100323Y103456D01*
X100962Y104289D01*
X101364Y105259D01*
X101501Y106299D01*
X101364Y107340D01*
X100962Y108309D01*
X100323Y109142D01*
X99491Y109781D01*
X98521Y110183D01*
X97480Y110320D01*
X96440Y110183D01*
X95470Y109781D01*
X94637Y109142D01*
X93998Y108309D01*
X93597Y107340D01*
X93460Y106299D01*
X93597Y105259D01*
X93998Y104289D01*
X94637Y103456D01*
X95470Y102817D01*
X95856Y102657D01*
X95895Y102464D01*
X93554Y100124D01*
X93119D01*
X92620Y100024D01*
X92196Y99741D01*
X89234Y96779D01*
X88807Y96493D01*
X88502Y96038D01*
X88395Y95500D01*
X88502Y94962D01*
X88571Y94859D01*
X88478Y94685D01*
X83957D01*
Y86417D01*
X85494D01*
Y80252D01*
X83843Y78602D01*
X83661Y78677D01*
Y83253D01*
X83669Y83258D01*
X83974Y83714D01*
X84081Y84251D01*
X83974Y84789D01*
X83669Y85245D01*
X83661Y85250D01*
Y86811D01*
X81127D01*
Y87276D01*
X82812Y88961D01*
X83095Y89384D01*
X83194Y89883D01*
Y98123D01*
X87365Y102294D01*
X87480Y102279D01*
X88521Y102416D01*
X89491Y102817D01*
X90323Y103456D01*
X90962Y104289D01*
X91364Y105259D01*
X91501Y106299D01*
X91364Y107340D01*
X90962Y108309D01*
X90323Y109142D01*
X89491Y109781D01*
X88521Y110183D01*
X87480Y110320D01*
X86440Y110183D01*
X85470Y109781D01*
X84637Y109142D01*
X83998Y108309D01*
X83597Y107340D01*
X83460Y106299D01*
X83597Y105259D01*
X83998Y104289D01*
X84637Y103456D01*
X84650Y103268D01*
X80967Y99586D01*
X80685Y99162D01*
X80585Y98663D01*
Y90424D01*
X78900Y88739D01*
X78618Y88315D01*
X78518Y87816D01*
Y77767D01*
X78418Y77263D01*
X78525Y76725D01*
X78829Y76269D01*
X79285Y75964D01*
X79823Y75858D01*
X80361Y75964D01*
X80816Y76269D01*
X81121Y76725D01*
X81228Y77263D01*
X81160Y77604D01*
X81285Y77756D01*
X82740D01*
X82816Y77574D01*
X80677Y75435D01*
X73737D01*
X73238Y75336D01*
X72815Y75053D01*
X67129Y69368D01*
X66457D01*
Y71655D01*
X62717D01*
Y64470D01*
X64337D01*
X64412Y64289D01*
X63469Y63346D01*
X63287Y63421D01*
Y63583D01*
X59210D01*
X59128Y63779D01*
X59819Y64470D01*
X61457D01*
Y71655D01*
X57717D01*
Y66058D01*
X57436Y65777D01*
X57411Y65772D01*
X56988Y65489D01*
X56639Y65140D01*
X56457Y65215D01*
Y71655D01*
X52716D01*
Y64470D01*
X53282D01*
Y57936D01*
X51658Y56312D01*
X51476Y56388D01*
Y63583D01*
X46161D01*
Y55315D01*
X50404D01*
X50479Y55133D01*
X45556Y50210D01*
X45374Y50285D01*
Y54232D01*
X43726D01*
Y75542D01*
X50509Y82326D01*
X50792Y82749D01*
X50891Y83248D01*
Y85825D01*
X51457D01*
Y89015D01*
X51893Y89307D01*
X52198Y89762D01*
X52305Y90300D01*
X52198Y90838D01*
X51893Y91293D01*
X51457Y91585D01*
Y92790D01*
X52716D01*
Y85825D01*
X53023D01*
X53068Y85598D01*
X53373Y85142D01*
X53829Y84837D01*
X54366Y84730D01*
X54904Y84837D01*
X55360Y85142D01*
X55664Y85598D01*
X55710Y85825D01*
X56457D01*
Y92690D01*
X62060D01*
X62717Y92033D01*
Y85825D01*
X66457D01*
Y93010D01*
X65430D01*
X63523Y94917D01*
X63100Y95199D01*
X62600Y95299D01*
X56780D01*
X56778Y95300D01*
X56279Y95399D01*
X47224D01*
X46725Y95300D01*
X46435Y95106D01*
X46391Y95097D01*
X45936Y94793D01*
X45631Y94337D01*
X45609Y94224D01*
X45527Y94102D01*
X45428Y93602D01*
Y86303D01*
X39137Y80012D01*
X38854Y79589D01*
X38754Y79090D01*
Y62942D01*
X29946Y54134D01*
X26565D01*
Y46260D01*
X34636D01*
Y54134D01*
X33893D01*
X33818Y54316D01*
X40920Y61417D01*
X41117Y61336D01*
Y54232D01*
X37303D01*
Y46358D01*
X44854D01*
X44909Y46291D01*
Y45245D01*
X44854Y45177D01*
X37303D01*
Y37303D01*
X44854D01*
X44909Y37236D01*
Y36911D01*
X35748Y27750D01*
X35433Y27792D01*
X34354Y27650D01*
X33674Y27368D01*
X31466Y29576D01*
X31010Y29881D01*
X30637Y29955D01*
X30615Y29984D01*
X30562Y30171D01*
X30826Y30565D01*
X30933Y31102D01*
Y31890D01*
X30826Y32427D01*
X30521Y32883D01*
X24222Y39182D01*
X23766Y39487D01*
X23228Y39594D01*
X21801D01*
X21734Y39791D01*
X22474Y40359D01*
X23137Y41222D01*
X23553Y42228D01*
X23695Y43307D01*
X23553Y44386D01*
X23137Y45392D01*
X22474Y46255D01*
X21611Y46918D01*
X20605Y47335D01*
X19526Y47477D01*
X18447Y47335D01*
X17441Y46918D01*
X16578Y46255D01*
X15915Y45392D01*
X15498Y44386D01*
X15356Y43307D01*
X15498Y42228D01*
X15915Y41222D01*
X16578Y40359D01*
X17318Y39791D01*
X17251Y39594D01*
X14408D01*
X13870Y39487D01*
X13414Y39182D01*
X11285Y37053D01*
X10605Y37334D01*
X9526Y37477D01*
X8447Y37334D01*
X7666Y37011D01*
X5242Y39436D01*
Y42671D01*
X5438Y42683D01*
X5498Y42228D01*
X5915Y41222D01*
X6578Y40359D01*
X7441Y39696D01*
X8447Y39280D01*
X9526Y39138D01*
X10605Y39280D01*
X11611Y39696D01*
X12474Y40359D01*
X13137Y41222D01*
X13553Y42228D01*
X13695Y43307D01*
X13553Y44386D01*
X13137Y45392D01*
X12474Y46255D01*
X11611Y46918D01*
X10605Y47335D01*
X9526Y47477D01*
X8447Y47335D01*
X7441Y46918D01*
X6578Y46255D01*
X5915Y45392D01*
X5498Y44386D01*
X5438Y43931D01*
X5242Y43944D01*
Y47133D01*
X5342Y47638D01*
X5235Y48175D01*
X4930Y48631D01*
X4475Y48936D01*
X3937Y49043D01*
X3399Y48936D01*
X2944Y48631D01*
X2639Y48175D01*
X2532Y47638D01*
X2632Y47133D01*
Y38896D01*
X2732Y38397D01*
X3015Y37973D01*
X5822Y35166D01*
X5498Y34386D01*
X5356Y33307D01*
X5498Y32228D01*
X5915Y31222D01*
X6578Y30359D01*
X7441Y29696D01*
X8221Y29373D01*
Y25925D01*
X5571D01*
Y17382D01*
X10800D01*
Y15192D01*
X10907Y14654D01*
X11211Y14198D01*
X11372Y14091D01*
X11314Y13903D01*
X10382D01*
X9883Y13804D01*
X9460Y13521D01*
X6558Y10619D01*
X6335Y10285D01*
X3494D01*
Y2313D01*
X11467D01*
Y10285D01*
X10171D01*
X10096Y10467D01*
X10923Y11294D01*
X19291D01*
X19435Y11322D01*
X19532Y11141D01*
X18559Y10167D01*
X18521Y10183D01*
X17480Y10320D01*
X16440Y10183D01*
X15470Y9781D01*
X14637Y9142D01*
X13998Y8309D01*
X13597Y7340D01*
X13460Y6299D01*
X13597Y5259D01*
X13998Y4289D01*
X14637Y3456D01*
X15470Y2817D01*
X16440Y2416D01*
X17480Y2279D01*
X18521Y2416D01*
X19491Y2817D01*
X20323Y3456D01*
X20962Y4289D01*
X21364Y5259D01*
X21501Y6299D01*
X21364Y7340D01*
X20962Y8309D01*
X20714Y8633D01*
X28088Y16007D01*
X28371Y16430D01*
X28376Y16458D01*
X28463Y16588D01*
X28570Y17126D01*
X28463Y17664D01*
X28335Y17855D01*
X28488Y17981D01*
X33218Y13251D01*
X33641Y12968D01*
X34141Y12869D01*
X49606D01*
X50106Y12968D01*
X50529Y13251D01*
X54025Y16747D01*
X54207Y16672D01*
Y14320D01*
X49591Y9704D01*
X49491Y9781D01*
X48521Y10183D01*
X47480Y10320D01*
X46440Y10183D01*
X45470Y9781D01*
X44637Y9142D01*
X43998Y8309D01*
X43597Y7340D01*
X43460Y6299D01*
X43597Y5259D01*
X43998Y4289D01*
X44637Y3456D01*
X45470Y2817D01*
X46440Y2416D01*
X47480Y2279D01*
X48521Y2416D01*
X49491Y2817D01*
X50323Y3456D01*
X50962Y4289D01*
X51364Y5259D01*
X51501Y6299D01*
X51364Y7340D01*
X51233Y7656D01*
X56434Y12857D01*
X56516Y12979D01*
X56704Y12922D01*
Y10218D01*
X56440Y10183D01*
X55470Y9781D01*
X54637Y9142D01*
X53998Y8309D01*
X53597Y7340D01*
X53460Y6299D01*
X53597Y5259D01*
X53998Y4289D01*
X54637Y3456D01*
X55470Y2817D01*
X56440Y2416D01*
X57480Y2279D01*
X58521Y2416D01*
X59491Y2817D01*
X60323Y3456D01*
X60962Y4289D01*
X61364Y5259D01*
X61501Y6299D01*
X61364Y7340D01*
X60962Y8309D01*
X60323Y9142D01*
X59491Y9781D01*
X59313Y9855D01*
Y18865D01*
X59495Y18941D01*
X66176Y12260D01*
Y10074D01*
X65470Y9781D01*
X64637Y9142D01*
X63998Y8309D01*
X63597Y7340D01*
X63460Y6299D01*
X63597Y5259D01*
X63998Y4289D01*
X64637Y3456D01*
X65470Y2817D01*
X66440Y2416D01*
X67480Y2279D01*
X68521Y2416D01*
X69491Y2817D01*
X70323Y3456D01*
X70962Y4289D01*
X71364Y5259D01*
X71501Y6299D01*
X71364Y7340D01*
X70962Y8309D01*
X70323Y9142D01*
X69491Y9781D01*
X68785Y10074D01*
Y12800D01*
X68686Y13299D01*
X68403Y13723D01*
X61478Y20647D01*
Y32119D01*
X65726Y36366D01*
X66803Y35289D01*
X67227Y35006D01*
X67726Y34907D01*
X67996D01*
Y34183D01*
X63042Y29229D01*
X63233Y29038D01*
X62577Y28382D01*
X62295Y27959D01*
X62195Y27459D01*
Y25890D01*
X62295Y25390D01*
X62577Y24967D01*
X64845Y22700D01*
X65268Y22417D01*
X65768Y22318D01*
X68571D01*
X69070Y22417D01*
X69494Y22700D01*
X69571D01*
X69723Y22547D01*
X69723D01*
X71811Y20459D01*
X71951Y20320D01*
X72090Y20181D01*
X74178Y18093D01*
X79189Y23104D01*
X78998Y23295D01*
X80844Y25141D01*
X81126Y25565D01*
X81226Y26064D01*
Y27842D01*
X81326Y28346D01*
X81219Y28884D01*
X80915Y29340D01*
X80459Y29645D01*
X79921Y29751D01*
X79384Y29645D01*
X78928Y29340D01*
X78623Y28884D01*
X78516Y28346D01*
X78617Y27842D01*
Y26604D01*
X77270Y25258D01*
X77013Y25279D01*
X76962Y25331D01*
X76808Y25484D01*
X76808Y25560D01*
X77091Y25983D01*
X77190Y26483D01*
Y30807D01*
X77091Y31306D01*
X76808Y31730D01*
X73720Y34818D01*
X73457Y35211D01*
X73518Y35408D01*
X75827D01*
X77937Y33297D01*
X78360Y33015D01*
X78860Y32915D01*
X84920D01*
X85419Y33015D01*
X85843Y33297D01*
X91474Y38929D01*
X91756Y39352D01*
X91856Y39851D01*
Y40047D01*
X91956Y40551D01*
X91849Y41089D01*
X91633Y41412D01*
X91738Y41609D01*
X96771D01*
X97270Y41708D01*
X97641Y41956D01*
X97841Y41756D01*
X100155Y44071D01*
X104084D01*
X105770Y42385D01*
X105771Y42385D01*
X116044Y32111D01*
X116329Y31684D01*
X116785Y31379D01*
X117323Y31272D01*
X117860Y31379D01*
X118316Y31684D01*
X118621Y32140D01*
X118728Y32677D01*
X118621Y33215D01*
X118316Y33671D01*
X117889Y33956D01*
X110024Y41821D01*
X110100Y42002D01*
X118110D01*
X118609Y42102D01*
X119033Y42385D01*
X135568Y58920D01*
X135851Y59343D01*
X135950Y59842D01*
Y60519D01*
X136051Y61024D01*
X135944Y61561D01*
X135639Y62017D01*
X135183Y62322D01*
X134646Y62429D01*
X134108Y62322D01*
X133652Y62017D01*
X133348Y61561D01*
X133241Y61024D01*
X133341Y60519D01*
Y60383D01*
X130398Y57440D01*
X130217Y57516D01*
Y65158D01*
X124902D01*
Y56890D01*
X129591D01*
X129666Y56708D01*
X117570Y44612D01*
X107233D01*
X105547Y46298D01*
X105124Y46580D01*
X104625Y46680D01*
X103020D01*
X102852Y46767D01*
X102852Y46767D01*
X102852Y46767D01*
X100727Y48892D01*
X100808Y49089D01*
X106931D01*
X107430Y49188D01*
X107853Y49471D01*
X108366Y49984D01*
X110454Y47896D01*
X110877Y47614D01*
X111376Y47514D01*
X117606D01*
X118110Y47414D01*
X118648Y47521D01*
X119104Y47826D01*
X119408Y48281D01*
X119515Y48819D01*
X119408Y49356D01*
X119104Y49812D01*
X118648Y50117D01*
X118110Y50224D01*
X117606Y50124D01*
X111916D01*
X109671Y52369D01*
Y56890D01*
X109744D01*
Y65158D01*
X109744D01*
X109719Y65354D01*
X109989Y65624D01*
X112094D01*
X112308Y65582D01*
X112384Y65400D01*
X112222Y65158D01*
X112106D01*
Y64703D01*
X112079Y64567D01*
X112106Y64431D01*
Y56890D01*
X119980D01*
Y65158D01*
X120147Y65231D01*
X121149D01*
X121653Y65131D01*
X122191Y65237D01*
X122647Y65542D01*
X122951Y65998D01*
X123058Y66535D01*
X122951Y67073D01*
X122647Y67529D01*
X122256Y67790D01*
X122316Y67987D01*
X133907D01*
X134407Y68086D01*
X134830Y68369D01*
X135547Y69085D01*
X135729Y69010D01*
Y67310D01*
X141868D01*
X142298Y66881D01*
Y57450D01*
X135812Y50964D01*
X135630Y51039D01*
Y54016D01*
X131102D01*
Y39331D01*
X135630D01*
Y47092D01*
X144525Y55987D01*
X144808Y56410D01*
X144907Y56910D01*
Y67421D01*
X144808Y67921D01*
X144525Y68344D01*
X143258Y69611D01*
X142835Y69894D01*
X142335Y69993D01*
X142225D01*
Y74988D01*
Y77743D01*
X135729D01*
Y75111D01*
X135082D01*
X134583Y75012D01*
X134159Y74729D01*
X132389Y72958D01*
X127437D01*
X127417Y73155D01*
X127665Y73204D01*
X128088Y73487D01*
X130056Y75455D01*
X130339Y75879D01*
X130438Y76378D01*
Y81102D01*
X130339Y81602D01*
X130056Y82025D01*
X127584Y84497D01*
Y84842D01*
X128195D01*
X128202Y84837D01*
X128740Y84730D01*
X129278Y84837D01*
X129286Y84842D01*
X130217D01*
Y93110D01*
X121297D01*
X121161Y93137D01*
X121026Y93110D01*
X114665D01*
Y84842D01*
X117298D01*
Y82972D01*
X117397Y82473D01*
X117680Y82050D01*
X120768Y78962D01*
X121054Y78534D01*
X121444Y78273D01*
X121385Y78076D01*
X113103D01*
X112598Y78177D01*
X112061Y78070D01*
X111605Y77765D01*
X111300Y77309D01*
X111194Y76772D01*
X111300Y76234D01*
X111516Y75911D01*
X111411Y75714D01*
X95771D01*
X95271Y75615D01*
X94848Y75332D01*
X92249Y72733D01*
X92067Y72808D01*
Y73169D01*
X90647D01*
X90565Y73366D01*
X94230Y77030D01*
X94512Y77454D01*
X94612Y77953D01*
Y78308D01*
X94643Y78465D01*
Y84790D01*
X94686Y84842D01*
X112303D01*
Y93110D01*
X108282D01*
X108275Y93129D01*
X108250Y93307D01*
X108637Y93566D01*
X117365Y102294D01*
X117480Y102279D01*
X118521Y102416D01*
X119491Y102817D01*
X120323Y103456D01*
X120962Y104289D01*
X121364Y105259D01*
X121501Y106299D01*
X121364Y107340D01*
X120962Y108309D01*
X120323Y109142D01*
X119491Y109781D01*
X118521Y110183D01*
X117480Y110320D01*
D02*
G37*
G36*
X77480D02*
X76440Y110183D01*
X75470Y109781D01*
X74637Y109142D01*
X73998Y108309D01*
X73597Y107340D01*
X73460Y106299D01*
X73597Y105259D01*
X73998Y104289D01*
X74637Y103456D01*
X75470Y102817D01*
X76176Y102525D01*
Y101149D01*
X71847Y96820D01*
X71626Y96776D01*
X71202Y96493D01*
X70437Y95728D01*
X70255Y95803D01*
Y98819D01*
X70155Y99318D01*
X69873Y99741D01*
X68785Y100829D01*
Y102525D01*
X69491Y102817D01*
X70323Y103456D01*
X70962Y104289D01*
X71364Y105259D01*
X71501Y106299D01*
X71364Y107340D01*
X70962Y108309D01*
X70323Y109142D01*
X69491Y109781D01*
X68521Y110183D01*
X67480Y110320D01*
X66440Y110183D01*
X65470Y109781D01*
X64637Y109142D01*
X63998Y108309D01*
X63597Y107340D01*
X63460Y106299D01*
X63597Y105259D01*
X63998Y104289D01*
X64637Y103456D01*
X65470Y102817D01*
X66176Y102525D01*
Y100289D01*
X66275Y99789D01*
X66558Y99366D01*
X67646Y98278D01*
Y90404D01*
X67483Y90241D01*
X67200Y89818D01*
X67101Y89319D01*
X67195Y88844D01*
Y74805D01*
X67095Y74300D01*
X67202Y73762D01*
X67507Y73307D01*
X67962Y73002D01*
X68500Y72895D01*
X69038Y73002D01*
X69493Y73307D01*
X69798Y73762D01*
X69905Y74300D01*
X69805Y74805D01*
Y74926D01*
X69978Y75018D01*
X70033Y74981D01*
X70571Y74875D01*
X71109Y74981D01*
X71564Y75286D01*
X71869Y75742D01*
X71976Y76279D01*
X71876Y76784D01*
Y77756D01*
X74213D01*
Y83335D01*
X74275Y83348D01*
X74731Y83652D01*
X75035Y84108D01*
X75142Y84646D01*
X75035Y85183D01*
X74731Y85639D01*
X74275Y85944D01*
X74213Y85956D01*
Y86811D01*
X72478D01*
X72342Y87008D01*
X72420Y87402D01*
Y94021D01*
X72720Y94322D01*
X72942Y94366D01*
X73365Y94648D01*
X78482Y99765D01*
X78764Y100188D01*
X78864Y100687D01*
X78785Y101083D01*
Y102525D01*
X79491Y102817D01*
X80323Y103456D01*
X80962Y104289D01*
X81364Y105259D01*
X81501Y106299D01*
X81364Y107340D01*
X80962Y108309D01*
X80323Y109142D01*
X79491Y109781D01*
X78521Y110183D01*
X77480Y110320D01*
D02*
G37*
G36*
X11467Y110285D02*
X3494D01*
Y102313D01*
X4899D01*
Y97420D01*
X4987Y96752D01*
X5245Y96129D01*
X5655Y95595D01*
X6209Y95040D01*
Y93609D01*
X7690D01*
X8009Y93365D01*
X8632Y93107D01*
X9300Y93019D01*
X9968Y93107D01*
X10591Y93365D01*
X10910Y93609D01*
X12391D01*
Y97790D01*
X10760D01*
X10061Y98489D01*
Y102313D01*
X11467D01*
Y110285D01*
D02*
G37*
G36*
X22933Y95177D02*
X18012D01*
Y91888D01*
X17979Y91810D01*
X17891Y91142D01*
Y89042D01*
X17831Y88981D01*
X14890D01*
Y92291D01*
X3709D01*
Y80598D01*
X14890D01*
Y83819D01*
X18900D01*
X19568Y83907D01*
X20191Y84165D01*
X20725Y84575D01*
X22298Y86147D01*
X22708Y86682D01*
X22884Y87106D01*
X22933D01*
Y87226D01*
X22966Y87304D01*
X23054Y87972D01*
Y91142D01*
X22966Y91810D01*
X22933Y91888D01*
Y95177D01*
D02*
G37*
G36*
X13335Y78765D02*
X5265D01*
Y70891D01*
X13335D01*
Y78765D01*
D02*
G37*
G36*
X37480Y110320D02*
X36440Y110183D01*
X35470Y109781D01*
X34637Y109142D01*
X33998Y108309D01*
X33597Y107340D01*
X33460Y106299D01*
X33597Y105259D01*
X33998Y104289D01*
X34637Y103456D01*
X35470Y102817D01*
X36075Y102567D01*
Y100070D01*
X31182Y95177D01*
X27067D01*
Y87106D01*
X28123D01*
Y70374D01*
X22638D01*
Y67743D01*
X13335D01*
Y69709D01*
X5265D01*
Y61835D01*
X13335D01*
Y64934D01*
X22638D01*
Y62303D01*
X23248D01*
X23323Y62121D01*
X18550Y57348D01*
X18447Y57335D01*
X17441Y56918D01*
X16578Y56255D01*
X15915Y55392D01*
X15498Y54386D01*
X15356Y53307D01*
X15498Y52228D01*
X15915Y51222D01*
X16578Y50359D01*
X17441Y49696D01*
X18447Y49280D01*
X19526Y49138D01*
X20605Y49280D01*
X21611Y49696D01*
X22474Y50359D01*
X23137Y51222D01*
X23553Y52228D01*
X23695Y53307D01*
X23553Y54386D01*
X23137Y55392D01*
X22474Y56255D01*
X22003Y56617D01*
X21990Y56814D01*
X27479Y62303D01*
X36417D01*
Y70374D01*
X30933D01*
Y87106D01*
X31988D01*
Y92009D01*
X38474Y98495D01*
X38778Y98950D01*
X38885Y99488D01*
Y102567D01*
X39491Y102817D01*
X40323Y103456D01*
X40962Y104289D01*
X41364Y105259D01*
X41501Y106299D01*
X41364Y107340D01*
X40962Y108309D01*
X40323Y109142D01*
X39491Y109781D01*
X38521Y110183D01*
X37480Y110320D01*
D02*
G37*
G36*
X51457Y71655D02*
X47717D01*
Y64470D01*
X51457D01*
Y71655D01*
D02*
G37*
G36*
X12183Y57470D02*
X6868D01*
X6292Y57355D01*
X5804Y57029D01*
X5478Y56541D01*
X5363Y55965D01*
Y50650D01*
X5478Y50074D01*
X5804Y49585D01*
X6292Y49259D01*
X6868Y49144D01*
X12183D01*
X12759Y49259D01*
X13248Y49585D01*
X13574Y50074D01*
X13689Y50650D01*
Y55965D01*
X13574Y56541D01*
X13248Y57029D01*
X12759Y57355D01*
X12183Y57470D01*
D02*
G37*
G36*
X97841Y40921D02*
X95614Y38694D01*
Y38694D01*
X95614Y38694D01*
X93387Y36467D01*
X93387D01*
X93387Y36467D01*
X91299Y34379D01*
X91159Y34240D01*
X91020Y34100D01*
X89072Y32152D01*
X88932Y32013D01*
X88793Y31873D01*
X86844Y29925D01*
X86705Y29785D01*
X86566Y29646D01*
X84617Y27698D01*
X84478Y27558D01*
X84339Y27419D01*
X82390Y25470D01*
X82253Y25333D01*
X82112Y25192D01*
X80024Y23104D01*
X85035Y18093D01*
X85226Y18284D01*
X85703Y17807D01*
Y16288D01*
X79282Y9867D01*
X78521Y10183D01*
X77480Y10320D01*
X76440Y10183D01*
X75470Y9781D01*
X74637Y9142D01*
X73998Y8309D01*
X73597Y7340D01*
X73460Y6299D01*
X73597Y5259D01*
X73998Y4289D01*
X74637Y3456D01*
X75470Y2817D01*
X76440Y2416D01*
X77480Y2279D01*
X78521Y2416D01*
X79491Y2817D01*
X80323Y3456D01*
X80962Y4289D01*
X81364Y5259D01*
X81501Y6299D01*
X81364Y7340D01*
X81095Y7990D01*
X87930Y14826D01*
X88213Y15249D01*
X88313Y15748D01*
Y18347D01*
X88213Y18846D01*
X87930Y19270D01*
X87169Y20031D01*
Y20228D01*
X87239Y20297D01*
X87355Y20413D01*
X87551D01*
X89640Y18324D01*
Y10304D01*
X89227Y9890D01*
X88521Y10183D01*
X87480Y10320D01*
X86440Y10183D01*
X85470Y9781D01*
X84637Y9142D01*
X83998Y8309D01*
X83597Y7340D01*
X83460Y6299D01*
X83597Y5259D01*
X83998Y4289D01*
X84637Y3456D01*
X85470Y2817D01*
X86440Y2416D01*
X87480Y2279D01*
X88521Y2416D01*
X89491Y2817D01*
X90323Y3456D01*
X90962Y4289D01*
X91364Y5259D01*
X91501Y6299D01*
X91364Y7340D01*
X91072Y8045D01*
X91867Y8841D01*
X92150Y9264D01*
X92250Y9764D01*
Y18865D01*
X92150Y19364D01*
X91867Y19787D01*
X89396Y22258D01*
Y22455D01*
X89582Y22640D01*
X89779D01*
X96176Y16243D01*
Y10074D01*
X95470Y9781D01*
X94637Y9142D01*
X93998Y8309D01*
X93597Y7340D01*
X93460Y6299D01*
X93597Y5259D01*
X93998Y4289D01*
X94637Y3456D01*
X95470Y2817D01*
X96440Y2416D01*
X97480Y2279D01*
X98521Y2416D01*
X99491Y2817D01*
X100323Y3456D01*
X100962Y4289D01*
X101364Y5259D01*
X101501Y6299D01*
X101364Y7340D01*
X100962Y8309D01*
X100323Y9142D01*
X99491Y9781D01*
X98785Y10074D01*
Y16783D01*
X98686Y17282D01*
X98403Y17706D01*
X91624Y24485D01*
Y24682D01*
X91809Y24867D01*
X92006D01*
X95337Y21535D01*
X95761Y21253D01*
X96260Y21153D01*
X98432D01*
X106176Y13410D01*
Y10074D01*
X105470Y9781D01*
X104637Y9142D01*
X103998Y8309D01*
X103597Y7340D01*
X103460Y6299D01*
X103597Y5259D01*
X103998Y4289D01*
X104637Y3456D01*
X105470Y2817D01*
X106440Y2416D01*
X107480Y2279D01*
X108521Y2416D01*
X109491Y2817D01*
X110323Y3456D01*
X110962Y4289D01*
X111364Y5259D01*
X111501Y6299D01*
X111364Y7340D01*
X110962Y8309D01*
X110323Y9142D01*
X109491Y9781D01*
X108785Y10074D01*
Y13950D01*
X108686Y14449D01*
X108403Y14873D01*
X99895Y23380D01*
X99472Y23663D01*
X98972Y23763D01*
X96800D01*
X93851Y26712D01*
X93851Y26909D01*
X93943Y27002D01*
X94036Y27094D01*
X94233D01*
X95576Y25751D01*
X95999Y25468D01*
X96499Y25369D01*
X101786D01*
X102218Y25080D01*
X102756Y24973D01*
X102849Y24991D01*
X116176Y11664D01*
Y10074D01*
X115470Y9781D01*
X114637Y9142D01*
X113998Y8309D01*
X113597Y7340D01*
X113460Y6299D01*
X113597Y5259D01*
X113998Y4289D01*
X114637Y3456D01*
X115470Y2817D01*
X116440Y2416D01*
X117480Y2279D01*
X118521Y2416D01*
X119491Y2817D01*
X120323Y3456D01*
X120962Y4289D01*
X121364Y5259D01*
X121501Y6299D01*
X121364Y7340D01*
X120962Y8309D01*
X120323Y9142D01*
X119491Y9781D01*
X118785Y10074D01*
Y12205D01*
X118686Y12704D01*
X118403Y13127D01*
X103934Y27596D01*
X103511Y27878D01*
X103012Y27978D01*
X97039D01*
X96078Y28939D01*
Y29136D01*
X96263Y29321D01*
X96460D01*
X97176Y28605D01*
X97599Y28322D01*
X98099Y28223D01*
X105070D01*
X116007Y17286D01*
X116430Y17003D01*
X116929Y16904D01*
X122587D01*
X126176Y13316D01*
Y10074D01*
X125470Y9781D01*
X124637Y9142D01*
X123998Y8309D01*
X123597Y7340D01*
X123460Y6299D01*
X123597Y5259D01*
X123998Y4289D01*
X124637Y3456D01*
X125470Y2817D01*
X126440Y2416D01*
X127480Y2279D01*
X128521Y2416D01*
X129491Y2817D01*
X130323Y3456D01*
X130962Y4289D01*
X131364Y5259D01*
X131501Y6299D01*
X131364Y7340D01*
X130962Y8309D01*
X130323Y9142D01*
X129491Y9781D01*
X128785Y10074D01*
Y13856D01*
X128686Y14355D01*
X128403Y14778D01*
X124050Y19131D01*
X123627Y19414D01*
X123128Y19513D01*
X117470D01*
X106533Y30450D01*
X106183Y30684D01*
X106243Y30880D01*
X107432D01*
X110138Y28174D01*
X110424Y27747D01*
X110852Y27461D01*
X117778Y20534D01*
X118201Y20251D01*
X118701Y20152D01*
X130267D01*
X136176Y14243D01*
Y10074D01*
X135470Y9781D01*
X134637Y9142D01*
X133998Y8309D01*
X133597Y7340D01*
X133460Y6299D01*
X133597Y5259D01*
X133998Y4289D01*
X134637Y3456D01*
X135470Y2817D01*
X136440Y2416D01*
X137480Y2279D01*
X138521Y2416D01*
X139491Y2817D01*
X140323Y3456D01*
X140962Y4289D01*
X141364Y5259D01*
X141501Y6299D01*
X141364Y7340D01*
X140962Y8309D01*
X140323Y9142D01*
X139491Y9781D01*
X138785Y10074D01*
Y14784D01*
X138686Y15283D01*
X138403Y15706D01*
X131730Y22379D01*
X131306Y22662D01*
X131059Y22711D01*
X131078Y22908D01*
X132826D01*
X145686Y10048D01*
X145648Y9855D01*
X145470Y9781D01*
X144637Y9142D01*
X143998Y8309D01*
X143597Y7340D01*
X143460Y6299D01*
X143597Y5259D01*
X143998Y4289D01*
X144637Y3456D01*
X145470Y2817D01*
X146440Y2416D01*
X147480Y2279D01*
X148521Y2416D01*
X149491Y2817D01*
X150323Y3456D01*
X150962Y4289D01*
X151364Y5259D01*
X151501Y6299D01*
X151364Y7340D01*
X150962Y8309D01*
X150323Y9142D01*
X149491Y9781D01*
X148785Y10074D01*
Y10098D01*
X148686Y10598D01*
X148403Y11021D01*
X134289Y25135D01*
X133865Y25418D01*
X133366Y25517D01*
X120619D01*
X112329Y33807D01*
X112322Y33845D01*
X112017Y34301D01*
X111561Y34605D01*
X111524Y34613D01*
X110667Y35470D01*
X110243Y35752D01*
X109744Y35852D01*
X103026D01*
X102852Y35910D01*
X102852D01*
X102852Y35910D01*
X97841Y40921D01*
D02*
G37*
G36*
X34636Y45079D02*
X26565D01*
Y37205D01*
X34636D01*
Y45079D01*
D02*
G37*
G36*
X135630Y36811D02*
X127756D01*
Y28740D01*
X135630D01*
Y36811D01*
D02*
G37*
G36*
X153740Y54016D02*
X149213D01*
Y49412D01*
X148765Y49069D01*
X148355Y48535D01*
X148097Y47912D01*
X148009Y47244D01*
Y35967D01*
X148097Y35299D01*
X148355Y34677D01*
X148765Y34142D01*
X149292Y33615D01*
Y30376D01*
X149329D01*
Y29764D01*
X149215D01*
Y21220D01*
X154451D01*
Y25264D01*
X154492Y25569D01*
Y30376D01*
X154529D01*
Y38919D01*
X153172D01*
Y39331D01*
X153740D01*
Y54016D01*
D02*
G37*
G36*
X37480Y10320D02*
X36440Y10183D01*
X35470Y9781D01*
X34637Y9142D01*
X33998Y8309D01*
X33597Y7340D01*
X33460Y6299D01*
X33597Y5259D01*
X33998Y4289D01*
X34637Y3456D01*
X35470Y2817D01*
X36440Y2416D01*
X37480Y2279D01*
X38521Y2416D01*
X39491Y2817D01*
X40323Y3456D01*
X40962Y4289D01*
X41364Y5259D01*
X41501Y6299D01*
X41364Y7340D01*
X40962Y8309D01*
X40323Y9142D01*
X39491Y9781D01*
X38521Y10183D01*
X37480Y10320D01*
D02*
G37*
G36*
X27480D02*
X26440Y10183D01*
X25470Y9781D01*
X24637Y9142D01*
X23998Y8309D01*
X23597Y7340D01*
X23460Y6299D01*
X23597Y5259D01*
X23998Y4289D01*
X24637Y3456D01*
X25470Y2817D01*
X26440Y2416D01*
X27480Y2279D01*
X28521Y2416D01*
X29491Y2817D01*
X30323Y3456D01*
X30962Y4289D01*
X31364Y5259D01*
X31501Y6299D01*
X31364Y7340D01*
X30962Y8309D01*
X30323Y9142D01*
X29491Y9781D01*
X28521Y10183D01*
X27480Y10320D01*
D02*
G37*
%LPD*%
G36*
X89707Y94113D02*
X89800Y94095D01*
X89895Y93913D01*
Y84030D01*
X89868Y83894D01*
Y79902D01*
X87567Y77601D01*
X86790D01*
X86714Y77783D01*
X87721Y78790D01*
X88004Y79213D01*
X88103Y79712D01*
Y86417D01*
X89272D01*
Y89047D01*
X89297Y89173D01*
X89272Y89299D01*
Y94045D01*
X89424Y94170D01*
X89707Y94113D01*
D02*
G37*
G36*
X82947Y73759D02*
Y63861D01*
X83047Y63362D01*
X83329Y62939D01*
X83359Y62909D01*
X80024Y59573D01*
X82251Y57346D01*
X84339Y55258D01*
X84478Y55119D01*
X84617Y54980D01*
X86705Y52892D01*
X91716Y57903D01*
X91148Y58471D01*
X91082Y58805D01*
X90777Y59261D01*
X90321Y59566D01*
X89987Y59632D01*
X89396Y60223D01*
Y60419D01*
X89445Y60468D01*
X89728Y60891D01*
X89827Y61390D01*
Y62265D01*
X89728Y62764D01*
X89445Y63187D01*
X88188Y64444D01*
X88264Y64626D01*
X92067D01*
Y68861D01*
X96311Y73105D01*
X98970D01*
X98989Y72908D01*
X98742Y72859D01*
X98319Y72576D01*
X94648Y68906D01*
X94366Y68483D01*
X94266Y67983D01*
Y65158D01*
X94193D01*
Y56890D01*
X102067D01*
Y65158D01*
X101994D01*
Y65637D01*
X102094Y66142D01*
X101987Y66679D01*
X101682Y67135D01*
X101227Y67440D01*
X100689Y67547D01*
X100561Y67521D01*
X100468Y67695D01*
X100760Y67987D01*
X108383D01*
X108465Y67790D01*
X107444Y66769D01*
X107161Y66346D01*
X107062Y65847D01*
Y65158D01*
X104429D01*
Y56890D01*
X107062D01*
Y52369D01*
X106391Y51698D01*
X99606D01*
X99107Y51599D01*
X98684Y51316D01*
X98593Y51225D01*
X98397Y51221D01*
X96170Y53448D01*
Y53448D01*
X96170Y53448D01*
X93943Y55676D01*
X88932Y50665D01*
X91123Y48474D01*
X91113Y48425D01*
X91220Y47887D01*
X91525Y47431D01*
X91980Y47127D01*
X92518Y47020D01*
X92567Y47030D01*
X92866Y46731D01*
X92791Y46549D01*
X92630D01*
X92126Y46650D01*
X91588Y46543D01*
X91132Y46238D01*
X90828Y45782D01*
X90762Y45448D01*
X90548Y45383D01*
X85796Y50135D01*
X85373Y50418D01*
X84874Y50517D01*
X79680D01*
X79175Y50617D01*
X78637Y50511D01*
X78273Y50267D01*
X78076Y50372D01*
Y53039D01*
X78177Y53543D01*
X78070Y54081D01*
X77765Y54537D01*
X77309Y54841D01*
X76772Y54948D01*
X76234Y54841D01*
X75778Y54537D01*
X75474Y54081D01*
X75367Y53543D01*
X75467Y53039D01*
Y48228D01*
X75566Y47729D01*
X75849Y47306D01*
X76787Y46368D01*
X76711Y46187D01*
X72894D01*
X71308Y47773D01*
X70884Y48056D01*
X70385Y48155D01*
X68154D01*
X68028Y48343D01*
X68053Y48438D01*
X68184Y48569D01*
X70280Y50665D01*
X72507Y52892D01*
X72507D01*
X72507Y52892D01*
X74734Y55119D01*
X74734D01*
X74734Y55119D01*
X76822Y57207D01*
X76960Y57344D01*
X77101Y57485D01*
X79189Y59573D01*
X78177Y60584D01*
X78518Y60926D01*
X78946Y61211D01*
X79251Y61667D01*
X79358Y62205D01*
X79251Y62742D01*
X78946Y63198D01*
X78490Y63503D01*
X77953Y63610D01*
X77415Y63503D01*
X76959Y63198D01*
X76674Y62770D01*
X76332Y62429D01*
X74178Y64584D01*
X72090Y62496D01*
X71974Y62380D01*
X71811Y62218D01*
X70187Y60593D01*
X70005Y60669D01*
Y61763D01*
X71137Y62894D01*
X71564Y63180D01*
X71869Y63636D01*
X71976Y64173D01*
X71869Y64711D01*
X71564Y65167D01*
X71109Y65471D01*
X70777Y65537D01*
X70720Y65725D01*
X72565Y67570D01*
X75650D01*
Y64626D01*
X80886D01*
Y72826D01*
X81217D01*
X81717Y72926D01*
X82140Y73208D01*
X82766Y73834D01*
X82947Y73759D01*
D02*
G37*
G36*
X61372Y41756D02*
X61563Y41947D01*
X62110Y41400D01*
X62529Y41120D01*
X62573Y41087D01*
X62638Y40930D01*
X62481Y40695D01*
X62381Y40190D01*
X62203Y40090D01*
X61372Y40921D01*
X56998Y36547D01*
X56816Y36623D01*
Y40367D01*
X59789Y43339D01*
X61372Y41756D01*
D02*
G37*
G36*
X28123Y31308D02*
Y31102D01*
X28230Y30565D01*
X28484Y30185D01*
X28388Y29988D01*
X13363D01*
X12826Y29881D01*
X12370Y29576D01*
X11211Y28417D01*
X11027Y28142D01*
X10830Y28202D01*
Y29373D01*
X11611Y29696D01*
X12474Y30359D01*
X13137Y31222D01*
X13553Y32228D01*
X13695Y33307D01*
X13553Y34386D01*
X13272Y35066D01*
X14990Y36784D01*
X22646D01*
X28123Y31308D01*
D02*
G37*
G36*
X71425Y35211D02*
X71143Y34790D01*
X71036Y34252D01*
X71143Y33714D01*
X71447Y33259D01*
X71875Y32973D01*
X74581Y30267D01*
Y27969D01*
X74399Y27893D01*
X72507Y29785D01*
X67649Y24927D01*
X66308D01*
X64805Y26430D01*
Y26919D01*
X65078Y27193D01*
X65269Y27002D01*
X70280Y32013D01*
X70089Y32204D01*
X70223Y32338D01*
X70506Y32761D01*
X70605Y33260D01*
Y35408D01*
X71364D01*
X71425Y35211D01*
D02*
G37*
G36*
X47074Y35108D02*
Y32778D01*
X44511Y30214D01*
X44228Y29791D01*
X44129Y29291D01*
Y27785D01*
X42776D01*
X42200Y27670D01*
X41711Y27344D01*
X41385Y26856D01*
X41270Y26280D01*
Y22332D01*
X40907D01*
X40369Y22225D01*
X39914Y21920D01*
X37902Y19909D01*
X37708D01*
X37641Y20106D01*
X38381Y20674D01*
X39044Y21537D01*
X39461Y22543D01*
X39603Y23622D01*
X39461Y24701D01*
X39044Y25707D01*
X38381Y26570D01*
X38374Y26686D01*
X46877Y35190D01*
X47074Y35108D01*
D02*
G37*
G36*
X28515Y21073D02*
X28440Y20891D01*
X26280D01*
X25780Y20792D01*
X25357Y20509D01*
X18751Y13903D01*
X16183D01*
X16090Y14077D01*
X16259Y14329D01*
X16366Y14867D01*
Y25110D01*
X16465Y25209D01*
X24379D01*
X28515Y21073D01*
D02*
G37*
D10*
X4526Y28307D02*
X14526D01*
X4526D02*
Y58307D01*
X14526D01*
X24526Y48307D02*
Y58307D01*
X14526D02*
X24526D01*
X14526Y28307D02*
X24526D01*
Y58307D01*
X40433Y18622D02*
X50433Y18622D01*
X50433Y28622D02*
X50433Y18622D01*
X30433Y18622D02*
X50433Y18622D01*
X30433Y28622D02*
X50433Y28622D01*
X30433Y18622D02*
Y28622D01*
X137794Y43409D02*
X152006D01*
Y51991D01*
X137794D02*
X152006D01*
X137794Y43409D02*
Y51991D01*
X5009Y82088D02*
Y96300D01*
X13591D01*
Y82088D02*
Y96300D01*
X5009Y82088D02*
X13591D01*
X71260Y84842D02*
X83858D01*
Y79724D02*
Y84842D01*
X71260Y79724D02*
X83858D01*
X71260D02*
Y84842D01*
X73936Y37951D02*
X82844Y29042D01*
X70317Y34332D02*
X73936Y37951D01*
X70317Y34332D02*
X79225Y25423D01*
X82844Y29042D01*
D12*
X14961Y14867D02*
Y25692D01*
X15883Y26614D01*
X24961D01*
X33071Y18504D01*
X38484D02*
X40907Y20927D01*
X33071Y18504D02*
X38484D01*
X40907Y20927D02*
X42738D01*
X45433Y23622D01*
X35433Y23622D02*
X35433D01*
X12205Y27424D02*
X13363Y28583D01*
X30472D01*
X12205Y15192D02*
Y27424D01*
X30472Y28583D02*
X35433Y23622D01*
X29528Y31102D02*
Y31890D01*
X23228Y38189D02*
X29528Y31890D01*
X14408Y38189D02*
X23228D01*
X9526Y33307D02*
X14408Y38189D01*
X19526Y56337D02*
X29528Y66339D01*
X19526Y53307D02*
Y56337D01*
X29528Y66339D02*
Y91142D01*
Y91535D02*
X37480Y99488D01*
X29528Y91142D02*
Y91535D01*
X37480Y99488D02*
Y106299D01*
X107087Y100000D02*
X107480Y100394D01*
Y106299D01*
X9100Y65600D02*
X9839Y66339D01*
X29528D01*
D14*
X154823Y57468D02*
Y90145D01*
X136909Y57468D02*
X154823D01*
X136909D02*
Y89948D01*
Y90145D02*
X154823D01*
D15*
X2480Y1299D02*
Y11299D01*
Y1299D02*
X152480D01*
Y11299D01*
X2480D02*
X152480D01*
X2480Y101299D02*
Y111299D01*
Y101299D02*
X152480D01*
Y111299D01*
X2480D02*
X152480D01*
X44193Y82598D02*
X49193Y87598D01*
X44193D02*
X89665D01*
Y58071D02*
Y87598D01*
X44193Y58071D02*
X89665D01*
X44193D02*
Y87598D01*
X140021Y37797D02*
X152619D01*
Y31498D02*
Y37797D01*
X140021Y31498D02*
X152619D01*
X140021D02*
Y37797D01*
X12450Y64001D02*
Y76599D01*
X6150Y64001D02*
X12450D01*
X6150D02*
Y76599D01*
X12450D01*
X10351D02*
X12450Y74501D01*
X48524Y56299D02*
X60925D01*
X48524D02*
Y62598D01*
X60925D01*
Y56299D02*
Y62598D01*
X60119Y41339D02*
X79606Y60826D01*
X99094Y41339D01*
X79606Y21851D02*
X99094Y41339D01*
X60119D02*
X79606Y21851D01*
X62346Y39112D02*
Y43566D01*
X42323Y71850D02*
Y85630D01*
X16732Y71850D02*
X42323D01*
X16732D02*
Y85630D01*
X42323D01*
X33268D02*
X42323Y76575D01*
X132283Y64567D02*
Y85433D01*
X92126Y64567D02*
X132283D01*
X92126D02*
Y85433D01*
X132283D01*
X129724D02*
X132283Y82874D01*
X66732Y71063D02*
Y86417D01*
X47441Y71063D02*
X66732D01*
X47441D02*
Y86417D01*
X66732D01*
X61732D02*
X66732Y81417D01*
X7480Y24803D02*
X20079D01*
Y18504D02*
Y24803D01*
X7480Y18504D02*
X20079D01*
X7480D02*
Y24803D01*
X120866Y33827D02*
X122965Y35925D01*
X120866Y29626D02*
Y35925D01*
Y29626D02*
X133465D01*
Y35925D01*
X120866D02*
X133465D01*
X42390Y52067D02*
X44488Y49968D01*
X38189Y52067D02*
X44488D01*
X38189Y39469D02*
Y52067D01*
Y39469D02*
X44488D01*
Y52067D01*
X133465Y40295D02*
X151378D01*
X133465D02*
Y53051D01*
X151378D01*
Y40295D02*
Y53051D01*
X101575Y40551D02*
X107874D01*
X101575D02*
Y53150D01*
X107874D01*
Y40551D02*
Y53150D01*
X74508Y87402D02*
Y93701D01*
Y87402D02*
X86910D01*
Y93701D01*
X74508D02*
X86910D01*
X90158Y65748D02*
Y72047D01*
X77559D02*
X90158D01*
X77559Y65748D02*
Y72047D01*
Y65748D02*
X90158D01*
X133366Y29626D02*
Y35925D01*
X120965Y29626D02*
X133366D01*
X120965D02*
Y35925D01*
X133366D01*
X139944Y22343D02*
Y28642D01*
Y22343D02*
X152542D01*
Y28642D01*
X139944D02*
X152542D01*
X37795Y39469D02*
X44094D01*
X37795D02*
Y51870D01*
X44094D01*
Y39469D02*
Y51870D01*
X7480Y87402D02*
Y93701D01*
X20079D01*
Y87402D02*
Y93701D01*
X7480Y87402D02*
X20079D01*
X114961Y44882D02*
Y57480D01*
Y44882D02*
X121260D01*
Y57480D01*
X114961D02*
X121260D01*
X114961Y55382D02*
X117059Y57480D01*
X126772Y44882D02*
Y57480D01*
Y44882D02*
X133071D01*
Y57480D01*
X126772D02*
X133071D01*
X126772Y55382D02*
X128870Y57480D01*
X33750Y39370D02*
Y51968D01*
X27451Y39370D02*
X33750D01*
X27451D02*
Y51968D01*
X33750D01*
X31652D02*
X33750Y49870D01*
X116240Y63779D02*
X128642D01*
Y70079D01*
X116240D02*
X128642D01*
X116240Y63779D02*
Y70079D01*
Y73622D02*
X128642D01*
Y79921D01*
X116240D02*
X128642D01*
X116240Y73622D02*
Y79921D01*
X54331Y18898D02*
X66732D01*
Y25197D01*
X54331D02*
X66732D01*
X54331Y18898D02*
Y25197D01*
X27845Y39272D02*
Y51673D01*
Y39272D02*
X34144D01*
Y51673D01*
X27845D02*
X34144D01*
X6066Y65985D02*
Y78387D01*
Y65985D02*
X12365D01*
Y78387D01*
X6066D02*
X12365D01*
X84744Y33169D02*
X97146D01*
Y39469D01*
X84744D02*
X97146D01*
X84744Y33169D02*
Y39469D01*
X84252Y42323D02*
X96653D01*
Y48622D01*
X84252D02*
X96653D01*
X84252Y42323D02*
Y48622D01*
X29232Y34646D02*
X41634D01*
X29232Y28346D02*
Y34646D01*
Y28346D02*
X41634D01*
Y34646D01*
X101575Y66535D02*
Y79134D01*
Y66535D02*
X107874D01*
Y79134D01*
X101575D02*
X107874D01*
X109055Y88583D02*
X121653D01*
Y94882D01*
X109055D02*
X121653D01*
X109055Y88583D02*
Y94882D01*
X138386Y36614D02*
X150984D01*
X138386Y30315D02*
Y36614D01*
Y30315D02*
X150984D01*
Y36614D01*
X34646Y56693D02*
Y69291D01*
X28346D02*
X34646D01*
X28346Y56693D02*
Y69291D01*
Y56693D02*
X34646D01*
X54331Y33071D02*
Y45669D01*
X48031D02*
X54331D01*
X48031Y33071D02*
Y45669D01*
Y33071D02*
X54331Y33071D01*
X58071Y30906D02*
Y43504D01*
Y30906D02*
X64370D01*
Y43504D01*
X58071D02*
X64370D01*
D16*
X1496Y315D02*
Y12284D01*
Y315D02*
X153465D01*
Y12284D01*
X1496D02*
X153465D01*
X1496Y100315D02*
Y112284D01*
Y100315D02*
X153465D01*
Y112284D01*
X1496D02*
X153465D01*
D34*
X9300Y86444D02*
D03*
D35*
Y95700D02*
D03*
D36*
X140729Y34647D02*
D03*
X151910D02*
D03*
X8189Y21654D02*
D03*
X19370D02*
D03*
X78268Y68898D02*
D03*
X89449D02*
D03*
X151833Y25492D02*
D03*
X140652D02*
D03*
D37*
X9300Y74828D02*
D03*
Y65772D02*
D03*
X41339Y41240D02*
D03*
Y50295D02*
D03*
X30601Y50197D02*
D03*
Y41142D02*
D03*
D38*
X149606Y60618D02*
D03*
Y86995D02*
D03*
D39*
Y69869D02*
D03*
Y77743D02*
D03*
D40*
X138977Y73806D02*
D03*
Y76366D02*
D03*
Y71247D02*
D03*
Y78925D02*
D03*
Y68688D02*
D03*
D41*
X60630Y59449D02*
D03*
X48819D02*
D03*
X86614Y90551D02*
D03*
X74803D02*
D03*
D42*
X59980Y37302D02*
D03*
X62207Y35075D02*
D03*
X64434Y32848D02*
D03*
X66661Y30621D02*
D03*
X68888Y28394D02*
D03*
X71115Y26166D02*
D03*
X73343Y23939D02*
D03*
X75570Y21712D02*
D03*
X99233Y45375D02*
D03*
X97006Y47602D02*
D03*
X94779Y49829D02*
D03*
X92551Y52056D02*
D03*
X90324Y54284D02*
D03*
X88097Y56511D02*
D03*
X85870Y58738D02*
D03*
X83643Y60965D02*
D03*
D43*
Y21712D02*
D03*
X85870Y23939D02*
D03*
X88097Y26166D02*
D03*
X90324Y28394D02*
D03*
X92551Y30621D02*
D03*
X94779Y32848D02*
D03*
X97006Y35075D02*
D03*
X99233Y37302D02*
D03*
X75570Y60965D02*
D03*
X73343Y58738D02*
D03*
X71115Y56511D02*
D03*
X68888Y54284D02*
D03*
X66661Y52056D02*
D03*
X64434Y49829D02*
D03*
X62207Y47602D02*
D03*
X59980Y45375D02*
D03*
D44*
X38583Y91142D02*
D03*
X29528D02*
D03*
X20472D02*
D03*
D45*
X29528Y66339D02*
D03*
D46*
X128839Y88976D02*
D03*
X126279D02*
D03*
X123721D02*
D03*
X121161D02*
D03*
X118602D02*
D03*
X116043D02*
D03*
X113484D02*
D03*
X110925D02*
D03*
X108366D02*
D03*
X105807D02*
D03*
X103248D02*
D03*
X100689D02*
D03*
X98130D02*
D03*
X95571D02*
D03*
Y61024D02*
D03*
X98130D02*
D03*
X100689D02*
D03*
X103248D02*
D03*
X105807D02*
D03*
X108366D02*
D03*
X110925D02*
D03*
X113484D02*
D03*
X116043D02*
D03*
X118602D02*
D03*
X121161D02*
D03*
X123721D02*
D03*
X126279D02*
D03*
X128839D02*
D03*
D47*
X64587Y89417D02*
D03*
X59587D02*
D03*
X54587D02*
D03*
X49587D02*
D03*
Y68063D02*
D03*
X54587D02*
D03*
X59587D02*
D03*
X64587D02*
D03*
D48*
X82284Y82284D02*
D03*
X77559D02*
D03*
X72835D02*
D03*
D49*
X131693Y32776D02*
D03*
X122638D02*
D03*
D50*
X151476Y46673D02*
D03*
X133366D02*
D03*
D51*
X7480Y6299D02*
D03*
Y106299D02*
D03*
D52*
X17480Y6299D02*
D03*
X27480D02*
D03*
X37480D02*
D03*
X47480D02*
D03*
X57480D02*
D03*
X67480D02*
D03*
X77480D02*
D03*
X87480D02*
D03*
X97480D02*
D03*
X107480D02*
D03*
X117480D02*
D03*
X127480D02*
D03*
X137480D02*
D03*
X147480D02*
D03*
X17480Y106299D02*
D03*
X27480D02*
D03*
X37480D02*
D03*
X47480D02*
D03*
X57480D02*
D03*
X67480D02*
D03*
X77480D02*
D03*
X87480D02*
D03*
X97480D02*
D03*
X107480D02*
D03*
X117480D02*
D03*
X127480D02*
D03*
X137480D02*
D03*
X147480D02*
D03*
D53*
X138977Y83649D02*
D03*
Y63964D02*
D03*
D54*
X149606Y60027D02*
D03*
Y87586D02*
D03*
X19526Y53307D02*
D03*
X9526Y43307D02*
D03*
Y33307D02*
D03*
X19526D02*
D03*
Y43307D02*
D03*
X35433Y23622D02*
D03*
D55*
X9526Y53307D02*
D03*
D56*
X45433Y23622D02*
D03*
D57*
X7480Y6299D02*
Y9696D01*
X10382Y12598D02*
X19291D01*
X7480Y9696D02*
X10382Y12598D01*
X27165Y16929D02*
Y17126D01*
X17480Y7244D02*
X27165Y16929D01*
X19291Y12598D02*
X26280Y19587D01*
X28727D01*
X34141Y14173D01*
X49606D01*
X36220Y16535D02*
X47934D01*
X50787Y19389D01*
Y46673D01*
X17480Y6299D02*
Y7244D01*
X86799Y87980D02*
X87992Y89173D01*
X86799Y79712D02*
Y87980D01*
X81217Y74131D02*
X86799Y79712D01*
X73737Y74131D02*
X81217D01*
X84252Y63861D02*
X85396Y62718D01*
X86139Y76296D02*
X88107D01*
X84252Y74410D02*
X86139Y76296D01*
X84252Y63861D02*
Y74410D01*
X107714Y94488D02*
X119525Y106299D01*
X87123Y74131D02*
X89485D01*
X86221Y73228D02*
X87123Y74131D01*
X86221Y64567D02*
Y73228D01*
X88522Y61390D02*
Y62265D01*
X86221Y64567D02*
X88522Y62265D01*
X58008Y7087D02*
Y35331D01*
X57480Y6558D02*
X58008Y7087D01*
X57480Y6299D02*
Y6558D01*
X55512Y13780D02*
Y40907D01*
X48031Y6299D02*
X55512Y13780D01*
X47480Y6299D02*
X48031D01*
X58008Y35331D02*
X58898Y36220D01*
X60174Y33042D02*
X62207Y35075D01*
X60174Y20107D02*
Y33042D01*
Y20107D02*
X67480Y12800D01*
Y6299D02*
Y12800D01*
X83643Y21712D02*
X87008Y18347D01*
Y15748D02*
Y18347D01*
X77559Y6299D02*
X87008Y15748D01*
X77480Y6299D02*
X77559D01*
X85870Y23939D02*
X90945Y18865D01*
Y9764D02*
Y18865D01*
X87480Y6299D02*
X90945Y9764D01*
X88097Y26166D02*
X97480Y16783D01*
Y6299D02*
Y16783D01*
X98972Y22458D02*
X107480Y13950D01*
Y6299D02*
Y13950D01*
X96499Y26673D02*
X103012D01*
X117480Y12205D01*
Y6299D02*
Y12205D01*
X123128Y18209D02*
X127480Y13856D01*
Y6299D02*
Y13856D01*
X130807Y21457D02*
X137480Y14784D01*
Y6299D02*
Y14784D01*
X133366Y24213D02*
X147480Y10098D01*
Y6299D02*
Y10098D01*
X103740Y96653D02*
X107087Y100000D01*
X94095Y98819D02*
X97480Y102205D01*
Y106299D01*
X81890Y98663D02*
X87480Y104254D01*
Y106299D01*
X72443Y95571D02*
X77559Y100687D01*
X77480Y100766D02*
X77559Y100687D01*
X77480Y100766D02*
Y106299D01*
X68950Y89864D02*
Y98819D01*
X67480Y100289D02*
X68950Y98819D01*
X67480Y100289D02*
Y106299D01*
X94329Y45245D02*
X94488Y45085D01*
X54331Y89161D02*
X54366Y89126D01*
X93307Y93131D02*
X94664Y94488D01*
X89485Y74131D02*
X93307Y77953D01*
Y84821D02*
X93338Y84790D01*
X87976Y60843D02*
X88522Y61390D01*
X93307Y84821D02*
Y93131D01*
Y77953D02*
Y78434D01*
X93338Y78465D01*
X94664Y94488D02*
X107714D01*
X93338Y78465D02*
Y84790D01*
X93119Y98819D02*
X94095D01*
X89800Y95500D02*
X93119Y98819D01*
X92206Y95106D02*
X92220D01*
X91200Y94100D02*
X92206Y95106D01*
X91200Y83921D02*
Y94100D01*
X91173Y83894D02*
X91200Y83921D01*
X68500Y74300D02*
Y89224D01*
X68405Y89319D02*
X68500Y89224D01*
X68405Y89319D02*
X68950Y89864D01*
X70571Y76279D02*
Y86857D01*
X99895Y32185D02*
X107973D01*
X76772Y48228D02*
Y53543D01*
Y48228D02*
X77953Y47047D01*
X84920Y34220D02*
X90551Y39851D01*
X78860Y34220D02*
X84920D01*
X76367Y36713D02*
X78860Y34220D01*
X69802Y36713D02*
X76367D01*
X75886Y26483D02*
Y30807D01*
X72441Y34252D02*
X75886Y30807D01*
X63500Y27459D02*
X66661Y30621D01*
X63500Y25890D02*
Y27459D01*
Y25890D02*
X65768Y23622D01*
X109744Y34547D02*
X120079Y24213D01*
X143602Y56910D02*
Y67421D01*
X133366Y46673D02*
X143602Y56910D01*
X134646Y59842D02*
Y61024D01*
X118110Y43307D02*
X134646Y59842D01*
X106693Y43307D02*
X118110D01*
X72025Y68875D02*
X79055D01*
X92220Y95106D02*
X93767Y96653D01*
X103740D01*
X91173Y79362D02*
Y83894D01*
X88107Y76296D02*
X91173Y79362D01*
X67726Y36211D02*
X69301D01*
X63779Y40157D02*
X67726Y36211D01*
X55512Y40907D02*
X59980Y45375D01*
X63032Y42323D02*
X65463D01*
X59980Y45375D02*
X63032Y42323D01*
X78926Y44841D02*
X79921D01*
X81455Y43307D01*
X82677D01*
X77953Y47047D02*
X79990D01*
X80031Y47006D01*
X78885Y44882D02*
X78926Y44841D01*
X80072Y47047D02*
X83977D01*
X80031Y47006D02*
X80072Y47047D01*
X72354Y44882D02*
X78885D01*
X70385Y46850D02*
X72354Y44882D01*
X67413Y46850D02*
X70385D01*
X71457Y42717D02*
X77362D01*
X69488Y44685D02*
X71457Y42717D01*
X65124Y44685D02*
X69488D01*
X77362Y42717D02*
X80709Y39370D01*
X83465D01*
X83977Y47047D02*
X85925Y45099D01*
X84874Y49213D02*
X91173Y42913D01*
X79175Y49213D02*
X84874D01*
X85925Y38681D02*
Y45099D01*
X83629Y36385D02*
X85925Y38681D01*
X79756Y36385D02*
X83629D01*
X75590Y40551D02*
X79756Y36385D01*
X67235Y40551D02*
X75590D01*
X65463Y42323D02*
X67235Y40551D01*
X62207Y47602D02*
X65124Y44685D01*
X64434Y49829D02*
X67413Y46850D01*
X91173Y42913D02*
X96771D01*
X45433Y29291D02*
X48379Y32237D01*
X106931Y50394D02*
X108366Y51829D01*
X99606Y50394D02*
X106931D01*
X97006Y47793D02*
X99606Y50394D01*
X97006Y47602D02*
Y47793D01*
X106693Y43307D02*
X117323Y32677D01*
X104625Y45375D02*
X106693Y43307D01*
X92126Y45245D02*
X94329D01*
X94488Y45085D02*
X97006Y47602D01*
X90551Y39851D02*
Y40551D01*
X96771Y42913D02*
X99233Y45375D01*
X104625D01*
X69301Y36211D02*
X69802Y36713D01*
X68571Y23622D02*
X71115Y26166D01*
X65768Y23622D02*
X68571D01*
X69301Y33260D02*
Y36211D01*
X66661Y30621D02*
X69301Y33260D01*
X3937Y38896D02*
Y47638D01*
Y38896D02*
X9526Y33307D01*
Y22990D02*
Y33307D01*
X111417Y28740D02*
X118701Y21457D01*
X107973Y32185D02*
X111417Y28740D01*
X49606Y14173D02*
X53347Y17913D01*
Y45472D01*
X50787Y46673D02*
X57421Y53307D01*
X56949Y56696D02*
Y63605D01*
X48425Y48172D02*
X56949Y56696D01*
X48425Y36385D02*
Y48172D01*
X58268Y50394D02*
X59416D01*
X53347Y45472D02*
X58268Y50394D01*
X48379Y36339D02*
X48425Y36385D01*
X48379Y32237D02*
Y36339D01*
X46213Y45245D02*
Y46291D01*
Y45245D02*
X46260Y45198D01*
Y37282D02*
Y45198D01*
X46213Y37236D02*
X46260Y37282D01*
X46213Y36319D02*
Y37236D01*
X46260Y49069D02*
X54587Y57396D01*
X46260Y46337D02*
Y49069D01*
X46213Y46291D02*
X46260Y46337D01*
X57421Y53307D02*
X60957D01*
X64434Y49829D01*
X54587Y57396D02*
Y68063D01*
X76713Y60965D02*
X77953Y62205D01*
X75570Y60965D02*
X76713D01*
X68701Y58925D02*
X71115Y56511D01*
X68701Y58925D02*
Y62303D01*
X70571Y64173D01*
X66734Y63585D02*
X72025Y68875D01*
X65553Y63585D02*
X66734D01*
X66535Y56637D02*
Y60965D01*
Y56637D02*
X68888Y54284D01*
X64173Y54545D02*
X64475Y54243D01*
X64173Y54545D02*
Y62205D01*
X65553Y63585D01*
X71115Y87402D02*
Y94562D01*
X70571Y86857D02*
X71115Y87402D01*
X95771Y74410D02*
X127165D01*
X90236Y68875D02*
X95771Y74410D01*
X86614Y90551D02*
X87992Y89173D01*
X83643Y60965D02*
X85396Y62718D01*
X79823Y77263D02*
Y87816D01*
X81890Y89883D01*
X71115Y94562D02*
X72125Y95571D01*
X64587Y89417D02*
Y92008D01*
X62600Y93994D02*
X64587Y92008D01*
X46929Y93799D02*
X47224Y94095D01*
X56379Y93994D02*
X62600D01*
X56279Y94095D02*
X56379Y93994D01*
X47224Y94095D02*
X56279D01*
X81890Y89883D02*
Y98663D01*
X72125Y95571D02*
X72443D01*
X67669Y68063D02*
X73737Y74131D01*
X111376Y48819D02*
X118110D01*
X108366Y51829D02*
X111376Y48819D01*
X108366Y51829D02*
Y61024D01*
X75570Y21712D02*
X79921Y26064D01*
Y28346D01*
X59416Y50394D02*
X62207Y47602D01*
X64587Y68063D02*
X67669D01*
X56949Y63605D02*
X57911Y64567D01*
X58071D02*
X59587Y66083D01*
X57911Y64567D02*
X58071D01*
X127165Y74410D02*
X129134Y76378D01*
Y81102D01*
X126279Y83957D02*
X129134Y81102D01*
X126279Y83957D02*
Y88976D01*
X133907Y69291D02*
X135863Y71247D01*
X100220Y69291D02*
X133907D01*
X135863Y71247D02*
X138977D01*
X135082Y73806D02*
X138977D01*
X132929Y71653D02*
X135082Y73806D01*
X99241Y71653D02*
X132929D01*
X95571Y67983D02*
X99241Y71653D01*
X95571Y61024D02*
Y67983D01*
Y58858D02*
Y61024D01*
X98130Y67202D02*
X100220Y69291D01*
X98130Y61024D02*
Y67202D01*
X116043Y61024D02*
Y65256D01*
X117323Y66535D02*
X121653D01*
X116043Y65256D02*
X117323Y66535D01*
X109449Y66929D02*
X112598D01*
X109449D02*
X109449Y66929D01*
X108366Y65847D02*
X109449Y66929D01*
X100689Y61024D02*
Y66142D01*
X112598Y76772D02*
X125197D01*
X108366Y61024D02*
Y65847D01*
X125197Y76772D02*
X125984Y77559D01*
Y79528D01*
X118602Y82972D02*
X122047Y79528D01*
X121161Y84350D02*
X125984Y79528D01*
X121161Y84350D02*
Y88976D01*
X98130Y58858D02*
Y61024D01*
X118602Y82972D02*
Y88976D01*
X46732Y85763D02*
Y93602D01*
X40059Y79090D02*
X46732Y85763D01*
X49587Y91516D02*
X50636Y90466D01*
X54366Y86135D02*
Y89126D01*
X49587Y89417D02*
Y91516D01*
X42421Y76083D02*
X49587Y83248D01*
Y89417D01*
X40059Y62402D02*
Y79090D01*
X42421Y50600D02*
Y76083D01*
X42116Y50295D02*
X42421Y50600D01*
X30601Y50197D02*
Y52943D01*
X40059Y62402D01*
X46732Y93602D02*
X46929Y93799D01*
X59587Y66083D02*
Y68063D01*
X45433Y23622D02*
Y29291D01*
X35433Y23622D02*
Y25591D01*
X46161Y36319D01*
X46213D01*
X8189Y21654D02*
X9526Y22990D01*
X73343Y23939D02*
X75886Y26483D01*
X54331Y89161D02*
X54587Y89417D01*
X113484Y61024D02*
Y64567D01*
X142335Y68688D02*
X143602Y67421D01*
X138977Y68688D02*
X142335D01*
X120079Y24213D02*
X133366D01*
X101987Y34547D02*
X109744D01*
X105610Y29528D02*
X116929Y18209D01*
X98099Y29528D02*
X105610D01*
X94779Y32848D02*
X98099Y29528D01*
X92551Y30621D02*
X96499Y26673D01*
X99233Y37302D02*
X101987Y34547D01*
X118701Y21457D02*
X130807D01*
X97006Y35075D02*
X99895Y32185D01*
X116929Y18209D02*
X123128D01*
X96260Y22458D02*
X98972D01*
X90324Y28394D02*
X96260Y22458D01*
D58*
X7480Y97420D02*
X9300Y95600D01*
X7480Y97420D02*
Y106299D01*
X9200Y86400D02*
X18900D01*
X20472Y87972D01*
Y91142D01*
X150591Y35967D02*
Y47244D01*
Y35967D02*
X151910Y34647D01*
X151833Y25492D02*
X151910Y25569D01*
Y34647D01*
D59*
X14961Y14867D02*
D03*
X32283Y1969D02*
D03*
X120866Y63779D02*
D03*
X57480Y38189D02*
D03*
X19291Y23228D02*
D03*
X42520Y10236D02*
D03*
X12205Y15192D02*
D03*
X27165Y17126D02*
D03*
X36220Y16535D02*
D03*
X19600Y91200D02*
D03*
X50900Y90300D02*
D03*
X30400Y40600D02*
D03*
X41200Y40900D02*
D03*
X9300Y76828D02*
D03*
X32800Y76000D02*
D03*
X89800Y95500D02*
D03*
X68500Y74300D02*
D03*
X70571Y76279D02*
D03*
X111900Y94600D02*
D03*
X35000Y31123D02*
D03*
X131200Y93994D02*
D03*
X124000Y42000D02*
D03*
X138400Y39600D02*
D03*
X70600Y17900D02*
D03*
X74500Y66400D02*
D03*
X64600Y84505D02*
D03*
X81673Y64603D02*
D03*
X73900Y29400D02*
D03*
X77500Y32600D02*
D03*
X66752Y27165D02*
D03*
X75000Y47100D02*
D03*
X85444Y30709D02*
D03*
X106299Y79768D02*
D03*
X35526Y60843D02*
D03*
X45965Y73343D02*
D03*
X143701Y72404D02*
D03*
X102732Y41142D02*
D03*
X109055Y45929D02*
D03*
X105118Y55965D02*
D03*
X88976Y48151D02*
D03*
X90551Y35269D02*
D03*
X77348Y80315D02*
D03*
X116500Y84000D02*
D03*
X124705Y53445D02*
D03*
X138583Y56910D02*
D03*
X144882Y54284D02*
D03*
X131102Y15678D02*
D03*
X106931Y18898D02*
D03*
X9115Y15884D02*
D03*
X45831Y32684D02*
D03*
X63779Y31872D02*
D03*
X62598Y23054D02*
D03*
X151591Y47602D02*
D03*
X82677Y43307D02*
D03*
X76772Y53543D02*
D03*
X79175Y49213D02*
D03*
X63779Y40157D02*
D03*
X83465Y39370D02*
D03*
X90551Y40551D02*
D03*
X92126Y45245D02*
D03*
X92518Y48425D02*
D03*
X72441Y34252D02*
D03*
X3937Y47638D02*
D03*
X29528Y31102D02*
D03*
X77559Y68898D02*
D03*
X111417Y28740D02*
D03*
X77953Y62205D02*
D03*
X66535Y60965D02*
D03*
X70571Y64173D02*
D03*
X73737Y84646D02*
D03*
X82676Y84251D02*
D03*
X79823Y77263D02*
D03*
X71929Y60027D02*
D03*
X134646Y61024D02*
D03*
X118110Y48819D02*
D03*
X102756Y26378D02*
D03*
X111024Y33307D02*
D03*
X100257Y32027D02*
D03*
X93996Y53445D02*
D03*
X89784Y58268D02*
D03*
X79921Y28346D02*
D03*
X60630Y61811D02*
D03*
X121653Y66535D02*
D03*
X112598Y66929D02*
D03*
X100689Y66142D02*
D03*
X112598Y76772D02*
D03*
X113484Y64567D02*
D03*
X122047Y79528D02*
D03*
X121161Y91732D02*
D03*
X117323Y32677D02*
D03*
X131693Y32776D02*
D03*
X128740Y86135D02*
D03*
X54366D02*
D03*
X47638Y56988D02*
D03*
X31299Y66831D02*
D03*
X46929Y93799D02*
D03*
M02*
