G04*
G04 #@! TF.GenerationSoftware,Altium Limited,Altium Designer,20.1.12 (249)*
G04*
G04 Layer_Physical_Order=1*
G04 Layer_Color=255*
%FSLAX25Y25*%
%MOIN*%
G70*
G04*
G04 #@! TF.SameCoordinates,79CD1AB7-34AE-4695-B2AC-D77BF95EA1B7*
G04*
G04*
G04 #@! TF.FilePolarity,Positive*
G04*
G01*
G75*
%ADD12C,0.01575*%
G04:AMPARAMS|DCode=33|XSize=59.06mil|YSize=19.68mil|CornerRadius=0mil|HoleSize=0mil|Usage=FLASHONLY|Rotation=45.000|XOffset=0mil|YOffset=0mil|HoleType=Round|Shape=Rectangle|*
%AMROTATEDRECTD33*
4,1,4,-0.01392,-0.02784,-0.02784,-0.01392,0.01392,0.02784,0.02784,0.01392,-0.01392,-0.02784,0.0*
%
%ADD33ROTATEDRECTD33*%

G04:AMPARAMS|DCode=34|XSize=59.06mil|YSize=19.68mil|CornerRadius=0mil|HoleSize=0mil|Usage=FLASHONLY|Rotation=135.000|XOffset=0mil|YOffset=0mil|HoleType=Round|Shape=Rectangle|*
%AMROTATEDRECTD34*
4,1,4,0.02784,-0.01392,0.01392,-0.02784,-0.02784,0.01392,-0.01392,0.02784,0.02784,-0.01392,0.0*
%
%ADD34ROTATEDRECTD34*%

%ADD35R,0.04134X0.07087*%
%ADD36R,0.04055X0.07362*%
%ADD37R,0.01575X0.07087*%
%ADD38R,0.06890X0.06693*%
%ADD39R,0.02559X0.06004*%
%ADD40R,0.10000X0.10512*%
%ADD41R,0.05000X0.03000*%
%ADD42R,0.03740X0.06890*%
%ADD43R,0.12598X0.06890*%
%ADD44R,0.10512X0.10000*%
%ADD45R,0.03000X0.05000*%
%ADD46R,0.07480X0.08268*%
%ADD47R,0.07480X0.05906*%
%ADD48R,0.05315X0.01575*%
%ADD49R,0.01575X0.07874*%
%ADD50R,0.06693X0.06890*%
%ADD51C,0.07087*%
G04:AMPARAMS|DCode=52|XSize=70.87mil|YSize=70.87mil|CornerRadius=8.86mil|HoleSize=0mil|Usage=FLASHONLY|Rotation=180.000|XOffset=0mil|YOffset=0mil|HoleType=Round|Shape=RoundedRectangle|*
%AMROUNDEDRECTD52*
21,1,0.07087,0.05315,0,0,180.0*
21,1,0.05315,0.07087,0,0,180.0*
1,1,0.01772,-0.02657,0.02657*
1,1,0.01772,0.02657,0.02657*
1,1,0.01772,0.02657,-0.02657*
1,1,0.01772,-0.02657,-0.02657*
%
%ADD52ROUNDEDRECTD52*%
G04:AMPARAMS|DCode=53|XSize=70.87mil|YSize=70.87mil|CornerRadius=8.86mil|HoleSize=0mil|Usage=FLASHONLY|Rotation=270.000|XOffset=0mil|YOffset=0mil|HoleType=Round|Shape=RoundedRectangle|*
%AMROUNDEDRECTD53*
21,1,0.07087,0.05315,0,0,270.0*
21,1,0.05315,0.07087,0,0,270.0*
1,1,0.01772,-0.02657,-0.02657*
1,1,0.01772,-0.02657,0.02657*
1,1,0.01772,0.02657,0.02657*
1,1,0.01772,0.02657,-0.02657*
%
%ADD53ROUNDEDRECTD53*%
%ADD54R,0.06791X0.06791*%
%ADD55C,0.06791*%
%ADD56C,0.05709*%
%ADD57C,0.01378*%
%ADD58C,0.03937*%
%ADD59C,0.01575*%
G36*
X157087Y394D02*
X394D01*
Y112205D01*
X157087D01*
Y394D01*
D02*
G37*
%LPC*%
G36*
X147480Y110332D02*
X146437Y110194D01*
X145464Y109792D01*
X144629Y109151D01*
X143988Y108316D01*
X143585Y107343D01*
X143448Y106299D01*
X143585Y105255D01*
X143988Y104283D01*
X144629Y103448D01*
X145464Y102807D01*
X146437Y102404D01*
X147480Y102267D01*
X148524Y102404D01*
X149497Y102807D01*
X150332Y103448D01*
X150973Y104283D01*
X151375Y105255D01*
X151513Y106299D01*
X151375Y107343D01*
X150973Y108316D01*
X150332Y109151D01*
X149497Y109792D01*
X148524Y110194D01*
X147480Y110332D01*
D02*
G37*
G36*
X137480D02*
X136437Y110194D01*
X135464Y109792D01*
X134629Y109151D01*
X133988Y108316D01*
X133585Y107343D01*
X133448Y106299D01*
X133585Y105255D01*
X133988Y104283D01*
X134629Y103448D01*
X135464Y102807D01*
X136437Y102404D01*
X137480Y102267D01*
X138524Y102404D01*
X139497Y102807D01*
X140332Y103448D01*
X140973Y104283D01*
X141375Y105255D01*
X141513Y106299D01*
X141375Y107343D01*
X140973Y108316D01*
X140332Y109151D01*
X139497Y109792D01*
X138524Y110194D01*
X137480Y110332D01*
D02*
G37*
G36*
X47480D02*
X46437Y110194D01*
X45464Y109792D01*
X44629Y109151D01*
X43988Y108316D01*
X43585Y107343D01*
X43448Y106299D01*
X43585Y105255D01*
X43988Y104283D01*
X44629Y103448D01*
X45464Y102807D01*
X46437Y102404D01*
X47480Y102267D01*
X48524Y102404D01*
X49497Y102807D01*
X50332Y103448D01*
X50973Y104283D01*
X51375Y105255D01*
X51513Y106299D01*
X51375Y107343D01*
X50973Y108316D01*
X50332Y109151D01*
X49497Y109792D01*
X48524Y110194D01*
X47480Y110332D01*
D02*
G37*
G36*
X37480D02*
X36437Y110194D01*
X35464Y109792D01*
X34629Y109151D01*
X33988Y108316D01*
X33585Y107343D01*
X33448Y106299D01*
X33585Y105255D01*
X33988Y104283D01*
X34629Y103448D01*
X35464Y102807D01*
X36437Y102404D01*
X37480Y102267D01*
X38524Y102404D01*
X39497Y102807D01*
X40332Y103448D01*
X40973Y104283D01*
X41375Y105255D01*
X41513Y106299D01*
X41375Y107343D01*
X40973Y108316D01*
X40332Y109151D01*
X39497Y109792D01*
X38524Y110194D01*
X37480Y110332D01*
D02*
G37*
G36*
X27480D02*
X26437Y110194D01*
X25464Y109792D01*
X24629Y109151D01*
X23988Y108316D01*
X23585Y107343D01*
X23448Y106299D01*
X23585Y105255D01*
X23988Y104283D01*
X24629Y103448D01*
X25464Y102807D01*
X26437Y102404D01*
X27480Y102267D01*
X28524Y102404D01*
X29497Y102807D01*
X30332Y103448D01*
X30973Y104283D01*
X31375Y105255D01*
X31513Y106299D01*
X31375Y107343D01*
X30973Y108316D01*
X30332Y109151D01*
X29497Y109792D01*
X28524Y110194D01*
X27480Y110332D01*
D02*
G37*
G36*
X117480D02*
X116437Y110194D01*
X115464Y109792D01*
X114629Y109151D01*
X113988Y108316D01*
X113585Y107343D01*
X113448Y106299D01*
X113585Y105255D01*
X113988Y104283D01*
X114629Y103448D01*
X114640Y103276D01*
X109137Y97773D01*
X97137D01*
X97061Y97955D01*
X97396Y98290D01*
X104614D01*
X105118Y98189D01*
X105660Y98297D01*
X106120Y98604D01*
X108482Y100967D01*
X108789Y101426D01*
X108897Y101969D01*
Y102559D01*
X109497Y102807D01*
X110332Y103448D01*
X110973Y104283D01*
X111375Y105255D01*
X111513Y106299D01*
X111375Y107343D01*
X110973Y108316D01*
X110332Y109151D01*
X109497Y109792D01*
X108524Y110194D01*
X107480Y110332D01*
X106437Y110194D01*
X105464Y109792D01*
X104629Y109151D01*
X103988Y108316D01*
X103585Y107343D01*
X103448Y106299D01*
X103585Y105255D01*
X103988Y104283D01*
X104629Y103448D01*
X105464Y102807D01*
X105869Y102639D01*
X105915Y102407D01*
X104431Y100923D01*
X96850D01*
X96346Y100823D01*
X95919Y100537D01*
X91164Y95782D01*
X90982Y95857D01*
Y97939D01*
X95737Y102694D01*
X96437Y102404D01*
X97480Y102267D01*
X98524Y102404D01*
X99497Y102807D01*
X100332Y103448D01*
X100973Y104283D01*
X101375Y105255D01*
X101513Y106299D01*
X101375Y107343D01*
X100973Y108316D01*
X100332Y109151D01*
X99497Y109792D01*
X98524Y110194D01*
X97480Y110332D01*
X96437Y110194D01*
X95464Y109792D01*
X94629Y109151D01*
X93988Y108316D01*
X93585Y107343D01*
X93448Y106299D01*
X93585Y105255D01*
X93875Y104556D01*
X88734Y99415D01*
X88449Y98988D01*
X88349Y98484D01*
Y95923D01*
X88246Y95769D01*
X88138Y95227D01*
X88213Y94849D01*
X88088Y94697D01*
X83945D01*
Y86405D01*
X85482D01*
Y79470D01*
X83855Y77843D01*
X83673Y77918D01*
Y84393D01*
X83719Y84625D01*
X83673Y84857D01*
Y86429D01*
X81174D01*
Y96085D01*
X87370Y102281D01*
X87480Y102267D01*
X88524Y102404D01*
X89497Y102807D01*
X90332Y103448D01*
X90973Y104283D01*
X91375Y105255D01*
X91513Y106299D01*
X91375Y107343D01*
X90973Y108316D01*
X90332Y109151D01*
X89497Y109792D01*
X88524Y110194D01*
X87480Y110332D01*
X86437Y110194D01*
X85464Y109792D01*
X84629Y109151D01*
X83988Y108316D01*
X83585Y107343D01*
X83448Y106299D01*
X83585Y105255D01*
X83988Y104283D01*
X84629Y103448D01*
X84640Y103276D01*
X78926Y97562D01*
X78641Y97135D01*
X78541Y96631D01*
Y77773D01*
X78440Y77269D01*
X78548Y76727D01*
X78579Y76680D01*
X78486Y76507D01*
X74796D01*
X74293Y76407D01*
X73865Y76121D01*
X72016Y74271D01*
X71827Y74328D01*
X71789Y74520D01*
Y77350D01*
X74224D01*
Y80473D01*
X74803D01*
X75345Y80581D01*
X75805Y80888D01*
X76112Y81348D01*
X76220Y81890D01*
X76112Y82432D01*
X75805Y82892D01*
X75345Y83199D01*
X74803Y83307D01*
X74224D01*
Y86429D01*
X71789D01*
Y93549D01*
X78411Y100171D01*
X78411Y100171D01*
X78697Y100599D01*
X78797Y101102D01*
Y102517D01*
X79497Y102807D01*
X80332Y103448D01*
X80973Y104283D01*
X81375Y105255D01*
X81513Y106299D01*
X81375Y107343D01*
X80973Y108316D01*
X80332Y109151D01*
X79497Y109792D01*
X78524Y110194D01*
X77480Y110332D01*
X76437Y110194D01*
X75464Y109792D01*
X74629Y109151D01*
X73988Y108316D01*
X73585Y107343D01*
X73448Y106299D01*
X73585Y105255D01*
X73988Y104283D01*
X74629Y103448D01*
X75464Y102807D01*
X76164Y102517D01*
Y101648D01*
X69541Y95025D01*
X69256Y94598D01*
X69156Y94095D01*
Y74520D01*
X69055Y74016D01*
X69163Y73474D01*
X69471Y73014D01*
X69930Y72707D01*
X70160Y72661D01*
X70217Y72473D01*
X67124Y69380D01*
X66469D01*
Y71667D01*
X62705D01*
Y64459D01*
X65095D01*
X65171Y64277D01*
X63481Y62587D01*
X63299Y62663D01*
Y63595D01*
X59239D01*
X59157Y63791D01*
X59825Y64459D01*
X61468D01*
Y71667D01*
X57705D01*
Y66063D01*
X57430Y65788D01*
X57407Y65783D01*
X56980Y65498D01*
X56650Y65169D01*
X56468Y65244D01*
Y71667D01*
X52705D01*
Y64459D01*
X53270D01*
Y57941D01*
X51670Y56341D01*
X51488Y56416D01*
Y63595D01*
X48153D01*
X47874Y63874D01*
Y64459D01*
X51468D01*
Y71667D01*
X47874D01*
Y73429D01*
X55589Y81144D01*
X55896Y81603D01*
X56004Y82146D01*
Y85813D01*
X56468D01*
Y92394D01*
X61470D01*
X62705Y91160D01*
Y85813D01*
X66164D01*
Y74783D01*
X66014Y74558D01*
X65906Y74016D01*
X66014Y73474D01*
X66321Y73014D01*
X66781Y72707D01*
X67323Y72599D01*
X67865Y72707D01*
X68325Y73014D01*
X68632Y73474D01*
X68660Y73614D01*
X68697Y73669D01*
X68797Y74173D01*
Y102517D01*
X69497Y102807D01*
X70332Y103448D01*
X70973Y104283D01*
X71375Y105255D01*
X71513Y106299D01*
X71375Y107343D01*
X70973Y108316D01*
X70332Y109151D01*
X69497Y109792D01*
X68524Y110194D01*
X67480Y110332D01*
X66437Y110194D01*
X65464Y109792D01*
X64629Y109151D01*
X63988Y108316D01*
X63585Y107343D01*
X63448Y106299D01*
X63585Y105255D01*
X63988Y104283D01*
X64629Y103448D01*
X65464Y102807D01*
X66164Y102517D01*
Y93022D01*
X64567D01*
X62947Y94642D01*
X62520Y94927D01*
X62016Y95027D01*
X47634D01*
X47559Y95209D01*
X52508Y100158D01*
X55191D01*
X55498Y100097D01*
X63423D01*
X63965Y100205D01*
X64425Y100512D01*
X64634Y100721D01*
X64941Y101180D01*
X65049Y101722D01*
X64941Y102265D01*
X64634Y102724D01*
X64174Y103032D01*
X63632Y103139D01*
X63090Y103032D01*
X62939Y102931D01*
X59964D01*
X59901Y103117D01*
X60332Y103448D01*
X60973Y104283D01*
X61375Y105255D01*
X61513Y106299D01*
X61375Y107343D01*
X60973Y108316D01*
X60332Y109151D01*
X59497Y109792D01*
X58524Y110194D01*
X57480Y110332D01*
X56437Y110194D01*
X55464Y109792D01*
X54629Y109151D01*
X53988Y108316D01*
X53585Y107343D01*
X53448Y106299D01*
X53585Y105255D01*
X53988Y104283D01*
X54629Y103448D01*
X54980Y103178D01*
X54917Y102992D01*
X51921D01*
X51379Y102884D01*
X50919Y102577D01*
X42552Y94210D01*
X42245Y93750D01*
X42137Y93208D01*
Y87054D01*
X34037Y78955D01*
X33730Y78495D01*
X33622Y77953D01*
Y70386D01*
X29365D01*
Y78060D01*
X31361Y80056D01*
X31361Y80056D01*
X31773Y80593D01*
X32032Y81219D01*
X32121Y81890D01*
X32121Y81890D01*
Y91142D01*
X32032Y91813D01*
X32000Y91891D01*
Y95189D01*
X27055D01*
Y91891D01*
X27023Y91813D01*
X26934Y91142D01*
Y82964D01*
X24938Y80967D01*
X24526Y80430D01*
X24267Y79805D01*
X24179Y79134D01*
X24179Y79134D01*
Y70386D01*
X22626D01*
Y62291D01*
X35369D01*
X35444Y62110D01*
X29670Y56335D01*
X29384Y55908D01*
X29284Y55404D01*
Y54146D01*
X26553D01*
Y46248D01*
X34648D01*
Y54146D01*
X31917D01*
Y54858D01*
X39514Y62455D01*
X39799Y62882D01*
X39899Y63386D01*
Y77068D01*
X47663Y84832D01*
X47949Y85259D01*
X48049Y85763D01*
Y85813D01*
X48270D01*
Y83793D01*
X41185Y76709D01*
X40900Y76282D01*
X40800Y75778D01*
Y54244D01*
X37291D01*
Y46347D01*
X44851D01*
X44897Y46291D01*
Y45245D01*
X44851Y45189D01*
X37291D01*
Y37291D01*
X44943D01*
Y36963D01*
X36107Y28126D01*
X35854Y27748D01*
X35433Y27804D01*
X34351Y27661D01*
X33342Y27243D01*
X32759Y26796D01*
X29960Y29594D01*
X30018Y29783D01*
X30070Y29793D01*
X30529Y30100D01*
X30837Y30560D01*
X30944Y31102D01*
Y33361D01*
X30837Y33903D01*
X30529Y34363D01*
X27881Y37011D01*
X27957Y37193D01*
X34648D01*
Y45090D01*
X26553D01*
Y38596D01*
X26371Y38521D01*
X25876Y39016D01*
Y45350D01*
X25768Y45893D01*
X25461Y46352D01*
X22571Y49242D01*
X22111Y49549D01*
X21834Y49604D01*
X21785Y49815D01*
X22483Y50350D01*
X23147Y51216D01*
X23565Y52225D01*
X23707Y53307D01*
X23565Y54389D01*
X23147Y55398D01*
X22483Y56264D01*
X21617Y56928D01*
X20608Y57346D01*
X19526Y57489D01*
X18444Y57346D01*
X17493Y56952D01*
X12872Y61573D01*
Y61824D01*
X13347D01*
Y64355D01*
X13610D01*
X14152Y64463D01*
X14612Y64771D01*
X17922Y68081D01*
X18229Y68540D01*
X18337Y69083D01*
X18229Y69625D01*
X17922Y70085D01*
X17462Y70392D01*
X16920Y70499D01*
X16378Y70392D01*
X15918Y70085D01*
X13529Y67695D01*
X13347Y67771D01*
Y69721D01*
X5253D01*
Y61824D01*
X10038D01*
Y60986D01*
X10146Y60444D01*
X10453Y59984D01*
X12975Y57463D01*
X12849Y57310D01*
X12764Y57366D01*
X12183Y57482D01*
X6868D01*
X6288Y57366D01*
X5796Y57038D01*
X5466Y56545D01*
X5351Y55965D01*
Y50650D01*
X5466Y50069D01*
X5796Y49577D01*
X6288Y49248D01*
X6868Y49132D01*
X12183D01*
X12764Y49248D01*
X13256Y49577D01*
X13585Y50069D01*
X13701Y50650D01*
Y55965D01*
X13585Y56545D01*
X13528Y56630D01*
X13681Y56756D01*
X15651Y54786D01*
X15487Y54389D01*
X15344Y53307D01*
X15487Y52225D01*
X15905Y51216D01*
X16569Y50350D01*
X17267Y49815D01*
X17218Y49604D01*
X16940Y49549D01*
X16481Y49242D01*
X13591Y46352D01*
X13284Y45893D01*
X13228Y45615D01*
X13018Y45566D01*
X12483Y46264D01*
X11617Y46928D01*
X10608Y47346D01*
X9526Y47488D01*
X8444Y47346D01*
X7435Y46928D01*
X6569Y46264D01*
X5905Y45398D01*
X5487Y44389D01*
X5451Y44113D01*
X5254Y44126D01*
Y47133D01*
X5354Y47638D01*
X5246Y48180D01*
X4939Y48640D01*
X4479Y48947D01*
X3937Y49055D01*
X3395Y48947D01*
X2935Y48640D01*
X2628Y48180D01*
X2520Y47638D01*
X2620Y47133D01*
Y38896D01*
X2721Y38392D01*
X3006Y37965D01*
X5807Y35163D01*
X5487Y34389D01*
X5344Y33307D01*
X5487Y32225D01*
X5905Y31216D01*
X6569Y30350D01*
X7435Y29686D01*
X8209Y29365D01*
Y25937D01*
X5559D01*
Y17370D01*
X10819D01*
Y22872D01*
X10842Y22990D01*
Y29365D01*
X11617Y29686D01*
X12483Y30350D01*
X12979Y30997D01*
X13176Y30930D01*
Y28824D01*
X11597Y27245D01*
X11289Y26785D01*
X11181Y26243D01*
Y14961D01*
X11289Y14418D01*
X11494Y14112D01*
X11389Y13915D01*
X10382D01*
X10382Y13915D01*
X9878Y13815D01*
X9451Y13529D01*
X6549Y10627D01*
X6329Y10297D01*
X3482D01*
Y2301D01*
X11478D01*
Y10297D01*
X10200D01*
X10125Y10479D01*
X10928Y11282D01*
X19291D01*
X19414Y11306D01*
X19507Y11133D01*
X18555Y10181D01*
X18524Y10194D01*
X17480Y10332D01*
X16437Y10194D01*
X15464Y9792D01*
X14629Y9151D01*
X13988Y8315D01*
X13585Y7343D01*
X13448Y6299D01*
X13585Y5255D01*
X13988Y4283D01*
X14629Y3448D01*
X15464Y2807D01*
X16437Y2404D01*
X17480Y2267D01*
X18524Y2404D01*
X19497Y2807D01*
X20332Y3448D01*
X20973Y4283D01*
X21375Y5255D01*
X21513Y6299D01*
X21375Y7343D01*
X20973Y8315D01*
X20730Y8632D01*
X26952Y14854D01*
X27380Y15140D01*
X27687Y15599D01*
X27795Y16142D01*
X27687Y16684D01*
X27482Y16991D01*
X27588Y17187D01*
X28770D01*
X33034Y12923D01*
X33461Y12638D01*
X33965Y12538D01*
X49287D01*
X49791Y12638D01*
X50218Y12923D01*
X54013Y16718D01*
X54195Y16643D01*
Y14325D01*
X49590Y9720D01*
X49497Y9792D01*
X48524Y10194D01*
X47480Y10332D01*
X46437Y10194D01*
X45464Y9792D01*
X44629Y9151D01*
X43988Y8315D01*
X43585Y7343D01*
X43448Y6299D01*
X43585Y5255D01*
X43988Y4283D01*
X44629Y3448D01*
X45464Y2807D01*
X46437Y2404D01*
X47480Y2267D01*
X48524Y2404D01*
X49497Y2807D01*
X50332Y3448D01*
X50973Y4283D01*
X51375Y5255D01*
X51513Y6299D01*
X51375Y7343D01*
X51247Y7653D01*
X56361Y12766D01*
X56557Y12685D01*
Y10210D01*
X56437Y10194D01*
X55464Y9792D01*
X54629Y9151D01*
X53988Y8315D01*
X53585Y7343D01*
X53448Y6299D01*
X53585Y5255D01*
X53988Y4283D01*
X54629Y3448D01*
X55464Y2807D01*
X56437Y2404D01*
X57480Y2267D01*
X58524Y2404D01*
X59497Y2807D01*
X60332Y3448D01*
X60973Y4283D01*
X61375Y5255D01*
X61513Y6299D01*
X61375Y7343D01*
X60973Y8315D01*
X60332Y9151D01*
X59497Y9792D01*
X59191Y9918D01*
Y18949D01*
X59387Y19031D01*
X66164Y12255D01*
Y10081D01*
X65464Y9792D01*
X64629Y9151D01*
X63988Y8315D01*
X63585Y7343D01*
X63448Y6299D01*
X63585Y5255D01*
X63988Y4283D01*
X64629Y3448D01*
X65464Y2807D01*
X66437Y2404D01*
X67480Y2267D01*
X68524Y2404D01*
X69497Y2807D01*
X70332Y3448D01*
X70973Y4283D01*
X71375Y5255D01*
X71513Y6299D01*
X71375Y7343D01*
X70973Y8315D01*
X70332Y9151D01*
X69497Y9792D01*
X68797Y10081D01*
Y12800D01*
X68697Y13304D01*
X68411Y13731D01*
X61553Y20590D01*
Y32141D01*
X63138Y33726D01*
X63210Y33834D01*
X65843Y36467D01*
X65734Y36575D01*
X65816Y36772D01*
X66736D01*
X67884Y35624D01*
Y34125D01*
X65659Y31901D01*
X65582Y31785D01*
X63025Y29229D01*
X63326Y28929D01*
X63183Y28715D01*
X63075Y28173D01*
Y23697D01*
X63183Y23155D01*
X63490Y22695D01*
X64897Y21288D01*
X65357Y20981D01*
X65899Y20873D01*
X67204D01*
X67746Y20981D01*
X68206Y21288D01*
X69586Y22668D01*
X71934Y20320D01*
X71934Y20320D01*
X74178Y18076D01*
X79205Y23104D01*
X79014Y23295D01*
X80852Y25133D01*
X81138Y25560D01*
X81238Y26064D01*
Y27842D01*
X81338Y28346D01*
X81230Y28889D01*
X80923Y29348D01*
X80463Y29656D01*
X79921Y29763D01*
X79379Y29656D01*
X78919Y29348D01*
X78612Y28889D01*
X78504Y28346D01*
X78605Y27842D01*
Y26609D01*
X77153Y25157D01*
X76978Y25331D01*
X76978Y25331D01*
X76787Y25522D01*
X77703Y26437D01*
X77988Y26864D01*
X78088Y27368D01*
Y29921D01*
X77988Y30425D01*
X77703Y30852D01*
X77703Y30852D01*
X73729Y34826D01*
X73547Y35099D01*
X73652Y35296D01*
X75584D01*
X78417Y32463D01*
X78877Y32155D01*
X79419Y32048D01*
X83353D01*
X83896Y32155D01*
X84355Y32463D01*
X89978Y38086D01*
X90285Y38545D01*
X90379Y39014D01*
X90755Y38939D01*
X94113D01*
X94617Y39039D01*
X95044Y39325D01*
X97650Y41930D01*
X97841Y41739D01*
X100473Y44372D01*
X100581Y44444D01*
X101671Y45534D01*
X102604D01*
X105762Y42376D01*
X106189Y42091D01*
X106693Y41991D01*
X116006D01*
Y40268D01*
X115906Y39764D01*
X116014Y39222D01*
X116321Y38762D01*
X116781Y38455D01*
X117323Y38347D01*
X117865Y38455D01*
X118325Y38762D01*
X118632Y39222D01*
X118740Y39764D01*
X118640Y40268D01*
Y42762D01*
X122986Y47109D01*
X134147D01*
X134214Y47064D01*
X134756Y46956D01*
X135298Y47064D01*
X135758Y47371D01*
X136065Y47831D01*
X136173Y48373D01*
X136065Y48915D01*
X135758Y49375D01*
X135298Y49682D01*
X134756Y49790D01*
X134513Y49742D01*
X122441D01*
X121937Y49641D01*
X121510Y49356D01*
X119260Y47106D01*
X119071Y47163D01*
X119026Y47393D01*
X118719Y47852D01*
X115175Y51396D01*
X114716Y51703D01*
X114173Y51811D01*
X106929D01*
Y53616D01*
X109368Y56055D01*
X109675Y56515D01*
X109748Y56878D01*
X109756D01*
Y56920D01*
X109783Y57057D01*
Y61024D01*
Y64472D01*
X111238Y65927D01*
X111545Y66387D01*
X111653Y66929D01*
X111545Y67471D01*
X111340Y67778D01*
X111445Y67975D01*
X114139D01*
X114197Y67786D01*
X114069Y67701D01*
X114030Y67643D01*
X113931Y67577D01*
X112652Y66297D01*
X112366Y65870D01*
X112266Y65366D01*
Y65169D01*
X112094D01*
Y56878D01*
X119992D01*
Y65169D01*
X120168Y65219D01*
X121149D01*
X121653Y65118D01*
X122196Y65226D01*
X122655Y65534D01*
X122963Y65993D01*
X123071Y66535D01*
X122963Y67078D01*
X122655Y67537D01*
X122296Y67778D01*
X122355Y67975D01*
X127014D01*
X129637Y65351D01*
X129562Y65169D01*
X124890D01*
Y56878D01*
X130228D01*
Y58279D01*
X130425Y58338D01*
X130575Y58114D01*
X133419Y55270D01*
X133847Y54984D01*
X134350Y54884D01*
X135717D01*
Y52154D01*
X138840D01*
X138977Y52126D01*
X142155D01*
Y40681D01*
X142262Y40138D01*
X142569Y39678D01*
X146165Y36084D01*
X146624Y35776D01*
X147166Y35669D01*
X149281D01*
Y30364D01*
X149317D01*
Y29776D01*
X149203D01*
Y21209D01*
X154463D01*
Y25263D01*
X154504Y25569D01*
Y30364D01*
X154540D01*
Y38931D01*
X149281D01*
Y38502D01*
X147753D01*
X144989Y41267D01*
Y53543D01*
Y76055D01*
X146826Y77893D01*
X151357D01*
X151899Y78000D01*
X152359Y78308D01*
X154352Y80301D01*
X154659Y80761D01*
X154767Y81303D01*
Y83906D01*
X155453D01*
Y90110D01*
X151248D01*
Y83906D01*
X151933D01*
Y81890D01*
X150770Y80727D01*
X146239D01*
X145696Y80619D01*
X145237Y80312D01*
X142569Y77644D01*
X142262Y77185D01*
X142155Y76642D01*
Y62610D01*
X135717D01*
Y60891D01*
X135535Y60815D01*
X135175Y61175D01*
Y67717D01*
X135075Y68221D01*
X134789Y68648D01*
X130852Y72584D01*
X130425Y72870D01*
X129921Y72970D01*
X127558D01*
X127538Y73167D01*
X127669Y73193D01*
X128096Y73478D01*
X130065Y75447D01*
X130350Y75874D01*
X130450Y76378D01*
Y81102D01*
X130350Y81606D01*
X130065Y82033D01*
X127596Y84502D01*
Y84831D01*
X128191D01*
X128198Y84826D01*
X128740Y84718D01*
X129282Y84826D01*
X129289Y84831D01*
X130228D01*
Y93122D01*
X121298D01*
X121161Y93149D01*
X121025Y93122D01*
X114654D01*
Y84831D01*
X117286D01*
Y82972D01*
X117386Y82469D01*
X117671Y82041D01*
X120759Y78953D01*
X121045Y78526D01*
X121255Y78386D01*
X121195Y78189D01*
X110728D01*
X110186Y78081D01*
X109726Y77774D01*
X109419Y77314D01*
X109311Y76772D01*
X109419Y76229D01*
X109624Y75923D01*
X109519Y75726D01*
X95844D01*
X95340Y75626D01*
X94913Y75340D01*
X92779Y73206D01*
X91198D01*
X91140Y73395D01*
X91159Y73408D01*
X91445Y73835D01*
X94269Y76659D01*
X94555Y77086D01*
X94655Y77590D01*
Y84790D01*
X94655Y84790D01*
X94688Y84831D01*
X112315D01*
Y93122D01*
X95635D01*
X95560Y93304D01*
X97396Y95140D01*
X109683D01*
X110187Y95240D01*
X110614Y95526D01*
X117369Y102281D01*
X117480Y102267D01*
X118524Y102404D01*
X119497Y102807D01*
X120332Y103448D01*
X120973Y104283D01*
X121375Y105255D01*
X121513Y106299D01*
X121375Y107343D01*
X120973Y108316D01*
X120332Y109151D01*
X119497Y109792D01*
X118524Y110194D01*
X117480Y110332D01*
D02*
G37*
G36*
X11478Y110297D02*
X3482D01*
Y102301D01*
X4887D01*
Y97420D01*
X4887Y97420D01*
X4976Y96749D01*
X5235Y96123D01*
X5647Y95586D01*
X6198Y95035D01*
Y93598D01*
X7686D01*
X8004Y93354D01*
X8629Y93095D01*
X9300Y93007D01*
X9971Y93095D01*
X10597Y93354D01*
X10914Y93598D01*
X12402D01*
Y97802D01*
X10765D01*
X10073Y98494D01*
Y102301D01*
X11478D01*
Y110297D01*
D02*
G37*
G36*
X22945Y95189D02*
X18000D01*
Y91891D01*
X17968Y91813D01*
X17879Y91142D01*
Y89047D01*
X17826Y88993D01*
X14902D01*
Y92302D01*
X3698D01*
Y80586D01*
X14902D01*
Y83807D01*
X18900D01*
X18900Y83807D01*
X19571Y83895D01*
X20197Y84154D01*
X20734Y84566D01*
X22306Y86139D01*
X22306Y86139D01*
X22718Y86676D01*
X22892Y87094D01*
X22945D01*
Y87224D01*
X22977Y87301D01*
X23065Y87972D01*
X23065Y87972D01*
Y91142D01*
X22977Y91813D01*
X22945Y91891D01*
Y95189D01*
D02*
G37*
G36*
X121653Y102992D02*
X121111Y102884D01*
X120652Y102577D01*
X120344Y102117D01*
X120237Y101575D01*
X120344Y101032D01*
X120652Y100573D01*
X120713Y100512D01*
X121172Y100205D01*
X121715Y100097D01*
X129002D01*
X138236Y90862D01*
Y81406D01*
X149953D01*
Y92610D01*
X140496D01*
X130590Y102516D01*
X130131Y102823D01*
X129589Y102931D01*
X121960D01*
X121653Y102992D01*
D02*
G37*
G36*
X13347Y78776D02*
X5253D01*
Y70879D01*
X13347D01*
Y78776D01*
D02*
G37*
G36*
X135642Y36823D02*
X127744D01*
Y28728D01*
X135642D01*
Y36823D01*
D02*
G37*
G36*
X97841Y40938D02*
X95597Y38694D01*
X93370Y36467D01*
X91143Y34240D01*
X88932Y32029D01*
X86689Y29785D01*
X84461Y27558D01*
X82234Y25331D01*
X80007Y23104D01*
X82640Y20471D01*
X82712Y20364D01*
X84116Y18959D01*
Y14719D01*
X79279Y9882D01*
X78524Y10194D01*
X77480Y10332D01*
X76437Y10194D01*
X75464Y9792D01*
X74629Y9151D01*
X73988Y8315D01*
X73585Y7343D01*
X73448Y6299D01*
X73585Y5255D01*
X73988Y4283D01*
X74629Y3448D01*
X75464Y2807D01*
X76437Y2404D01*
X77480Y2267D01*
X78524Y2404D01*
X79497Y2807D01*
X80332Y3448D01*
X80973Y4283D01*
X81375Y5255D01*
X81513Y6299D01*
X81375Y7343D01*
X81109Y7987D01*
X86364Y13242D01*
X86650Y13669D01*
X86750Y14173D01*
X86750Y14173D01*
Y19504D01*
X86750Y19504D01*
X86702Y19744D01*
X87354Y20396D01*
X87508D01*
X87660Y20244D01*
Y10457D01*
X87512Y10328D01*
X87480Y10332D01*
X86437Y10194D01*
X85464Y9792D01*
X84629Y9151D01*
X83988Y8315D01*
X83585Y7343D01*
X83448Y6299D01*
X83585Y5255D01*
X83988Y4283D01*
X84629Y3448D01*
X85464Y2807D01*
X86437Y2404D01*
X87480Y2267D01*
X88524Y2404D01*
X89497Y2807D01*
X90332Y3448D01*
X90973Y4283D01*
X91375Y5255D01*
X91513Y6299D01*
X91375Y7343D01*
X90973Y8315D01*
X90332Y9151D01*
X90279Y9191D01*
X90293Y9260D01*
Y20833D01*
X90193Y21337D01*
X89907Y21764D01*
X89315Y22356D01*
X89680Y22722D01*
X96164Y16238D01*
Y10081D01*
X95464Y9792D01*
X94629Y9151D01*
X93988Y8315D01*
X93585Y7343D01*
X93448Y6299D01*
X93585Y5255D01*
X93988Y4283D01*
X94629Y3448D01*
X95464Y2807D01*
X96437Y2404D01*
X97480Y2267D01*
X98524Y2404D01*
X99497Y2807D01*
X100332Y3448D01*
X100973Y4283D01*
X101375Y5255D01*
X101513Y6299D01*
X101375Y7343D01*
X100973Y8315D01*
X100332Y9151D01*
X99497Y9792D01*
X98797Y10081D01*
Y16783D01*
X98697Y17287D01*
X98411Y17714D01*
X91542Y24584D01*
X91907Y24949D01*
X106447Y10409D01*
Y10196D01*
X106437Y10194D01*
X105464Y9792D01*
X104629Y9151D01*
X103988Y8315D01*
X103585Y7343D01*
X103448Y6299D01*
X103585Y5255D01*
X103988Y4283D01*
X104629Y3448D01*
X105464Y2807D01*
X106437Y2404D01*
X107480Y2267D01*
X108524Y2404D01*
X109497Y2807D01*
X110332Y3448D01*
X110973Y4283D01*
X111375Y5255D01*
X111513Y6299D01*
X111375Y7343D01*
X110973Y8315D01*
X110332Y9151D01*
X109497Y9792D01*
X109080Y9964D01*
Y10955D01*
X108980Y11458D01*
X108694Y11886D01*
X93867Y26712D01*
X93867Y26909D01*
X94134Y27176D01*
X97925Y23385D01*
X98211Y22957D01*
X98670Y22650D01*
X99213Y22542D01*
X99717Y22643D01*
X103448D01*
X115372Y10719D01*
Y9721D01*
X114629Y9151D01*
X113988Y8315D01*
X113585Y7343D01*
X113448Y6299D01*
X113585Y5255D01*
X113988Y4283D01*
X114629Y3448D01*
X115464Y2807D01*
X116437Y2404D01*
X117480Y2267D01*
X118524Y2404D01*
X119497Y2807D01*
X120332Y3448D01*
X120973Y4283D01*
X121375Y5255D01*
X121513Y6299D01*
X121375Y7343D01*
X120973Y8315D01*
X120332Y9151D01*
X119497Y9792D01*
X118524Y10194D01*
X118005Y10263D01*
Y11264D01*
X117905Y11768D01*
X117620Y12195D01*
X104924Y24890D01*
X104497Y25176D01*
X103993Y25276D01*
X99758D01*
X95996Y29038D01*
X96361Y29403D01*
X97168Y28597D01*
X97595Y28311D01*
X98099Y28211D01*
X103785D01*
X123898Y8098D01*
X123585Y7343D01*
X123448Y6299D01*
X123585Y5255D01*
X123988Y4283D01*
X124629Y3448D01*
X125464Y2807D01*
X126437Y2404D01*
X127480Y2267D01*
X128524Y2404D01*
X129497Y2807D01*
X130332Y3448D01*
X130973Y4283D01*
X131375Y5255D01*
X131513Y6299D01*
X131375Y7343D01*
X130973Y8315D01*
X130332Y9151D01*
X129497Y9792D01*
X128524Y10194D01*
X127480Y10332D01*
X126437Y10194D01*
X125793Y9928D01*
X105262Y30459D01*
X104943Y30672D01*
X105003Y30868D01*
X105459D01*
X109342Y26985D01*
X109628Y26557D01*
X110056Y26271D01*
X118754Y17573D01*
X119181Y17288D01*
X119685Y17187D01*
X128588D01*
X135608Y10168D01*
Y9851D01*
X135464Y9792D01*
X134629Y9151D01*
X133988Y8315D01*
X133585Y7343D01*
X133448Y6299D01*
X133585Y5255D01*
X133988Y4283D01*
X134629Y3448D01*
X135464Y2807D01*
X136437Y2404D01*
X137480Y2267D01*
X138524Y2404D01*
X139497Y2807D01*
X140332Y3448D01*
X140973Y4283D01*
X141375Y5255D01*
X141513Y6299D01*
X141375Y7343D01*
X140973Y8315D01*
X140332Y9151D01*
X139497Y9792D01*
X138524Y10194D01*
X138241Y10232D01*
Y10713D01*
X138141Y11217D01*
X137856Y11644D01*
X130065Y19435D01*
X129638Y19720D01*
X129134Y19821D01*
X120230D01*
X111918Y28133D01*
X111632Y28561D01*
X111204Y28847D01*
X107017Y33034D01*
X107099Y33231D01*
X109199D01*
X109815Y32614D01*
X110022Y32305D01*
X110331Y32099D01*
X119148Y23282D01*
X119575Y22996D01*
X120079Y22896D01*
X132821D01*
X145665Y10052D01*
X145626Y9859D01*
X145464Y9792D01*
X144629Y9151D01*
X143988Y8315D01*
X143585Y7343D01*
X143448Y6299D01*
X143585Y5255D01*
X143988Y4283D01*
X144629Y3448D01*
X145464Y2807D01*
X146437Y2404D01*
X147480Y2267D01*
X148524Y2404D01*
X149497Y2807D01*
X150332Y3448D01*
X150973Y4283D01*
X151375Y5255D01*
X151513Y6299D01*
X151375Y7343D01*
X150973Y8315D01*
X150332Y9151D01*
X149497Y9792D01*
X148797Y10081D01*
Y10098D01*
X148697Y10602D01*
X148411Y11029D01*
X134297Y25144D01*
X133870Y25429D01*
X133366Y25529D01*
X120624D01*
X112340Y33813D01*
X112333Y33849D01*
X112026Y34309D01*
X111566Y34616D01*
X111530Y34623D01*
X110675Y35478D01*
X110248Y35764D01*
X109744Y35864D01*
X103045D01*
X102868Y35910D01*
X102868D01*
X102868Y35910D01*
X97841Y40938D01*
D02*
G37*
G36*
X37480Y10332D02*
X36437Y10194D01*
X35464Y9792D01*
X34629Y9151D01*
X33988Y8315D01*
X33585Y7343D01*
X33448Y6299D01*
X33585Y5255D01*
X33988Y4283D01*
X34629Y3448D01*
X35464Y2807D01*
X36437Y2404D01*
X37480Y2267D01*
X38524Y2404D01*
X39497Y2807D01*
X40332Y3448D01*
X40973Y4283D01*
X41375Y5255D01*
X41513Y6299D01*
X41375Y7343D01*
X40973Y8315D01*
X40332Y9151D01*
X39497Y9792D01*
X38524Y10194D01*
X37480Y10332D01*
D02*
G37*
G36*
X27480D02*
X26437Y10194D01*
X25464Y9792D01*
X24629Y9151D01*
X23988Y8315D01*
X23585Y7343D01*
X23448Y6299D01*
X23585Y5255D01*
X23988Y4283D01*
X24629Y3448D01*
X25464Y2807D01*
X26437Y2404D01*
X27480Y2267D01*
X28524Y2404D01*
X29497Y2807D01*
X30332Y3448D01*
X30973Y4283D01*
X31375Y5255D01*
X31513Y6299D01*
X31375Y7343D01*
X30973Y8315D01*
X30332Y9151D01*
X29497Y9792D01*
X28524Y10194D01*
X27480Y10332D01*
D02*
G37*
%LPD*%
G36*
X89883Y93720D02*
Y80328D01*
X88265Y78709D01*
X88091Y78802D01*
X88115Y78925D01*
X88115Y78925D01*
Y86405D01*
X89284D01*
Y89046D01*
X89309Y89173D01*
X89284Y89300D01*
Y93709D01*
X89436Y93834D01*
X89555Y93810D01*
X89731Y93845D01*
X89883Y93720D01*
D02*
G37*
G36*
X83280Y73724D02*
X81353Y71797D01*
X81094Y71411D01*
X80898Y71451D01*
Y73181D01*
X75638D01*
Y68639D01*
X70365D01*
X70290Y68821D01*
X75342Y73874D01*
X83064D01*
X83187Y73898D01*
X83280Y73724D01*
D02*
G37*
G36*
X92022Y78485D02*
Y78136D01*
X89583Y75697D01*
X89156Y75411D01*
X88848Y74952D01*
X88740Y74410D01*
X88848Y73867D01*
X89156Y73408D01*
X89212Y73369D01*
X89155Y73181D01*
X86819D01*
Y64614D01*
X92079D01*
Y70573D01*
X93324D01*
X93828Y70673D01*
X94255Y70959D01*
X96389Y73093D01*
X98849D01*
X98868Y72896D01*
X98737Y72870D01*
X98310Y72584D01*
X94640Y68914D01*
X94354Y68487D01*
X94254Y67983D01*
Y65169D01*
X94181D01*
Y56878D01*
X102079D01*
Y65169D01*
X102006D01*
Y66188D01*
X102106Y66693D01*
X101998Y67235D01*
X101691Y67695D01*
X101554Y67786D01*
X101611Y67975D01*
X108999D01*
X109081Y67778D01*
X107364Y66061D01*
X107057Y65601D01*
X106971Y65169D01*
X104417D01*
Y56878D01*
X105926D01*
X106001Y56696D01*
X104510Y55205D01*
X104203Y54745D01*
X104095Y54203D01*
Y51811D01*
X100075D01*
X99533Y51703D01*
X99073Y51396D01*
X98657Y50979D01*
X96170Y53465D01*
X93943Y55692D01*
X88916Y50665D01*
X91110Y48470D01*
X91101Y48425D01*
X91209Y47883D01*
X91516Y47423D01*
X91976Y47116D01*
X92518Y47008D01*
X92563Y47017D01*
X93591Y45989D01*
X90939Y43337D01*
X90632Y42877D01*
X90567Y42551D01*
X90379Y42494D01*
X89013Y43859D01*
Y44980D01*
X88913Y45484D01*
X88628Y45911D01*
X84210Y50329D01*
X83783Y50614D01*
X83280Y50714D01*
X81213D01*
X80709Y50815D01*
X80166Y50707D01*
X79707Y50400D01*
X79400Y49940D01*
X79329Y49583D01*
X79115Y49519D01*
X78088Y50545D01*
Y53039D01*
X78189Y53543D01*
X78081Y54086D01*
X77774Y54545D01*
X77314Y54852D01*
X76772Y54960D01*
X76229Y54852D01*
X75770Y54545D01*
X75463Y54086D01*
X75355Y53543D01*
X75455Y53039D01*
Y50000D01*
X75555Y49496D01*
X75841Y49069D01*
X78529Y46380D01*
X78454Y46198D01*
X75349D01*
X72978Y48569D01*
X72551Y48854D01*
X72047Y48954D01*
X68844D01*
X68769Y49136D01*
X70280Y50648D01*
X72507Y52875D01*
X74734Y55102D01*
X76978Y57346D01*
X79205Y59573D01*
X78263Y60515D01*
X78527Y60779D01*
X78955Y61065D01*
X79262Y61525D01*
X79370Y62067D01*
X79262Y62609D01*
X78955Y63069D01*
X78495Y63376D01*
X77953Y63484D01*
X77411Y63376D01*
X76951Y63069D01*
X76665Y62641D01*
X76401Y62377D01*
X74178Y64601D01*
X71934Y62357D01*
X70199Y60622D01*
X70017Y60698D01*
Y61758D01*
X71145Y62885D01*
X71573Y63171D01*
X71880Y63631D01*
X71988Y64173D01*
X71880Y64715D01*
X71573Y65175D01*
X71113Y65482D01*
X70571Y65590D01*
X70451Y65566D01*
X70358Y65740D01*
X70624Y66006D01*
X75638D01*
Y64614D01*
X80898D01*
X81051Y64510D01*
X81067Y64432D01*
X81353Y64004D01*
X82895Y62461D01*
X80007Y59573D01*
X82234Y57346D01*
X84461Y55119D01*
X86705Y52875D01*
X91733Y57903D01*
X91159Y58477D01*
X91093Y58810D01*
X90785Y59270D01*
X90326Y59577D01*
X89992Y59643D01*
X88416Y61220D01*
X88403Y61238D01*
X88385Y61251D01*
X85035Y64601D01*
X84758Y64323D01*
X83600Y65481D01*
Y70321D01*
X91840Y78560D01*
X92022Y78485D01*
D02*
G37*
G36*
X52705Y85813D02*
X53013D01*
X53057Y85593D01*
X53170Y85425D01*
Y82733D01*
X45455Y75018D01*
X45148Y74558D01*
X45040Y74016D01*
Y63287D01*
X45148Y62745D01*
X45455Y62286D01*
X46150Y61591D01*
Y55303D01*
X50375D01*
X50450Y55121D01*
X45568Y50239D01*
X45386Y50314D01*
Y54244D01*
X43433D01*
Y75232D01*
X50518Y82317D01*
X50518Y82317D01*
X50803Y82744D01*
X50903Y83248D01*
X50903Y83248D01*
Y85813D01*
X51468D01*
Y89008D01*
X51902Y89298D01*
X52209Y89758D01*
X52317Y90300D01*
X52209Y90842D01*
X51902Y91302D01*
X51468Y91592D01*
Y92394D01*
X52705D01*
Y85813D01*
D02*
G37*
G36*
X116715Y45848D02*
X117174Y45541D01*
X117404Y45496D01*
X117461Y45307D01*
X116778Y44624D01*
X107238D01*
X104081Y47781D01*
X103654Y48067D01*
X103150Y48167D01*
X101469D01*
X100856Y48780D01*
X100937Y48977D01*
X113586D01*
X116715Y45848D01*
D02*
G37*
G36*
X61372Y41739D02*
X62106Y42474D01*
X64951Y39630D01*
X64960Y39614D01*
X64948Y39392D01*
X64648Y39191D01*
X64341Y38731D01*
X64260Y38328D01*
X64047Y38263D01*
X63616Y38694D01*
X61372Y40938D01*
X57010Y36576D01*
X56828Y36652D01*
Y40362D01*
X59789Y43322D01*
X61372Y41739D01*
D02*
G37*
G36*
X5487Y42225D02*
X5905Y41216D01*
X6569Y40350D01*
X7435Y39686D01*
X8444Y39268D01*
X9526Y39126D01*
X10608Y39268D01*
X11617Y39686D01*
X12483Y40350D01*
X12979Y40997D01*
X13176Y40930D01*
Y39016D01*
X11243Y37083D01*
X10608Y37346D01*
X9526Y37488D01*
X8444Y37346D01*
X7670Y37025D01*
X5254Y39441D01*
Y42489D01*
X5451Y42502D01*
X5487Y42225D01*
D02*
G37*
G36*
X71335Y35099D02*
X71132Y34794D01*
X71024Y34252D01*
X71132Y33710D01*
X71439Y33250D01*
X71867Y32964D01*
X75455Y29376D01*
Y27914D01*
X74925Y27384D01*
X72507Y29802D01*
X67480Y24775D01*
X67582Y24672D01*
X66617Y23707D01*
X66486D01*
X65909Y24284D01*
Y27586D01*
X67663Y29340D01*
X67741Y29456D01*
X70297Y32013D01*
X70038Y32272D01*
X70303Y32537D01*
X70610Y32996D01*
X70718Y33538D01*
Y35296D01*
X71230D01*
X71335Y35099D01*
D02*
G37*
G36*
X23042Y34764D02*
Y33092D01*
X23150Y32550D01*
X23457Y32090D01*
X31330Y24217D01*
X31252Y23622D01*
X31394Y22540D01*
X31452Y22400D01*
X31289Y22290D01*
X25852Y27726D01*
X25393Y28034D01*
X24850Y28141D01*
X16767D01*
X16225Y28034D01*
X16144Y27980D01*
X15980Y28089D01*
X16010Y28237D01*
Y34764D01*
X18069Y36823D01*
X20982D01*
X23042Y34764D01*
D02*
G37*
G36*
X29608Y19963D02*
X29511Y19782D01*
X29316Y19821D01*
X25197D01*
X24693Y19720D01*
X24266Y19435D01*
X18746Y13915D01*
X13808D01*
X13703Y14112D01*
X13908Y14418D01*
X14015Y14961D01*
Y15163D01*
X14189Y15256D01*
X14233Y15226D01*
X14776Y15118D01*
X15318Y15226D01*
X15777Y15533D01*
X16085Y15993D01*
X16193Y16535D01*
Y24146D01*
X17354Y25307D01*
X24263D01*
X29608Y19963D01*
D02*
G37*
G36*
X47062Y35100D02*
Y32783D01*
X44502Y30222D01*
X44217Y29795D01*
X44116Y29291D01*
Y27797D01*
X42776D01*
X42195Y27681D01*
X41703Y27352D01*
X41374Y26860D01*
X41258Y26280D01*
Y21451D01*
X39334Y19527D01*
X36895D01*
X36856Y19724D01*
X37524Y20001D01*
X38390Y20665D01*
X39054Y21531D01*
X39472Y22540D01*
X39614Y23622D01*
X39472Y24704D01*
X39054Y25713D01*
X38390Y26579D01*
X38383Y26679D01*
X46880Y35176D01*
X47062Y35100D01*
D02*
G37*
D12*
X121715Y101514D02*
X129589D01*
X121653Y101575D02*
X121715Y101514D01*
X129589D02*
X144095Y87008D01*
X87368Y60236D02*
X87402D01*
X85870Y58738D02*
X87368Y60236D01*
X33929Y23622D02*
X35433D01*
X24459Y33092D02*
X33929Y23622D01*
X12598Y14961D02*
Y26243D01*
X14593Y28237D01*
Y35350D01*
X24459Y38429D02*
Y45350D01*
X29528Y31102D02*
Y33361D01*
X24459Y38429D02*
X29528Y33361D01*
X14593Y35350D02*
X17482Y38240D01*
X21569D02*
X24459Y35350D01*
Y33092D02*
Y35350D01*
X39921Y18110D02*
X45433Y23622D01*
X33465Y18110D02*
X39921D01*
X24850Y26724D02*
X33465Y18110D01*
X16767Y26724D02*
X24850D01*
X14593Y45350D02*
X17482Y48240D01*
X14593Y38429D02*
Y45350D01*
X9526Y33362D02*
X14593Y38429D01*
X21569Y48240D02*
X24459Y45350D01*
X72835Y81890D02*
X74803D01*
X79419Y33465D02*
X83353D01*
X76171Y36713D02*
X79419Y33465D01*
X68799Y36713D02*
X76171D01*
X69843Y24894D02*
X71115Y26166D01*
X65650Y38189D02*
X67323D01*
X69301Y36211D01*
X69602Y24653D02*
X69843Y24894D01*
X97006Y47399D02*
Y47602D01*
X66661Y30899D02*
X69301Y33538D01*
X65899Y22290D02*
X67204D01*
X83353Y33465D02*
X88976Y39088D01*
X64492Y28173D02*
X66661Y30342D01*
X64492Y23697D02*
X65899Y22290D01*
X64492Y23697D02*
Y28173D01*
X66661Y30342D02*
Y30899D01*
X91941Y42335D02*
X97006Y47399D01*
X88976Y39088D02*
Y39088D01*
X69301Y33538D02*
Y36211D01*
X67204Y22290D02*
X69567Y24653D01*
X69602D01*
X97006Y47602D02*
X97284D01*
X100075Y50394D02*
X105512D01*
X97284Y47602D02*
X100075Y50394D01*
X108366Y57057D02*
Y61024D01*
Y65059D01*
X46457Y74016D02*
X54587Y82146D01*
X46457Y63287D02*
X48819Y60925D01*
X46457Y63287D02*
Y74016D01*
X35039Y68996D02*
Y77953D01*
X43554Y86467D02*
Y93208D01*
X35039Y77953D02*
X43554Y86467D01*
X51921Y101575D02*
X55437D01*
X55498Y101514D01*
X63423D02*
X63632Y101722D01*
X55498Y101514D02*
X63423D01*
X43554Y93208D02*
X51921Y101575D01*
X14776Y16535D02*
Y24733D01*
X16767Y26724D01*
X9526Y33307D02*
Y33362D01*
X17482Y48240D02*
X21569D01*
X17482Y38240D02*
X21569D01*
X29528Y66339D02*
Y66437D01*
X105118Y99606D02*
X107480Y101969D01*
Y106299D01*
X48819Y59449D02*
Y60925D01*
X54587Y82146D02*
Y86135D01*
X29528Y66339D02*
X32382D01*
X35039Y68996D01*
X147166Y37086D02*
X150670D01*
X143571Y40681D02*
X147166Y37086D01*
X143571Y40681D02*
Y53543D01*
Y76642D01*
X150670Y37086D02*
X151910Y35845D01*
Y34647D02*
Y35845D01*
X146239Y79310D02*
X151357D01*
X153350Y81303D02*
Y87008D01*
X151357Y79310D02*
X153350Y81303D01*
X143571Y76642D02*
X146239Y79310D01*
X138977Y53543D02*
X143307D01*
X108366Y65059D02*
X110236Y66929D01*
X110728Y76772D02*
X124668D01*
X125591Y77694D01*
Y79921D01*
X121161Y84350D02*
X125591Y79921D01*
X114173Y50394D02*
X117717Y46850D01*
X105512Y50394D02*
X114173D01*
X13610Y65772D02*
X16920Y69083D01*
X9300Y65772D02*
X13610D01*
X121161Y84350D02*
Y88976D01*
X105512Y54203D02*
X108366Y57057D01*
X105512Y50394D02*
Y54203D01*
X18504Y20787D02*
X19370Y21654D01*
X11455Y60986D02*
X19134Y53307D01*
X19526D01*
X9571Y65600D02*
X11455Y63716D01*
Y60986D02*
Y63716D01*
D33*
X59980Y37302D02*
D03*
X62207Y35075D02*
D03*
X64434Y32848D02*
D03*
X66661Y30621D02*
D03*
X68888Y28394D02*
D03*
X71115Y26166D02*
D03*
X73343Y23939D02*
D03*
X75570Y21712D02*
D03*
X99233Y45375D02*
D03*
X97006Y47602D02*
D03*
X94779Y49829D02*
D03*
X92551Y52056D02*
D03*
X90324Y54284D02*
D03*
X88097Y56511D02*
D03*
X85870Y58738D02*
D03*
X83643Y60965D02*
D03*
D34*
Y21712D02*
D03*
X85870Y23939D02*
D03*
X88097Y26166D02*
D03*
X90324Y28394D02*
D03*
X92551Y30621D02*
D03*
X94779Y32848D02*
D03*
X97006Y35075D02*
D03*
X99233Y37302D02*
D03*
X75570Y60965D02*
D03*
X73343Y58738D02*
D03*
X71115Y56511D02*
D03*
X68888Y54284D02*
D03*
X66661Y52056D02*
D03*
X64434Y49829D02*
D03*
X62207Y47602D02*
D03*
X59980Y45375D02*
D03*
D35*
X60630Y59449D02*
D03*
X48819D02*
D03*
X86614Y90551D02*
D03*
X74803D02*
D03*
D36*
X78268Y68898D02*
D03*
X89449D02*
D03*
X140729Y34647D02*
D03*
X151910D02*
D03*
X8189Y21654D02*
D03*
X19370D02*
D03*
X151833Y25492D02*
D03*
X140652D02*
D03*
D37*
X128839Y88976D02*
D03*
X126279D02*
D03*
X123721D02*
D03*
X121161D02*
D03*
X118602D02*
D03*
X116043D02*
D03*
X113484D02*
D03*
X110925D02*
D03*
X108366D02*
D03*
X105807D02*
D03*
X103248D02*
D03*
X100689D02*
D03*
X98130D02*
D03*
X95571D02*
D03*
Y61024D02*
D03*
X98130D02*
D03*
X100689D02*
D03*
X103248D02*
D03*
X105807D02*
D03*
X108366D02*
D03*
X110925D02*
D03*
X113484D02*
D03*
X116043D02*
D03*
X118602D02*
D03*
X121161D02*
D03*
X123721D02*
D03*
X126279D02*
D03*
X128839D02*
D03*
D38*
X41339Y41240D02*
D03*
Y50295D02*
D03*
X9300Y74828D02*
D03*
Y65772D02*
D03*
X30601Y50197D02*
D03*
Y41142D02*
D03*
D39*
X64587Y89417D02*
D03*
X59587D02*
D03*
X54587D02*
D03*
X49587D02*
D03*
Y68063D02*
D03*
X54587D02*
D03*
X59587D02*
D03*
X64587D02*
D03*
D40*
X9300Y86444D02*
D03*
D41*
Y95700D02*
D03*
D42*
X38583Y91142D02*
D03*
X29528D02*
D03*
X20472D02*
D03*
D43*
X29528Y66339D02*
D03*
D44*
X144095Y87008D02*
D03*
D45*
X153350D02*
D03*
D46*
X149606Y45473D02*
D03*
Y71850D02*
D03*
D47*
Y54724D02*
D03*
Y62598D02*
D03*
D48*
X138977Y58661D02*
D03*
Y61221D02*
D03*
Y56102D02*
D03*
Y63780D02*
D03*
Y53543D02*
D03*
D49*
X82284Y81890D02*
D03*
X77559D02*
D03*
X72835D02*
D03*
D50*
X131693Y32776D02*
D03*
X122638D02*
D03*
D51*
X35433Y23622D02*
D03*
X19526Y53307D02*
D03*
X9526Y43307D02*
D03*
Y33307D02*
D03*
X19526D02*
D03*
Y43307D02*
D03*
X149606Y44882D02*
D03*
Y72441D02*
D03*
D52*
X45433Y23622D02*
D03*
D53*
X9526Y53307D02*
D03*
D54*
X7480Y6299D02*
D03*
Y106299D02*
D03*
D55*
X17480Y6299D02*
D03*
X27480D02*
D03*
X37480D02*
D03*
X47480D02*
D03*
X57480D02*
D03*
X67480D02*
D03*
X77480D02*
D03*
X87480D02*
D03*
X97480D02*
D03*
X107480D02*
D03*
X117480D02*
D03*
X127480D02*
D03*
X137480D02*
D03*
X147480D02*
D03*
X17480Y106299D02*
D03*
X27480D02*
D03*
X37480D02*
D03*
X47480D02*
D03*
X57480D02*
D03*
X67480D02*
D03*
X77480D02*
D03*
X87480D02*
D03*
X97480D02*
D03*
X107480D02*
D03*
X117480D02*
D03*
X127480D02*
D03*
X137480D02*
D03*
X147480D02*
D03*
D56*
X138977Y68504D02*
D03*
Y48819D02*
D03*
D57*
X42116Y75778D02*
X49587Y83248D01*
X42116Y50295D02*
Y75778D01*
X30601Y55404D02*
X38583Y63386D01*
Y77614D02*
X46732Y85763D01*
X38583Y63386D02*
Y77614D01*
X89555Y95227D02*
Y95264D01*
X91200Y79783D02*
Y93956D01*
X96850Y99606D01*
X105118D01*
X74796Y75190D02*
X83064D01*
X86799Y78925D02*
Y87980D01*
X83064Y75190D02*
X86799Y78925D01*
X82284Y70866D02*
X91200Y79783D01*
X82284Y64935D02*
Y70866D01*
X109744Y34547D02*
X120079Y24213D01*
X79857Y77269D02*
Y96631D01*
X66535Y56637D02*
Y60236D01*
X64173Y61417D02*
X70079Y67323D01*
X64173Y54545D02*
Y61417D01*
X66535Y56637D02*
X68888Y54284D01*
X64587Y68063D02*
X67669D01*
X74796Y75190D01*
X86799Y87980D02*
X87992Y89173D01*
X86614Y90551D02*
X87992Y89173D01*
X64173Y54545D02*
X64475Y54243D01*
X49587Y89417D02*
Y91516D01*
X50636Y90466D01*
X49587Y83248D02*
Y89417D01*
X47189Y93711D02*
X62016D01*
X64587Y91140D01*
X79756Y36385D02*
X83334D01*
X79724Y47047D02*
X81693D01*
X59980Y45375D02*
X61067D01*
X81693Y47047D02*
X85433Y43307D01*
X61067Y45375D02*
X65891Y40551D01*
X83334Y36385D02*
X85433Y38484D01*
X65891Y40551D02*
X75590D01*
X79756Y36385D01*
X85433Y38484D02*
Y43307D01*
X76772Y50000D02*
X79724Y47047D01*
X76772Y50000D02*
Y53543D01*
X97006Y35075D02*
X99895Y32185D01*
X92551Y30621D02*
X99213Y23959D01*
X103993D01*
X116689Y7091D02*
X117480Y6299D01*
X116689Y7091D02*
Y11264D01*
X103993Y23959D02*
X116689Y11264D01*
X147480Y6299D02*
Y10098D01*
X133366Y24213D02*
X147480Y10098D01*
X120079Y24213D02*
X133366D01*
X80709Y49398D02*
X83280D01*
X90755Y40256D02*
X94113D01*
X87697Y43314D02*
X90755Y40256D01*
X87697Y43314D02*
Y44980D01*
X83280Y49398D02*
X87697Y44980D01*
X99233Y37302D02*
X101987Y34547D01*
X46732Y85763D02*
Y93307D01*
X30601Y50197D02*
Y55404D01*
X46732Y93307D02*
X47077Y93652D01*
X99895Y32185D02*
X106004D01*
X110630Y27559D01*
X47168Y93689D02*
X47189Y93711D01*
X101987Y34547D02*
X109744D01*
X94113Y40256D02*
X98815Y44958D01*
X64587Y89417D02*
Y91140D01*
X79921Y26064D02*
Y28346D01*
X93307Y92913D02*
X96850Y96457D01*
X93307Y84821D02*
Y92913D01*
X82548Y43253D02*
X82585Y43215D01*
X72441Y34252D02*
X76772Y29921D01*
X83317Y39375D02*
X83354Y39413D01*
X76772Y27368D02*
Y29921D01*
X79857Y96631D02*
X87480Y104254D01*
X99233Y45375D02*
X99650D01*
X75570Y60965D02*
X76001Y60533D01*
X64852Y49829D02*
X67043Y47638D01*
X74803Y44882D02*
X78885D01*
X50787Y20079D02*
Y46673D01*
X78926Y44841D02*
X79921D01*
X99650Y45375D02*
X101126Y46850D01*
X64434Y49829D02*
X64852D01*
X62207Y47602D02*
X65321Y44488D01*
X71260D02*
X73032Y42717D01*
X72047Y47638D02*
X74803Y44882D01*
X73343Y23939D02*
X76772Y27368D01*
X117323Y39764D02*
Y43307D01*
X68701Y62303D02*
X70571Y64173D01*
X68701Y58925D02*
Y62303D01*
X75570Y21712D02*
X79921Y26064D01*
X134697Y48373D02*
X134756D01*
X80709Y39370D02*
X80714Y39375D01*
X35039Y15933D02*
X46642D01*
X65321Y44488D02*
X71260D01*
X76419Y60533D02*
X77953Y62067D01*
X76001Y60533D02*
X76419D01*
X117323Y43307D02*
X122441Y48425D01*
X78885Y44882D02*
X78926Y44841D01*
X122441Y48425D02*
X134645D01*
X57421Y53307D02*
X60957D01*
X79921Y44841D02*
X81509Y43253D01*
X80714Y39375D02*
X83317D01*
X50787Y46673D02*
X57421Y53307D01*
X67043Y47638D02*
X72047D01*
X134645Y48425D02*
X134697Y48373D01*
X60957Y53307D02*
X64434Y49829D01*
X77362Y42717D02*
X80709Y39370D01*
X101126Y46850D02*
X103150D01*
X68701Y58925D02*
X71115Y56511D01*
X81509Y43253D02*
X82548D01*
X103150Y46850D02*
X106693Y43307D01*
X117323D01*
X117323Y43307D02*
X117323Y43307D01*
X46642Y15933D02*
X50787Y20079D01*
X73032Y42717D02*
X77362D01*
X59416Y50394D02*
X62207Y47602D01*
X58268Y50394D02*
X59416D01*
X53347Y45472D02*
X58268Y50394D01*
X53347Y17913D02*
Y45472D01*
X49287Y13854D02*
X53347Y17913D01*
X33965Y13854D02*
X49287D01*
X29316Y18504D02*
X33965Y13854D01*
X25197Y18504D02*
X29316D01*
X19291Y12598D02*
X25197Y18504D01*
X10382Y12598D02*
X19291D01*
X7480Y9696D02*
X10382Y12598D01*
X7480Y6299D02*
Y9696D01*
X115018Y66646D02*
X115071Y66699D01*
X116142Y64830D02*
X117847Y66535D01*
X116142Y61122D02*
Y64830D01*
X114862Y66646D02*
X115018D01*
X117847Y66535D02*
X121653D01*
X82284Y64935D02*
X84740Y62479D01*
X77449Y68914D02*
X77543D01*
Y68914D02*
Y68914D01*
Y68914D02*
X77913Y68543D01*
X89555Y95264D02*
X89665Y95374D01*
X17480Y7244D02*
X26378Y16142D01*
X48031Y6299D02*
X55512Y13780D01*
Y40907D02*
X59980Y45375D01*
X55512Y13780D02*
Y40907D01*
X57480Y6299D02*
X57874Y6693D01*
Y34778D02*
X58898Y35803D01*
X57874Y6693D02*
Y34778D01*
X62207Y34657D02*
Y35075D01*
X60236Y32686D02*
X62207Y34657D01*
X60236Y20044D02*
Y32686D01*
Y20044D02*
X67480Y12800D01*
X58898Y35803D02*
Y36220D01*
X37038Y27195D02*
X46260Y36417D01*
X37038Y26772D02*
Y27195D01*
X35433Y25167D02*
X37038Y26772D01*
X35433Y23622D02*
Y25167D01*
X46260Y36417D02*
Y45198D01*
X45433Y29291D02*
X48379Y32237D01*
X45433Y23622D02*
Y29291D01*
X48379Y32237D02*
Y36339D01*
X48425Y36385D02*
Y48172D01*
X48379Y36339D02*
X48425Y36385D01*
Y48172D02*
X56949Y56696D01*
X9526Y22990D02*
Y33307D01*
X8189Y21654D02*
X9526Y22990D01*
X113583Y65366D02*
X114862Y66646D01*
X113583Y61122D02*
Y65366D01*
X116043Y61024D02*
X116142Y61122D01*
X113484Y61024D02*
X113583Y61122D01*
X119685Y18504D02*
X129134D01*
X136925Y6855D02*
X137480Y6299D01*
X136925Y6855D02*
Y10713D01*
X129134Y18504D02*
X136925Y10713D01*
X110630Y27559D02*
X119685Y18504D01*
X110630Y27559D02*
X110630D01*
X104331Y29528D02*
X127480Y6378D01*
X98099Y29528D02*
X104331D01*
X127480Y6299D02*
Y6378D01*
X85870Y23939D02*
X88976Y20833D01*
Y9260D02*
Y20833D01*
X87480Y6299D02*
Y7764D01*
X88976Y9260D01*
X77559Y6299D02*
X85433Y14173D01*
Y19504D01*
X83643Y21295D02*
X85433Y19504D01*
X83643Y21295D02*
Y21712D01*
X89665Y95374D02*
Y98484D01*
X97480Y106299D01*
X96850Y96457D02*
X109683D01*
X119525Y106299D01*
X93338Y77590D02*
Y84790D01*
X93307Y84821D02*
X93338Y84790D01*
X90158Y74410D02*
X93338Y77590D01*
X133858Y60630D02*
Y67717D01*
X135728Y58760D02*
X138878D01*
X133858Y60630D02*
X135728Y58760D01*
X129921Y71653D02*
X133858Y67717D01*
X134350Y56201D02*
X138878D01*
X138977Y56102D01*
X131506Y59045D02*
X134350Y56201D01*
X138878Y58760D02*
X138977Y58661D01*
X99241Y71653D02*
X129921D01*
X127559Y69291D02*
X131506Y65344D01*
Y59045D02*
Y65344D01*
X100220Y69291D02*
X127559D01*
X95844Y74410D02*
X127165D01*
X90787Y71890D02*
X93324D01*
X90236Y68875D02*
Y71339D01*
X93324Y71890D02*
X95844Y74410D01*
X127165D02*
X129134Y76378D01*
X118602Y82972D02*
X122047Y79528D01*
X67323Y74016D02*
X67480Y74173D01*
Y106299D01*
X90236Y71339D02*
X90787Y71890D01*
X83643Y60965D02*
X84740Y62062D01*
Y62479D01*
X97480Y6299D02*
Y16783D01*
X88097Y26166D02*
X97480Y16783D01*
X100689Y61024D02*
Y66693D01*
X77902Y68532D02*
X78268Y68898D01*
X76929Y67323D02*
X77902Y68296D01*
Y68532D01*
X70079Y67323D02*
X76929D01*
X70472Y74016D02*
Y94095D01*
X77480Y101102D02*
Y106299D01*
X70472Y94095D02*
X77480Y101102D01*
X90324Y28394D02*
X90324D01*
X107763Y6582D02*
Y10955D01*
X90324Y28394D02*
X107763Y10955D01*
X107480Y6299D02*
X107763Y6582D01*
X17480Y6299D02*
Y7244D01*
X98130Y67202D02*
X100220Y69291D01*
X98130Y61024D02*
Y67202D01*
X47480Y6299D02*
X48031D01*
X67480D02*
Y12800D01*
X77480Y6299D02*
X77559D01*
X87480Y104254D02*
Y106299D01*
X3937Y38896D02*
Y47638D01*
Y38896D02*
X9526Y33307D01*
X56949Y56696D02*
Y63605D01*
X46213Y45245D02*
Y46291D01*
Y45245D02*
X46260Y45198D01*
Y49069D02*
X54587Y57396D01*
X46260Y46337D02*
Y49069D01*
X46213Y46291D02*
X46260Y46337D01*
X54587Y57396D02*
Y68063D01*
X56949Y63605D02*
X57911Y64567D01*
X58071D02*
X59587Y66083D01*
X57911Y64567D02*
X58071D01*
X129134Y76378D02*
Y81102D01*
X126279Y83957D02*
X129134Y81102D01*
X126279Y83957D02*
Y88976D01*
X95571Y67983D02*
X99241Y71653D01*
X95571Y61024D02*
Y67983D01*
X118602Y82972D02*
Y88976D01*
X59587Y66083D02*
Y68063D01*
X94779Y32848D02*
X98099Y29528D01*
D58*
X26772Y79134D02*
X29528Y81890D01*
X26772Y67815D02*
X27411Y67175D01*
X26772Y67815D02*
Y79134D01*
X27411Y67175D02*
X28248Y66339D01*
X29528Y81890D02*
Y91142D01*
X20472Y87972D02*
Y91142D01*
X9200Y86400D02*
X18900D01*
X20472Y87972D01*
X151910Y25569D02*
Y34647D01*
X7480Y97420D02*
X9300Y95600D01*
X7480Y97420D02*
Y106299D01*
X151833Y25492D02*
X151910Y25569D01*
D59*
X121653Y101575D02*
D03*
X89555Y95227D02*
D03*
X74803Y81890D02*
D03*
X99213Y23959D02*
D03*
X47638Y56988D02*
D03*
X47077Y93652D02*
D03*
X111024Y33307D02*
D03*
X100257Y32027D02*
D03*
X50900Y90300D02*
D03*
X80709Y49398D02*
D03*
X82302Y84625D02*
D03*
X76772Y53543D02*
D03*
X59842Y61811D02*
D03*
X87402Y60236D02*
D03*
X66535D02*
D03*
X79921Y28346D02*
D03*
X77349Y32456D02*
D03*
X74048Y29375D02*
D03*
X82585Y43215D02*
D03*
X76680Y47134D02*
D03*
X72441Y34252D02*
D03*
X83354Y39413D02*
D03*
X71929Y60027D02*
D03*
X89784Y58268D02*
D03*
X93996Y53445D02*
D03*
X85444Y30709D02*
D03*
X79857Y77269D02*
D03*
X92518Y48425D02*
D03*
X69158Y19158D02*
D03*
X117323Y39764D02*
D03*
X110630Y27559D02*
D03*
X65650Y38189D02*
D03*
X88976Y39088D02*
D03*
X77953Y62067D02*
D03*
X63779Y31872D02*
D03*
X134756Y48373D02*
D03*
X91941Y42335D02*
D03*
X70571Y64173D02*
D03*
X35039Y15933D02*
D03*
X115071Y66699D02*
D03*
X77449Y68914D02*
D03*
X37795Y58661D02*
D03*
X44291Y74634D02*
D03*
X26378Y16142D02*
D03*
X57591Y38270D02*
D03*
X62315Y26772D02*
D03*
X105525Y18701D02*
D03*
X45831Y32684D02*
D03*
X35000Y31123D02*
D03*
X14776Y16535D02*
D03*
X12598Y14961D02*
D03*
X116500Y84000D02*
D03*
X128347Y14173D02*
D03*
X90551Y35269D02*
D03*
X110630Y94095D02*
D03*
X90158Y74410D02*
D03*
X63632Y101722D02*
D03*
X29528Y66437D02*
D03*
X19600Y91200D02*
D03*
X28740Y68504D02*
D03*
X121260Y64173D02*
D03*
X84646Y66535D02*
D03*
X141339Y72404D02*
D03*
X110236Y66929D02*
D03*
X103150Y58268D02*
D03*
X122047Y79528D02*
D03*
X67323Y74016D02*
D03*
X117717Y46850D02*
D03*
X137271Y42184D02*
D03*
X100689Y66693D02*
D03*
X106693Y48031D02*
D03*
X54366Y86135D02*
D03*
X74803Y71260D02*
D03*
X70472Y74016D02*
D03*
X124705Y51968D02*
D03*
X110728Y76772D02*
D03*
X121653Y66535D02*
D03*
X124000Y41437D02*
D03*
X19685Y22835D02*
D03*
X42520Y9154D02*
D03*
X16920Y69083D02*
D03*
X31496Y75984D02*
D03*
X32283Y1969D02*
D03*
X30400Y40600D02*
D03*
X41200Y40900D02*
D03*
X9300Y76828D02*
D03*
X131200Y93994D02*
D03*
X64600Y84505D02*
D03*
X106299Y79768D02*
D03*
X102732Y41142D02*
D03*
X88976Y48151D02*
D03*
X77348Y79921D02*
D03*
X9115Y15884D02*
D03*
X3937Y47638D02*
D03*
X29528Y31102D02*
D03*
X121161Y91732D02*
D03*
X131693Y32776D02*
D03*
X128740Y86135D02*
D03*
M02*
