G04*
G04 #@! TF.GenerationSoftware,Altium Limited,Altium Designer,20.1.12 (249)*
G04*
G04 Layer_Physical_Order=1*
G04 Layer_Color=255*
%FSLAX25Y25*%
%MOIN*%
G70*
G04*
G04 #@! TF.SameCoordinates,53A666A1-0C10-4713-9840-979741AB8DB5*
G04*
G04*
G04 #@! TF.FilePolarity,Positive*
G04*
G01*
G75*
%ADD12C,0.01575*%
G04:AMPARAMS|DCode=33|XSize=59.06mil|YSize=19.68mil|CornerRadius=0mil|HoleSize=0mil|Usage=FLASHONLY|Rotation=45.000|XOffset=0mil|YOffset=0mil|HoleType=Round|Shape=Rectangle|*
%AMROTATEDRECTD33*
4,1,4,-0.01392,-0.02784,-0.02784,-0.01392,0.01392,0.02784,0.02784,0.01392,-0.01392,-0.02784,0.0*
%
%ADD33ROTATEDRECTD33*%

G04:AMPARAMS|DCode=34|XSize=59.06mil|YSize=19.68mil|CornerRadius=0mil|HoleSize=0mil|Usage=FLASHONLY|Rotation=135.000|XOffset=0mil|YOffset=0mil|HoleType=Round|Shape=Rectangle|*
%AMROTATEDRECTD34*
4,1,4,0.02784,-0.01392,0.01392,-0.02784,-0.02784,0.01392,-0.01392,0.02784,0.02784,-0.01392,0.0*
%
%ADD34ROTATEDRECTD34*%

%ADD35R,0.04134X0.07087*%
%ADD36R,0.04055X0.07362*%
%ADD37R,0.01575X0.07087*%
%ADD38R,0.06890X0.06693*%
%ADD39R,0.02559X0.06004*%
%ADD40R,0.10000X0.10512*%
%ADD41R,0.05000X0.03000*%
%ADD42R,0.03740X0.06890*%
%ADD43R,0.12598X0.06890*%
%ADD44R,0.10512X0.10000*%
%ADD45R,0.03000X0.05000*%
%ADD46R,0.07480X0.08268*%
%ADD47R,0.07480X0.05906*%
%ADD48R,0.05315X0.01575*%
%ADD49R,0.01575X0.07874*%
%ADD50R,0.06693X0.06890*%
%ADD51C,0.07087*%
G04:AMPARAMS|DCode=52|XSize=70.87mil|YSize=70.87mil|CornerRadius=8.86mil|HoleSize=0mil|Usage=FLASHONLY|Rotation=180.000|XOffset=0mil|YOffset=0mil|HoleType=Round|Shape=RoundedRectangle|*
%AMROUNDEDRECTD52*
21,1,0.07087,0.05315,0,0,180.0*
21,1,0.05315,0.07087,0,0,180.0*
1,1,0.01772,-0.02657,0.02657*
1,1,0.01772,0.02657,0.02657*
1,1,0.01772,0.02657,-0.02657*
1,1,0.01772,-0.02657,-0.02657*
%
%ADD52ROUNDEDRECTD52*%
G04:AMPARAMS|DCode=53|XSize=70.87mil|YSize=70.87mil|CornerRadius=8.86mil|HoleSize=0mil|Usage=FLASHONLY|Rotation=270.000|XOffset=0mil|YOffset=0mil|HoleType=Round|Shape=RoundedRectangle|*
%AMROUNDEDRECTD53*
21,1,0.07087,0.05315,0,0,270.0*
21,1,0.05315,0.07087,0,0,270.0*
1,1,0.01772,-0.02657,-0.02657*
1,1,0.01772,-0.02657,0.02657*
1,1,0.01772,0.02657,0.02657*
1,1,0.01772,0.02657,-0.02657*
%
%ADD53ROUNDEDRECTD53*%
%ADD54R,0.06791X0.06791*%
%ADD55C,0.06791*%
%ADD56C,0.05709*%
%ADD57C,0.01378*%
%ADD58C,0.03937*%
%ADD59C,0.01575*%
G36*
X157087Y394D02*
X394D01*
Y112205D01*
X157087D01*
Y394D01*
D02*
G37*
%LPC*%
G36*
X147480Y110332D02*
X146437Y110194D01*
X145464Y109792D01*
X144629Y109151D01*
X143988Y108316D01*
X143585Y107343D01*
X143448Y106299D01*
X143585Y105255D01*
X143988Y104283D01*
X144629Y103448D01*
X145464Y102807D01*
X146437Y102404D01*
X147480Y102267D01*
X148524Y102404D01*
X149497Y102807D01*
X150332Y103448D01*
X150973Y104283D01*
X151375Y105255D01*
X151513Y106299D01*
X151375Y107343D01*
X150973Y108316D01*
X150332Y109151D01*
X149497Y109792D01*
X148524Y110194D01*
X147480Y110332D01*
D02*
G37*
G36*
X137480D02*
X136437Y110194D01*
X135464Y109792D01*
X134629Y109151D01*
X133988Y108316D01*
X133585Y107343D01*
X133448Y106299D01*
X133585Y105255D01*
X133988Y104283D01*
X134629Y103448D01*
X135464Y102807D01*
X136437Y102404D01*
X137480Y102267D01*
X138524Y102404D01*
X139497Y102807D01*
X140332Y103448D01*
X140973Y104283D01*
X141375Y105255D01*
X141513Y106299D01*
X141375Y107343D01*
X140973Y108316D01*
X140332Y109151D01*
X139497Y109792D01*
X138524Y110194D01*
X137480Y110332D01*
D02*
G37*
G36*
X47480D02*
X46437Y110194D01*
X45464Y109792D01*
X44629Y109151D01*
X43988Y108316D01*
X43585Y107343D01*
X43448Y106299D01*
X43585Y105255D01*
X43988Y104283D01*
X44629Y103448D01*
X45464Y102807D01*
X46437Y102404D01*
X47480Y102267D01*
X48524Y102404D01*
X49497Y102807D01*
X50332Y103448D01*
X50973Y104283D01*
X51375Y105255D01*
X51513Y106299D01*
X51375Y107343D01*
X50973Y108316D01*
X50332Y109151D01*
X49497Y109792D01*
X48524Y110194D01*
X47480Y110332D01*
D02*
G37*
G36*
X37480D02*
X36437Y110194D01*
X35464Y109792D01*
X34629Y109151D01*
X33988Y108316D01*
X33585Y107343D01*
X33448Y106299D01*
X33585Y105255D01*
X33988Y104283D01*
X34629Y103448D01*
X35464Y102807D01*
X36437Y102404D01*
X37480Y102267D01*
X38524Y102404D01*
X39497Y102807D01*
X40332Y103448D01*
X40973Y104283D01*
X41375Y105255D01*
X41513Y106299D01*
X41375Y107343D01*
X40973Y108316D01*
X40332Y109151D01*
X39497Y109792D01*
X38524Y110194D01*
X37480Y110332D01*
D02*
G37*
G36*
X27480D02*
X26437Y110194D01*
X25464Y109792D01*
X24629Y109151D01*
X23988Y108316D01*
X23585Y107343D01*
X23448Y106299D01*
X23585Y105255D01*
X23988Y104283D01*
X24629Y103448D01*
X25464Y102807D01*
X26437Y102404D01*
X27480Y102267D01*
X28524Y102404D01*
X29497Y102807D01*
X30332Y103448D01*
X30973Y104283D01*
X31375Y105255D01*
X31513Y106299D01*
X31375Y107343D01*
X30973Y108316D01*
X30332Y109151D01*
X29497Y109792D01*
X28524Y110194D01*
X27480Y110332D01*
D02*
G37*
G36*
X117480D02*
X116437Y110194D01*
X115464Y109792D01*
X114629Y109151D01*
X113988Y108316D01*
X113585Y107343D01*
X113448Y106299D01*
X113585Y105255D01*
X113823Y104682D01*
X113825Y104561D01*
X113968Y104235D01*
X114065Y103954D01*
X114126Y103699D01*
X114155Y103469D01*
X114155Y103263D01*
X114130Y103078D01*
X114081Y102910D01*
X114007Y102751D01*
X113906Y102596D01*
X113744Y102413D01*
X113728Y102364D01*
X109137Y97773D01*
X97137D01*
X97061Y97955D01*
X97396Y98290D01*
X104614D01*
X105118Y98189D01*
X105660Y98297D01*
X106120Y98604D01*
X108482Y100967D01*
X108789Y101426D01*
X108872Y101844D01*
X108919Y101947D01*
X108931Y102295D01*
X108942Y102413D01*
X108957Y102511D01*
X108973Y102580D01*
X108977Y102592D01*
X109497Y102807D01*
X110332Y103448D01*
X110973Y104283D01*
X111375Y105255D01*
X111513Y106299D01*
X111375Y107343D01*
X110973Y108316D01*
X110332Y109151D01*
X109497Y109792D01*
X108524Y110194D01*
X107480Y110332D01*
X106437Y110194D01*
X105464Y109792D01*
X104629Y109151D01*
X103988Y108316D01*
X103585Y107343D01*
X103448Y106299D01*
X103585Y105255D01*
X103988Y104283D01*
X104629Y103448D01*
X105464Y102807D01*
X105871Y102639D01*
X105918Y102410D01*
X104431Y100923D01*
X96850D01*
X96346Y100823D01*
X95919Y100537D01*
X91164Y95782D01*
X90982Y95857D01*
Y97939D01*
X94557Y101514D01*
X94606Y101530D01*
X94772Y101676D01*
X94934Y101787D01*
X95128Y101890D01*
X95356Y101983D01*
X95618Y102065D01*
X95915Y102134D01*
X96237Y102186D01*
X97017Y102247D01*
X97453Y102252D01*
X97491Y102268D01*
X98524Y102404D01*
X99497Y102807D01*
X100332Y103448D01*
X100973Y104283D01*
X101375Y105255D01*
X101513Y106299D01*
X101375Y107343D01*
X100973Y108316D01*
X100332Y109151D01*
X99497Y109792D01*
X98524Y110194D01*
X97480Y110332D01*
X96437Y110194D01*
X95464Y109792D01*
X94629Y109151D01*
X93988Y108316D01*
X93585Y107343D01*
X93451Y106326D01*
X93433Y106286D01*
X93406Y105422D01*
X93369Y105064D01*
X93315Y104734D01*
X93246Y104437D01*
X93164Y104175D01*
X93071Y103947D01*
X92968Y103753D01*
X92857Y103591D01*
X92711Y103425D01*
X92695Y103376D01*
X88734Y99415D01*
X88449Y98988D01*
X88349Y98484D01*
Y95923D01*
X88246Y95769D01*
X88138Y95227D01*
X88213Y94849D01*
X88088Y94697D01*
X83945D01*
Y86405D01*
X85311D01*
X85352Y86383D01*
X85356Y86383D01*
X85380Y86324D01*
X85410Y86213D01*
X85435Y86061D01*
X85452Y85869D01*
X85458Y85625D01*
X85482Y85571D01*
Y79470D01*
X83855Y77843D01*
X83673Y77918D01*
Y84393D01*
X83719Y84625D01*
X83673Y84857D01*
Y86429D01*
X81174D01*
Y96085D01*
X86066Y100977D01*
X86116Y100995D01*
X86227Y101093D01*
X86336Y101175D01*
X88636Y102382D01*
X89120Y102599D01*
X89123Y102602D01*
X89127Y102602D01*
X89205Y102686D01*
X89497Y102807D01*
X90332Y103448D01*
X90973Y104283D01*
X91375Y105255D01*
X91513Y106299D01*
X91375Y107343D01*
X90973Y108316D01*
X90332Y109151D01*
X89497Y109792D01*
X88524Y110194D01*
X87480Y110332D01*
X86437Y110194D01*
X85464Y109792D01*
X84629Y109151D01*
X83988Y108316D01*
X83585Y107343D01*
X83448Y106299D01*
X83585Y105255D01*
X83823Y104681D01*
X83826Y104560D01*
X83968Y104235D01*
X84065Y103954D01*
X84126Y103698D01*
X84155Y103468D01*
X84155Y103262D01*
X84130Y103078D01*
X84081Y102909D01*
X84008Y102751D01*
X83906Y102596D01*
X83745Y102413D01*
X83728Y102363D01*
X78926Y97562D01*
X78641Y97135D01*
X78541Y96631D01*
Y77773D01*
X78440Y77269D01*
X78548Y76727D01*
X78579Y76680D01*
X78486Y76507D01*
X74796D01*
X74293Y76407D01*
X73865Y76121D01*
X72016Y74271D01*
X71827Y74328D01*
X71789Y74520D01*
Y77350D01*
X74224D01*
Y80409D01*
X74281Y80419D01*
X74610Y80447D01*
X74815Y80450D01*
X74919Y80496D01*
X75345Y80581D01*
X75805Y80888D01*
X76112Y81348D01*
X76220Y81890D01*
X76112Y82432D01*
X75805Y82892D01*
X75345Y83199D01*
X74919Y83284D01*
X74815Y83329D01*
X74602Y83333D01*
X74430Y83343D01*
X74290Y83359D01*
X74224Y83371D01*
Y86429D01*
X71789D01*
Y93549D01*
X78411Y100171D01*
X78411Y100171D01*
X78697Y100599D01*
X78769Y100961D01*
X78820Y101069D01*
X78833Y101316D01*
X78865Y101524D01*
X78918Y101726D01*
X78994Y101926D01*
X79093Y102125D01*
X79216Y102324D01*
X79366Y102523D01*
X79544Y102723D01*
X79750Y102922D01*
X80001Y103133D01*
X80015Y103159D01*
X80043Y103171D01*
X80076Y103252D01*
X80332Y103448D01*
X80973Y104283D01*
X81375Y105255D01*
X81513Y106299D01*
X81375Y107343D01*
X80973Y108316D01*
X80332Y109151D01*
X79497Y109792D01*
X78524Y110194D01*
X77480Y110332D01*
X76437Y110194D01*
X75464Y109792D01*
X74629Y109151D01*
X73988Y108316D01*
X73585Y107343D01*
X73448Y106299D01*
X73585Y105255D01*
X73988Y104283D01*
X74629Y103448D01*
X74884Y103252D01*
X74918Y103171D01*
X74946Y103159D01*
X74959Y103133D01*
X75211Y102922D01*
X75417Y102723D01*
X75595Y102523D01*
X75744Y102324D01*
X75868Y102125D01*
X75967Y101926D01*
X76042Y101726D01*
X76084Y101568D01*
X69541Y95025D01*
X69256Y94598D01*
X69156Y94095D01*
Y74520D01*
X69055Y74016D01*
X69163Y73474D01*
X69471Y73014D01*
X69930Y72707D01*
X70160Y72661D01*
X70217Y72473D01*
X67151Y69406D01*
X67005Y69410D01*
X66813Y69427D01*
X66661Y69452D01*
X66550Y69482D01*
X66491Y69506D01*
X66491Y69510D01*
X66469Y69550D01*
Y71667D01*
X62705D01*
Y64459D01*
X65095D01*
X65171Y64277D01*
X63481Y62587D01*
X63299Y62663D01*
Y63595D01*
X59274D01*
X59193Y63791D01*
X59673Y64268D01*
X59871Y64459D01*
X61468D01*
Y71667D01*
X57705D01*
Y66117D01*
X57336Y65736D01*
X56980Y65498D01*
X56679Y65197D01*
X56575Y65204D01*
X56468Y65265D01*
Y71667D01*
X52705D01*
Y65211D01*
X52672Y65154D01*
X52684Y65113D01*
X52667Y65073D01*
X52705Y64982D01*
Y64459D01*
X53156D01*
X53177Y64399D01*
X53201Y64292D01*
X53241Y63915D01*
X53246Y63681D01*
X53270Y63626D01*
Y57941D01*
X51670Y56341D01*
X51488Y56416D01*
Y63595D01*
X48153D01*
X47874Y63874D01*
Y64459D01*
X51468D01*
Y71667D01*
X47874D01*
Y73429D01*
X55589Y81144D01*
X55896Y81603D01*
X56004Y82146D01*
Y85813D01*
X56468D01*
Y92394D01*
X61470D01*
X61847Y92017D01*
X61867Y91964D01*
X62357Y91436D01*
X62524Y91228D01*
X62651Y91045D01*
X62705Y90950D01*
Y90549D01*
X62667Y90459D01*
X62688Y90409D01*
X62675Y90357D01*
X62705Y90308D01*
Y85813D01*
X66164D01*
Y74783D01*
X66014Y74558D01*
X65906Y74016D01*
X66014Y73474D01*
X66321Y73014D01*
X66781Y72707D01*
X67323Y72599D01*
X67865Y72707D01*
X68325Y73014D01*
X68632Y73474D01*
X68660Y73614D01*
X68697Y73669D01*
X68797Y74173D01*
Y100848D01*
X68820Y100895D01*
X68834Y101115D01*
X68871Y101308D01*
X68935Y101518D01*
X69030Y101745D01*
X69157Y101988D01*
X69319Y102247D01*
X69510Y102512D01*
X70018Y103106D01*
X70323Y103418D01*
X70338Y103457D01*
X70973Y104283D01*
X71375Y105255D01*
X71513Y106299D01*
X71375Y107343D01*
X70973Y108316D01*
X70332Y109151D01*
X69497Y109792D01*
X68524Y110194D01*
X67480Y110332D01*
X66437Y110194D01*
X65464Y109792D01*
X64629Y109151D01*
X63988Y108316D01*
X63585Y107343D01*
X63448Y106299D01*
X63585Y105255D01*
X63988Y104283D01*
X64613Y103469D01*
X64628Y103428D01*
X65219Y102798D01*
X65446Y102519D01*
X65642Y102247D01*
X65803Y101988D01*
X65931Y101745D01*
X66026Y101518D01*
X66090Y101308D01*
X66126Y101115D01*
X66141Y100895D01*
X66164Y100848D01*
Y93022D01*
X65418D01*
X65369Y93051D01*
X65317Y93039D01*
X65268Y93059D01*
X65177Y93022D01*
X64776D01*
X64681Y93076D01*
X64506Y93198D01*
X64039Y93593D01*
X63772Y93851D01*
X63715Y93873D01*
X62947Y94642D01*
X62520Y94927D01*
X62016Y95027D01*
X47634D01*
X47559Y95209D01*
X52508Y100158D01*
X55191D01*
X55498Y100097D01*
X63841D01*
X64383Y100205D01*
X64843Y100512D01*
X65150Y100971D01*
X65258Y101514D01*
X65150Y102056D01*
X64843Y102516D01*
X64383Y102823D01*
X63841Y102931D01*
X59964D01*
X59901Y103117D01*
X60332Y103448D01*
X60973Y104283D01*
X61375Y105255D01*
X61513Y106299D01*
X61375Y107343D01*
X60973Y108316D01*
X60332Y109151D01*
X59497Y109792D01*
X58524Y110194D01*
X57480Y110332D01*
X56437Y110194D01*
X55464Y109792D01*
X54629Y109151D01*
X53988Y108316D01*
X53585Y107343D01*
X53448Y106299D01*
X53585Y105255D01*
X53988Y104283D01*
X54629Y103448D01*
X54980Y103178D01*
X54917Y102992D01*
X51921D01*
X51379Y102884D01*
X50919Y102577D01*
X42552Y94210D01*
X42245Y93750D01*
X42137Y93208D01*
Y87054D01*
X34037Y78955D01*
X33730Y78495D01*
X33622Y77953D01*
Y71413D01*
X33600Y71363D01*
X33593Y71083D01*
X33573Y70858D01*
X33543Y70676D01*
X33507Y70540D01*
X33471Y70452D01*
X33448Y70414D01*
X33393Y70407D01*
X33353Y70386D01*
X30818D01*
X30778Y70408D01*
X30481Y70440D01*
X30295Y70505D01*
X30131Y70615D01*
X29972Y70788D01*
X29816Y71043D01*
X29674Y71391D01*
X29555Y71834D01*
X29466Y72370D01*
X29411Y72996D01*
X29392Y73726D01*
X29365Y73787D01*
Y78060D01*
X31361Y80056D01*
X31361Y80056D01*
X31773Y80593D01*
X32032Y81219D01*
X32121Y81890D01*
X32121Y81890D01*
Y91142D01*
X32032Y91813D01*
X32000Y91891D01*
Y95189D01*
X27055D01*
Y91891D01*
X27023Y91813D01*
X26934Y91142D01*
Y82964D01*
X24938Y80967D01*
X24526Y80430D01*
X24267Y79805D01*
X24179Y79134D01*
X24179Y79134D01*
Y73784D01*
X24151Y73722D01*
X24136Y72990D01*
X24092Y72357D01*
X24020Y71812D01*
X23923Y71358D01*
X23806Y71000D01*
X23680Y70740D01*
X23559Y70575D01*
X23454Y70487D01*
X23358Y70445D01*
X23155Y70418D01*
X23099Y70386D01*
X22626D01*
Y69863D01*
X22588Y69772D01*
X22606Y69730D01*
X22594Y69686D01*
X22626Y69630D01*
Y62291D01*
X35369D01*
X35444Y62110D01*
X29670Y56335D01*
X29384Y55908D01*
X29284Y55404D01*
Y54980D01*
X29260Y54926D01*
X29254Y54682D01*
X29237Y54491D01*
X29212Y54338D01*
X29182Y54227D01*
X29158Y54168D01*
X29154Y54168D01*
X29113Y54146D01*
X26553D01*
Y46248D01*
X34648D01*
Y54146D01*
X32088D01*
X32047Y54168D01*
X32043Y54168D01*
X32019Y54227D01*
X31990Y54338D01*
X31964Y54491D01*
X31948Y54682D01*
X31942Y54884D01*
X39514Y62455D01*
X39799Y62882D01*
X39899Y63386D01*
Y77068D01*
X47663Y84832D01*
X47949Y85259D01*
X48011Y85572D01*
X48210Y85563D01*
X48241Y85270D01*
X48246Y85035D01*
X48270Y84980D01*
Y83793D01*
X41185Y76709D01*
X40900Y76282D01*
X40800Y75778D01*
Y55079D01*
X40776Y55025D01*
X40769Y54781D01*
X40753Y54589D01*
X40727Y54436D01*
X40698Y54325D01*
X40674Y54267D01*
X40670Y54266D01*
X40629Y54244D01*
X37291D01*
Y46347D01*
X44851D01*
X44897Y46291D01*
Y45245D01*
X44851Y45189D01*
X37291D01*
Y37291D01*
X44943D01*
Y36963D01*
X36107Y28126D01*
X35854Y27748D01*
X35433Y27804D01*
X34351Y27661D01*
X34227Y27610D01*
X34155Y27617D01*
X33786Y27511D01*
X33463Y27443D01*
X33165Y27407D01*
X32894Y27400D01*
X32649Y27420D01*
X32427Y27465D01*
X32225Y27534D01*
X32038Y27626D01*
X31864Y27744D01*
X31668Y27917D01*
X31623Y27932D01*
X29960Y29594D01*
X30018Y29783D01*
X30070Y29793D01*
X30529Y30100D01*
X30837Y30560D01*
X30944Y31102D01*
Y33361D01*
X30837Y33903D01*
X30529Y34363D01*
X27881Y37011D01*
X27957Y37193D01*
X34648D01*
Y45090D01*
X26553D01*
Y38596D01*
X26371Y38521D01*
X25876Y39016D01*
Y45350D01*
X25768Y45893D01*
X25461Y46352D01*
X22571Y49242D01*
X22111Y49549D01*
X21834Y49604D01*
X21785Y49815D01*
X22483Y50350D01*
X23147Y51216D01*
X23565Y52225D01*
X23707Y53307D01*
X23565Y54389D01*
X23147Y55398D01*
X22483Y56264D01*
X21617Y56928D01*
X20608Y57346D01*
X19526Y57489D01*
X19268Y57455D01*
X19172Y57487D01*
X18744Y57460D01*
X18361Y57456D01*
X18009Y57474D01*
X17687Y57514D01*
X17396Y57572D01*
X17136Y57649D01*
X16905Y57742D01*
X16701Y57850D01*
X16523Y57974D01*
X16336Y58139D01*
X16330Y58141D01*
X16327Y58147D01*
X16284Y58161D01*
X12920Y61525D01*
X12932Y61632D01*
X12957Y61770D01*
X12972Y61824D01*
X13347D01*
Y62347D01*
X13385Y62438D01*
X13365Y62487D01*
X13377Y62538D01*
X13347Y62587D01*
Y64324D01*
X13465Y64332D01*
X13614Y64333D01*
X13718Y64377D01*
X14152Y64463D01*
X14612Y64771D01*
X17922Y68081D01*
X18229Y68540D01*
X18337Y69083D01*
X18229Y69625D01*
X17922Y70085D01*
X17462Y70392D01*
X16920Y70499D01*
X16378Y70392D01*
X15918Y70085D01*
X13529Y67695D01*
X13347Y67771D01*
Y69721D01*
X5253D01*
Y61824D01*
X9868D01*
X9907Y61802D01*
X9908Y61800D01*
X9937Y61722D01*
X9967Y61599D01*
X9993Y61433D01*
X10009Y61228D01*
X10016Y60971D01*
X10062Y60867D01*
X10146Y60444D01*
X10453Y59984D01*
X12975Y57463D01*
X12849Y57310D01*
X12764Y57366D01*
X12183Y57482D01*
X6868D01*
X6288Y57366D01*
X5796Y57038D01*
X5466Y56545D01*
X5351Y55965D01*
Y50650D01*
X5466Y50069D01*
X5796Y49577D01*
X6288Y49248D01*
X6868Y49132D01*
X12183D01*
X12764Y49248D01*
X13256Y49577D01*
X13585Y50069D01*
X13701Y50650D01*
Y55965D01*
X13585Y56545D01*
X13528Y56630D01*
X13681Y56756D01*
X14377Y56060D01*
X14393Y56014D01*
X14550Y55837D01*
X14676Y55660D01*
X14796Y55449D01*
X14908Y55204D01*
X15010Y54926D01*
X15102Y54612D01*
X15180Y54272D01*
X15302Y53461D01*
X15341Y53009D01*
X15398Y52899D01*
X15487Y52225D01*
X15905Y51216D01*
X16569Y50350D01*
X17267Y49815D01*
X17218Y49604D01*
X16940Y49549D01*
X16481Y49242D01*
X13591Y46352D01*
X13284Y45893D01*
X13228Y45615D01*
X13018Y45566D01*
X12483Y46264D01*
X11617Y46928D01*
X10608Y47346D01*
X9526Y47488D01*
X8444Y47346D01*
X7435Y46928D01*
X6569Y46264D01*
X5905Y45398D01*
X5487Y44389D01*
X5451Y44113D01*
X5254Y44126D01*
Y47133D01*
X5354Y47638D01*
X5246Y48180D01*
X4939Y48640D01*
X4479Y48947D01*
X3937Y49055D01*
X3395Y48947D01*
X2935Y48640D01*
X2628Y48180D01*
X2520Y47638D01*
X2620Y47133D01*
Y38896D01*
X2721Y38392D01*
X3006Y37965D01*
X4570Y36400D01*
X4587Y36352D01*
X4736Y36181D01*
X4851Y36012D01*
X4957Y35808D01*
X5054Y35567D01*
X5138Y35289D01*
X5209Y34974D01*
X5264Y34630D01*
X5326Y33801D01*
X5331Y33336D01*
X5345Y33303D01*
X5487Y32225D01*
X5905Y31216D01*
X6557Y30366D01*
X6571Y30330D01*
X7200Y29662D01*
X7442Y29365D01*
X7652Y29076D01*
X7825Y28803D01*
X7962Y28547D01*
X8063Y28308D01*
X8132Y28089D01*
X8171Y27889D01*
X8186Y27662D01*
X8209Y27616D01*
Y26772D01*
X8185Y26718D01*
X8179Y26474D01*
X8162Y26283D01*
X8137Y26131D01*
X8107Y26021D01*
X8082Y25959D01*
X8076Y25959D01*
X8036Y25937D01*
X5559D01*
Y17370D01*
X10819D01*
Y22872D01*
X10842Y22990D01*
Y25285D01*
X10857Y25318D01*
X10867Y26696D01*
X10866Y26698D01*
X10867Y26701D01*
X10842Y26759D01*
Y27616D01*
X10865Y27662D01*
X10881Y27889D01*
X10920Y28089D01*
X10988Y28308D01*
X11090Y28547D01*
X11227Y28803D01*
X11400Y29076D01*
X11604Y29358D01*
X12146Y29989D01*
X12472Y30320D01*
X12485Y30354D01*
X12979Y30997D01*
X13176Y30930D01*
Y28824D01*
X11597Y27245D01*
X11289Y26785D01*
X11181Y26243D01*
Y18110D01*
X11289Y17568D01*
X11597Y17108D01*
X12056Y16801D01*
X12598Y16693D01*
X13141Y16801D01*
X13600Y17108D01*
X13908Y17568D01*
X14015Y18110D01*
Y18436D01*
X14189Y18529D01*
X14418Y18376D01*
X14961Y18268D01*
X15503Y18376D01*
X15963Y18683D01*
X16270Y19143D01*
X16378Y19685D01*
Y24331D01*
X17354Y25307D01*
X24263D01*
X29608Y19963D01*
X29511Y19782D01*
X29316Y19821D01*
X25197D01*
X24693Y19720D01*
X24266Y19435D01*
X18746Y13915D01*
X10382D01*
X10382Y13915D01*
X9878Y13815D01*
X9451Y13529D01*
X6549Y10627D01*
X6329Y10297D01*
X3482D01*
Y2301D01*
X11478D01*
Y10297D01*
X10200D01*
X10125Y10479D01*
X10928Y11282D01*
X19079D01*
X19257Y11085D01*
X19254Y11048D01*
X19237Y11039D01*
X18699Y10798D01*
X18399Y10692D01*
X17186Y10369D01*
X16716Y10274D01*
X16637Y10221D01*
X16437Y10194D01*
X15464Y9792D01*
X14629Y9151D01*
X13988Y8315D01*
X13585Y7343D01*
X13448Y6299D01*
X13585Y5255D01*
X13988Y4283D01*
X14629Y3448D01*
X15464Y2807D01*
X16437Y2404D01*
X17480Y2267D01*
X18524Y2404D01*
X19497Y2807D01*
X20332Y3448D01*
X20973Y4283D01*
X21375Y5255D01*
X21513Y6299D01*
X21420Y7005D01*
X21444Y7118D01*
X21372Y7514D01*
X21330Y7865D01*
X21314Y8187D01*
X21322Y8479D01*
X21354Y8741D01*
X21406Y8974D01*
X21477Y9179D01*
X21566Y9360D01*
X21673Y9521D01*
X21827Y9697D01*
X21842Y9741D01*
X21881Y9767D01*
X21885Y9787D01*
X26686Y14588D01*
X27130Y14676D01*
X27590Y14983D01*
X27897Y15443D01*
X28005Y15985D01*
X27897Y16527D01*
X27590Y16987D01*
X27572Y16999D01*
X27629Y17187D01*
X28770D01*
X33034Y12923D01*
X33461Y12638D01*
X33965Y12538D01*
X49287D01*
X49791Y12638D01*
X50218Y12923D01*
X54013Y16718D01*
X54195Y16643D01*
Y14325D01*
X50736Y10866D01*
X50697Y10855D01*
X50688Y10839D01*
X50671Y10834D01*
X50499Y10682D01*
X50337Y10574D01*
X50150Y10479D01*
X49934Y10399D01*
X49688Y10335D01*
X49410Y10289D01*
X49101Y10262D01*
X48759Y10257D01*
X48387Y10275D01*
X47969Y10317D01*
X47854Y10283D01*
X47480Y10332D01*
X46437Y10194D01*
X45464Y9792D01*
X44629Y9151D01*
X43988Y8315D01*
X43585Y7343D01*
X43448Y6299D01*
X43585Y5255D01*
X43988Y4283D01*
X44629Y3448D01*
X45464Y2807D01*
X46437Y2404D01*
X47480Y2267D01*
X48524Y2404D01*
X49497Y2807D01*
X50332Y3448D01*
X50973Y4283D01*
X51375Y5255D01*
X51441Y5752D01*
X51504Y5865D01*
X51560Y6325D01*
X51704Y7143D01*
X51788Y7486D01*
X51882Y7798D01*
X51983Y8072D01*
X52090Y8308D01*
X52200Y8506D01*
X52312Y8666D01*
X52450Y8823D01*
X52467Y8872D01*
X56361Y12766D01*
X56557Y12685D01*
Y11832D01*
X56538Y11797D01*
X56543Y11779D01*
X56534Y11762D01*
X56519Y11533D01*
X56482Y11342D01*
X56416Y11143D01*
X56321Y10934D01*
X56192Y10715D01*
X56028Y10486D01*
X55827Y10249D01*
X55590Y10004D01*
X55314Y9754D01*
X54989Y9489D01*
X54932Y9383D01*
X54629Y9151D01*
X53988Y8315D01*
X53585Y7343D01*
X53448Y6299D01*
X53585Y5255D01*
X53988Y4283D01*
X54629Y3448D01*
X55464Y2807D01*
X56437Y2404D01*
X57480Y2267D01*
X58524Y2404D01*
X59497Y2807D01*
X60332Y3448D01*
X60973Y4283D01*
X61375Y5255D01*
X61513Y6299D01*
X61375Y7343D01*
X60973Y8315D01*
X60671Y8709D01*
X60636Y8834D01*
X60350Y9199D01*
X59874Y9881D01*
X59691Y10182D01*
X59537Y10469D01*
X59414Y10735D01*
X59323Y10978D01*
X59261Y11196D01*
X59227Y11388D01*
X59214Y11596D01*
X59191Y11643D01*
Y18949D01*
X59387Y19031D01*
X66164Y12255D01*
Y11750D01*
X66141Y11704D01*
X66126Y11483D01*
X66090Y11290D01*
X66026Y11080D01*
X65931Y10853D01*
X65803Y10610D01*
X65642Y10352D01*
X65451Y10086D01*
X64943Y9492D01*
X64638Y9181D01*
X64622Y9142D01*
X63988Y8315D01*
X63585Y7343D01*
X63448Y6299D01*
X63585Y5255D01*
X63988Y4283D01*
X64629Y3448D01*
X65464Y2807D01*
X66437Y2404D01*
X67480Y2267D01*
X68524Y2404D01*
X69497Y2807D01*
X70332Y3448D01*
X70973Y4283D01*
X71375Y5255D01*
X71513Y6299D01*
X71375Y7343D01*
X70973Y8315D01*
X70348Y9129D01*
X70332Y9171D01*
X69741Y9800D01*
X69515Y10079D01*
X69319Y10352D01*
X69157Y10610D01*
X69030Y10853D01*
X68935Y11080D01*
X68871Y11290D01*
X68834Y11483D01*
X68820Y11704D01*
X68797Y11750D01*
Y12800D01*
X68697Y13304D01*
X68411Y13731D01*
X61553Y20590D01*
Y32141D01*
X63138Y33726D01*
X63210Y33834D01*
X65843Y36467D01*
X65734Y36575D01*
X65816Y36772D01*
X66736D01*
X67884Y35624D01*
Y34154D01*
X67610Y33873D01*
X67603Y33855D01*
X67601Y33854D01*
X67595Y33852D01*
X67595Y33851D01*
X67586Y33847D01*
X67567Y33824D01*
X67559Y33801D01*
X65659Y31901D01*
X65582Y31785D01*
X63025Y29229D01*
X63326Y28929D01*
X63183Y28715D01*
X63075Y28173D01*
Y26059D01*
X63183Y25517D01*
X63490Y25057D01*
X65957Y22591D01*
X66416Y22283D01*
X66959Y22176D01*
X68263D01*
X68805Y22283D01*
X69165Y22524D01*
X69271Y22565D01*
X69485Y22770D01*
X71934Y20320D01*
X71934Y20320D01*
X74178Y18076D01*
X78640Y22539D01*
X78669Y22543D01*
X78720Y22611D01*
X78798Y22643D01*
X78835Y22734D01*
X79205Y23104D01*
X79059Y23250D01*
X79407Y23649D01*
X79577Y23823D01*
X79600Y23880D01*
X80852Y25133D01*
X81138Y25560D01*
X81238Y26064D01*
Y27842D01*
X81338Y28346D01*
X81230Y28889D01*
X80923Y29348D01*
X80463Y29656D01*
X79921Y29763D01*
X79379Y29656D01*
X78919Y29348D01*
X78612Y28889D01*
X78504Y28346D01*
X78605Y27842D01*
Y26609D01*
X77738Y25742D01*
X77680Y25719D01*
X77503Y25545D01*
X77199Y25271D01*
X77126Y25213D01*
X76978Y25331D01*
X76832Y25477D01*
X77179Y25876D01*
X77350Y26050D01*
X77373Y26107D01*
X77703Y26437D01*
X77988Y26864D01*
X78088Y27368D01*
Y29921D01*
X77988Y30425D01*
X77703Y30852D01*
X77703Y30852D01*
X73729Y34826D01*
X73547Y35099D01*
X73652Y35296D01*
X74511D01*
X75880Y33927D01*
X76340Y33620D01*
X76882Y33512D01*
X84535D01*
X85078Y33620D01*
X85537Y33927D01*
X89978Y38368D01*
X90285Y38828D01*
X90393Y39370D01*
X90285Y39912D01*
X89978Y40372D01*
X89519Y40679D01*
X88976Y40787D01*
X88434Y40679D01*
X87974Y40372D01*
X85964Y38361D01*
X85785Y38461D01*
Y41306D01*
X85685Y41809D01*
X85400Y42237D01*
X78088Y49548D01*
Y53039D01*
X78189Y53543D01*
X78081Y54086D01*
X77774Y54545D01*
X77314Y54852D01*
X76772Y54960D01*
X76229Y54852D01*
X75770Y54545D01*
X75463Y54086D01*
X75355Y53543D01*
X75455Y53039D01*
Y49003D01*
X75555Y48499D01*
X75841Y48072D01*
X77522Y46390D01*
X77465Y46202D01*
X77410Y46191D01*
X77257Y46088D01*
X74322D01*
X72246Y48165D01*
X71818Y48451D01*
X71315Y48551D01*
X68440D01*
X68365Y48733D01*
X70280Y50648D01*
X72507Y52875D01*
X74734Y55102D01*
X76978Y57346D01*
X79205Y59573D01*
X78399Y60379D01*
X78379Y60448D01*
X78376Y60452D01*
X78399Y60508D01*
X78455Y60605D01*
X78544Y60729D01*
X78660Y60868D01*
X78955Y61065D01*
X79262Y61525D01*
X79370Y62067D01*
X79262Y62609D01*
X78955Y63069D01*
X78495Y63376D01*
X77953Y63484D01*
X77411Y63376D01*
X76951Y63069D01*
X76754Y62774D01*
X76615Y62658D01*
X76491Y62569D01*
X76393Y62513D01*
X76338Y62490D01*
X76334Y62493D01*
X76265Y62513D01*
X74178Y64601D01*
X71934Y62357D01*
X70199Y60622D01*
X70017Y60698D01*
Y61758D01*
X71145Y62885D01*
X71573Y63171D01*
X71880Y63631D01*
X71988Y64173D01*
X71880Y64715D01*
X71573Y65175D01*
X71113Y65482D01*
X70571Y65590D01*
X70451Y65566D01*
X70358Y65740D01*
X70624Y66006D01*
X74803D01*
X74857Y65982D01*
X75099Y65976D01*
X75288Y65959D01*
X75438Y65934D01*
X75547Y65905D01*
X75603Y65882D01*
X75604Y65877D01*
X75638Y65814D01*
Y64614D01*
X80898D01*
X81051Y64510D01*
X81067Y64432D01*
X81353Y64004D01*
X82305Y63052D01*
X82327Y62996D01*
X82494Y62820D01*
X82617Y62673D01*
X82707Y62547D01*
X82765Y62448D01*
X82790Y62388D01*
X82786Y62383D01*
X82774Y62339D01*
X80007Y59573D01*
X82234Y57346D01*
X84461Y55119D01*
X86705Y52875D01*
X91733Y57903D01*
X91159Y58477D01*
X91093Y58810D01*
X90785Y59270D01*
X90326Y59577D01*
X89992Y59643D01*
X88416Y61220D01*
X88403Y61238D01*
X88385Y61251D01*
X85581Y64055D01*
X85570Y64104D01*
X85518Y64138D01*
X85494Y64195D01*
X85404Y64232D01*
X85035Y64601D01*
X84814Y64380D01*
X84806Y64385D01*
X84702Y64460D01*
X84402Y64719D01*
X84228Y64888D01*
X84171Y64910D01*
X83600Y65481D01*
Y70321D01*
X91840Y78560D01*
X92022Y78485D01*
Y78136D01*
X89583Y75697D01*
X89156Y75411D01*
X88848Y74952D01*
X88740Y74410D01*
X88848Y73867D01*
X89156Y73408D01*
X89212Y73369D01*
X89155Y73181D01*
X86819D01*
Y64614D01*
X92079D01*
Y70400D01*
X92100Y70439D01*
X92101Y70446D01*
X92162Y70471D01*
X92273Y70501D01*
X92425Y70526D01*
X92616Y70543D01*
X92859Y70549D01*
X92914Y70573D01*
X93324D01*
X93828Y70673D01*
X94255Y70959D01*
X96389Y73093D01*
X98849D01*
X98868Y72896D01*
X98737Y72870D01*
X98310Y72584D01*
X94640Y68914D01*
X94354Y68487D01*
X94254Y67983D01*
Y65999D01*
X94230Y65943D01*
X94218Y65169D01*
X94181D01*
Y64679D01*
X94146Y64612D01*
X94155Y64583D01*
X94143Y64555D01*
X94181Y64464D01*
Y56878D01*
X102079D01*
Y64464D01*
X102116Y64555D01*
X102105Y64583D01*
X102114Y64612D01*
X102096Y64645D01*
X102079Y64927D01*
Y65169D01*
X102064D01*
X102031Y65693D01*
X102030Y65935D01*
X102006Y65993D01*
Y66188D01*
X102106Y66693D01*
X101998Y67235D01*
X101691Y67695D01*
X101554Y67786D01*
X101611Y67975D01*
X108999D01*
X109081Y67778D01*
X107364Y66061D01*
X107057Y65601D01*
X106971Y65169D01*
X104417D01*
Y56878D01*
X105926D01*
X106001Y56696D01*
X104510Y55205D01*
X104203Y54745D01*
X104095Y54203D01*
Y52835D01*
X104073Y52790D01*
X104060Y52531D01*
X104028Y52350D01*
X103982Y52212D01*
X103928Y52112D01*
X103867Y52038D01*
X103793Y51977D01*
X103693Y51924D01*
X103556Y51878D01*
X103375Y51846D01*
X103115Y51832D01*
X103070Y51811D01*
X103022Y51820D01*
X103007Y51811D01*
X100075D01*
X99533Y51703D01*
X99180Y51467D01*
X99074Y51427D01*
X98773Y51147D01*
X98666Y51061D01*
X98613Y51023D01*
X96170Y53465D01*
X93943Y55692D01*
X88916Y50665D01*
X91110Y48470D01*
X91101Y48425D01*
X91209Y47883D01*
X91516Y47423D01*
X91976Y47116D01*
X92518Y47008D01*
X92563Y47017D01*
X93537Y46043D01*
X93520Y46018D01*
X93087Y45521D01*
X92891Y45320D01*
X92870Y45268D01*
X92699Y45096D01*
X92699Y45096D01*
X91518Y43916D01*
X91518Y43915D01*
X91210Y43456D01*
X91199Y43401D01*
X91011Y43344D01*
X84211Y50143D01*
X83784Y50429D01*
X83280Y50529D01*
X81213D01*
X80708Y50630D01*
X80166Y50522D01*
X79707Y50214D01*
X79399Y49755D01*
X79291Y49213D01*
X79399Y48670D01*
X79707Y48210D01*
X80166Y47903D01*
X80708Y47796D01*
X81213Y47896D01*
X82735D01*
X90728Y39904D01*
X91155Y39618D01*
X91659Y39518D01*
X91659Y39518D01*
X93380D01*
X93381Y39518D01*
X94692D01*
X95196Y39618D01*
X95623Y39904D01*
X97065Y41345D01*
X97122Y41368D01*
X97300Y41542D01*
X97604Y41816D01*
X97693Y41888D01*
X97841Y41739D01*
X98211Y42110D01*
X98302Y42147D01*
X98334Y42225D01*
X98402Y42276D01*
X98406Y42305D01*
X100473Y44372D01*
X100581Y44444D01*
X101552Y45415D01*
X101638Y45434D01*
X101842Y45465D01*
X102425Y45504D01*
X102631Y45507D01*
X105762Y42376D01*
X106189Y42091D01*
X106693Y41991D01*
X115173D01*
X115222Y41967D01*
X115444Y41955D01*
X115591Y41929D01*
X115699Y41893D01*
X115773Y41853D01*
X115826Y41810D01*
X115869Y41758D01*
X115909Y41683D01*
X115945Y41576D01*
X115971Y41428D01*
X115983Y41206D01*
X116006Y41157D01*
Y40268D01*
X115906Y39764D01*
X116014Y39222D01*
X116321Y38762D01*
X116781Y38455D01*
X117323Y38347D01*
X117865Y38455D01*
X118325Y38762D01*
X118632Y39222D01*
X118740Y39764D01*
X118640Y40268D01*
Y41568D01*
X118663Y41620D01*
X118663Y41620D01*
X118672Y41868D01*
X118696Y42081D01*
X118735Y42286D01*
X118789Y42482D01*
X118858Y42671D01*
X118943Y42854D01*
X119043Y43030D01*
X119160Y43203D01*
X119295Y43371D01*
X119463Y43552D01*
X119483Y43606D01*
X122986Y47109D01*
X134147D01*
X134214Y47064D01*
X134756Y46956D01*
X135298Y47064D01*
X135758Y47371D01*
X136065Y47831D01*
X136173Y48373D01*
X136065Y48915D01*
X135758Y49375D01*
X135298Y49682D01*
X134756Y49790D01*
X134513Y49742D01*
X122441D01*
X121937Y49641D01*
X121510Y49356D01*
X119260Y47106D01*
X119071Y47163D01*
X119026Y47393D01*
X118719Y47852D01*
X115175Y51396D01*
X114716Y51703D01*
X114173Y51811D01*
X108016D01*
X108002Y51820D01*
X107953Y51811D01*
X107908Y51832D01*
X107649Y51846D01*
X107468Y51878D01*
X107330Y51924D01*
X107230Y51977D01*
X107156Y52038D01*
X107096Y52112D01*
X107042Y52212D01*
X106996Y52350D01*
X106964Y52531D01*
X106950Y52790D01*
X106929Y52835D01*
Y53616D01*
X109368Y56055D01*
X109675Y56515D01*
X109748Y56878D01*
X109756D01*
Y56920D01*
X109783Y57057D01*
Y61024D01*
Y64472D01*
X111238Y65927D01*
X111545Y66387D01*
X111653Y66929D01*
X111545Y67471D01*
X111340Y67778D01*
X111445Y67975D01*
X114139D01*
X114197Y67786D01*
X114069Y67701D01*
X114030Y67643D01*
X113931Y67577D01*
X112652Y66297D01*
X112366Y65870D01*
X112291Y65489D01*
X112242Y65377D01*
X112238Y65169D01*
X112094D01*
Y56878D01*
X119992D01*
Y65169D01*
X120168Y65219D01*
X121149D01*
X121653Y65118D01*
X122196Y65226D01*
X122655Y65534D01*
X122963Y65993D01*
X123071Y66535D01*
X122963Y67078D01*
X122655Y67537D01*
X122296Y67778D01*
X122355Y67975D01*
X127014D01*
X129637Y65351D01*
X129562Y65169D01*
X124890D01*
Y56878D01*
X130228D01*
Y58279D01*
X130425Y58338D01*
X130575Y58114D01*
X133419Y55270D01*
X133847Y54984D01*
X134350Y54884D01*
X134891D01*
X134949Y54860D01*
X135198Y54858D01*
X135717Y54835D01*
Y52154D01*
X138840D01*
X138977Y52126D01*
X142155D01*
Y40681D01*
X142262Y40138D01*
X142569Y39678D01*
X146165Y36084D01*
X146624Y35776D01*
X147166Y35669D01*
X148253D01*
X148303Y35646D01*
X148584Y35639D01*
X148808Y35619D01*
X148990Y35589D01*
X149126Y35553D01*
X149215Y35517D01*
X149253Y35494D01*
X149259Y35439D01*
X149281Y35400D01*
Y31906D01*
X149274Y31053D01*
X149243Y30978D01*
X149244Y30974D01*
X149243Y30970D01*
X149253Y30144D01*
X149239Y29776D01*
X149203D01*
Y29337D01*
X149199Y29315D01*
X149203Y29298D01*
Y29252D01*
X149166Y29161D01*
X149197Y29085D01*
X149185Y29003D01*
X149203Y28978D01*
Y21209D01*
X154463D01*
Y25263D01*
X154504Y25569D01*
Y26974D01*
X154531Y27040D01*
X154535Y29044D01*
X154561Y30794D01*
X154568Y30895D01*
X154557Y30927D01*
X154578Y30978D01*
X154540Y31069D01*
Y38931D01*
X150055D01*
X150015Y38957D01*
X149952Y38944D01*
X149892Y38968D01*
X149802Y38931D01*
X149281D01*
Y38602D01*
X149206Y38585D01*
X149051Y38561D01*
X148592Y38529D01*
X148310Y38525D01*
X148259Y38502D01*
X147753D01*
X144989Y41267D01*
Y53543D01*
Y76055D01*
X146826Y77893D01*
X151357D01*
X151899Y78000D01*
X152359Y78308D01*
X154352Y80301D01*
X154659Y80761D01*
X154767Y81303D01*
Y82880D01*
X154790Y82930D01*
X154796Y83211D01*
X154814Y83438D01*
X154842Y83624D01*
X154875Y83765D01*
X154909Y83857D01*
X154918Y83874D01*
X154974Y83906D01*
X155453D01*
Y84429D01*
X155490Y84520D01*
X155475Y84557D01*
X155486Y84597D01*
X155453Y84656D01*
Y90110D01*
X151248D01*
Y84656D01*
X151215Y84597D01*
X151226Y84557D01*
X151210Y84520D01*
X151248Y84429D01*
Y83906D01*
X151727D01*
X151783Y83874D01*
X151792Y83857D01*
X151825Y83765D01*
X151859Y83624D01*
X151887Y83438D01*
X151905Y83211D01*
X151911Y82930D01*
X151933Y82880D01*
Y81890D01*
X150770Y80727D01*
X146239D01*
X145696Y80619D01*
X145237Y80312D01*
X142569Y77644D01*
X142262Y77185D01*
X142155Y76642D01*
Y62610D01*
X135717D01*
Y60891D01*
X135535Y60815D01*
X135175Y61175D01*
Y67717D01*
X135075Y68221D01*
X134789Y68648D01*
X130852Y72584D01*
X130425Y72870D01*
X129921Y72970D01*
X127558D01*
X127538Y73167D01*
X127669Y73193D01*
X128096Y73478D01*
X130065Y75447D01*
X130350Y75874D01*
X130450Y76378D01*
Y81102D01*
X130350Y81606D01*
X130065Y82033D01*
X127627Y84471D01*
X127632Y84831D01*
X128191D01*
X128198Y84826D01*
X128740Y84718D01*
X129282Y84826D01*
X129289Y84831D01*
X130228D01*
Y93122D01*
X121298D01*
X121161Y93149D01*
X121025Y93122D01*
X114654D01*
Y84831D01*
X117228D01*
X117261Y84307D01*
X117261Y84065D01*
X117286Y84007D01*
Y82972D01*
X117386Y82469D01*
X117671Y82041D01*
X120759Y78953D01*
X121045Y78526D01*
X121255Y78386D01*
X121195Y78189D01*
X110728D01*
X110186Y78081D01*
X109726Y77774D01*
X109419Y77314D01*
X109311Y76772D01*
X109419Y76229D01*
X109624Y75923D01*
X109519Y75726D01*
X95844D01*
X95340Y75626D01*
X94913Y75340D01*
X92803Y73230D01*
X91516Y73223D01*
X91502Y73217D01*
X91487Y73222D01*
X91446Y73220D01*
X91417Y73206D01*
X91397D01*
X91372Y73212D01*
X91358Y73210D01*
X91267Y73242D01*
X91239Y73285D01*
X91193Y73457D01*
X91445Y73835D01*
X94269Y76659D01*
X94555Y77086D01*
X94655Y77590D01*
Y84790D01*
X94655Y84790D01*
X94688Y84831D01*
X112315D01*
Y93122D01*
X95635D01*
X95560Y93304D01*
X97396Y95140D01*
X109683D01*
X110187Y95240D01*
X110614Y95526D01*
X116065Y100977D01*
X116115Y100995D01*
X116226Y101093D01*
X116336Y101175D01*
X118636Y102382D01*
X119120Y102598D01*
X119123Y102601D01*
X119127Y102602D01*
X119204Y102686D01*
X119497Y102807D01*
X120332Y103448D01*
X120973Y104283D01*
X121375Y105255D01*
X121513Y106299D01*
X121375Y107343D01*
X120973Y108316D01*
X120332Y109151D01*
X119497Y109792D01*
X118524Y110194D01*
X117480Y110332D01*
D02*
G37*
G36*
X11478Y110297D02*
X3482D01*
Y103061D01*
X3452Y103010D01*
X3464Y102962D01*
X3445Y102916D01*
X3482Y102825D01*
Y102301D01*
X3951D01*
X4002Y102270D01*
X4170Y102246D01*
X4233Y102215D01*
X4319Y102135D01*
X4428Y101971D01*
X4544Y101707D01*
X4651Y101344D01*
X4738Y100895D01*
X4846Y99691D01*
X4860Y98966D01*
X4887Y98904D01*
Y97420D01*
X4887Y97420D01*
X4976Y96749D01*
X5235Y96123D01*
X5647Y95586D01*
X6198Y95035D01*
Y93598D01*
X7686D01*
X8004Y93354D01*
X8629Y93095D01*
X9300Y93007D01*
X9971Y93095D01*
X10597Y93354D01*
X10914Y93598D01*
X12402D01*
Y97802D01*
X10765D01*
X10073Y98494D01*
Y98904D01*
X10101Y98966D01*
X10115Y99700D01*
X10155Y100336D01*
X10221Y100886D01*
X10310Y101344D01*
X10416Y101707D01*
X10532Y101971D01*
X10642Y102135D01*
X10728Y102215D01*
X10791Y102246D01*
X10958Y102270D01*
X11010Y102301D01*
X11478D01*
Y102825D01*
X11516Y102916D01*
X11497Y102962D01*
X11509Y103010D01*
X11478Y103061D01*
Y110297D01*
D02*
G37*
G36*
X22945Y95189D02*
X18000D01*
Y91891D01*
X17968Y91813D01*
X17879Y91142D01*
Y89222D01*
X17687Y89035D01*
X17514Y89039D01*
X16890Y89095D01*
X16356Y89183D01*
X15914Y89302D01*
X15568Y89444D01*
X15314Y89599D01*
X15142Y89759D01*
X15033Y89922D01*
X14968Y90108D01*
X14936Y90405D01*
X14902Y90468D01*
Y92302D01*
X3698D01*
Y80586D01*
X14902D01*
Y82332D01*
X14936Y82395D01*
X14968Y82692D01*
X15033Y82878D01*
X15142Y83041D01*
X15314Y83201D01*
X15568Y83356D01*
X15914Y83498D01*
X16356Y83617D01*
X16890Y83706D01*
X17514Y83761D01*
X18242Y83780D01*
X18303Y83807D01*
X18900D01*
X18900Y83807D01*
X19571Y83895D01*
X20197Y84154D01*
X20734Y84566D01*
X22306Y86139D01*
X22306Y86139D01*
X22718Y86676D01*
X22892Y87094D01*
X22945D01*
Y87224D01*
X22977Y87301D01*
X23065Y87972D01*
X23065Y87972D01*
Y91142D01*
X22977Y91813D01*
X22945Y91891D01*
Y95189D01*
D02*
G37*
G36*
X121653Y102992D02*
X121111Y102884D01*
X120652Y102577D01*
X120344Y102117D01*
X120237Y101575D01*
X120344Y101032D01*
X120652Y100573D01*
X120713Y100512D01*
X121172Y100205D01*
X121715Y100097D01*
X129002D01*
X137183Y91916D01*
X137185Y91906D01*
X137213Y91885D01*
X137241Y91857D01*
X137260Y91807D01*
X137846Y91178D01*
X138048Y90928D01*
X138203Y90709D01*
X138236Y90650D01*
Y90138D01*
X138215Y90100D01*
X138230Y90045D01*
X138211Y89992D01*
X138236Y89939D01*
Y81406D01*
X149953D01*
Y92610D01*
X141507D01*
X141503Y92613D01*
X141479Y92610D01*
X141447D01*
X141408Y92632D01*
X141334Y92610D01*
X140754D01*
X140586Y92707D01*
X140381Y92849D01*
X139856Y93292D01*
X139559Y93579D01*
X139507Y93599D01*
X130590Y102516D01*
X130131Y102823D01*
X129589Y102931D01*
X121960D01*
X121653Y102992D01*
D02*
G37*
G36*
X13347Y78776D02*
X5253D01*
Y70879D01*
X13347D01*
Y78776D01*
D02*
G37*
G36*
X135642Y36823D02*
X127744D01*
Y28728D01*
X135642D01*
Y36823D01*
D02*
G37*
G36*
X97841Y40938D02*
X95597Y38694D01*
X93370Y36467D01*
X91143Y34240D01*
X88932Y32029D01*
X86689Y29785D01*
X84461Y27558D01*
X82234Y25331D01*
X80007Y23104D01*
X82640Y20471D01*
X82712Y20364D01*
X83600Y19475D01*
X83600Y19475D01*
X83601Y19474D01*
X84002Y19073D01*
X84035Y18883D01*
X84086Y18242D01*
X84092Y17847D01*
X84101Y17828D01*
X84094Y17808D01*
X84116Y17763D01*
Y14719D01*
X80451Y11053D01*
X80402Y11037D01*
X80235Y10890D01*
X80072Y10780D01*
X79879Y10678D01*
X79653Y10586D01*
X79393Y10507D01*
X79099Y10442D01*
X78779Y10393D01*
X78006Y10343D01*
X77574Y10346D01*
X77525Y10326D01*
X77480Y10332D01*
X76437Y10194D01*
X75464Y9792D01*
X74629Y9151D01*
X73988Y8315D01*
X73585Y7343D01*
X73448Y6299D01*
X73585Y5255D01*
X73988Y4283D01*
X74629Y3448D01*
X75464Y2807D01*
X76437Y2404D01*
X77480Y2267D01*
X78524Y2404D01*
X79497Y2807D01*
X80332Y3448D01*
X80973Y4283D01*
X81375Y5255D01*
X81498Y6185D01*
X81527Y6247D01*
X81568Y7117D01*
X81610Y7478D01*
X81668Y7812D01*
X81740Y8111D01*
X81825Y8375D01*
X81920Y8604D01*
X82024Y8799D01*
X82135Y8961D01*
X82280Y9126D01*
X82297Y9175D01*
X86364Y13242D01*
X86650Y13669D01*
X86750Y14173D01*
X86750Y14173D01*
Y17895D01*
X86774Y17950D01*
X86799Y19010D01*
X86842Y19513D01*
X86868Y19693D01*
X86896Y19829D01*
X86920Y19909D01*
X86924Y19918D01*
X86937Y19937D01*
X86938Y19939D01*
X86940Y19940D01*
X86947Y19971D01*
X86952Y19982D01*
X86952Y19993D01*
X86952Y19994D01*
X87279Y20320D01*
X87279D01*
X87279Y20320D01*
X87429Y20431D01*
X87660Y20231D01*
Y11773D01*
X87646Y11751D01*
X87654Y11713D01*
X87637Y11677D01*
X87621Y11433D01*
X87584Y11252D01*
X87524Y11090D01*
X87441Y10938D01*
X87330Y10794D01*
X87186Y10652D01*
X87005Y10515D01*
X86782Y10382D01*
X86518Y10257D01*
X86187Y10134D01*
X86103Y10056D01*
X85464Y9792D01*
X84629Y9151D01*
X83988Y8315D01*
X83585Y7343D01*
X83448Y6299D01*
X83585Y5255D01*
X83988Y4283D01*
X84629Y3448D01*
X85464Y2807D01*
X86437Y2404D01*
X87480Y2267D01*
X88524Y2404D01*
X89497Y2807D01*
X90332Y3448D01*
X90973Y4283D01*
X91375Y5255D01*
X91513Y6299D01*
X91375Y7343D01*
X91269Y7599D01*
X91276Y7706D01*
X90774Y9152D01*
X90546Y9950D01*
X90396Y10633D01*
X90352Y10915D01*
X90326Y11168D01*
X90317Y11410D01*
X90293Y11462D01*
Y20833D01*
X90193Y21337D01*
X89907Y21764D01*
X89900Y21771D01*
X89877Y21829D01*
X89703Y22006D01*
X89429Y22310D01*
X89358Y22399D01*
X89635Y22677D01*
X90034Y22329D01*
X90208Y22160D01*
X90265Y22136D01*
X96164Y16238D01*
Y11750D01*
X96141Y11704D01*
X96126Y11483D01*
X96090Y11290D01*
X96026Y11080D01*
X95931Y10853D01*
X95803Y10610D01*
X95642Y10352D01*
X95451Y10086D01*
X94943Y9492D01*
X94638Y9181D01*
X94622Y9142D01*
X93988Y8315D01*
X93585Y7343D01*
X93448Y6299D01*
X93585Y5255D01*
X93988Y4283D01*
X94629Y3448D01*
X95464Y2807D01*
X96437Y2404D01*
X97480Y2267D01*
X98524Y2404D01*
X99497Y2807D01*
X100332Y3448D01*
X100973Y4283D01*
X101375Y5255D01*
X101513Y6299D01*
X101375Y7343D01*
X100973Y8315D01*
X100348Y9129D01*
X100332Y9171D01*
X99741Y9800D01*
X99515Y10079D01*
X99319Y10352D01*
X99157Y10610D01*
X99030Y10853D01*
X98935Y11080D01*
X98871Y11290D01*
X98834Y11483D01*
X98820Y11704D01*
X98797Y11750D01*
Y16783D01*
X98697Y17287D01*
X98411Y17714D01*
X92127Y23998D01*
X92104Y24056D01*
X91930Y24234D01*
X91656Y24537D01*
X91585Y24626D01*
X91862Y24904D01*
X92261Y24557D01*
X92435Y24387D01*
X92492Y24363D01*
X106367Y10489D01*
X106336Y10395D01*
X106298Y10312D01*
X106256Y10247D01*
X106211Y10195D01*
X106160Y10151D01*
X106098Y10112D01*
X105983Y10059D01*
X105922Y9992D01*
X105835Y9965D01*
X105823Y9940D01*
X105464Y9792D01*
X104629Y9151D01*
X103988Y8315D01*
X103585Y7343D01*
X103448Y6299D01*
X103585Y5255D01*
X103988Y4283D01*
X104629Y3448D01*
X105464Y2807D01*
X106437Y2404D01*
X107480Y2267D01*
X108524Y2404D01*
X109497Y2807D01*
X110332Y3448D01*
X110973Y4283D01*
X111375Y5255D01*
X111513Y6299D01*
X111375Y7343D01*
X110973Y8315D01*
X110332Y9151D01*
X109717Y9623D01*
X109711Y9640D01*
X109657Y9668D01*
X109621Y9696D01*
X109581Y9758D01*
X109471Y9833D01*
X109405Y9892D01*
X109345Y9961D01*
X109290Y10043D01*
X109240Y10142D01*
X109195Y10261D01*
X109158Y10401D01*
X109129Y10563D01*
X109111Y10748D01*
X109104Y10975D01*
X109054Y11086D01*
X108980Y11458D01*
X108694Y11886D01*
X94354Y26226D01*
X94331Y26283D01*
X94157Y26461D01*
X93883Y26764D01*
X93825Y26837D01*
X93943Y26985D01*
X93943Y26985D01*
X93943Y26985D01*
X94090Y27131D01*
X94488Y26784D01*
X94662Y26614D01*
X94719Y26591D01*
X97925Y23385D01*
X98211Y22957D01*
X98670Y22650D01*
X99213Y22542D01*
X99717Y22643D01*
X103448D01*
X115313Y10778D01*
X115312Y10763D01*
X115268Y10524D01*
X115207Y10291D01*
X115128Y10064D01*
X115031Y9841D01*
X114917Y9623D01*
X114783Y9409D01*
X114630Y9198D01*
X114443Y8974D01*
X114428Y8927D01*
X114388Y8898D01*
X114376Y8821D01*
X113988Y8315D01*
X113585Y7343D01*
X113448Y6299D01*
X113585Y5255D01*
X113988Y4283D01*
X114629Y3448D01*
X115464Y2807D01*
X116437Y2404D01*
X117480Y2267D01*
X118524Y2404D01*
X119497Y2807D01*
X120332Y3448D01*
X120973Y4283D01*
X121375Y5255D01*
X121513Y6299D01*
X121375Y7343D01*
X120973Y8315D01*
X120332Y9151D01*
X119497Y9792D01*
X119104Y9954D01*
X119058Y10017D01*
X119012Y10025D01*
X118980Y10058D01*
X118754Y10158D01*
X118584Y10253D01*
X118443Y10353D01*
X118328Y10457D01*
X118237Y10564D01*
X118165Y10676D01*
X118108Y10798D01*
X118067Y10935D01*
X118040Y11089D01*
X118029Y11299D01*
X117977Y11408D01*
X117905Y11768D01*
X117620Y12195D01*
X104924Y24890D01*
X104497Y25176D01*
X103993Y25276D01*
X99758D01*
X96581Y28453D01*
X96558Y28510D01*
X96384Y28688D01*
X96110Y28991D01*
X96039Y29081D01*
X96317Y29358D01*
X96715Y29011D01*
X96889Y28841D01*
X96947Y28818D01*
X97168Y28597D01*
X97595Y28311D01*
X98099Y28211D01*
X103785D01*
X122726Y9270D01*
X122743Y9221D01*
X122890Y9054D01*
X123000Y8891D01*
X123102Y8698D01*
X123193Y8472D01*
X123273Y8212D01*
X123338Y7918D01*
X123386Y7598D01*
X123436Y6825D01*
X123434Y6393D01*
X123454Y6344D01*
X123448Y6299D01*
X123585Y5255D01*
X123988Y4283D01*
X124629Y3448D01*
X125464Y2807D01*
X126437Y2404D01*
X127480Y2267D01*
X128524Y2404D01*
X129497Y2807D01*
X130332Y3448D01*
X130973Y4283D01*
X131375Y5255D01*
X131513Y6299D01*
X131375Y7343D01*
X130973Y8315D01*
X130332Y9151D01*
X129497Y9792D01*
X128524Y10194D01*
X127595Y10317D01*
X127532Y10346D01*
X126663Y10386D01*
X126302Y10429D01*
X125968Y10487D01*
X125669Y10559D01*
X125405Y10644D01*
X125176Y10739D01*
X124981Y10843D01*
X124819Y10954D01*
X124654Y11099D01*
X124605Y11116D01*
X105262Y30459D01*
X104943Y30672D01*
X105003Y30868D01*
X105459D01*
X109342Y26985D01*
X109628Y26557D01*
X110056Y26271D01*
X118754Y17573D01*
X119181Y17288D01*
X119685Y17187D01*
X128588D01*
X135553Y10223D01*
X135547Y10177D01*
X135522Y10048D01*
X135492Y9944D01*
X135463Y9867D01*
X135436Y9816D01*
X135416Y9789D01*
X135406Y9778D01*
X135356Y9742D01*
X135317Y9679D01*
X134629Y9151D01*
X133988Y8315D01*
X133585Y7343D01*
X133448Y6299D01*
X133585Y5255D01*
X133988Y4283D01*
X134629Y3448D01*
X135464Y2807D01*
X136437Y2404D01*
X137480Y2267D01*
X138524Y2404D01*
X139497Y2807D01*
X140332Y3448D01*
X140973Y4283D01*
X141375Y5255D01*
X141513Y6299D01*
X141375Y7343D01*
X140973Y8315D01*
X140332Y9151D01*
X139497Y9792D01*
X138524Y10194D01*
X138421Y10208D01*
X138376Y10244D01*
X138338Y10256D01*
X138335Y10260D01*
X138319Y10297D01*
X138300Y10361D01*
X138283Y10453D01*
X138270Y10571D01*
X138265Y10733D01*
X138215Y10844D01*
X138141Y11217D01*
X137856Y11644D01*
X130065Y19435D01*
X129638Y19720D01*
X129134Y19821D01*
X120230D01*
X111918Y28133D01*
X111632Y28561D01*
X111204Y28847D01*
X107017Y33034D01*
X107099Y33231D01*
X109199D01*
X109815Y32614D01*
X110022Y32305D01*
X110331Y32099D01*
X120526Y21904D01*
X120953Y21618D01*
X121457Y21518D01*
X130400D01*
X142695Y9223D01*
X142711Y9174D01*
X142857Y9008D01*
X142968Y8845D01*
X143071Y8651D01*
X143164Y8424D01*
X143246Y8162D01*
X143315Y7865D01*
X143367Y7542D01*
X143429Y6763D01*
X143433Y6327D01*
X143449Y6288D01*
X143585Y5255D01*
X143988Y4283D01*
X144629Y3448D01*
X145464Y2807D01*
X146437Y2404D01*
X147480Y2267D01*
X148524Y2404D01*
X149497Y2807D01*
X150332Y3448D01*
X150973Y4283D01*
X151375Y5255D01*
X151513Y6299D01*
X151375Y7343D01*
X150973Y8315D01*
X150332Y9151D01*
X149497Y9792D01*
X148524Y10194D01*
X147507Y10328D01*
X147467Y10346D01*
X146603Y10373D01*
X146246Y10411D01*
X145915Y10465D01*
X145618Y10533D01*
X145356Y10615D01*
X145128Y10709D01*
X144934Y10812D01*
X144772Y10922D01*
X144606Y11068D01*
X144557Y11085D01*
X131876Y23766D01*
X131449Y24051D01*
X130945Y24151D01*
X122002D01*
X112340Y33813D01*
X112333Y33849D01*
X112026Y34309D01*
X111566Y34616D01*
X111530Y34623D01*
X110675Y35478D01*
X110248Y35764D01*
X109744Y35864D01*
X103045D01*
X102868Y35910D01*
X102868D01*
X102868Y35910D01*
X102460Y36318D01*
X102440Y36367D01*
X102391Y36388D01*
X102369Y36410D01*
X102345Y36446D01*
X102330Y36449D01*
X97841Y40938D01*
D02*
G37*
G36*
X37480Y10332D02*
X36437Y10194D01*
X35464Y9792D01*
X34629Y9151D01*
X33988Y8315D01*
X33585Y7343D01*
X33448Y6299D01*
X33585Y5255D01*
X33988Y4283D01*
X34629Y3448D01*
X35464Y2807D01*
X36437Y2404D01*
X37480Y2267D01*
X38524Y2404D01*
X39497Y2807D01*
X40332Y3448D01*
X40973Y4283D01*
X41375Y5255D01*
X41513Y6299D01*
X41375Y7343D01*
X40973Y8315D01*
X40332Y9151D01*
X39497Y9792D01*
X38524Y10194D01*
X37480Y10332D01*
D02*
G37*
G36*
X27480D02*
X26437Y10194D01*
X25464Y9792D01*
X24629Y9151D01*
X23988Y8315D01*
X23585Y7343D01*
X23448Y6299D01*
X23585Y5255D01*
X23988Y4283D01*
X24629Y3448D01*
X25464Y2807D01*
X26437Y2404D01*
X27480Y2267D01*
X28524Y2404D01*
X29497Y2807D01*
X30332Y3448D01*
X30973Y4283D01*
X31375Y5255D01*
X31513Y6299D01*
X31375Y7343D01*
X30973Y8315D01*
X30332Y9151D01*
X29497Y9792D01*
X28524Y10194D01*
X27480Y10332D01*
D02*
G37*
%LPD*%
G36*
X97446Y102904D02*
X96988Y102899D01*
X96159Y102834D01*
X95789Y102774D01*
X95447Y102695D01*
X95134Y102597D01*
X94851Y102481D01*
X94597Y102346D01*
X94372Y102192D01*
X94176Y102020D01*
X93201Y102995D01*
X93373Y103191D01*
X93527Y103416D01*
X93662Y103670D01*
X93778Y103953D01*
X93876Y104266D01*
X93955Y104607D01*
X94015Y104978D01*
X94057Y105378D01*
X94085Y106265D01*
X97446Y102904D01*
D02*
G37*
G36*
X108513Y103054D02*
X108462Y103006D01*
X108416Y102940D01*
X108377Y102856D01*
X108344Y102753D01*
X108316Y102633D01*
X108295Y102494D01*
X108280Y102337D01*
X108268Y101969D01*
X106693D01*
X106690Y102162D01*
X106666Y102494D01*
X106644Y102633D01*
X106617Y102753D01*
X106584Y102856D01*
X106544Y102940D01*
X106499Y103006D01*
X106447Y103054D01*
X106389Y103084D01*
X108571D01*
X108513Y103054D01*
D02*
G37*
G36*
X118853Y103193D02*
X118351Y102968D01*
X115987Y101728D01*
X115814Y101599D01*
X115682Y101482D01*
X114234Y101983D01*
X114426Y102200D01*
X114578Y102433D01*
X114693Y102680D01*
X114769Y102942D01*
X114807Y103218D01*
X114807Y103510D01*
X114768Y103816D01*
X114691Y104137D01*
X114576Y104472D01*
X114423Y104823D01*
X118853Y103193D01*
D02*
G37*
G36*
X88853Y103193D02*
X88351Y102968D01*
X85987Y101728D01*
X85814Y101599D01*
X85683Y101482D01*
X84235Y101982D01*
X84426Y102200D01*
X84579Y102433D01*
X84693Y102680D01*
X84770Y102942D01*
X84808Y103218D01*
X84807Y103509D01*
X84769Y103816D01*
X84692Y104136D01*
X84576Y104472D01*
X84423Y104822D01*
X88853Y103193D01*
D02*
G37*
G36*
X79313Y103406D02*
X79073Y103175D01*
X78861Y102937D01*
X78678Y102693D01*
X78522Y102443D01*
X78395Y102187D01*
X78296Y101925D01*
X78226Y101657D01*
X78183Y101383D01*
X78169Y101102D01*
X76791D01*
X76777Y101383D01*
X76735Y101657D01*
X76664Y101925D01*
X76565Y102187D01*
X76438Y102443D01*
X76283Y102693D01*
X76099Y102937D01*
X75887Y103175D01*
X75647Y103406D01*
X75379Y103632D01*
X79582D01*
X79313Y103406D01*
D02*
G37*
G36*
X69537Y103547D02*
X68996Y102915D01*
X68777Y102610D01*
X68591Y102313D01*
X68439Y102023D01*
X68321Y101740D01*
X68237Y101465D01*
X68186Y101197D01*
X68169Y100937D01*
X66791D01*
X66774Y101197D01*
X66724Y101465D01*
X66639Y101740D01*
X66521Y102023D01*
X66369Y102313D01*
X66184Y102610D01*
X65964Y102915D01*
X65711Y103227D01*
X65103Y103874D01*
X69857D01*
X69537Y103547D01*
D02*
G37*
G36*
X89883Y93720D02*
Y80328D01*
X88265Y78709D01*
X88091Y78802D01*
X88115Y78925D01*
X88115Y78925D01*
Y85571D01*
X88139Y85625D01*
X88146Y85869D01*
X88162Y86061D01*
X88188Y86213D01*
X88217Y86324D01*
X88241Y86383D01*
X88245Y86383D01*
X88286Y86405D01*
X89284D01*
Y89046D01*
X89309Y89173D01*
X89284Y89300D01*
Y93709D01*
X89436Y93834D01*
X89555Y93810D01*
X89731Y93845D01*
X89883Y93720D01*
D02*
G37*
G36*
X63602Y93109D02*
X64108Y92680D01*
X64332Y92524D01*
X64537Y92407D01*
X64722Y92329D01*
X64888Y92290D01*
X65034D01*
X65161Y92329D01*
X65268Y92407D01*
X63319Y90459D01*
X63397Y90566D01*
X63436Y90692D01*
Y90839D01*
X63397Y91004D01*
X63319Y91189D01*
X63202Y91394D01*
X63046Y91618D01*
X62851Y91862D01*
X62345Y92407D01*
X63319Y93382D01*
X63602Y93109D01*
D02*
G37*
G36*
X88046Y87018D02*
X87929Y86976D01*
X87825Y86907D01*
X87736Y86809D01*
X87660Y86684D01*
X87598Y86532D01*
X87550Y86351D01*
X87515Y86142D01*
X87494Y85906D01*
X87488Y85642D01*
X86110D01*
X86103Y85906D01*
X86082Y86142D01*
X86048Y86351D01*
X85999Y86532D01*
X85937Y86684D01*
X85862Y86809D01*
X85772Y86907D01*
X85669Y86976D01*
X85552Y87018D01*
X85421Y87032D01*
X88177D01*
X88046Y87018D01*
D02*
G37*
G36*
X50744Y86414D02*
X50646Y86372D01*
X50559Y86303D01*
X50484Y86207D01*
X50420Y86083D01*
X50368Y85931D01*
X50328Y85752D01*
X50299Y85545D01*
X50281Y85311D01*
X50276Y85049D01*
X48898D01*
X48892Y85311D01*
X48846Y85752D01*
X48805Y85931D01*
X48753Y86083D01*
X48689Y86207D01*
X48614Y86303D01*
X48527Y86372D01*
X48429Y86414D01*
X48319Y86427D01*
X50854D01*
X50744Y86414D01*
D02*
G37*
G36*
X127039Y85431D02*
X127024Y85390D01*
X127011Y85321D01*
X127000Y85225D01*
X126982Y84949D01*
X126969Y84067D01*
X125591D01*
X125590Y84329D01*
X125521Y85431D01*
X125504Y85445D01*
X127055D01*
X127039Y85431D01*
D02*
G37*
G36*
X119361D02*
X119347Y85390D01*
X119334Y85321D01*
X119323Y85225D01*
X119305Y84949D01*
X119291Y84067D01*
X117913D01*
X117912Y84329D01*
X117843Y85431D01*
X117827Y85445D01*
X119378D01*
X119361Y85431D01*
D02*
G37*
G36*
X154705Y84504D02*
X154586Y84457D01*
X154481Y84378D01*
X154390Y84268D01*
X154313Y84126D01*
X154250Y83953D01*
X154201Y83748D01*
X154166Y83512D01*
X154145Y83244D01*
X154138Y82945D01*
X152563D01*
X152556Y83244D01*
X152535Y83512D01*
X152500Y83748D01*
X152451Y83953D01*
X152388Y84126D01*
X152311Y84268D01*
X152220Y84378D01*
X152115Y84457D01*
X151996Y84504D01*
X151862Y84520D01*
X154838D01*
X154705Y84504D01*
D02*
G37*
G36*
X73622Y83006D02*
X73658Y82937D01*
X73717Y82876D01*
X73801Y82823D01*
X73908Y82779D01*
X74040Y82742D01*
X74195Y82714D01*
X74374Y82693D01*
X74576Y82681D01*
X74803Y82677D01*
Y81102D01*
X74576Y81098D01*
X74195Y81066D01*
X74040Y81037D01*
X73908Y81001D01*
X73801Y80956D01*
X73717Y80904D01*
X73658Y80843D01*
X73622Y80774D01*
X73610Y80697D01*
Y83083D01*
X73622Y83006D01*
D02*
G37*
G36*
X83280Y73724D02*
X81353Y71797D01*
X81094Y71411D01*
X80898Y71451D01*
Y73181D01*
X75638D01*
Y68832D01*
X75604Y68769D01*
X75603Y68764D01*
X75547Y68741D01*
X75438Y68712D01*
X75288Y68687D01*
X75099Y68670D01*
X74857Y68664D01*
X74803Y68639D01*
X70365D01*
X70290Y68821D01*
X75342Y73874D01*
X83064D01*
X83187Y73898D01*
X83280Y73724D01*
D02*
G37*
G36*
X92842Y71201D02*
X92579Y71194D01*
X92343Y71173D01*
X92135Y71139D01*
X91955Y71091D01*
X91802Y71029D01*
X91677Y70953D01*
X91579Y70863D01*
X91509Y70760D01*
X91467Y70643D01*
X91452Y70512D01*
X91464Y72567D01*
X91478Y72569D01*
X91519Y72571D01*
X92842Y72579D01*
Y71201D01*
D02*
G37*
G36*
X35815Y69771D02*
X33465Y69760D01*
X33614Y69776D01*
X33748Y69824D01*
X33866Y69904D01*
X33968Y70015D01*
X34055Y70158D01*
X34126Y70333D01*
X34181Y70539D01*
X34220Y70776D01*
X34244Y71046D01*
X34252Y71346D01*
X35827D01*
X35815Y69771D01*
D02*
G37*
G36*
X28760Y72959D02*
X28819Y72288D01*
X28917Y71696D01*
X29055Y71183D01*
X29232Y70748D01*
X29449Y70393D01*
X29705Y70116D01*
X30000Y69918D01*
X30335Y69800D01*
X30709Y69760D01*
X23240Y69771D01*
X23537Y69811D01*
X23803Y69929D01*
X24037Y70126D01*
X24240Y70401D01*
X24412Y70756D01*
X24553Y71189D01*
X24663Y71701D01*
X24741Y72291D01*
X24788Y72961D01*
X24803Y73708D01*
X28740D01*
X28760Y72959D01*
D02*
G37*
G36*
X65856Y69310D02*
X65898Y69193D01*
X65967Y69090D01*
X66065Y69000D01*
X66190Y68924D01*
X66343Y68862D01*
X66523Y68814D01*
X66732Y68779D01*
X66968Y68759D01*
X67232Y68752D01*
Y67374D01*
X66968Y67367D01*
X66732Y67347D01*
X66523Y67312D01*
X66343Y67264D01*
X66190Y67202D01*
X66065Y67126D01*
X65967Y67036D01*
X65898Y66933D01*
X65856Y66816D01*
X65842Y66685D01*
Y69441D01*
X65856Y69310D01*
D02*
G37*
G36*
X76252Y65945D02*
X76238Y66076D01*
X76197Y66193D01*
X76128Y66296D01*
X76032Y66386D01*
X75908Y66462D01*
X75756Y66524D01*
X75577Y66572D01*
X75370Y66606D01*
X75136Y66627D01*
X74874Y66634D01*
Y68012D01*
X75136Y68019D01*
X75370Y68039D01*
X75577Y68074D01*
X75756Y68122D01*
X75908Y68184D01*
X76032Y68260D01*
X76128Y68349D01*
X76197Y68453D01*
X76238Y68570D01*
X76252Y68701D01*
Y65945D01*
D02*
G37*
G36*
X12730Y66633D02*
X12756Y66617D01*
X12801Y66604D01*
X12863Y66592D01*
X12943Y66582D01*
X13157Y66568D01*
X13610Y66560D01*
Y64985D01*
X13441Y64984D01*
X12801Y64941D01*
X12756Y64928D01*
X12730Y64912D01*
X12721Y64895D01*
Y66650D01*
X12730Y66633D01*
D02*
G37*
G36*
X101379Y65671D02*
X101448Y64569D01*
X101464Y64555D01*
X99914D01*
X99930Y64569D01*
X99945Y64610D01*
X99958Y64679D01*
X99969Y64775D01*
X99986Y65051D01*
X100000Y65933D01*
X101378D01*
X101379Y65671D01*
D02*
G37*
G36*
X98820D02*
X98889Y64569D01*
X98905Y64555D01*
X97355D01*
X97371Y64569D01*
X97386Y64610D01*
X97399Y64679D01*
X97410Y64775D01*
X97427Y65051D01*
X97441Y65933D01*
X98819D01*
X98820Y65671D01*
D02*
G37*
G36*
X96261D02*
X96330Y64569D01*
X96346Y64555D01*
X94796D01*
X94812Y64569D01*
X94827Y64610D01*
X94840Y64679D01*
X94851Y64775D01*
X94868Y65051D01*
X94882Y65933D01*
X96260D01*
X96261Y65671D01*
D02*
G37*
G36*
X114260Y64555D02*
X112771Y64543D01*
X112795Y64551D01*
X112815Y64576D01*
X112834Y64617D01*
X112850Y64675D01*
X112863Y64749D01*
X112874Y64840D01*
X112889Y65070D01*
X112894Y65366D01*
X114272D01*
X114260Y64555D01*
D02*
G37*
G36*
X59589Y65085D02*
X59576Y65077D01*
X59544Y65049D01*
X59217Y64735D01*
X58577Y64099D01*
X57584Y65054D01*
X58331Y65827D01*
X59589Y65085D01*
D02*
G37*
G36*
X55744Y65059D02*
X55646Y65018D01*
X55559Y64949D01*
X55484Y64852D01*
X55420Y64728D01*
X55368Y64577D01*
X55328Y64398D01*
X55299Y64191D01*
X55281Y63957D01*
X55276Y63695D01*
X53898D01*
X53892Y63957D01*
X53846Y64398D01*
X53805Y64577D01*
X53753Y64728D01*
X53689Y64852D01*
X53614Y64949D01*
X53527Y65018D01*
X53429Y65059D01*
X53319Y65073D01*
X55854D01*
X55744Y65059D01*
D02*
G37*
G36*
X83962Y64237D02*
X84297Y63948D01*
X84443Y63842D01*
X84576Y63760D01*
X84695Y63704D01*
X84801Y63673D01*
X84893Y63668D01*
X84971Y63687D01*
X85035Y63732D01*
X83295Y61975D01*
X83377Y62078D01*
X83430Y62191D01*
X83454Y62313D01*
X83448Y62445D01*
X83413Y62587D01*
X83349Y62739D01*
X83256Y62901D01*
X83133Y63073D01*
X82981Y63254D01*
X82799Y63445D01*
X83774Y64419D01*
X83962Y64237D01*
D02*
G37*
G36*
X78359Y61499D02*
X78179Y61309D01*
X78028Y61129D01*
X77906Y60958D01*
X77814Y60798D01*
X77750Y60646D01*
X77716Y60505D01*
X77711Y60374D01*
X77736Y60252D01*
X77789Y60140D01*
X77872Y60037D01*
X75923Y61986D01*
X76026Y61903D01*
X76138Y61850D01*
X76259Y61826D01*
X76391Y61830D01*
X76532Y61864D01*
X76683Y61928D01*
X76844Y62020D01*
X77015Y62142D01*
X77195Y62293D01*
X77385Y62473D01*
X78359Y61499D01*
D02*
G37*
G36*
X12640Y62423D02*
X12556Y62380D01*
X12483Y62307D01*
X12419Y62206D01*
X12365Y62075D01*
X12321Y61915D01*
X12286Y61727D01*
X12262Y61509D01*
X12247Y61262D01*
X12242Y60986D01*
X10667D01*
X10661Y61262D01*
X10641Y61509D01*
X10607Y61727D01*
X10561Y61915D01*
X10501Y62075D01*
X10428Y62206D01*
X10342Y62307D01*
X10242Y62380D01*
X10129Y62423D01*
X10003Y62438D01*
X12733D01*
X12640Y62423D01*
D02*
G37*
G36*
X136331Y56878D02*
Y55327D01*
X136317Y55362D01*
X136276Y55394D01*
X136207Y55421D01*
X136110Y55445D01*
X135986Y55466D01*
X135835Y55482D01*
X135215Y55510D01*
X134953Y55512D01*
Y56890D01*
X136331Y56878D01*
D02*
G37*
G36*
X42812Y54744D02*
X42833Y54507D01*
X42867Y54299D01*
X42915Y54118D01*
X42978Y53965D01*
X43053Y53840D01*
X43143Y53743D01*
X43246Y53673D01*
X43363Y53632D01*
X43494Y53618D01*
X40738D01*
X40869Y53632D01*
X40986Y53673D01*
X41090Y53743D01*
X41179Y53840D01*
X41255Y53965D01*
X41317Y54118D01*
X41365Y54299D01*
X41400Y54507D01*
X41421Y54744D01*
X41427Y55008D01*
X42805D01*
X42812Y54744D01*
D02*
G37*
G36*
X31296Y54645D02*
X31317Y54409D01*
X31352Y54200D01*
X31400Y54020D01*
X31462Y53867D01*
X31538Y53742D01*
X31627Y53644D01*
X31730Y53575D01*
X31848Y53533D01*
X31978Y53519D01*
X29223D01*
X29353Y53533D01*
X29471Y53575D01*
X29574Y53644D01*
X29664Y53742D01*
X29739Y53867D01*
X29801Y54020D01*
X29850Y54200D01*
X29884Y54409D01*
X29905Y54645D01*
X29912Y54909D01*
X31289D01*
X31296Y54645D01*
D02*
G37*
G36*
X16120Y57459D02*
X16362Y57293D01*
X16629Y57150D01*
X16922Y57032D01*
X17240Y56939D01*
X17583Y56869D01*
X17953Y56825D01*
X18347Y56804D01*
X18768Y56808D01*
X19213Y56837D01*
X15991Y53065D01*
X15950Y53538D01*
X15821Y54394D01*
X15733Y54777D01*
X15630Y55130D01*
X15511Y55453D01*
X15376Y55747D01*
X15227Y56010D01*
X15061Y56244D01*
X14880Y56447D01*
X15904Y57651D01*
X16120Y57459D01*
D02*
G37*
G36*
X62143Y52728D02*
X62457Y52460D01*
X62541Y52403D01*
X62616Y52361D01*
X62681Y52335D01*
X62736Y52326D01*
X62781Y52332D01*
X62817Y52354D01*
X61667Y51221D01*
X61664Y51231D01*
X61647Y51253D01*
X61618Y51287D01*
X61274Y51645D01*
X61045Y51875D01*
X62019Y52849D01*
X62143Y52728D01*
D02*
G37*
G36*
X100632Y49837D02*
X99773Y48994D01*
X98397Y50369D01*
X98457Y50326D01*
X98529Y50306D01*
X98612Y50308D01*
X98706Y50333D01*
X98813Y50380D01*
X98931Y50449D01*
X99060Y50541D01*
X99201Y50655D01*
X99519Y50950D01*
X100632Y49837D01*
D02*
G37*
G36*
X52705Y85813D02*
X53013D01*
X53057Y85593D01*
X53170Y85425D01*
Y82733D01*
X45455Y75018D01*
X45148Y74558D01*
X45040Y74016D01*
Y63287D01*
X45148Y62745D01*
X45455Y62286D01*
X46150Y61591D01*
Y55303D01*
X50375D01*
X50450Y55121D01*
X45568Y50239D01*
X45386Y50314D01*
Y54244D01*
X43604D01*
X43563Y54266D01*
X43559Y54267D01*
X43535Y54325D01*
X43505Y54436D01*
X43480Y54589D01*
X43463Y54781D01*
X43457Y55025D01*
X43433Y55079D01*
Y75232D01*
X50518Y82317D01*
X50518Y82317D01*
X50803Y82744D01*
X50903Y83248D01*
X50903Y83248D01*
Y84980D01*
X50927Y85035D01*
X50933Y85280D01*
X50947Y85476D01*
X50970Y85635D01*
X50996Y85753D01*
X51017Y85813D01*
X51468D01*
Y86336D01*
X51506Y86427D01*
X51490Y86467D01*
X51501Y86509D01*
X51468Y86566D01*
Y89008D01*
X51902Y89298D01*
X52209Y89758D01*
X52317Y90300D01*
X52209Y90842D01*
X51902Y91302D01*
X51468Y91592D01*
Y92394D01*
X52705D01*
Y85813D01*
D02*
G37*
G36*
X106315Y52457D02*
X106362Y52189D01*
X106441Y51953D01*
X106551Y51748D01*
X106693Y51575D01*
X106866Y51433D01*
X107071Y51323D01*
X107307Y51244D01*
X107575Y51197D01*
X107874Y51181D01*
X105512Y49606D01*
X103150Y51181D01*
X103449Y51197D01*
X103717Y51244D01*
X103953Y51323D01*
X104157Y51433D01*
X104331Y51575D01*
X104472Y51748D01*
X104583Y51953D01*
X104661Y52189D01*
X104709Y52457D01*
X104724Y52756D01*
X106299D01*
X106315Y52457D01*
D02*
G37*
G36*
X116715Y45848D02*
X117174Y45541D01*
X117343Y45508D01*
X117403Y45295D01*
X117386Y45279D01*
X117218Y45145D01*
X117046Y45028D01*
X116869Y44927D01*
X116687Y44842D01*
X116498Y44773D01*
X116302Y44719D01*
X116097Y44680D01*
X115883Y44657D01*
X115636Y44648D01*
X115584Y44624D01*
X107238D01*
X104081Y47781D01*
X103654Y48067D01*
X103150Y48167D01*
X102679D01*
X102626Y48191D01*
X101963Y48212D01*
X101715Y48235D01*
X101508Y48266D01*
X101353Y48302D01*
X101324Y48311D01*
X101137Y48499D01*
X101103Y48566D01*
X101052Y48584D01*
X101031Y48605D01*
X101008Y48636D01*
X100999Y48637D01*
X100856Y48780D01*
X100937Y48977D01*
X105369D01*
X105384Y48967D01*
X105433Y48977D01*
X105590D01*
X105640Y48967D01*
X105654Y48977D01*
X113586D01*
X116715Y45848D01*
D02*
G37*
G36*
X67934Y47721D02*
X66960Y46747D01*
X66818Y46884D01*
X66565Y47099D01*
X66453Y47177D01*
X66351Y47237D01*
X66259Y47276D01*
X66177Y47297D01*
X66105Y47298D01*
X66042Y47280D01*
X65989Y47243D01*
X67201Y48438D01*
X67934Y47721D01*
D02*
G37*
G36*
X100700Y47973D02*
X100763Y47882D01*
X100864Y47802D01*
X101001Y47732D01*
X101175Y47673D01*
X101387Y47625D01*
X101636Y47588D01*
X101922Y47561D01*
X102605Y47539D01*
X102772Y46161D01*
X102398Y46156D01*
X101772Y46113D01*
X101519Y46076D01*
X101306Y46027D01*
X101133Y45968D01*
X101000Y45899D01*
X100907Y45818D01*
X100854Y45727D01*
X100841Y45626D01*
X100675Y48075D01*
X100700Y47973D01*
D02*
G37*
G36*
X64946Y46163D02*
X64941Y46099D01*
X64960Y46020D01*
X65002Y45926D01*
X65067Y45817D01*
X65156Y45691D01*
X65269Y45551D01*
X65565Y45223D01*
X65748Y45036D01*
X64774Y44061D01*
X64587Y44245D01*
X64118Y44653D01*
X63993Y44742D01*
X63883Y44808D01*
X63789Y44850D01*
X63710Y44868D01*
X63647Y44864D01*
X63599Y44835D01*
X64974Y46210D01*
X64946Y46163D01*
D02*
G37*
G36*
X95614Y44835D02*
X95597Y44830D01*
X95559Y44801D01*
X95499Y44750D01*
X94873Y44151D01*
X94471Y43751D01*
X93357Y44865D01*
X93567Y45079D01*
X94033Y45614D01*
X94134Y45758D01*
X94209Y45884D01*
X94257Y45992D01*
X94278Y46082D01*
X94272Y46155D01*
X94239Y46210D01*
X95614Y44835D01*
D02*
G37*
G36*
X60275Y43722D02*
X60173Y43805D01*
X60061Y43858D01*
X59938Y43882D01*
X59806Y43876D01*
X59664Y43841D01*
X59512Y43777D01*
X59350Y43684D01*
X59179Y43560D01*
X58997Y43408D01*
X58805Y43226D01*
X57831Y44201D01*
X58013Y44392D01*
X58165Y44574D01*
X58288Y44746D01*
X58382Y44908D01*
X58446Y45059D01*
X58481Y45202D01*
X58487Y45334D01*
X58463Y45456D01*
X58409Y45568D01*
X58327Y45671D01*
X60275Y43722D01*
D02*
G37*
G36*
X97841Y42608D02*
X97793Y42637D01*
X97730Y42641D01*
X97651Y42623D01*
X97557Y42581D01*
X97447Y42515D01*
X97322Y42426D01*
X97181Y42313D01*
X96853Y42017D01*
X96666Y41834D01*
X95692Y42809D01*
X95875Y42996D01*
X96283Y43464D01*
X96372Y43589D01*
X96438Y43699D01*
X96480Y43793D01*
X96499Y43872D01*
X96494Y43935D01*
X96466Y43983D01*
X97841Y42608D01*
D02*
G37*
G36*
X64065Y43352D02*
X63090Y42378D01*
X62899Y42559D01*
X62718Y42711D01*
X62547Y42834D01*
X62385Y42927D01*
X62233Y42991D01*
X62091Y43026D01*
X61959Y43032D01*
X61836Y43009D01*
X61723Y42956D01*
X61620Y42874D01*
X62747Y43983D01*
X64065Y43352D01*
D02*
G37*
G36*
X118986Y43996D02*
X118986Y43996D01*
D01*
X118801Y43797D01*
X118635Y43590D01*
X118489Y43375D01*
X118363Y43152D01*
X118346Y43116D01*
X118255Y42921D01*
X118168Y42682D01*
X118156Y42639D01*
X118099Y42434D01*
X118072Y42288D01*
X118051Y42179D01*
X118031Y42003D01*
X118022Y41915D01*
X118020Y41886D01*
X118012Y41644D01*
X118012D01*
Y41644D01*
X116634Y41240D01*
X116620Y41502D01*
X116579Y41736D01*
X116510Y41943D01*
X116413Y42122D01*
X116289Y42274D01*
X116138Y42398D01*
X115959Y42494D01*
X115752Y42563D01*
X115518Y42604D01*
X115256Y42618D01*
X115256Y42618D01*
X115256D01*
X115530Y43555D01*
X115659Y43996D01*
D01*
X115659Y43996D01*
X115931Y44006D01*
X116194Y44035D01*
X116450Y44084D01*
X116697Y44152D01*
X116937Y44240D01*
X117168Y44347D01*
X117391Y44473D01*
X117606Y44620D01*
X117813Y44785D01*
X118012Y44970D01*
X118986Y43996D01*
D02*
G37*
G36*
X59865Y43215D02*
X59910Y43202D01*
X61372Y41739D01*
X61984Y42351D01*
X62026Y42364D01*
X62032Y42368D01*
X62094Y42342D01*
X62193Y42285D01*
X62318Y42195D01*
X62465Y42072D01*
X62641Y41905D01*
X62697Y41884D01*
X64951Y39630D01*
X64960Y39614D01*
X64948Y39392D01*
X64648Y39191D01*
X64341Y38731D01*
X64260Y38328D01*
X64047Y38263D01*
X63616Y38694D01*
X61372Y40938D01*
X57010Y36576D01*
X56828Y36652D01*
Y40362D01*
X59199Y42732D01*
X59254Y42753D01*
X59431Y42922D01*
X59579Y43045D01*
X59704Y43135D01*
X59804Y43193D01*
X59862Y43217D01*
X59865Y43215D01*
D02*
G37*
G36*
X5487Y42225D02*
X5905Y41216D01*
X6569Y40350D01*
X7435Y39686D01*
X8444Y39268D01*
X9526Y39126D01*
X10608Y39268D01*
X11617Y39686D01*
X12483Y40350D01*
X12979Y40997D01*
X13176Y40930D01*
Y39016D01*
X11243Y37083D01*
X10608Y37346D01*
X9545Y37486D01*
X9510Y37502D01*
X8593Y37529D01*
X8211Y37568D01*
X7859Y37624D01*
X7544Y37695D01*
X7266Y37779D01*
X7025Y37876D01*
X6821Y37982D01*
X6652Y38096D01*
X6481Y38246D01*
X6432Y38263D01*
X5254Y39441D01*
Y42489D01*
X5451Y42502D01*
X5487Y42225D01*
D02*
G37*
G36*
X149907Y35511D02*
X149890Y35660D01*
X149842Y35794D01*
X149763Y35912D01*
X149651Y36015D01*
X149509Y36101D01*
X149334Y36172D01*
X149128Y36227D01*
X148890Y36267D01*
X148621Y36290D01*
X148320Y36298D01*
Y37873D01*
X148619Y37877D01*
X149123Y37913D01*
X149328Y37944D01*
X149501Y37984D01*
X149643Y38033D01*
X149753Y38090D01*
X149832Y38157D01*
X149879Y38232D01*
X149895Y38316D01*
X149907Y35511D01*
D02*
G37*
G36*
X6254Y37579D02*
X6487Y37421D01*
X6752Y37283D01*
X7049Y37164D01*
X7377Y37064D01*
X7736Y36983D01*
X8128Y36921D01*
X8550Y36878D01*
X9490Y36850D01*
X5983Y33342D01*
X5978Y33828D01*
X5912Y34705D01*
X5850Y35097D01*
X5769Y35456D01*
X5669Y35784D01*
X5550Y36081D01*
X5412Y36346D01*
X5254Y36579D01*
X5078Y36781D01*
X6052Y37755D01*
X6254Y37579D01*
D02*
G37*
G36*
X69858Y32982D02*
X69725Y32846D01*
X69428Y32506D01*
X69363Y32416D01*
X69315Y32336D01*
X69284Y32268D01*
X69270Y32211D01*
X69272Y32166D01*
X69292Y32131D01*
X68053Y33388D01*
X68059Y33396D01*
X68078Y33419D01*
X68388Y33738D01*
X68744Y34095D01*
X69858Y32982D01*
D02*
G37*
G36*
X11666Y30430D02*
X11093Y29763D01*
X10860Y29443D01*
X10663Y29131D01*
X10501Y28828D01*
X10376Y28534D01*
X10287Y28249D01*
X10233Y27973D01*
X10215Y27705D01*
X8837D01*
X8819Y27973D01*
X8765Y28249D01*
X8676Y28534D01*
X8550Y28828D01*
X8389Y29131D01*
X8192Y29443D01*
X7959Y29763D01*
X7690Y30092D01*
X7046Y30777D01*
X12006D01*
X11666Y30430D01*
D02*
G37*
G36*
X71335Y35099D02*
X71132Y34794D01*
X71024Y34252D01*
X71132Y33710D01*
X71439Y33250D01*
X71867Y32964D01*
X75455Y29376D01*
Y27947D01*
X75453Y27946D01*
X75275Y27772D01*
X74972Y27498D01*
X74883Y27427D01*
X72507Y29802D01*
X69951Y27246D01*
X69835Y27168D01*
X67918Y25251D01*
X67894Y25242D01*
X67655Y25010D01*
X67546D01*
X65909Y26646D01*
Y27586D01*
X67663Y29340D01*
X67741Y29456D01*
X70297Y32013D01*
X70065Y32245D01*
X70203Y32403D01*
X70323Y32526D01*
X70366Y32631D01*
X70610Y32996D01*
X70718Y33538D01*
Y35296D01*
X71230D01*
X71335Y35099D01*
D02*
G37*
G36*
X46129Y28284D02*
X46150Y28048D01*
X46184Y27839D01*
X46232Y27659D01*
X46294Y27506D01*
X46370Y27381D01*
X46460Y27284D01*
X46563Y27214D01*
X46680Y27172D01*
X46811Y27158D01*
X44055D01*
X44186Y27172D01*
X44303Y27214D01*
X44407Y27284D01*
X44496Y27381D01*
X44572Y27506D01*
X44634Y27659D01*
X44682Y27839D01*
X44717Y28048D01*
X44737Y28284D01*
X44744Y28548D01*
X46122D01*
X46129Y28284D01*
D02*
G37*
G36*
X153863Y30978D02*
X153926D01*
X153917Y30939D01*
X153909Y30821D01*
X153883Y29049D01*
X153879Y27041D01*
X149942D01*
X149917Y29161D01*
X149818D01*
X149841Y29201D01*
X149863Y29319D01*
X149881Y29516D01*
X149905Y30135D01*
X149895Y30978D01*
X149925D01*
X149942Y33098D01*
X153879D01*
X153863Y30978D01*
D02*
G37*
G36*
X76884Y26506D02*
X76700Y26319D01*
X76292Y25850D01*
X76203Y25725D01*
X76137Y25615D01*
X76095Y25521D01*
X76076Y25442D01*
X76081Y25379D01*
X76109Y25331D01*
X74734Y26706D01*
X74782Y26678D01*
X74846Y26673D01*
X74924Y26692D01*
X75019Y26734D01*
X75128Y26800D01*
X75253Y26889D01*
X75394Y27001D01*
X75722Y27297D01*
X75909Y27480D01*
X76884Y26506D01*
D02*
G37*
G36*
X10204Y25323D02*
X8148Y25311D01*
X8279Y25325D01*
X8396Y25368D01*
X8499Y25437D01*
X8589Y25535D01*
X8665Y25660D01*
X8727Y25813D01*
X8775Y25993D01*
X8809Y26202D01*
X8830Y26437D01*
X8837Y26701D01*
X10215D01*
X10204Y25323D01*
D02*
G37*
G36*
X79111Y24279D02*
X78927Y24092D01*
X78519Y23623D01*
X78430Y23498D01*
X78364Y23388D01*
X78322Y23294D01*
X78303Y23215D01*
X78308Y23152D01*
X78337Y23104D01*
X76962Y24479D01*
X77009Y24451D01*
X77073Y24446D01*
X77152Y24465D01*
X77246Y24507D01*
X77355Y24573D01*
X77481Y24662D01*
X77621Y24774D01*
X77949Y25070D01*
X78136Y25253D01*
X79111Y24279D01*
D02*
G37*
G36*
X69539Y23601D02*
X69518Y23609D01*
X69485Y23603D01*
X69442Y23582D01*
X69387Y23547D01*
X69320Y23498D01*
X69154Y23356D01*
X68820Y23036D01*
X67706Y24149D01*
X68349Y24775D01*
X69539Y23601D01*
D02*
G37*
G36*
X31464Y27227D02*
X31710Y27061D01*
X31974Y26930D01*
X32256Y26834D01*
X32557Y26773D01*
X32876Y26747D01*
X33213Y26756D01*
X33569Y26799D01*
X33943Y26878D01*
X34336Y26991D01*
X32043Y22592D01*
X31886Y23092D01*
X31260Y24727D01*
X31104Y25045D01*
X30794Y25572D01*
X30639Y25780D01*
X30485Y25953D01*
X31237Y27428D01*
X31464Y27227D01*
D02*
G37*
G36*
X23042Y34764D02*
Y33092D01*
X23150Y32550D01*
X23457Y32090D01*
X29982Y25565D01*
X29999Y25518D01*
X30133Y25368D01*
X30250Y25211D01*
X30530Y24735D01*
X30662Y24466D01*
X31270Y22877D01*
X31403Y22455D01*
X31229Y22350D01*
X25852Y27726D01*
X25393Y28034D01*
X24850Y28141D01*
X16767D01*
X16225Y28034D01*
X16144Y27980D01*
X15980Y28089D01*
X16010Y28237D01*
Y34764D01*
X18069Y36823D01*
X20982D01*
X23042Y34764D01*
D02*
G37*
G36*
X44112Y20086D02*
X43990Y20174D01*
X43846Y20217D01*
X43680Y20216D01*
X43491Y20170D01*
X43280Y20080D01*
X43046Y19945D01*
X42789Y19765D01*
X42510Y19542D01*
X41885Y18960D01*
X40771Y20074D01*
X41084Y20398D01*
X41576Y20978D01*
X41756Y21235D01*
X41891Y21468D01*
X41981Y21680D01*
X42027Y21869D01*
X42028Y22035D01*
X41985Y22179D01*
X41897Y22301D01*
X44112Y20086D01*
D02*
G37*
G36*
X47062Y35100D02*
Y32783D01*
X44502Y30222D01*
X44217Y29795D01*
X44116Y29291D01*
Y28620D01*
X44092Y28565D01*
X44086Y28321D01*
X44069Y28130D01*
X44044Y27977D01*
X44014Y27866D01*
X43990Y27807D01*
X43986Y27807D01*
X43968Y27797D01*
X42776D01*
X42195Y27681D01*
X41703Y27352D01*
X41374Y26860D01*
X41258Y26280D01*
Y22413D01*
X41253Y22404D01*
X41258Y22381D01*
Y22333D01*
X41245Y22301D01*
X41258Y22268D01*
Y21677D01*
X41205Y21585D01*
X41060Y21377D01*
X40600Y20835D01*
X40302Y20527D01*
X40282Y20474D01*
X39334Y19527D01*
X36895D01*
X36856Y19724D01*
X37524Y20001D01*
X38390Y20665D01*
X39054Y21531D01*
X39472Y22540D01*
X39614Y23622D01*
X39472Y24704D01*
X39054Y25713D01*
X38390Y26579D01*
X38383Y26679D01*
X46880Y35176D01*
X47062Y35100D01*
D02*
G37*
G36*
X51960Y9254D02*
X51798Y9069D01*
X51647Y8852D01*
X51507Y8602D01*
X51379Y8320D01*
X51263Y8005D01*
X51159Y7657D01*
X51066Y7277D01*
X50915Y6420D01*
X50857Y5943D01*
X47904Y9668D01*
X48339Y9624D01*
X48749Y9605D01*
X49133Y9611D01*
X49491Y9641D01*
X49824Y9696D01*
X50130Y9776D01*
X50412Y9881D01*
X50667Y10010D01*
X50897Y10164D01*
X51101Y10343D01*
X51960Y9254D01*
D02*
G37*
G36*
X68186Y11401D02*
X68237Y11134D01*
X68321Y10859D01*
X68439Y10576D01*
X68591Y10286D01*
X68777Y9988D01*
X68996Y9684D01*
X69250Y9371D01*
X69857Y8724D01*
X65103D01*
X65424Y9051D01*
X65964Y9684D01*
X66184Y9988D01*
X66369Y10286D01*
X66521Y10576D01*
X66639Y10859D01*
X66724Y11134D01*
X66774Y11401D01*
X66791Y11662D01*
X68169D01*
X68186Y11401D01*
D02*
G37*
G36*
X58563Y11555D02*
X58579Y11309D01*
X58625Y11049D01*
X58703Y10774D01*
X58812Y10484D01*
X58953Y10179D01*
X59124Y9859D01*
X59327Y9525D01*
X59826Y8811D01*
X60122Y8432D01*
X55401Y8984D01*
X55740Y9260D01*
X56043Y9535D01*
X56311Y9810D01*
X56543Y10085D01*
X56739Y10359D01*
X56899Y10632D01*
X57024Y10905D01*
X57114Y11177D01*
X57167Y11449D01*
X57185Y11719D01*
X58563Y11555D01*
D02*
G37*
G36*
X21337Y10126D02*
X21154Y9917D01*
X21000Y9686D01*
X20875Y9431D01*
X20778Y9153D01*
X20710Y8852D01*
X20671Y8528D01*
X20661Y8181D01*
X20680Y7810D01*
X20727Y7417D01*
X20803Y7001D01*
X16846Y9635D01*
X17335Y9734D01*
X18592Y10069D01*
X18941Y10192D01*
X19535Y10458D01*
X19779Y10599D01*
X19988Y10747D01*
X20162Y10900D01*
X21337Y10126D01*
D02*
G37*
G36*
X10595Y102876D02*
X10355Y102758D01*
X10142Y102561D01*
X9958Y102286D01*
X9803Y101931D01*
X9675Y101498D01*
X9576Y100986D01*
X9505Y100396D01*
X9463Y99727D01*
X9449Y98979D01*
X5512D01*
X5498Y99727D01*
X5384Y100986D01*
X5285Y101498D01*
X5158Y101931D01*
X5002Y102286D01*
X4818Y102561D01*
X4606Y102758D01*
X4366Y102876D01*
X4097Y102916D01*
X10864D01*
X10595Y102876D01*
D02*
G37*
G36*
X14327Y89963D02*
X14446Y89628D01*
X14642Y89333D01*
X14918Y89077D01*
X15272Y88861D01*
X15705Y88683D01*
X16217Y88546D01*
X16808Y88447D01*
X17477Y88388D01*
X18225Y88368D01*
Y84431D01*
X17477Y84412D01*
X16808Y84353D01*
X16217Y84254D01*
X15705Y84117D01*
X15272Y83939D01*
X14918Y83723D01*
X14642Y83467D01*
X14446Y83172D01*
X14327Y82837D01*
X14288Y82463D01*
Y90337D01*
X14327Y89963D01*
D02*
G37*
G36*
X139419Y92808D02*
X139984Y92331D01*
X140237Y92155D01*
X140470Y92022D01*
X140682Y91930D01*
X140875Y91881D01*
X141048Y91873D01*
X141201Y91907D01*
X141334Y91984D01*
X138863Y90025D01*
X138962Y90135D01*
X139014Y90270D01*
X139019Y90430D01*
X138977Y90615D01*
X138888Y90825D01*
X138752Y91060D01*
X138569Y91321D01*
X138339Y91606D01*
X137737Y92252D01*
X139107Y93109D01*
X139419Y92808D01*
D02*
G37*
G36*
X101950Y35864D02*
X101938Y35811D01*
X101944Y35749D01*
X101968Y35677D01*
X102009Y35594D01*
X102067Y35502D01*
X102143Y35400D01*
X102236Y35288D01*
X102475Y35034D01*
X101500Y34060D01*
X101368Y34188D01*
X101135Y34392D01*
X101032Y34468D01*
X100940Y34526D01*
X100858Y34567D01*
X100786Y34590D01*
X100723Y34596D01*
X100671Y34585D01*
X100628Y34556D01*
X101979Y35906D01*
X101950Y35864D01*
D02*
G37*
G36*
X99743Y33637D02*
X99733Y33578D01*
X99743Y33508D01*
X99774Y33425D01*
X99825Y33330D01*
X99896Y33223D01*
X99987Y33103D01*
X100231Y32828D01*
X100383Y32672D01*
X99408Y31698D01*
X99252Y31850D01*
X98857Y32184D01*
X98750Y32256D01*
X98655Y32307D01*
X98573Y32337D01*
X98502Y32348D01*
X98444Y32338D01*
X98397Y32308D01*
X99773Y33683D01*
X99743Y33637D01*
D02*
G37*
G36*
X97517Y31408D02*
X97512Y31345D01*
X97531Y31266D01*
X97573Y31172D01*
X97639Y31062D01*
X97728Y30937D01*
X97840Y30796D01*
X98136Y30468D01*
X98319Y30281D01*
X97345Y29307D01*
X97158Y29490D01*
X96689Y29898D01*
X96564Y29987D01*
X96455Y30053D01*
X96360Y30095D01*
X96281Y30114D01*
X96218Y30109D01*
X96170Y30081D01*
X97545Y31456D01*
X97517Y31408D01*
D02*
G37*
G36*
X95290Y29181D02*
X95285Y29118D01*
X95304Y29039D01*
X95346Y28945D01*
X95412Y28835D01*
X95501Y28710D01*
X95613Y28569D01*
X95909Y28241D01*
X96092Y28054D01*
X95118Y27080D01*
X94931Y27263D01*
X94462Y27671D01*
X94337Y27760D01*
X94227Y27826D01*
X94133Y27868D01*
X94054Y27887D01*
X93991Y27882D01*
X93943Y27854D01*
X95318Y29229D01*
X95290Y29181D01*
D02*
G37*
G36*
X93063Y26954D02*
X93058Y26891D01*
X93077Y26812D01*
X93119Y26717D01*
X93185Y26608D01*
X93274Y26483D01*
X93386Y26342D01*
X93682Y26014D01*
X93865Y25827D01*
X92891Y24853D01*
X92704Y25036D01*
X92235Y25444D01*
X92110Y25533D01*
X92000Y25599D01*
X91906Y25641D01*
X91827Y25660D01*
X91764Y25655D01*
X91716Y25627D01*
X93091Y27002D01*
X93063Y26954D01*
D02*
G37*
G36*
X90836Y24727D02*
X90831Y24663D01*
X90850Y24585D01*
X90892Y24490D01*
X90957Y24381D01*
X91047Y24255D01*
X91159Y24115D01*
X91455Y23787D01*
X91638Y23600D01*
X90664Y22625D01*
X90477Y22809D01*
X90008Y23217D01*
X89883Y23306D01*
X89773Y23372D01*
X89679Y23414D01*
X89600Y23433D01*
X89537Y23428D01*
X89489Y23400D01*
X90864Y24775D01*
X90836Y24727D01*
D02*
G37*
G36*
X88609Y22500D02*
X88604Y22436D01*
X88622Y22357D01*
X88665Y22263D01*
X88730Y22153D01*
X88819Y22028D01*
X88932Y21888D01*
X89228Y21560D01*
X89411Y21373D01*
X88437Y20398D01*
X88249Y20582D01*
X87781Y20990D01*
X87656Y21079D01*
X87546Y21145D01*
X87452Y21187D01*
X87373Y21205D01*
X87310Y21201D01*
X87262Y21172D01*
X88637Y22547D01*
X88609Y22500D01*
D02*
G37*
G36*
X86355Y20245D02*
X86306Y20134D01*
X86263Y19987D01*
X86226Y19805D01*
X86194Y19588D01*
X86148Y19046D01*
X86122Y17966D01*
X84744Y17858D01*
X84737Y18273D01*
X84683Y18964D01*
X84635Y19240D01*
X84574Y19471D01*
X84499Y19655D01*
X84411Y19794D01*
X84309Y19886D01*
X84193Y19933D01*
X84064Y19933D01*
X86410Y20320D01*
X86355Y20245D01*
D02*
G37*
G36*
X81790Y9556D02*
X81619Y9361D01*
X81466Y9137D01*
X81330Y8883D01*
X81212Y8600D01*
X81112Y8287D01*
X81029Y7944D01*
X80965Y7572D01*
X80917Y7170D01*
X80876Y6278D01*
X77570Y9694D01*
X78025Y9691D01*
X78849Y9744D01*
X79219Y9800D01*
X79559Y9876D01*
X79871Y9971D01*
X80154Y10086D01*
X80409Y10220D01*
X80635Y10373D01*
X80832Y10547D01*
X81790Y9556D01*
D02*
G37*
G36*
X108460Y10706D02*
X108483Y10475D01*
X108521Y10259D01*
X108574Y10061D01*
X108642Y9879D01*
X108726Y9714D01*
X108825Y9565D01*
X108939Y9433D01*
X109069Y9318D01*
X109213Y9219D01*
X106256Y9467D01*
X106412Y9538D01*
X106551Y9627D01*
X106674Y9733D01*
X106780Y9856D01*
X106870Y9997D01*
X106943Y10154D01*
X107001Y10328D01*
X107042Y10520D01*
X107066Y10729D01*
X107074Y10955D01*
X108452D01*
X108460Y10706D01*
D02*
G37*
G36*
X137619Y10527D02*
X137637Y10359D01*
X137665Y10207D01*
X137706Y10072D01*
X137757Y9955D01*
X137820Y9854D01*
X137895Y9770D01*
X137981Y9703D01*
X138079Y9653D01*
X138188Y9620D01*
X135739Y9214D01*
X135833Y9283D01*
X135918Y9369D01*
X135992Y9474D01*
X136057Y9597D01*
X136111Y9737D01*
X136156Y9896D01*
X136191Y10073D01*
X136216Y10268D01*
X136231Y10482D01*
X136236Y10713D01*
X137614D01*
X137619Y10527D01*
D02*
G37*
G36*
X98186Y11401D02*
X98237Y11134D01*
X98321Y10859D01*
X98439Y10576D01*
X98591Y10286D01*
X98777Y9988D01*
X98996Y9684D01*
X99250Y9371D01*
X99857Y8724D01*
X95103D01*
X95424Y9051D01*
X95964Y9684D01*
X96184Y9988D01*
X96369Y10286D01*
X96521Y10576D01*
X96639Y10859D01*
X96724Y11134D01*
X96775Y11401D01*
X96791Y11662D01*
X98169D01*
X98186Y11401D01*
D02*
G37*
G36*
X117391Y11016D02*
X117431Y10783D01*
X117498Y10565D01*
X117592Y10362D01*
X117712Y10174D01*
X117860Y10001D01*
X118034Y9844D01*
X118235Y9701D01*
X118463Y9574D01*
X118717Y9462D01*
X114944Y8557D01*
X115145Y8798D01*
X115324Y9045D01*
X115482Y9299D01*
X115620Y9559D01*
X115736Y9827D01*
X115831Y10101D01*
X115905Y10382D01*
X115957Y10669D01*
X115989Y10963D01*
X116000Y11264D01*
X117377D01*
X117391Y11016D01*
D02*
G37*
G36*
X89665Y11385D02*
X89675Y11122D01*
X89705Y10831D01*
X89755Y10512D01*
X89914Y9790D01*
X90153Y8955D01*
X90659Y7492D01*
X86415Y9523D01*
X86771Y9656D01*
X87089Y9806D01*
X87370Y9973D01*
X87613Y10158D01*
X87819Y10361D01*
X87988Y10581D01*
X88119Y10818D01*
X88213Y11073D01*
X88269Y11345D01*
X88287Y11635D01*
X89665Y11385D01*
D02*
G37*
G36*
X124418Y10438D02*
X124642Y10285D01*
X124896Y10149D01*
X125180Y10031D01*
X125493Y9931D01*
X125835Y9848D01*
X126208Y9783D01*
X126610Y9736D01*
X127502Y9695D01*
X124086Y6389D01*
X124088Y6844D01*
X124035Y7668D01*
X123979Y8038D01*
X123904Y8378D01*
X123809Y8690D01*
X123694Y8973D01*
X123560Y9228D01*
X123406Y9454D01*
X123233Y9651D01*
X124224Y10609D01*
X124418Y10438D01*
D02*
G37*
G36*
X144372Y10406D02*
X144597Y10253D01*
X144851Y10118D01*
X145134Y10001D01*
X145447Y9904D01*
X145789Y9825D01*
X146159Y9764D01*
X146559Y9723D01*
X147446Y9695D01*
X144085Y6333D01*
X144080Y6791D01*
X144015Y7620D01*
X143955Y7991D01*
X143876Y8333D01*
X143778Y8645D01*
X143662Y8929D01*
X143527Y9183D01*
X143373Y9408D01*
X143201Y9604D01*
X144176Y10578D01*
X144372Y10406D01*
D02*
G37*
D12*
X92519Y42913D02*
X92520D01*
X93701Y44094D01*
X97006Y47399D01*
X84535Y34929D02*
X88976Y39370D01*
X76882Y34929D02*
X84535D01*
X75099Y36713D02*
X76882Y34929D01*
X68263Y23593D02*
X70837Y26166D01*
X66959Y23593D02*
X68263D01*
X64492Y26059D02*
X66959Y23593D01*
X64492Y26059D02*
Y28173D01*
X66661Y30342D01*
X70837Y26166D02*
X71115D01*
X68799Y36713D02*
X75099D01*
X97006Y47399D02*
Y47602D01*
X97284D01*
X65650Y38189D02*
X67323D01*
X69301Y36211D01*
X66661Y30899D02*
X69301Y33538D01*
X87368Y60236D02*
X87402D01*
X66661Y30342D02*
Y30899D01*
X69301Y33538D02*
Y36211D01*
X85870Y58738D02*
X87368Y60236D01*
X12598Y26243D02*
X14593Y28237D01*
Y35350D01*
X33929Y23622D02*
X35433D01*
X24459Y33092D02*
X33929Y23622D01*
X24459Y38429D02*
Y45350D01*
X29528Y31102D02*
Y33361D01*
X24459Y38429D02*
X29528Y33361D01*
X129589Y101514D02*
X144095Y87008D01*
X12598Y18110D02*
Y26243D01*
X39921Y18110D02*
X45433Y23622D01*
X33465Y18110D02*
X39921D01*
X24850Y26724D02*
X33465Y18110D01*
X16767Y26724D02*
X24850D01*
X14593Y35350D02*
X17482Y38240D01*
X21569D02*
X24459Y35350D01*
Y33092D02*
Y35350D01*
X14593Y45350D02*
X17482Y48240D01*
X14593Y38429D02*
Y45350D01*
X9526Y33362D02*
X14593Y38429D01*
X21569Y48240D02*
X24459Y45350D01*
X121715Y101514D02*
X129589D01*
X121653Y101575D02*
X121715Y101514D01*
X100075Y50394D02*
X105512D01*
X97284Y47602D02*
X100075Y50394D01*
X55498Y101514D02*
X63841D01*
X72835Y81890D02*
X74803D01*
X14961Y19685D02*
Y24918D01*
X16767Y26724D01*
X108366Y57057D02*
Y61024D01*
Y65059D01*
X46457Y74016D02*
X54587Y82146D01*
X46457Y63287D02*
X48819Y60925D01*
X46457Y63287D02*
Y74016D01*
X35039Y68996D02*
Y77953D01*
X43554Y86467D02*
Y93208D01*
X35039Y77953D02*
X43554Y86467D01*
X51921Y101575D02*
X55437D01*
X55498Y101514D01*
X43554Y93208D02*
X51921Y101575D01*
X9526Y33307D02*
Y33362D01*
X17482Y48240D02*
X21569D01*
X17482Y38240D02*
X21569D01*
X29528Y66339D02*
Y66437D01*
X105118Y99606D02*
X107480Y101969D01*
Y106299D01*
X48819Y59449D02*
Y60925D01*
X54587Y82146D02*
Y86135D01*
X29528Y66339D02*
X32382D01*
X35039Y68996D01*
X147166Y37086D02*
X150670D01*
X143571Y40681D02*
X147166Y37086D01*
X143571Y40681D02*
Y53543D01*
Y76642D01*
X150670Y37086D02*
X151910Y35845D01*
Y34647D02*
Y35845D01*
X146239Y79310D02*
X151357D01*
X153350Y81303D02*
Y87008D01*
X151357Y79310D02*
X153350Y81303D01*
X143571Y76642D02*
X146239Y79310D01*
X138977Y53543D02*
X143307D01*
X108366Y65059D02*
X110236Y66929D01*
X110728Y76772D02*
X124668D01*
X125591Y77694D01*
Y79921D01*
X121161Y84350D02*
X125591Y79921D01*
X114173Y50394D02*
X117717Y46850D01*
X105512Y50394D02*
X114173D01*
X13610Y65772D02*
X16920Y69083D01*
X9300Y65772D02*
X13610D01*
X121161Y84350D02*
Y88976D01*
X105512Y54203D02*
X108366Y57057D01*
X105512Y50394D02*
Y54203D01*
X18504Y20787D02*
X19370Y21654D01*
X11455Y60986D02*
X19134Y53307D01*
X19526D01*
X9571Y65600D02*
X11455Y63716D01*
Y60986D02*
Y63716D01*
D33*
X59980Y37302D02*
D03*
X62207Y35075D02*
D03*
X64434Y32848D02*
D03*
X66661Y30621D02*
D03*
X68888Y28394D02*
D03*
X71115Y26166D02*
D03*
X73343Y23939D02*
D03*
X75570Y21712D02*
D03*
X99233Y45375D02*
D03*
X97006Y47602D02*
D03*
X94779Y49829D02*
D03*
X92551Y52056D02*
D03*
X90324Y54284D02*
D03*
X88097Y56511D02*
D03*
X85870Y58738D02*
D03*
X83643Y60965D02*
D03*
D34*
Y21712D02*
D03*
X85870Y23939D02*
D03*
X88097Y26166D02*
D03*
X90324Y28394D02*
D03*
X92551Y30621D02*
D03*
X94779Y32848D02*
D03*
X97006Y35075D02*
D03*
X99233Y37302D02*
D03*
X75570Y60965D02*
D03*
X73343Y58738D02*
D03*
X71115Y56511D02*
D03*
X68888Y54284D02*
D03*
X66661Y52056D02*
D03*
X64434Y49829D02*
D03*
X62207Y47602D02*
D03*
X59980Y45375D02*
D03*
D35*
X60630Y59449D02*
D03*
X48819D02*
D03*
X86614Y90551D02*
D03*
X74803D02*
D03*
D36*
X78268Y68898D02*
D03*
X89449D02*
D03*
X140729Y34647D02*
D03*
X151910D02*
D03*
X8189Y21654D02*
D03*
X19370D02*
D03*
X151833Y25492D02*
D03*
X140652D02*
D03*
D37*
X128839Y88976D02*
D03*
X126279D02*
D03*
X123721D02*
D03*
X121161D02*
D03*
X118602D02*
D03*
X116043D02*
D03*
X113484D02*
D03*
X110925D02*
D03*
X108366D02*
D03*
X105807D02*
D03*
X103248D02*
D03*
X100689D02*
D03*
X98130D02*
D03*
X95571D02*
D03*
Y61024D02*
D03*
X98130D02*
D03*
X100689D02*
D03*
X103248D02*
D03*
X105807D02*
D03*
X108366D02*
D03*
X110925D02*
D03*
X113484D02*
D03*
X116043D02*
D03*
X118602D02*
D03*
X121161D02*
D03*
X123721D02*
D03*
X126279D02*
D03*
X128839D02*
D03*
D38*
X41339Y41240D02*
D03*
Y50295D02*
D03*
X9300Y74828D02*
D03*
Y65772D02*
D03*
X30601Y50197D02*
D03*
Y41142D02*
D03*
D39*
X64587Y89417D02*
D03*
X59587D02*
D03*
X54587D02*
D03*
X49587D02*
D03*
Y68063D02*
D03*
X54587D02*
D03*
X59587D02*
D03*
X64587D02*
D03*
D40*
X9300Y86444D02*
D03*
D41*
Y95700D02*
D03*
D42*
X38583Y91142D02*
D03*
X29528D02*
D03*
X20472D02*
D03*
D43*
X29528Y66339D02*
D03*
D44*
X144095Y87008D02*
D03*
D45*
X153350D02*
D03*
D46*
X149606Y45473D02*
D03*
Y71850D02*
D03*
D47*
Y54724D02*
D03*
Y62598D02*
D03*
D48*
X138977Y58661D02*
D03*
Y61221D02*
D03*
Y56102D02*
D03*
Y63780D02*
D03*
Y53543D02*
D03*
D49*
X82284Y81890D02*
D03*
X77559D02*
D03*
X72835D02*
D03*
D50*
X131693Y32776D02*
D03*
X122638D02*
D03*
D51*
X35433Y23622D02*
D03*
X19526Y53307D02*
D03*
X9526Y43307D02*
D03*
Y33307D02*
D03*
X19526D02*
D03*
Y43307D02*
D03*
X149606Y44882D02*
D03*
Y72441D02*
D03*
D52*
X45433Y23622D02*
D03*
D53*
X9526Y53307D02*
D03*
D54*
X7480Y6299D02*
D03*
Y106299D02*
D03*
D55*
X17480Y6299D02*
D03*
X27480D02*
D03*
X37480D02*
D03*
X47480D02*
D03*
X57480D02*
D03*
X67480D02*
D03*
X77480D02*
D03*
X87480D02*
D03*
X97480D02*
D03*
X107480D02*
D03*
X117480D02*
D03*
X127480D02*
D03*
X137480D02*
D03*
X147480D02*
D03*
X17480Y106299D02*
D03*
X27480D02*
D03*
X37480D02*
D03*
X47480D02*
D03*
X57480D02*
D03*
X67480D02*
D03*
X77480D02*
D03*
X87480D02*
D03*
X97480D02*
D03*
X107480D02*
D03*
X117480D02*
D03*
X127480D02*
D03*
X137480D02*
D03*
X147480D02*
D03*
D56*
X138977Y68504D02*
D03*
Y48819D02*
D03*
D57*
X80708Y49213D02*
X83280D01*
X91659Y40835D02*
X93380D01*
X93381Y40835D01*
X83280Y49213D02*
X91659Y40835D01*
X93381Y40835D02*
X94692D01*
X76772Y49003D02*
X84469Y41306D01*
X76772Y49003D02*
Y53543D01*
X84469Y38406D02*
Y41306D01*
X67447Y47234D02*
X71315D01*
X73777Y44772D02*
X77789D01*
X71315Y47234D02*
X73777Y44772D01*
X64852Y49829D02*
X67447Y47234D01*
X77789Y44772D02*
X77899Y44882D01*
X77953D01*
X83071Y37008D02*
X84469Y38406D01*
X79528Y40551D02*
X81496D01*
X79134Y37008D02*
X83071D01*
X75590Y40551D02*
X79134Y37008D01*
X77362Y42717D02*
X79528Y40551D01*
X73032Y42717D02*
X77362D01*
X71260Y44488D02*
X73032Y42717D01*
X65321Y44488D02*
X71260D01*
X62207Y47602D02*
X65321Y44488D01*
X64065Y49829D02*
X64852D01*
X61532Y52362D02*
X64065Y49829D01*
X94692Y40835D02*
X98815Y44958D01*
X50787Y46673D02*
X56476Y52362D01*
X61532D01*
X59785Y49606D02*
X61789Y47602D01*
X57480Y49606D02*
X59785D01*
X53347Y17913D02*
Y45472D01*
X57480Y49606D01*
X61789Y47602D02*
X62207D01*
X99233Y45375D02*
X99650D01*
X75570Y60965D02*
X76001Y60533D01*
X59980Y45375D02*
X61067D01*
X99650D02*
X101126Y46850D01*
X61067Y45375D02*
X65891Y40551D01*
X72441Y34252D02*
X76772Y29921D01*
X50787Y20079D02*
Y46673D01*
X99895Y32185D02*
X106004D01*
X97006Y35075D02*
X99895Y32185D01*
X92551Y30621D02*
X99213Y23959D01*
X75570Y21712D02*
X79921Y26064D01*
X134697Y48373D02*
X134756D01*
X101987Y34547D02*
X109744D01*
X66535Y56637D02*
Y60236D01*
X73343Y23939D02*
X76772Y27368D01*
X117323Y39764D02*
Y43307D01*
X68701Y62303D02*
X70571Y64173D01*
X65891Y40551D02*
X75590D01*
X79921Y26064D02*
Y28346D01*
X68701Y58925D02*
Y62303D01*
X99233Y37302D02*
X101987Y34547D01*
X76001Y60533D02*
X76419D01*
X109744Y34547D02*
X111004Y33287D01*
X117323Y43307D02*
X122441Y48425D01*
X106004Y32185D02*
X110630Y27559D01*
X122441Y48425D02*
X134645D01*
X35039Y15933D02*
X46642D01*
X76772Y27368D02*
Y29921D01*
X76419Y60533D02*
X77953Y62067D01*
X66535Y56637D02*
X68888Y54284D01*
X134645Y48425D02*
X134697Y48373D01*
X101126Y46850D02*
X103150D01*
X68701Y58925D02*
X71115Y56511D01*
X103150Y46850D02*
X106693Y43307D01*
X117323D01*
X117323Y43307D02*
X117323Y43307D01*
X46642Y15933D02*
X50787Y20079D01*
X86614Y90551D02*
X87992Y89173D01*
X86799Y87980D02*
X87992Y89173D01*
X86799Y78925D02*
Y87980D01*
X87480Y104254D02*
Y106299D01*
X79857Y96631D02*
X87480Y104254D01*
X79857Y77269D02*
Y96631D01*
X64587Y68063D02*
X67669D01*
X74796Y75190D01*
X83064D01*
X86799Y78925D01*
X49287Y13854D02*
X53347Y17913D01*
X33965Y13854D02*
X49287D01*
X29316Y18504D02*
X33965Y13854D01*
X25197Y18504D02*
X29316D01*
X19291Y12598D02*
X25197Y18504D01*
X10382Y12598D02*
X19291D01*
X7480Y9696D02*
X10382Y12598D01*
X7480Y6299D02*
Y9696D01*
X111004Y33287D02*
X121457Y22835D01*
X130945D02*
X147480Y6299D01*
X121457Y22835D02*
X130945D01*
X147480Y6299D02*
Y6299D01*
X26221Y15985D02*
X26588D01*
X17480Y7244D02*
X26221Y15985D01*
X64173Y61417D02*
X70079Y67323D01*
X64173Y54545D02*
Y61417D01*
Y54545D02*
X64475Y54243D01*
X99213Y23959D02*
X103993D01*
X116689Y7091D02*
X117480Y6299D01*
X116689Y7091D02*
Y11264D01*
X103993Y23959D02*
X116689Y11264D01*
X46732Y85763D02*
Y93307D01*
X30601Y50197D02*
Y55404D01*
X38583Y63386D01*
Y77614D01*
X46732Y93307D02*
X47077Y93652D01*
X38583Y77614D02*
X46732Y85763D01*
X47189Y93711D02*
X62016D01*
X64587Y91140D01*
X49587Y89417D02*
Y91516D01*
X50636Y90466D01*
X49587Y83248D02*
Y89417D01*
X47168Y93689D02*
X47189Y93711D01*
X64587Y89417D02*
Y91140D01*
X91200Y93956D02*
X96850Y99606D01*
X91200Y79783D02*
Y93956D01*
X89555Y95227D02*
Y95264D01*
X93307Y92913D02*
X96850Y96457D01*
X93307Y84821D02*
Y92913D01*
X42116Y75778D02*
X49587Y83248D01*
X42116Y50295D02*
Y75778D01*
X96850Y99606D02*
X105118D01*
X82284Y70866D02*
X91200Y79783D01*
X82284Y64935D02*
Y70866D01*
X115018Y66646D02*
X115071Y66699D01*
X116142Y64830D02*
X117847Y66535D01*
X116142Y61122D02*
Y64830D01*
X114862Y66646D02*
X115018D01*
X117847Y66535D02*
X121653D01*
X82284Y64935D02*
X84740Y62479D01*
X77449Y68914D02*
X77543D01*
Y68914D02*
Y68914D01*
Y68914D02*
X77913Y68543D01*
X89555Y95264D02*
X89665Y95374D01*
X48031Y6299D02*
X55512Y13780D01*
Y40907D02*
X59980Y45375D01*
X55512Y13780D02*
Y40907D01*
X57480Y6299D02*
X57874Y6693D01*
Y34778D02*
X58898Y35803D01*
X57874Y6693D02*
Y34778D01*
X62207Y34657D02*
Y35075D01*
X60236Y32686D02*
X62207Y34657D01*
X60236Y20044D02*
Y32686D01*
Y20044D02*
X67480Y12800D01*
X58898Y35803D02*
Y36220D01*
X37038Y27195D02*
X46260Y36417D01*
X37038Y26772D02*
Y27195D01*
X35433Y25167D02*
X37038Y26772D01*
X35433Y23622D02*
Y25167D01*
X46260Y36417D02*
Y45198D01*
X45433Y29291D02*
X48379Y32237D01*
X45433Y23622D02*
Y29291D01*
X48379Y32237D02*
Y36339D01*
X48425Y36385D02*
Y48172D01*
X48379Y36339D02*
X48425Y36385D01*
Y48172D02*
X56949Y56696D01*
X9526Y22990D02*
Y33307D01*
X8189Y21654D02*
X9526Y22990D01*
X113583Y65366D02*
X114862Y66646D01*
X113583Y61122D02*
Y65366D01*
X116043Y61024D02*
X116142Y61122D01*
X113484Y61024D02*
X113583Y61122D01*
X119685Y18504D02*
X129134D01*
X136925Y6855D02*
X137480Y6299D01*
X136925Y6855D02*
Y10713D01*
X129134Y18504D02*
X136925Y10713D01*
X110630Y27559D02*
X119685Y18504D01*
X110630Y27559D02*
X110630D01*
X104331Y29528D02*
X127480Y6378D01*
X98099Y29528D02*
X104331D01*
X127480Y6299D02*
Y6378D01*
X85870Y23939D02*
X88976Y20833D01*
Y9260D02*
Y20833D01*
X87480Y6299D02*
Y7764D01*
X88976Y9260D01*
X77559Y6299D02*
X85433Y14173D01*
Y19504D01*
X83643Y21295D02*
X85433Y19504D01*
X83643Y21295D02*
Y21712D01*
X89665Y95374D02*
Y98484D01*
X97480Y106299D01*
X96850Y96457D02*
X109683D01*
X119525Y106299D01*
X93338Y77590D02*
Y84790D01*
X93307Y84821D02*
X93338Y84790D01*
X90158Y74410D02*
X93338Y77590D01*
X133858Y60630D02*
Y67717D01*
X135728Y58760D02*
X138878D01*
X133858Y60630D02*
X135728Y58760D01*
X129921Y71653D02*
X133858Y67717D01*
X134350Y56201D02*
X138878D01*
X138977Y56102D01*
X131506Y59045D02*
X134350Y56201D01*
X138878Y58760D02*
X138977Y58661D01*
X99241Y71653D02*
X129921D01*
X127559Y69291D02*
X131506Y65344D01*
Y59045D02*
Y65344D01*
X100220Y69291D02*
X127559D01*
X95844Y74410D02*
X127165D01*
X90787Y71890D02*
X93324D01*
X90236Y68875D02*
Y71339D01*
X93324Y71890D02*
X95844Y74410D01*
X127165D02*
X129134Y76378D01*
X118602Y82972D02*
X122047Y79528D01*
X67323Y74016D02*
X67480Y74173D01*
Y106299D01*
X90236Y71339D02*
X90787Y71890D01*
X83643Y60965D02*
X84740Y62062D01*
Y62479D01*
X97480Y6299D02*
Y16783D01*
X88097Y26166D02*
X97480Y16783D01*
X100689Y61024D02*
Y66693D01*
X77902Y68532D02*
X78268Y68898D01*
X76929Y67323D02*
X77902Y68296D01*
Y68532D01*
X70079Y67323D02*
X76929D01*
X70472Y74016D02*
Y94095D01*
X77480Y101102D02*
Y106299D01*
X70472Y94095D02*
X77480Y101102D01*
X90324Y28394D02*
X90324D01*
X107763Y6582D02*
Y10955D01*
X90324Y28394D02*
X107763Y10955D01*
X107480Y6299D02*
X107763Y6582D01*
X17480Y6299D02*
Y7244D01*
X98130Y67202D02*
X100220Y69291D01*
X98130Y61024D02*
Y67202D01*
X47480Y6299D02*
X48031D01*
X67480D02*
Y12800D01*
X77480Y6299D02*
X77559D01*
X3937Y38896D02*
Y47638D01*
Y38896D02*
X9526Y33307D01*
X56949Y56696D02*
Y63605D01*
X46213Y45245D02*
Y46291D01*
Y45245D02*
X46260Y45198D01*
Y49069D02*
X54587Y57396D01*
X46260Y46337D02*
Y49069D01*
X46213Y46291D02*
X46260Y46337D01*
X54587Y57396D02*
Y68063D01*
X56949Y63605D02*
X57911Y64567D01*
X58071D02*
X59587Y66083D01*
X57911Y64567D02*
X58071D01*
X129134Y76378D02*
Y81102D01*
X126279Y83957D02*
X129134Y81102D01*
X126279Y83957D02*
Y88976D01*
X95571Y67983D02*
X99241Y71653D01*
X95571Y61024D02*
Y67983D01*
X118602Y82972D02*
Y88976D01*
X59587Y66083D02*
Y68063D01*
X94779Y32848D02*
X98099Y29528D01*
D58*
X26772Y79134D02*
X29528Y81890D01*
X26772Y67815D02*
X27411Y67175D01*
X26772Y67815D02*
Y79134D01*
X27411Y67175D02*
X28248Y66339D01*
X29528Y81890D02*
Y91142D01*
X20472Y87972D02*
Y91142D01*
X9200Y86400D02*
X18900D01*
X20472Y87972D01*
X151910Y25569D02*
Y34647D01*
X7480Y97420D02*
X9300Y95600D01*
X7480Y97420D02*
Y106299D01*
X151833Y25492D02*
X151910Y25569D01*
D59*
X20472Y101181D02*
D03*
X115748Y32283D02*
D03*
X25197Y50000D02*
D03*
X150394Y17717D02*
D03*
X24409Y90945D02*
D03*
X41732Y99213D02*
D03*
X88976Y80709D02*
D03*
X147244Y96850D02*
D03*
X92519Y42913D02*
D03*
X88976Y39370D02*
D03*
X80708Y49213D02*
D03*
X77953Y44882D02*
D03*
X81496Y40551D02*
D03*
X75197Y46850D02*
D03*
X117323Y39764D02*
D03*
X111024Y33307D02*
D03*
X100257Y32027D02*
D03*
X93996Y53445D02*
D03*
X72441Y34252D02*
D03*
X110630Y27559D02*
D03*
X65650Y38189D02*
D03*
X71929Y60027D02*
D03*
X77953Y62067D02*
D03*
X63779Y31872D02*
D03*
X134756Y48373D02*
D03*
X89784Y58268D02*
D03*
X76772Y53543D02*
D03*
X99213Y23959D02*
D03*
X79921Y28346D02*
D03*
X70571Y64173D02*
D03*
X87402Y60236D02*
D03*
X35039Y15933D02*
D03*
X92518Y48425D02*
D03*
X66535Y60236D02*
D03*
X26588Y15985D02*
D03*
X63841Y101514D02*
D03*
X74803Y81890D02*
D03*
X47638Y56988D02*
D03*
X47077Y93652D02*
D03*
X50900Y90300D02*
D03*
X82302Y84625D02*
D03*
X59842Y61811D02*
D03*
X77349Y32456D02*
D03*
X74048Y29375D02*
D03*
X89555Y95227D02*
D03*
X85444Y30709D02*
D03*
X12598Y18110D02*
D03*
X14961Y19685D02*
D03*
X54331Y75197D02*
D03*
X121653Y101575D02*
D03*
X79857Y77269D02*
D03*
X69158Y19158D02*
D03*
X115071Y66699D02*
D03*
X77449Y68914D02*
D03*
X37795Y58661D02*
D03*
X44291Y74634D02*
D03*
X57591Y38270D02*
D03*
X62315Y26772D02*
D03*
X105525Y18701D02*
D03*
X45831Y32684D02*
D03*
X35000Y31123D02*
D03*
X116500Y84000D02*
D03*
X128347Y14173D02*
D03*
X90551Y35269D02*
D03*
X110630Y94095D02*
D03*
X90158Y74410D02*
D03*
X29528Y66437D02*
D03*
X19600Y91200D02*
D03*
X28740Y68504D02*
D03*
X121260Y64173D02*
D03*
X84646Y66535D02*
D03*
X141339Y72404D02*
D03*
X110236Y66929D02*
D03*
X103150Y58268D02*
D03*
X122047Y79528D02*
D03*
X67323Y74016D02*
D03*
X117717Y46850D02*
D03*
X137271Y42184D02*
D03*
X100689Y66693D02*
D03*
X106693Y48031D02*
D03*
X54366Y86135D02*
D03*
X74803Y71260D02*
D03*
X70472Y74016D02*
D03*
X124705Y51968D02*
D03*
X110728Y76772D02*
D03*
X121653Y66535D02*
D03*
X124000Y41437D02*
D03*
X19685Y22835D02*
D03*
X42520Y9154D02*
D03*
X16920Y69083D02*
D03*
X31496Y75984D02*
D03*
X32283Y1969D02*
D03*
X30400Y40600D02*
D03*
X41200Y40900D02*
D03*
X9300Y76828D02*
D03*
X131200Y93994D02*
D03*
X64600Y84505D02*
D03*
X106299Y79768D02*
D03*
X102732Y41142D02*
D03*
X88976Y48151D02*
D03*
X77348Y79921D02*
D03*
X9115Y15884D02*
D03*
X3937Y47638D02*
D03*
X29528Y31102D02*
D03*
X121161Y91732D02*
D03*
X131693Y32776D02*
D03*
X128740Y86135D02*
D03*
M02*
