G04*
G04 #@! TF.GenerationSoftware,Altium Limited,Altium Designer,20.1.12 (249)*
G04*
G04 Layer_Color=8421504*
%FSLAX25Y25*%
%MOIN*%
G70*
G04*
G04 #@! TF.SameCoordinates,53A666A1-0C10-4713-9840-979741AB8DB5*
G04*
G04*
G04 #@! TF.FilePolarity,Positive*
G04*
G01*
G75*
G04:AMPARAMS|DCode=15|XSize=66.93mil|YSize=27.56mil|CornerRadius=0mil|HoleSize=0mil|Usage=FLASHONLY|Rotation=45.000|XOffset=0mil|YOffset=0mil|HoleType=Round|Shape=Rectangle|*
%AMROTATEDRECTD15*
4,1,4,-0.01392,-0.03341,-0.03341,-0.01392,0.01392,0.03341,0.03341,0.01392,-0.01392,-0.03341,0.0*
%
%ADD15ROTATEDRECTD15*%

G04:AMPARAMS|DCode=16|XSize=66.93mil|YSize=27.56mil|CornerRadius=0mil|HoleSize=0mil|Usage=FLASHONLY|Rotation=135.000|XOffset=0mil|YOffset=0mil|HoleType=Round|Shape=Rectangle|*
%AMROTATEDRECTD16*
4,1,4,0.03341,-0.01392,0.01392,-0.03341,-0.03341,0.01392,-0.01392,0.03341,0.03341,-0.01392,0.0*
%
%ADD16ROTATEDRECTD16*%

%ADD17R,0.04921X0.07874*%
%ADD18R,0.04842X0.08150*%
%ADD19R,0.02362X0.07874*%
%ADD20R,0.07677X0.07480*%
%ADD21R,0.03347X0.06791*%
%ADD22R,0.10787X0.11299*%
%ADD23R,0.05787X0.03787*%
%ADD24R,0.04528X0.07677*%
%ADD25R,0.13386X0.07677*%
%ADD26R,0.11299X0.10787*%
%ADD27R,0.03787X0.05787*%
%ADD28R,0.08268X0.09055*%
%ADD29R,0.08268X0.06693*%
%ADD30R,0.06102X0.02362*%
%ADD31R,0.02362X0.08661*%
%ADD32R,0.07480X0.07677*%
D15*
X59980Y37302D02*
D03*
X62207Y35075D02*
D03*
X64434Y32848D02*
D03*
X66661Y30621D02*
D03*
X68888Y28394D02*
D03*
X71115Y26166D02*
D03*
X73343Y23939D02*
D03*
X75570Y21712D02*
D03*
X99233Y45375D02*
D03*
X97006Y47602D02*
D03*
X94779Y49829D02*
D03*
X92551Y52056D02*
D03*
X90324Y54284D02*
D03*
X88097Y56511D02*
D03*
X85870Y58738D02*
D03*
X83643Y60965D02*
D03*
D16*
Y21712D02*
D03*
X85870Y23939D02*
D03*
X88097Y26166D02*
D03*
X90324Y28394D02*
D03*
X92551Y30621D02*
D03*
X94779Y32848D02*
D03*
X97006Y35075D02*
D03*
X99233Y37302D02*
D03*
X75570Y60965D02*
D03*
X73343Y58738D02*
D03*
X71115Y56511D02*
D03*
X68888Y54284D02*
D03*
X66661Y52056D02*
D03*
X64434Y49829D02*
D03*
X62207Y47602D02*
D03*
X59980Y45375D02*
D03*
D17*
X60630Y59449D02*
D03*
X48819D02*
D03*
X86614Y90551D02*
D03*
X74803D02*
D03*
D18*
X78268Y68898D02*
D03*
X89449D02*
D03*
X140729Y34647D02*
D03*
X151910D02*
D03*
X8189Y21654D02*
D03*
X19370D02*
D03*
X151833Y25492D02*
D03*
X140652D02*
D03*
D19*
X128839Y88976D02*
D03*
X126279D02*
D03*
X123721D02*
D03*
X121161D02*
D03*
X118602D02*
D03*
X116043D02*
D03*
X113484D02*
D03*
X110925D02*
D03*
X108366D02*
D03*
X105807D02*
D03*
X103248D02*
D03*
X100689D02*
D03*
X98130D02*
D03*
X95571D02*
D03*
Y61024D02*
D03*
X98130D02*
D03*
X100689D02*
D03*
X103248D02*
D03*
X105807D02*
D03*
X108366D02*
D03*
X110925D02*
D03*
X113484D02*
D03*
X116043D02*
D03*
X118602D02*
D03*
X121161D02*
D03*
X123721D02*
D03*
X126279D02*
D03*
X128839D02*
D03*
D20*
X41339Y41240D02*
D03*
Y50295D02*
D03*
X9300Y74828D02*
D03*
Y65772D02*
D03*
X30601Y50197D02*
D03*
Y41142D02*
D03*
D21*
X64587Y89417D02*
D03*
X59587D02*
D03*
X54587D02*
D03*
X49587D02*
D03*
Y68063D02*
D03*
X54587D02*
D03*
X59587D02*
D03*
X64587D02*
D03*
D22*
X9300Y86444D02*
D03*
D23*
Y95700D02*
D03*
D24*
X38583Y91142D02*
D03*
X29528D02*
D03*
X20472D02*
D03*
D25*
X29528Y66339D02*
D03*
D26*
X144095Y87008D02*
D03*
D27*
X153350D02*
D03*
D28*
X149606Y45473D02*
D03*
Y71850D02*
D03*
D29*
Y54724D02*
D03*
Y62598D02*
D03*
D30*
X138977Y58661D02*
D03*
Y61221D02*
D03*
Y56102D02*
D03*
Y63780D02*
D03*
Y53543D02*
D03*
D31*
X82284Y81890D02*
D03*
X77559D02*
D03*
X72835D02*
D03*
D32*
X131693Y32776D02*
D03*
X122638D02*
D03*
M02*
