M48
;Layer_Color=9474304
;FILE_FORMAT=2:5
INCH,TZ
T6F00S00C0.20000
%
G90
G05
T06
G00X159468Y-9800
M15
G01X161376Y-9210
G01X163129Y-8252
G01X164656Y-6965
G01X165897Y-5400
G01X166803Y-3619
G01X167336Y-1694
G01X167480Y0
G01X167480Y112598
G01X167281Y114586
G01X166690Y116494
G01X165732Y118247
G01X164445Y119774
G01X162880Y121015
G01X161099Y121921
G01X159174Y122454
G01X157480Y122598
G01X0Y122598
G01X-1988Y122399
G01X-3896Y121808
G01X-5648Y120850
G01X-7176Y119563
G01X-8417Y117998
G01X-9322Y116217
G01X-9855Y114292
G01X-10000Y112598
G01X-10000Y0
G01X-9800Y-1988
G01X-9210Y-3896
G01X-8252Y-5648
G01X-6965Y-7176
G01X-5400Y-8417
G01X-3619Y-9322
G01X-1694Y-9855
G01X0Y-10000
G01X157480Y-10000
G01X159468Y-9800
M16
M17
M30
