G04*
G04 #@! TF.GenerationSoftware,Altium Limited,Altium Designer,20.0.9 (164)*
G04*
G04 Layer_Color=32896*
%FSLAX25Y25*%
%MOIN*%
G70*
G01*
G75*
%ADD71C,0.00197*%
D71*
X15354Y95571D02*
X43701D01*
X15354Y61910D02*
Y95571D01*
Y61910D02*
X43701D01*
Y95571D01*
X43209Y49803D02*
Y95866D01*
Y49803D02*
X90650D01*
Y95866D01*
X43209D02*
X90650D01*
X138111Y38939D02*
X154529D01*
Y30356D02*
Y38939D01*
X138111Y30356D02*
X154529D01*
X138111D02*
Y38939D01*
X14516Y60654D02*
Y79946D01*
X4084Y60654D02*
X14516D01*
X4084D02*
Y79946D01*
X14516D01*
X45768Y54921D02*
X63681D01*
X45768D02*
Y63976D01*
X63681D01*
Y54921D02*
Y63976D01*
X50375Y41339D02*
X79606Y70569D01*
X108837Y41339D01*
X79606Y12108D02*
X108837Y41339D01*
X50375D02*
X79606Y12108D01*
X133858Y56496D02*
Y93504D01*
X90551Y56496D02*
X133858D01*
X90551D02*
Y93504D01*
X133858D01*
X67913Y64075D02*
Y93405D01*
X46260Y64075D02*
X67913D01*
X46260D02*
Y93405D01*
X67913D01*
X5571Y25945D02*
X21988D01*
Y17362D02*
Y25945D01*
X5571Y17362D02*
X21988D01*
X5571D02*
Y25945D01*
X117520Y27559D02*
Y37992D01*
Y27559D02*
X136811D01*
Y37992D01*
X117520D02*
X136811D01*
X36122Y55413D02*
X46555D01*
X36122Y36122D02*
Y55413D01*
Y36122D02*
X46555D01*
Y55413D01*
X100433Y38642D02*
X109016D01*
X100433D02*
Y55059D01*
X109016D01*
Y38642D02*
Y55059D01*
X71752Y86024D02*
Y95079D01*
Y86024D02*
X89665D01*
Y95079D01*
X71752D02*
X89665D01*
X92067Y64606D02*
Y73189D01*
X75650D02*
X92067D01*
X75650Y64606D02*
Y73189D01*
Y64606D02*
X92067D01*
X136122Y28248D02*
Y37303D01*
X118209Y28248D02*
X136122D01*
X118209D02*
Y37303D01*
X136122D01*
X138034Y21201D02*
Y29783D01*
Y21201D02*
X154451D01*
Y29783D01*
X138034D02*
X154451D01*
X36417Y36713D02*
X45472D01*
X36417D02*
Y54626D01*
X45472D01*
Y36713D02*
Y54626D01*
X5571Y86260D02*
Y94842D01*
X21988D01*
Y86260D02*
Y94842D01*
X5571Y86260D02*
X21988D01*
X112894Y41535D02*
Y60827D01*
Y41535D02*
X123327D01*
Y60827D01*
X112894D02*
X123327D01*
X124705Y41535D02*
Y60827D01*
Y41535D02*
X135138D01*
Y60827D01*
X124705D02*
X135138D01*
X35817Y36024D02*
Y55315D01*
X25384Y36024D02*
X35817D01*
X25384D02*
Y55315D01*
X35817D01*
X113484Y62402D02*
X131398D01*
Y71457D01*
X113484D02*
X131398D01*
X113484Y62402D02*
Y71457D01*
Y72244D02*
X131398D01*
Y81299D01*
X113484D02*
X131398D01*
X113484Y72244D02*
Y81299D01*
X51575Y17520D02*
X69488D01*
Y26575D01*
X51575D02*
X69488D01*
X51575Y17520D02*
Y26575D01*
X26467Y36516D02*
Y54429D01*
Y36516D02*
X35522D01*
Y54429D01*
X26467D02*
X35522D01*
X4688Y63229D02*
Y81142D01*
Y63229D02*
X13743D01*
Y81142D01*
X4688D02*
X13743D01*
X81988Y31791D02*
X99902D01*
Y40846D01*
X81988D02*
X99902D01*
X81988Y31791D02*
Y40846D01*
X81496Y40945D02*
X99410D01*
Y50000D01*
X81496D02*
X99410D01*
X81496Y40945D02*
Y50000D01*
X26476Y36811D02*
X44390Y36811D01*
X26476Y27756D02*
Y36811D01*
Y27756D02*
X44390D01*
Y36811D01*
X100433Y64626D02*
Y81043D01*
Y64626D02*
X109016D01*
Y81043D01*
X100433D02*
X109016D01*
X107146Y87441D02*
X123563D01*
Y96024D01*
X107146D02*
X123563D01*
X107146Y87441D02*
Y96024D01*
X136476Y37756D02*
X152894D01*
X136476Y29173D02*
Y37756D01*
Y29173D02*
X152894D01*
Y37756D01*
X35787Y54783D02*
Y71201D01*
X27205D02*
X35787D01*
X27205Y54783D02*
Y71201D01*
Y54783D02*
X35787D01*
X55472Y31161D02*
Y47579D01*
X46890D02*
X55472D01*
X46890Y31161D02*
Y47579D01*
Y31161D02*
X55472Y31161D01*
X56929Y28996D02*
Y45413D01*
Y28996D02*
X65512D01*
Y45413D01*
X56929D02*
X65512D01*
M02*
