G04*
G04 #@! TF.GenerationSoftware,Altium Limited,Altium Designer,20.0.9 (164)*
G04*
G04 Layer_Color=255*
%FSLAX25Y25*%
%MOIN*%
G70*
G01*
G75*
%ADD10C,0.01000*%
%ADD14C,0.00787*%
%ADD15C,0.00394*%
%ADD16C,0.00197*%
%ADD36R,0.04055X0.07362*%
%ADD37R,0.06890X0.06693*%
%ADD41R,0.04134X0.07087*%
%ADD51R,0.06791X0.06791*%
%ADD52C,0.06791*%
%ADD53C,0.05709*%
%ADD54C,0.07087*%
G04:AMPARAMS|DCode=55|XSize=70.87mil|YSize=70.87mil|CornerRadius=8.86mil|HoleSize=0mil|Usage=FLASHONLY|Rotation=270.000|XOffset=0mil|YOffset=0mil|HoleType=Round|Shape=RoundedRectangle|*
%AMROUNDEDRECTD55*
21,1,0.07087,0.05315,0,0,270.0*
21,1,0.05315,0.07087,0,0,270.0*
1,1,0.01772,-0.02657,-0.02657*
1,1,0.01772,-0.02657,0.02657*
1,1,0.01772,0.02657,0.02657*
1,1,0.01772,0.02657,-0.02657*
%
%ADD55ROUNDEDRECTD55*%
G04:AMPARAMS|DCode=56|XSize=70.87mil|YSize=70.87mil|CornerRadius=8.86mil|HoleSize=0mil|Usage=FLASHONLY|Rotation=180.000|XOffset=0mil|YOffset=0mil|HoleType=Round|Shape=RoundedRectangle|*
%AMROUNDEDRECTD56*
21,1,0.07087,0.05315,0,0,180.0*
21,1,0.05315,0.07087,0,0,180.0*
1,1,0.01772,-0.02657,0.02657*
1,1,0.01772,0.02657,0.02657*
1,1,0.01772,0.02657,-0.02657*
1,1,0.01772,-0.02657,-0.02657*
%
%ADD56ROUNDEDRECTD56*%
%ADD60R,0.10512X0.10000*%
%ADD61R,0.03000X0.05000*%
%ADD62R,0.02559X0.07284*%
%ADD63R,0.07362X0.04055*%
%ADD64R,0.07087X0.04134*%
G04:AMPARAMS|DCode=65|XSize=78.74mil|YSize=15.75mil|CornerRadius=0mil|HoleSize=0mil|Usage=FLASHONLY|Rotation=45.000|XOffset=0mil|YOffset=0mil|HoleType=Round|Shape=Rectangle|*
%AMROTATEDRECTD65*
4,1,4,-0.02227,-0.03341,-0.03341,-0.02227,0.02227,0.03341,0.03341,0.02227,-0.02227,-0.03341,0.0*
%
%ADD65ROTATEDRECTD65*%

D10*
X4526Y28307D02*
X14526D01*
X4526D02*
Y58307D01*
X14526D01*
X24526Y48307D02*
Y58307D01*
X14526D02*
X24526D01*
X14526Y28307D02*
X24526D01*
Y58307D01*
X40433Y18622D02*
X50433Y18622D01*
X50433Y28622D02*
X50433Y18622D01*
X30433Y18622D02*
X50433Y18622D01*
X30433Y28622D02*
X50433Y28622D01*
X30433Y18622D02*
Y28622D01*
X137794Y43409D02*
X152006D01*
Y51991D01*
X137794D02*
X152006D01*
X137794Y43409D02*
Y51991D01*
X5009Y82088D02*
Y96300D01*
X13591D01*
Y82088D02*
Y96300D01*
X5009Y82088D02*
X13591D01*
X71260Y84842D02*
X83858D01*
Y79724D02*
Y84842D01*
X71260Y79724D02*
X83858D01*
X71260D02*
Y84842D01*
X73936Y37951D02*
X82844Y29042D01*
X70317Y34332D02*
X73936Y37951D01*
X70317Y34332D02*
X79225Y25423D01*
X82844Y29042D01*
D14*
X154823Y57468D02*
Y90145D01*
X136909Y57468D02*
X154823D01*
X136909D02*
Y89948D01*
Y90145D02*
X154823D01*
D15*
X2480Y1299D02*
Y11299D01*
Y1299D02*
X152480D01*
Y11299D01*
X2480D02*
X152480D01*
X2480Y101299D02*
Y111299D01*
Y101299D02*
X152480D01*
Y111299D01*
X2480D02*
X152480D01*
X44193Y82598D02*
X49193Y87598D01*
X44193D02*
X89665D01*
Y58071D02*
Y87598D01*
X44193Y58071D02*
X89665D01*
X44193D02*
Y87598D01*
X140021Y37797D02*
X152619D01*
Y31498D02*
Y37797D01*
X140021Y31498D02*
X152619D01*
X140021D02*
Y37797D01*
X12450Y64001D02*
Y76599D01*
X6150Y64001D02*
X12450D01*
X6150D02*
Y76599D01*
X12450D01*
X10351D02*
X12450Y74501D01*
X48524Y56299D02*
X60925D01*
X48524D02*
Y62598D01*
X60925D01*
Y56299D02*
Y62598D01*
X60119Y41339D02*
X79606Y60826D01*
X99094Y41339D01*
X79606Y21851D02*
X99094Y41339D01*
X60119D02*
X79606Y21851D01*
X62346Y39112D02*
Y43566D01*
X42323Y71850D02*
Y85630D01*
X16732Y71850D02*
X42323D01*
X16732D02*
Y85630D01*
X42323D01*
X33268D02*
X42323Y76575D01*
X132283Y64567D02*
Y85433D01*
X92126Y64567D02*
X132283D01*
X92126D02*
Y85433D01*
X132283D01*
X129724D02*
X132283Y82874D01*
X66732Y71063D02*
Y86417D01*
X47441Y71063D02*
X66732D01*
X47441D02*
Y86417D01*
X66732D01*
X61732D02*
X66732Y81417D01*
X7480Y24803D02*
X20079D01*
Y18504D02*
Y24803D01*
X7480Y18504D02*
X20079D01*
X7480D02*
Y24803D01*
X120866Y33827D02*
X122965Y35925D01*
X120866Y29626D02*
Y35925D01*
Y29626D02*
X133465D01*
Y35925D01*
X120866D02*
X133465D01*
X42390Y52067D02*
X44488Y49968D01*
X38189Y52067D02*
X44488D01*
X38189Y39469D02*
Y52067D01*
Y39469D02*
X44488D01*
Y52067D01*
X133465Y40295D02*
X151378D01*
X133465D02*
Y53051D01*
X151378D01*
Y40295D02*
Y53051D01*
X101575Y40551D02*
X107874D01*
X101575D02*
Y53150D01*
X107874D01*
Y40551D02*
Y53150D01*
X74508Y87402D02*
Y93701D01*
Y87402D02*
X86910D01*
Y93701D01*
X74508D02*
X86910D01*
X90158Y65748D02*
Y72047D01*
X77559D02*
X90158D01*
X77559Y65748D02*
Y72047D01*
Y65748D02*
X90158D01*
X133366Y29626D02*
Y35925D01*
X120965Y29626D02*
X133366D01*
X120965D02*
Y35925D01*
X133366D01*
X139944Y22343D02*
Y28642D01*
Y22343D02*
X152542D01*
Y28642D01*
X139944D02*
X152542D01*
X37795Y39469D02*
X44094D01*
X37795D02*
Y51870D01*
X44094D01*
Y39469D02*
Y51870D01*
X7480Y87402D02*
Y93701D01*
X20079D01*
Y87402D02*
Y93701D01*
X7480Y87402D02*
X20079D01*
X114961Y44882D02*
Y57480D01*
Y44882D02*
X121260D01*
Y57480D01*
X114961D02*
X121260D01*
X114961Y55382D02*
X117059Y57480D01*
X126772Y44882D02*
Y57480D01*
Y44882D02*
X133071D01*
Y57480D01*
X126772D02*
X133071D01*
X126772Y55382D02*
X128870Y57480D01*
X33750Y39370D02*
Y51968D01*
X27451Y39370D02*
X33750D01*
X27451D02*
Y51968D01*
X33750D01*
X31652D02*
X33750Y49870D01*
X116240Y63779D02*
X128642D01*
Y70079D01*
X116240D02*
X128642D01*
X116240Y63779D02*
Y70079D01*
Y73622D02*
X128642D01*
Y79921D01*
X116240D02*
X128642D01*
X116240Y73622D02*
Y79921D01*
X54331Y18898D02*
X66732D01*
Y25197D01*
X54331D02*
X66732D01*
X54331Y18898D02*
Y25197D01*
X27845Y39272D02*
Y51673D01*
Y39272D02*
X34144D01*
Y51673D01*
X27845D02*
X34144D01*
X6066Y65985D02*
Y78387D01*
Y65985D02*
X12365D01*
Y78387D01*
X6066D02*
X12365D01*
X84744Y33169D02*
X97146D01*
Y39469D01*
X84744D02*
X97146D01*
X84744Y33169D02*
Y39469D01*
X84252Y42323D02*
X96653D01*
Y48622D01*
X84252D02*
X96653D01*
X84252Y42323D02*
Y48622D01*
X29232Y34646D02*
X41634D01*
X29232Y28346D02*
Y34646D01*
Y28346D02*
X41634D01*
Y34646D01*
X101575Y66535D02*
Y79134D01*
Y66535D02*
X107874D01*
Y79134D01*
X101575D02*
X107874D01*
X109055Y88583D02*
X121653D01*
Y94882D01*
X109055D02*
X121653D01*
X109055Y88583D02*
Y94882D01*
X138386Y36614D02*
X150984D01*
X138386Y30315D02*
Y36614D01*
Y30315D02*
X150984D01*
Y36614D01*
X34646Y56693D02*
Y69291D01*
X28346D02*
X34646D01*
X28346Y56693D02*
Y69291D01*
Y56693D02*
X34646D01*
X54331Y33071D02*
Y45669D01*
X48031D02*
X54331D01*
X48031Y33071D02*
Y45669D01*
Y33071D02*
X54331Y33071D01*
X58071Y30906D02*
Y43504D01*
Y30906D02*
X64370D01*
Y43504D01*
X58071D02*
X64370D01*
D16*
X1496Y315D02*
Y12284D01*
Y315D02*
X153465D01*
Y12284D01*
X1496D02*
X153465D01*
X1496Y100315D02*
Y112284D01*
Y100315D02*
X153465D01*
Y112284D01*
X1496D02*
X153465D01*
D36*
X19370Y90551D02*
D03*
X8189D02*
D03*
X109764Y91732D02*
D03*
X120945D02*
D03*
X150276Y33465D02*
D03*
X139094D02*
D03*
D37*
X118110Y55709D02*
D03*
Y46654D02*
D03*
X129921Y55709D02*
D03*
Y46654D02*
D03*
D41*
X121260Y32776D02*
D03*
X133071D02*
D03*
X116535Y66929D02*
D03*
X128347D02*
D03*
X116535Y76772D02*
D03*
X128347D02*
D03*
X54626Y22047D02*
D03*
X66437D02*
D03*
X85039Y36319D02*
D03*
X96850D02*
D03*
X84547Y45472D02*
D03*
X96358D02*
D03*
X41339Y31496D02*
D03*
X29528Y31496D02*
D03*
D51*
X7480Y6299D02*
D03*
Y106299D02*
D03*
D52*
X17480Y6299D02*
D03*
X27480D02*
D03*
X37480D02*
D03*
X47480D02*
D03*
X57480D02*
D03*
X67480D02*
D03*
X77480D02*
D03*
X87480D02*
D03*
X97480D02*
D03*
X107480D02*
D03*
X117480D02*
D03*
X127480D02*
D03*
X137480D02*
D03*
X147480D02*
D03*
X17480Y106299D02*
D03*
X27480D02*
D03*
X37480D02*
D03*
X47480D02*
D03*
X57480D02*
D03*
X67480D02*
D03*
X77480D02*
D03*
X87480D02*
D03*
X97480D02*
D03*
X107480D02*
D03*
X117480D02*
D03*
X127480D02*
D03*
X137480D02*
D03*
X147480D02*
D03*
D53*
X138977Y83649D02*
D03*
Y63964D02*
D03*
D54*
X149606Y60027D02*
D03*
Y87586D02*
D03*
X19526Y53307D02*
D03*
X9526Y43307D02*
D03*
Y33307D02*
D03*
X19526D02*
D03*
Y43307D02*
D03*
X35433Y23622D02*
D03*
D55*
X9526Y53307D02*
D03*
D56*
X45433Y23622D02*
D03*
D60*
X142150Y47700D02*
D03*
D61*
X151406D02*
D03*
D62*
X46929Y54429D02*
D03*
X51929D02*
D03*
X56929D02*
D03*
X61929D02*
D03*
X66929D02*
D03*
X71929D02*
D03*
X76929D02*
D03*
X81929D02*
D03*
X86929D02*
D03*
Y91240D02*
D03*
X81929D02*
D03*
X76929D02*
D03*
X71929D02*
D03*
X66929D02*
D03*
X61929D02*
D03*
X56929D02*
D03*
X51929D02*
D03*
X46929D02*
D03*
D63*
X104724Y52441D02*
D03*
Y41260D02*
D03*
Y78425D02*
D03*
Y67244D02*
D03*
X31496Y57402D02*
D03*
Y68583D02*
D03*
X51181Y33779D02*
D03*
Y44961D02*
D03*
X61221Y42795D02*
D03*
Y31614D02*
D03*
D64*
X40945Y51575D02*
D03*
Y39764D02*
D03*
X30994Y51378D02*
D03*
Y39567D02*
D03*
X9215Y78091D02*
D03*
Y66280D02*
D03*
D65*
X73240Y35028D02*
D03*
X76581Y31687D02*
D03*
X79921Y28346D02*
D03*
M02*
