M48
;Layer_Color=9474304
;FILE_FORMAT=4:3
METRIC,LZ
T7F00S00C5.080
%
G90
G05
T07
G00X0144754Y0041509
M15
G01X0146417Y0041678
G01X0148066Y0041956
G01X0149693Y0042341
G01X0151292Y0042832
G01X0152855Y0043426
G01X0154375Y0044121
G01X0155847Y0044914
G01X0157264Y0045801
G01X015862Y004678
G01X0159909Y0047845
G01X0161126Y0048992
G01X0162265Y0050216
G01X0163322Y0051511
G01X0164291Y0052874
G01X0165169Y0054296
G01X0165953Y0055774
G01X0166638Y0057299
G01X0167222Y0058866
G01X0167702Y0060467
G01X0168076Y0062097
G01X0168343Y0063747
G01X0168502Y0065412
G01X0168551Y0067083
G01X0168491Y0068754
G01X0168322Y0070417
G01X0168044Y0072066
G01X0167659Y0073693
G01X0167168Y0075292
G01X0166574Y0076855
G01X0165879Y0078375
G01X0165086Y0079847
G01X0164199Y0081264
G01X016322Y008262
G01X0162155Y0083909
G01X0161008Y0085126
G01X0159784Y0086265
G01X0158489Y0087322
G01X0157126Y0088291
G01X0155704Y0089169
G01X0154226Y0089953
G01X0152701Y0090638
G01X0151134Y0091222
G01X0149533Y0091702
G01X0147903Y0092076
G01X0146253Y0092343
G01X0144588Y0092502
G01X0142917Y0092551
G01X0141246Y0092491
G01X0139583Y0092322
G01X0137934Y0092044
G01X0136307Y0091659
G01X0134708Y0091168
G01X0133145Y0090574
G01X0131625Y0089879
G01X0130153Y0089086
G01X0128736Y0088199
G01X012738Y008722
G01X0126091Y0086155
G01X0124874Y0085008
G01X0123735Y0083784
G01X0122678Y0082489
G01X0121709Y0081126
G01X0120831Y0079704
G01X0120047Y0078226
G01X0119362Y0076701
G01X0118778Y0075134
G01X0118298Y0073533
G01X0117924Y0071903
G01X0117657Y0070253
G01X0117498Y0068588
G01X0117449Y0066917
G01X0117509Y0065246
G01X0117678Y0063583
G01X0117956Y0061934
G01X0118341Y0060307
G01X0118832Y0058708
G01X0119426Y0057145
G01X0120121Y0055625
G01X0120914Y0054153
G01X0121801Y0052736
G01X012278Y005138
G01X0123845Y0050091
G01X0124992Y0048874
G01X0126216Y0047735
G01X0127511Y0046678
G01X0128874Y0045709
G01X0130296Y0044831
G01X0131774Y0044047
G01X0133299Y0043362
G01X0134866Y0042778
G01X0136467Y0042298
G01X0138097Y0041924
G01X0139747Y0041657
G01X0141412Y0041498
G01X0143083Y0041449
G01X0144754Y0041509
M16
M17
M30
