M48
;Layer_Color=9474304
;FILE_FORMAT=4:3
METRIC,LZ
;TYPE=PLATED
T1F00S00C0.300
T2F00S00C0.850
T3F00S00C1.000
T4F00S00C1.020
T5F00S00C1.400
T6F00S00C4.000
%
T01
X016095Y006125
X0162125Y0075271
X0157358Y0072604
X0154051Y0072034
Y0068377
X0153895Y0067117
X0152683Y00668
X0151228Y0066858
X0152675Y006905
X015019Y0071349
X0146525Y0070725
X014565Y0072161
X0144805Y0073225
X0144766Y0074832
X01456Y00756
X01463
X0147
X01477
X01484
Y00763
X01491
X01498
X01505
Y0077
Y00777
Y00784
Y00791
X01498Y00791
X01491
X01484
X01477
X0147
X01463
Y00784
Y00777
Y0077
X0147
Y00777
Y00784
X01477
Y00777
Y0077
X01484
Y00777
Y00784
X01491
Y00777
Y0077
X01498
Y00777
Y00784
X01477Y00763
X0147
X01463
X01456
Y0077
Y00777
Y00784
Y00791
X01449
Y00784
Y00777
Y0077
Y00763
X01442Y00777
Y00784
Y00791
X0141725Y00776
Y007635
X0135175Y0074525
X0129667Y0074371
X0126917Y007432
X01239Y0072517
X01251Y0070575
X012315Y0068525
X0127576Y0066167
X0129025Y006995
X0140589Y0068936
X014224Y0066243
X0143231Y0065735
X0143656Y00665
X0146575Y00668
X0144275Y00609
X014295Y0060675
X014115Y0062225
X01372Y0063806
X0137897Y0059725
Y0058141
X013715Y005485
X0134819Y0054975
X0134633Y0057275
X013485Y0059325
X0131725Y0056575
X0131826Y0055067
X0130381Y0052503
X0131475Y00513
X0128325Y0057949
X0141024Y0056037
X0141969Y005485
X0143575
X0144059Y0055597
X0145349Y0055753
X0145339Y0058125
X0145349Y0058926
X014295Y0056425
X0144369Y0052294
X01439Y00512
X0145225Y0049025
X014085Y0049525
X0138025Y0047925
X0145811Y0053475
X0148525Y005565
X0148775Y00571
X0151974Y0056775
X0152Y0057825
X0151425Y005935
X0150575Y00591
X0149825Y0059725
X015205Y0059974
X01519Y0063
X0152298Y0064211
X0155423Y0064059
X0155075Y0061
X01576Y0058609
X0157182Y006805
X015842Y0069367
X0154638Y00753
X015192Y0053525
X0150238Y00529
X01505Y00798
X01512
X01519
Y00805
Y00812
X01512
Y00819
X01505
Y00812
Y00805
X01512
X01498
Y00812
Y00819
X01491
Y00826
Y00833
Y0084
Y00847
Y00854
X0148382Y0085391
X0147682
X0147Y00854
Y00847
X0147682Y0084691
Y0083991
X0147Y0084
Y00833
X0147682Y0083291
X0148382
Y0083991
Y0084691
X0150325Y0084575
X015035Y00832
X01519Y0084
X01526
X01533
X0154
Y00847
X01533
Y00854
X01526
Y00847
X01519
Y00854
X0150325Y00871
X01484Y00826
Y00819
Y00812
X01491
Y00805
Y00798
X01498
X01484
Y00805
X01477
Y00812
Y00819
Y00826
X0147
Y00819
Y00812
Y00805
Y00798
X01477
X01463
Y00805
Y00812
X01456
Y00805
Y00798
X01449
Y00805
Y00812
X01442
Y00819
Y00826
Y00833
Y0084
X0145811Y0083225
X01442Y00805
Y00798
X0142526Y0081307
X0140087Y0081475
Y008275
Y0084025
X01371Y00805
X013325Y0080395
X0154Y00826
Y00833
X01533
X0156125Y0081125
T02
X016105Y006465
Y006965
T03
X0128185Y0061475
X0130725
Y0064015
X0133265
Y0061475
X0128185Y0064015
X015595Y0077575
X015849
X0130956Y0082957
X0128875Y00815
T04
X01592Y00541
X015725Y00521
X0155075Y005045
X0152675Y0049025
X0150275Y0047725
X0147608Y0046775
X0135947Y00473
X0133675Y0048362
X0131625Y0049675
X0129775Y0051269
X0127875Y0053075
X012625Y005515
X0124663Y00572
X012355Y005985
X01228Y006254
X014695Y00875
T05
X016375Y006365
Y007065
T06
X0142779Y0046775
Y0086994
M30
