G04*
G04 #@! TF.GenerationSoftware,Altium Limited,Altium Designer,18.1.7 (191)*
G04*
G04 Layer_Physical_Order=2*
G04 Layer_Color=16711680*
%FSLAX43Y43*%
%MOMM*%
G71*
G01*
G75*
%ADD10C,0.500*%
%ADD14R,2.000X0.400*%
%ADD15R,1.870X1.030*%
%ADD29R,1.750X1.700*%
%ADD30C,1.800*%
G04:AMPARAMS|DCode=31|XSize=1.8mm|YSize=1.8mm|CornerRadius=0.225mm|HoleSize=0mm|Usage=FLASHONLY|Rotation=215.000|XOffset=0mm|YOffset=0mm|HoleType=Round|Shape=RoundedRectangle|*
%AMROUNDEDRECTD31*
21,1,1.800,1.350,0,0,215.0*
21,1,1.350,1.800,0,0,215.0*
1,1,0.450,-0.940,0.166*
1,1,0.450,0.166,0.940*
1,1,0.450,0.940,-0.166*
1,1,0.450,-0.166,-0.940*
%
%ADD31ROUNDEDRECTD31*%
G04:AMPARAMS|DCode=32|XSize=1.8mm|YSize=1.8mm|CornerRadius=0.225mm|HoleSize=0mm|Usage=FLASHONLY|Rotation=0.000|XOffset=0mm|YOffset=0mm|HoleType=Round|Shape=RoundedRectangle|*
%AMROUNDEDRECTD32*
21,1,1.800,1.350,0,0,0.0*
21,1,1.350,1.800,0,0,0.0*
1,1,0.450,0.675,-0.675*
1,1,0.450,-0.675,-0.675*
1,1,0.450,-0.675,0.675*
1,1,0.450,0.675,0.675*
%
%ADD32ROUNDEDRECTD32*%
%ADD33C,1.450*%
%ADD34C,1.500*%
%ADD35C,4.000*%
%ADD37C,1.000*%
%ADD38C,0.350*%
%ADD39C,0.550*%
%ADD40C,0.500*%
%ADD41R,2.670X2.540*%
%ADD42R,0.762X1.270*%
%ADD43R,1.800X1.050*%
%ADD44R,1.050X1.800*%
%ADD45R,1.030X1.870*%
G36*
X145256Y89902D02*
X146749Y89705D01*
X148226Y89411D01*
X149680Y89021D01*
X151106Y88537D01*
X152497Y87961D01*
X153848Y87295D01*
X155152Y86542D01*
X156404Y85705D01*
X157599Y84789D01*
X158731Y83796D01*
X159796Y82731D01*
X160789Y81599D01*
X161705Y80404D01*
X162542Y79152D01*
X163295Y77848D01*
X163961Y76497D01*
X164537Y75106D01*
X165021Y73680D01*
X165411Y72226D01*
X165705Y70749D01*
X165902Y69256D01*
X166000Y67753D01*
Y67000D01*
Y66247D01*
X165902Y64744D01*
X165705Y63251D01*
X165411Y61774D01*
X165021Y60320D01*
X164537Y58894D01*
X163961Y57503D01*
X163295Y56152D01*
X162542Y54848D01*
X161705Y53596D01*
X160789Y52401D01*
X159796Y51269D01*
X158731Y50204D01*
X157599Y49211D01*
X156404Y48295D01*
X155152Y47458D01*
X153848Y46705D01*
X152497Y46039D01*
X151106Y45463D01*
X149680Y44979D01*
X148226Y44589D01*
X146749Y44295D01*
X145256Y44098D01*
X143753Y44000D01*
X142247D01*
X140744Y44098D01*
X139251Y44295D01*
X137774Y44589D01*
X136320Y44979D01*
X134894Y45463D01*
X133503Y46039D01*
X132152Y46705D01*
X130848Y47458D01*
X129596Y48295D01*
X128401Y49211D01*
X127269Y50204D01*
X126204Y51269D01*
X125211Y52401D01*
X124295Y53596D01*
X123458Y54848D01*
X122705Y56152D01*
X122039Y57503D01*
X121463Y58894D01*
X120979Y60320D01*
X120589Y61774D01*
X120295Y63251D01*
X120098Y64744D01*
X120000Y66247D01*
Y67000D01*
Y67753D01*
X120098Y69256D01*
X120295Y70749D01*
X120589Y72226D01*
X120979Y73680D01*
X121463Y75106D01*
X122039Y76497D01*
X122705Y77848D01*
X123458Y79152D01*
X124295Y80404D01*
X125211Y81599D01*
X126204Y82731D01*
X127269Y83796D01*
X128401Y84789D01*
X129596Y85705D01*
X130848Y86542D01*
X132152Y87295D01*
X133503Y87961D01*
X134894Y88537D01*
X136320Y89021D01*
X137774Y89411D01*
X139251Y89705D01*
X140744Y89902D01*
X142247Y90000D01*
X143753D01*
X145256Y89902D01*
D02*
G37*
%LPC*%
G36*
X139762Y85184D02*
X137037D01*
X136862Y85149D01*
X136713Y85049D01*
X136163Y84499D01*
X136063Y84351D01*
X136033Y84200D01*
X135225D01*
Y82750D01*
X137425D01*
X137500Y82700D01*
Y82700D01*
X138563D01*
X138838Y82426D01*
X138987Y82326D01*
X139162Y82291D01*
X140087D01*
X140263Y82326D01*
X140412Y82426D01*
X140511Y82574D01*
X140546Y82750D01*
X140511Y82926D01*
X140412Y83074D01*
X140263Y83174D01*
X140087Y83209D01*
X139700D01*
Y83590D01*
X139827Y83658D01*
X139912Y83601D01*
X140087Y83566D01*
X140263Y83601D01*
X140412Y83701D01*
X140511Y83849D01*
X140546Y84025D01*
Y84400D01*
X140511Y84576D01*
X140412Y84724D01*
X140087Y85049D01*
X139938Y85149D01*
X139762Y85184D01*
D02*
G37*
G36*
X131197Y84324D02*
X131028Y84320D01*
X130873Y84252D01*
X129767Y83478D01*
X129650Y83355D01*
X129589Y83198D01*
X129592Y83029D01*
X129661Y82874D01*
X130435Y81768D01*
X130557Y81651D01*
X130715Y81590D01*
X130884Y81594D01*
X131038Y81662D01*
X132144Y82436D01*
X132261Y82558D01*
X132322Y82716D01*
X132319Y82885D01*
X132251Y83040D01*
X131476Y84146D01*
X131354Y84262D01*
X131197Y84324D01*
D02*
G37*
G36*
X157000Y82225D02*
X155550D01*
Y80025D01*
X157000D01*
Y82225D01*
D02*
G37*
G36*
X142779Y89204D02*
X142348Y89162D01*
X141933Y89036D01*
X141551Y88832D01*
X141216Y88557D01*
X140941Y88222D01*
X140737Y87840D01*
X140611Y87425D01*
X140569Y86994D01*
X140611Y86562D01*
X140737Y86148D01*
X140941Y85766D01*
X141216Y85431D01*
X141551Y85156D01*
X141933Y84951D01*
X142348Y84826D01*
X142779Y84783D01*
X143211Y84826D01*
X143625Y84951D01*
X143716Y85000D01*
X143816Y84909D01*
X143679Y84579D01*
X143675Y84560D01*
X143668Y84541D01*
X143570Y84050D01*
Y84030D01*
X143566Y84011D01*
Y83760D01*
Y81150D01*
X143567Y81144D01*
X143566Y81138D01*
X143671Y79294D01*
Y77374D01*
X143675Y77354D01*
Y77334D01*
X143757Y76922D01*
X143765Y76903D01*
X143769Y76883D01*
X143929Y76495D01*
X143941Y76478D01*
X143948Y76460D01*
X144182Y76110D01*
X144196Y76096D01*
X144207Y76079D01*
X144612Y75675D01*
X144789Y75498D01*
X144805Y75487D01*
X144820Y75473D01*
X145236Y75195D01*
X145254Y75187D01*
X145271Y75176D01*
X145733Y74984D01*
X145753Y74980D01*
X145771Y74973D01*
X146262Y74875D01*
X146282D01*
X146302Y74871D01*
X149198D01*
Y73617D01*
X149266D01*
Y73410D01*
X149196D01*
Y71140D01*
X149360D01*
X149397Y71050D01*
X149509Y70904D01*
X150273Y70141D01*
X150419Y70029D01*
X150589Y69958D01*
X150772Y69934D01*
X151880D01*
Y67865D01*
X153017D01*
X153045Y67750D01*
X153045D01*
Y65699D01*
X147330D01*
X146951Y66078D01*
X146794Y66183D01*
X146609Y66219D01*
X143231D01*
X143045Y66183D01*
X143041Y66180D01*
X142960Y66279D01*
X144222Y67541D01*
X145425D01*
Y67150D01*
X147625D01*
Y68600D01*
X145425D01*
Y68509D01*
X144022D01*
X144022Y68509D01*
X143836Y68472D01*
X143679Y68367D01*
X141898Y66586D01*
X141793Y66429D01*
X141756Y66243D01*
X141793Y66058D01*
X141898Y65901D01*
X142055Y65796D01*
X142240Y65759D01*
X142425Y65796D01*
X142582Y65901D01*
X142687Y66005D01*
X142786Y65924D01*
X142783Y65921D01*
X142746Y65735D01*
X142783Y65550D01*
X142888Y65393D01*
X142921Y65371D01*
X142883Y65244D01*
X142230D01*
X141324Y66149D01*
X141178Y66261D01*
X141008Y66332D01*
X140825Y66356D01*
X137731D01*
Y76658D01*
X138142Y77069D01*
X141267D01*
X141372Y76989D01*
X141499Y76936D01*
X141474Y76809D01*
X140600D01*
X140424Y76774D01*
X140276Y76674D01*
X139876Y76274D01*
X139776Y76126D01*
X139741Y75950D01*
Y75650D01*
X139100D01*
Y74200D01*
X141300D01*
Y75650D01*
X140700D01*
X140676Y75777D01*
X140790Y75891D01*
X141725D01*
X141901Y75926D01*
X142049Y76026D01*
X142149Y76174D01*
X142184Y76350D01*
X142149Y76526D01*
X142049Y76674D01*
X141901Y76774D01*
X141855Y76783D01*
X141859Y76912D01*
X141908Y76918D01*
X142078Y76989D01*
X142224Y77101D01*
X142336Y77247D01*
X142407Y77417D01*
X142431Y77600D01*
X142407Y77783D01*
X142336Y77953D01*
X142224Y78099D01*
X142049Y78274D01*
X141903Y78386D01*
X141733Y78457D01*
X141550Y78481D01*
X141300D01*
Y78650D01*
X139100D01*
Y78481D01*
X134521D01*
X133956Y79046D01*
Y80395D01*
X133932Y80577D01*
X133861Y80748D01*
X133749Y80894D01*
X133603Y81006D01*
X133433Y81077D01*
X133250Y81101D01*
X133067Y81077D01*
X132897Y81006D01*
X132894Y81004D01*
X132810Y81100D01*
X133301Y81591D01*
X136749D01*
X137500Y80840D01*
Y79700D01*
X139700D01*
Y80989D01*
X139727Y81016D01*
X140087D01*
X140263Y81051D01*
X140412Y81151D01*
X140511Y81299D01*
X140546Y81475D01*
X140511Y81651D01*
X140412Y81799D01*
X140263Y81899D01*
X140087Y81934D01*
X139537D01*
X139362Y81899D01*
X139213Y81799D01*
X138651Y81237D01*
X138473Y81237D01*
X137292Y82417D01*
X137135Y82522D01*
X136950Y82559D01*
X133101D01*
X132915Y82522D01*
X132758Y82417D01*
X131625Y81284D01*
X130086D01*
X129972Y81411D01*
X129980Y81597D01*
X129918Y81879D01*
X129784Y82136D01*
X129588Y82350D01*
X129344Y82506D01*
X129068Y82593D01*
X128778Y82605D01*
X128496Y82543D01*
X128239Y82409D01*
X128025Y82213D01*
X127869Y81969D01*
X127782Y81693D01*
X127770Y81403D01*
X127832Y81121D01*
X127966Y80864D01*
X128162Y80650D01*
X128406Y80494D01*
X128682Y80407D01*
X128972Y80395D01*
X129238Y80454D01*
X129390Y80353D01*
X129575Y80316D01*
X131826D01*
X132011Y80353D01*
X132168Y80458D01*
X132545Y80835D01*
X132641Y80751D01*
X132639Y80748D01*
X132568Y80577D01*
X132544Y80395D01*
Y78754D01*
X132568Y78571D01*
X132639Y78401D01*
X132721Y78293D01*
X132670Y78166D01*
X131719D01*
X131536Y78142D01*
X131366Y78072D01*
X131220Y77959D01*
X131066Y77806D01*
X130773D01*
Y77825D01*
X128573D01*
Y77756D01*
X127973D01*
Y77775D01*
X125773D01*
Y76325D01*
X127973D01*
Y76344D01*
X129623D01*
X129805Y76368D01*
X129822Y76375D01*
X130773D01*
Y76394D01*
X131359D01*
X131542Y76418D01*
X131712Y76489D01*
X131858Y76601D01*
X132011Y76754D01*
X133914D01*
X134097Y76778D01*
X134267Y76849D01*
X134413Y76961D01*
X134521Y77069D01*
X136238D01*
X136322Y76973D01*
X136319Y76950D01*
Y66356D01*
X129820D01*
X129637Y66332D01*
X129467Y66261D01*
X129321Y66149D01*
X128283Y65112D01*
X128185Y65124D01*
X127898Y65087D01*
X127630Y64976D01*
X127401Y64800D01*
X127224Y64570D01*
X127113Y64302D01*
X127076Y64015D01*
X127113Y63728D01*
X127224Y63460D01*
X127401Y63230D01*
X127630Y63054D01*
X127898Y62943D01*
X128185Y62906D01*
X128472Y62943D01*
X128740Y63054D01*
X128970Y63230D01*
X129146Y63460D01*
X129257Y63728D01*
X129295Y64015D01*
X129282Y64113D01*
X129548Y64379D01*
X129656Y64307D01*
X129653Y64302D01*
X129616Y64015D01*
X129653Y63728D01*
X129764Y63460D01*
X129941Y63230D01*
X130170Y63054D01*
X130438Y62943D01*
X130725Y62906D01*
X131012Y62943D01*
X131280Y63054D01*
X131510Y63230D01*
X131686Y63460D01*
X131797Y63728D01*
X131835Y64015D01*
X131797Y64302D01*
X131686Y64570D01*
X131510Y64800D01*
X131478Y64824D01*
X131519Y64944D01*
X140533D01*
X141438Y64038D01*
X142244Y63233D01*
Y60675D01*
Y56425D01*
X142268Y56242D01*
X142305Y56153D01*
Y55319D01*
X142178Y55252D01*
X142145Y55274D01*
X141969Y55309D01*
X141793Y55274D01*
X141731Y55232D01*
X137388D01*
X137326Y55274D01*
X137150Y55309D01*
X136974Y55274D01*
X136826Y55174D01*
X136726Y55026D01*
X136691Y54850D01*
X136725Y54682D01*
X136725Y54660D01*
X136660Y54555D01*
X135211D01*
X135164Y54682D01*
X135243Y54799D01*
X135278Y54975D01*
X135243Y55151D01*
X135143Y55299D01*
X134994Y55399D01*
X134819Y55434D01*
X134643Y55399D01*
X134581Y55357D01*
X134442D01*
X134250Y55549D01*
X134303Y55676D01*
X135850D01*
Y56476D01*
X133450D01*
Y55968D01*
X133447Y55955D01*
Y55693D01*
X133330Y55644D01*
X132669Y56305D01*
X132596Y56414D01*
X132521Y56464D01*
X132067Y56917D01*
X131910Y57022D01*
X131725Y57059D01*
X131540Y57022D01*
X131383Y56917D01*
X131336Y56848D01*
X131209Y56887D01*
Y60485D01*
X131280Y60514D01*
X131510Y60690D01*
X131686Y60920D01*
X131797Y61188D01*
X131835Y61475D01*
X131797Y61762D01*
X131686Y62030D01*
X131510Y62260D01*
X131280Y62436D01*
X131012Y62547D01*
X130725Y62584D01*
X130438Y62547D01*
X130170Y62436D01*
X129941Y62260D01*
X129764Y62030D01*
X129653Y61762D01*
X129616Y61475D01*
X129653Y61188D01*
X129764Y60920D01*
X129941Y60690D01*
X130170Y60514D01*
X130241Y60485D01*
Y60248D01*
X130215Y60227D01*
X130046Y60252D01*
X130024Y60284D01*
X129293Y61016D01*
Y62150D01*
X129260Y62316D01*
X129166Y62456D01*
X129026Y62550D01*
X128860Y62583D01*
X127510D01*
X127344Y62550D01*
X127204Y62456D01*
X127110Y62316D01*
X127077Y62150D01*
Y60800D01*
X127110Y60634D01*
X127204Y60494D01*
X127344Y60400D01*
X127510Y60367D01*
X128644D01*
X129241Y59770D01*
Y55625D01*
X129262Y55520D01*
X129160Y55412D01*
X129049Y55434D01*
X128624D01*
X128565Y55492D01*
X128408Y55597D01*
X128223Y55634D01*
X127076D01*
X126928Y55828D01*
X126729Y55980D01*
X126498Y56076D01*
X126250Y56108D01*
X126002Y56076D01*
X125771Y55980D01*
X125572Y55828D01*
X125420Y55629D01*
X125324Y55398D01*
X125292Y55150D01*
X125324Y54902D01*
X125420Y54671D01*
X125572Y54472D01*
X125771Y54320D01*
X126002Y54224D01*
X126250Y54192D01*
X126498Y54224D01*
X126729Y54320D01*
X126928Y54472D01*
X127076Y54666D01*
X128022D01*
X128080Y54608D01*
X128238Y54503D01*
X128423Y54466D01*
X128848D01*
X130020Y53294D01*
X130001Y53226D01*
X129963Y53171D01*
X129439D01*
X129292Y53142D01*
X129168Y53059D01*
X128927Y52818D01*
X128807Y52878D01*
X128833Y53075D01*
X128801Y53323D01*
X128705Y53554D01*
X128553Y53753D01*
X128354Y53905D01*
X128123Y54001D01*
X127875Y54033D01*
X127627Y54001D01*
X127396Y53905D01*
X127197Y53753D01*
X127045Y53554D01*
X126949Y53323D01*
X126917Y53075D01*
X126949Y52827D01*
X127045Y52596D01*
X127197Y52397D01*
X127396Y52245D01*
X127627Y52149D01*
X127875Y52117D01*
X128072Y52143D01*
X128132Y52023D01*
X128055Y51945D01*
X127972Y51821D01*
X127943Y51675D01*
Y51050D01*
X127972Y50904D01*
X128055Y50780D01*
X130805Y48030D01*
X130929Y47947D01*
X131075Y47918D01*
X131767D01*
X133230Y46455D01*
X133354Y46372D01*
X133500Y46343D01*
X135372D01*
X135518Y46372D01*
X135590Y46420D01*
X135699Y46374D01*
X135947Y46342D01*
X136195Y46374D01*
X136426Y46470D01*
X136624Y46622D01*
X136777Y46821D01*
X136872Y47052D01*
X136905Y47300D01*
X136872Y47548D01*
X136777Y47779D01*
X136624Y47978D01*
X136426Y48130D01*
X136195Y48226D01*
X135947Y48258D01*
X135699Y48226D01*
X135468Y48130D01*
X135269Y47978D01*
X135117Y47779D01*
X135021Y47548D01*
X134989Y47300D01*
X135001Y47203D01*
X134918Y47107D01*
X133658D01*
X133462Y47304D01*
X133521Y47424D01*
X133675Y47404D01*
X133923Y47436D01*
X134154Y47532D01*
X134353Y47684D01*
X134505Y47883D01*
X134601Y48114D01*
X134633Y48362D01*
X134601Y48610D01*
X134505Y48841D01*
X134353Y49039D01*
X134154Y49192D01*
X134057Y49232D01*
Y49292D01*
X134028Y49439D01*
X133945Y49563D01*
X132919Y50589D01*
X132972Y50716D01*
X143900D01*
X144085Y50753D01*
X144242Y50858D01*
X144347Y51015D01*
X144384Y51200D01*
X144347Y51385D01*
X144297Y51461D01*
X144356Y51602D01*
X144360Y51603D01*
X144517Y51708D01*
X144711Y51902D01*
X144816Y52059D01*
X144853Y52244D01*
X144853Y52244D01*
Y52294D01*
X144816Y52479D01*
X144711Y52636D01*
X144554Y52741D01*
X144431Y52766D01*
X144386Y52901D01*
X145691Y54207D01*
X145767Y54319D01*
X145914Y54351D01*
X147400Y52865D01*
Y52300D01*
X149600D01*
Y53355D01*
X149717Y53404D01*
X149856Y53265D01*
Y53138D01*
X149815Y53076D01*
X149780Y52900D01*
X149815Y52724D01*
X149914Y52576D01*
X150063Y52476D01*
X150238Y52441D01*
X150391Y52471D01*
X150518Y52404D01*
Y51958D01*
X147338Y48778D01*
X147255Y48654D01*
X147226Y48508D01*
Y47645D01*
X147129Y47605D01*
X146931Y47453D01*
X146778Y47254D01*
X146683Y47023D01*
X146650Y46775D01*
X146683Y46527D01*
X146778Y46296D01*
X146931Y46097D01*
X147129Y45945D01*
X147360Y45849D01*
X147608Y45817D01*
X147856Y45849D01*
X148087Y45945D01*
X148286Y46097D01*
X148438Y46296D01*
X148534Y46527D01*
X148566Y46775D01*
X148534Y47023D01*
X148438Y47254D01*
X148286Y47453D01*
X148087Y47605D01*
X147990Y47645D01*
Y48350D01*
X151170Y51530D01*
X151253Y51654D01*
X151282Y51800D01*
Y53705D01*
X151253Y53851D01*
X151170Y53975D01*
X150207Y54938D01*
Y55754D01*
X150217Y55761D01*
X150334Y55800D01*
X152046Y54088D01*
X151984Y53971D01*
X151920Y53984D01*
X151744Y53949D01*
X151596Y53849D01*
X151496Y53701D01*
X151461Y53525D01*
X151496Y53349D01*
X151543Y53280D01*
Y51083D01*
X150951Y50492D01*
X150868Y50368D01*
X150839Y50221D01*
Y48830D01*
X150620Y48610D01*
X150523Y48651D01*
X150275Y48683D01*
X150027Y48651D01*
X149796Y48555D01*
X149597Y48403D01*
X149445Y48204D01*
X149349Y47973D01*
X149317Y47725D01*
X149349Y47477D01*
X149445Y47246D01*
X149597Y47047D01*
X149796Y46895D01*
X150027Y46799D01*
X150275Y46767D01*
X150523Y46799D01*
X150754Y46895D01*
X150953Y47047D01*
X151105Y47246D01*
X151201Y47477D01*
X151233Y47725D01*
X151201Y47973D01*
X151160Y48070D01*
X151492Y48401D01*
X151574Y48525D01*
X151604Y48671D01*
Y48912D01*
X151731Y48920D01*
X151749Y48777D01*
X151845Y48546D01*
X151997Y48347D01*
X152196Y48195D01*
X152427Y48099D01*
X152675Y48067D01*
X152923Y48099D01*
X153154Y48195D01*
X153353Y48347D01*
X153505Y48546D01*
X153601Y48777D01*
X153633Y49025D01*
X153601Y49273D01*
X153505Y49504D01*
X153482Y49533D01*
Y53522D01*
X153609Y53575D01*
X154693Y52492D01*
Y51320D01*
X154596Y51280D01*
X154397Y51128D01*
X154245Y50929D01*
X154149Y50698D01*
X154117Y50450D01*
X154149Y50202D01*
X154245Y49971D01*
X154397Y49772D01*
X154596Y49620D01*
X154827Y49524D01*
X155075Y49492D01*
X155323Y49524D01*
X155554Y49620D01*
X155753Y49772D01*
X155905Y49971D01*
X156001Y50202D01*
X156033Y50450D01*
X156001Y50698D01*
X155905Y50929D01*
X155753Y51128D01*
X155554Y51280D01*
X155457Y51320D01*
Y52650D01*
X155428Y52796D01*
X155345Y52920D01*
X152062Y56204D01*
X152103Y56342D01*
X152150Y56351D01*
X152212Y56393D01*
X152642D01*
X156435Y52599D01*
X156420Y52579D01*
X156324Y52348D01*
X156292Y52100D01*
X156324Y51852D01*
X156420Y51621D01*
X156572Y51422D01*
X156771Y51270D01*
X157002Y51174D01*
X157250Y51142D01*
X157498Y51174D01*
X157729Y51270D01*
X157928Y51422D01*
X158080Y51621D01*
X158176Y51852D01*
X158208Y52100D01*
X158176Y52348D01*
X158080Y52579D01*
X157928Y52778D01*
X157729Y52930D01*
X157498Y53026D01*
X157250Y53058D01*
X157080Y53036D01*
X155557Y54559D01*
X155638Y54657D01*
X155729Y54597D01*
X155875Y54568D01*
X156567D01*
X157030Y54105D01*
X157154Y54022D01*
X157300Y53993D01*
X158256D01*
X158274Y53852D01*
X158370Y53621D01*
X158522Y53422D01*
X158721Y53270D01*
X158952Y53174D01*
X159200Y53142D01*
X159448Y53174D01*
X159679Y53270D01*
X159878Y53422D01*
X160030Y53621D01*
X160126Y53852D01*
X160158Y54100D01*
X160126Y54348D01*
X160030Y54579D01*
X159878Y54778D01*
X159679Y54930D01*
X159448Y55026D01*
X159200Y55058D01*
X158952Y55026D01*
X158721Y54930D01*
X158522Y54778D01*
X158507Y54757D01*
X157458D01*
X156995Y55220D01*
X156871Y55303D01*
X156725Y55332D01*
X156033D01*
X153270Y58095D01*
X153146Y58178D01*
X153000Y58207D01*
X152238D01*
X152176Y58249D01*
X152000Y58284D01*
X151859Y58256D01*
X151732Y58328D01*
Y59014D01*
X151749Y59026D01*
X151849Y59174D01*
X151884Y59350D01*
X151849Y59526D01*
X151749Y59674D01*
X151601Y59774D01*
X151425Y59809D01*
X151249Y59774D01*
X151101Y59674D01*
X151001Y59526D01*
X150996Y59501D01*
X150981Y59489D01*
X150857Y59453D01*
X150751Y59524D01*
X150575Y59559D01*
X150399Y59524D01*
X150358Y59496D01*
X150334Y59508D01*
X150255Y59580D01*
X150284Y59725D01*
X150249Y59901D01*
X150149Y60049D01*
X150001Y60149D01*
X149825Y60184D01*
X149649Y60149D01*
X149501Y60049D01*
X149401Y59901D01*
X149366Y59725D01*
X149401Y59549D01*
X149443Y59487D01*
Y59070D01*
X147365D01*
Y58231D01*
X145804D01*
X145802Y58233D01*
X145786Y58310D01*
X145681Y58467D01*
X145524Y58572D01*
X145339Y58609D01*
X145153Y58572D01*
X144996Y58467D01*
X144909Y58337D01*
X144782Y58364D01*
Y60775D01*
X144753Y60921D01*
X144720Y60972D01*
X144699Y61076D01*
X144599Y61224D01*
X144451Y61324D01*
X144275Y61359D01*
X144099Y61324D01*
X143951Y61224D01*
X143825Y61265D01*
Y61875D01*
X143656D01*
Y63525D01*
X143632Y63704D01*
X143631Y63731D01*
X143711Y63831D01*
X144720D01*
X146501Y62051D01*
X146647Y61939D01*
X146817Y61868D01*
X147000Y61844D01*
X150533D01*
X153226Y59151D01*
X153372Y59039D01*
X153542Y58968D01*
X153725Y58944D01*
X155689D01*
X155872Y58968D01*
X156042Y59039D01*
X156189Y59151D01*
X156666Y59628D01*
X156905D01*
Y59892D01*
X156935Y59932D01*
X157006Y60102D01*
X157013Y60155D01*
X157140Y60147D01*
Y58993D01*
X160210D01*
Y59763D01*
X160346Y59781D01*
X160516Y59852D01*
X160663Y59964D01*
X161449Y60751D01*
X161561Y60897D01*
X161632Y61067D01*
X161656Y61250D01*
X161632Y61433D01*
X161561Y61603D01*
X161449Y61749D01*
X161303Y61861D01*
X161133Y61932D01*
X160950Y61956D01*
X160767Y61932D01*
X160597Y61861D01*
X160451Y61749D01*
X160327Y61626D01*
X160210Y61674D01*
Y61933D01*
X157157D01*
X157140Y61933D01*
X157030Y61975D01*
Y62357D01*
X157724Y63051D01*
X159796D01*
Y65151D01*
X157646D01*
Y64811D01*
X157617Y64807D01*
X157447Y64736D01*
X157301Y64624D01*
X155825Y63148D01*
X155713Y63002D01*
X155642Y62832D01*
X155618Y62649D01*
Y60577D01*
X155397Y60356D01*
X154017D01*
X151324Y63049D01*
X151178Y63161D01*
X151114Y63188D01*
X151139Y63315D01*
X152660D01*
Y63942D01*
X152722Y64036D01*
X152757Y64211D01*
X152722Y64387D01*
X152660Y64480D01*
Y64731D01*
X155055D01*
X155240Y64768D01*
X155397Y64872D01*
X155740Y65215D01*
X155845Y65372D01*
X155882Y65557D01*
Y67947D01*
X156101Y68166D01*
X156574D01*
X156720Y68196D01*
X156844Y68278D01*
X156858Y68293D01*
X157453D01*
X157600Y68322D01*
X157724Y68405D01*
X157741Y68422D01*
X158187D01*
X158334Y68451D01*
X158458Y68534D01*
X158690Y68766D01*
X158773Y68891D01*
X158802Y69037D01*
Y69130D01*
X158844Y69192D01*
X158879Y69367D01*
X158844Y69543D01*
X158744Y69692D01*
X158595Y69791D01*
X158420Y69826D01*
X158377Y69818D01*
X158233Y69918D01*
X158229Y69945D01*
X158429Y70144D01*
X158575D01*
X158758Y70168D01*
X158928Y70239D01*
X159074Y70351D01*
X159115Y70404D01*
X159725D01*
Y72504D01*
X157897D01*
X157816Y72602D01*
X157816Y72604D01*
X157816Y72605D01*
X157897Y72704D01*
X159725D01*
Y74804D01*
X158730D01*
X158575Y74834D01*
X158420Y74804D01*
X157575D01*
Y74168D01*
X156887D01*
Y74558D01*
X154687D01*
Y73108D01*
X156887D01*
Y73199D01*
X157442D01*
X157451Y73173D01*
X157358Y73063D01*
X157354Y73062D01*
X157182Y73027D01*
X157033Y72928D01*
X156934Y72779D01*
X156899Y72604D01*
X156934Y72428D01*
X156943Y72415D01*
Y72190D01*
X156311Y71558D01*
X154687D01*
Y70596D01*
X154560Y70543D01*
X153963Y71139D01*
X153817Y71251D01*
X153647Y71322D01*
X153464Y71346D01*
X151064D01*
X150715Y71696D01*
Y72034D01*
X150691Y72217D01*
X150678Y72248D01*
Y74199D01*
X150681Y74225D01*
X150657Y74408D01*
X150628Y74477D01*
Y75115D01*
X151953Y76439D01*
X151997Y76505D01*
X152012Y76584D01*
Y76668D01*
X151997Y76746D01*
X151953Y76812D01*
X151953Y76812D01*
X151756Y77009D01*
X151690Y77053D01*
X151611Y77069D01*
X151034D01*
Y77728D01*
X151018Y77806D01*
X150992Y77870D01*
X150975Y78000D01*
X150992Y78130D01*
X151018Y78194D01*
X151034Y78272D01*
Y78931D01*
X151774D01*
X151775Y78931D01*
X151853Y78947D01*
X151919Y78991D01*
X152728Y79800D01*
X152772Y79866D01*
X152787Y79944D01*
X152772Y80022D01*
X152754Y80066D01*
Y81038D01*
X152747Y81072D01*
X152742Y81107D01*
X152739Y81111D01*
X152738Y81116D01*
X152719Y81145D01*
X152701Y81175D01*
X151693Y82284D01*
X151678Y82295D01*
X151666Y82308D01*
X151647Y82318D01*
X151629Y82331D01*
X151611Y82336D01*
X151595Y82344D01*
X150232Y82712D01*
X150160Y82742D01*
X150160Y82742D01*
X150160Y82742D01*
X150099Y82767D01*
X150048Y82806D01*
X150048Y82807D01*
X150048Y82807D01*
X149986Y82854D01*
X149979Y82860D01*
X149892Y82975D01*
X149842Y83095D01*
X149823Y83238D01*
Y84562D01*
X149842Y84704D01*
X149892Y84825D01*
X149971Y84929D01*
X150075Y85008D01*
X150195Y85058D01*
X150325Y85075D01*
X150454Y85058D01*
X150575Y85008D01*
X150679Y84929D01*
X150758Y84825D01*
X150808Y84704D01*
X150827Y84562D01*
Y83747D01*
X150830Y83734D01*
X150829Y83721D01*
X150837Y83696D01*
X150843Y83669D01*
X150850Y83658D01*
X150854Y83646D01*
X150872Y83626D01*
X150887Y83603D01*
X150898Y83596D01*
X150907Y83586D01*
X150931Y83574D01*
X150953Y83559D01*
X150966Y83556D01*
X150978Y83551D01*
X152042Y83263D01*
X152043Y83263D01*
X152046Y83262D01*
X152055Y83260D01*
X152059Y83259D01*
X152062Y83259D01*
X152099Y83241D01*
X152111Y83239D01*
X152121Y83232D01*
X152144Y83225D01*
X152145Y83224D01*
X152163Y83217D01*
X152164Y83216D01*
X152164Y83216D01*
X152165Y83216D01*
X152179Y83206D01*
X152188Y83202D01*
X152214Y83181D01*
X152224Y83175D01*
X152233Y83166D01*
X152253Y83153D01*
X152255Y83151D01*
X152270Y83140D01*
X152270Y83139D01*
X152271Y83138D01*
X152283Y83124D01*
X152292Y83117D01*
X152300Y83108D01*
X152306Y83103D01*
X153228Y82088D01*
X153232Y82085D01*
X153235Y82081D01*
X153264Y82061D01*
X153292Y82041D01*
X153297Y82039D01*
X153301Y82037D01*
X153335Y82030D01*
X153370Y82021D01*
X153374Y82022D01*
X153379Y82021D01*
X153796D01*
Y81526D01*
X153801Y81499D01*
X153803Y81473D01*
X153809Y81461D01*
X153812Y81448D01*
X153826Y81425D01*
X153838Y81401D01*
X153866Y81366D01*
X153886Y81309D01*
X153889Y81304D01*
X153890Y81299D01*
X153913Y81243D01*
X153918Y81183D01*
X153919Y81178D01*
X153919Y81173D01*
X153927Y81112D01*
Y79800D01*
X153908Y79658D01*
X153858Y79537D01*
X153771Y79423D01*
X152411Y78063D01*
X152367Y77997D01*
X152351Y77919D01*
X152367Y77840D01*
X152411Y77774D01*
X152705Y77480D01*
X152771Y77436D01*
X152849Y77420D01*
X152927Y77436D01*
X152993Y77480D01*
X154150Y78637D01*
X154150Y78637D01*
X154327Y78814D01*
X154338Y78830D01*
X154352Y78845D01*
X154630Y79261D01*
X154638Y79279D01*
X154649Y79296D01*
X154841Y79758D01*
X154845Y79778D01*
X154852Y79796D01*
X154950Y80287D01*
Y80307D01*
X154954Y80327D01*
Y80577D01*
Y83523D01*
Y83773D01*
X154950Y83793D01*
Y83813D01*
X154852Y84304D01*
X154845Y84322D01*
X154841Y84342D01*
X154649Y84804D01*
X154638Y84821D01*
X154630Y84839D01*
X154352Y85255D01*
X154338Y85270D01*
X154327Y85286D01*
X154150Y85463D01*
X154150Y85463D01*
X153219Y86394D01*
X153219Y86394D01*
X153153Y86438D01*
X153075Y86454D01*
X147224D01*
X147198Y86574D01*
X147429Y86670D01*
X147628Y86822D01*
X147780Y87021D01*
X147876Y87252D01*
X147908Y87500D01*
X147876Y87748D01*
X147780Y87979D01*
X147628Y88178D01*
X147429Y88330D01*
X147198Y88426D01*
X146950Y88458D01*
X146702Y88426D01*
X146471Y88330D01*
X146272Y88178D01*
X146120Y87979D01*
X146024Y87748D01*
X145992Y87500D01*
X146024Y87252D01*
X146120Y87021D01*
X146272Y86822D01*
X146471Y86670D01*
X146702Y86574D01*
X146676Y86454D01*
X145477D01*
X145457Y86450D01*
X145437D01*
X145272Y86417D01*
X145254Y86410D01*
X145234Y86406D01*
X145079Y86341D01*
X145062Y86330D01*
X145043Y86322D01*
X144998Y86292D01*
X144890Y86373D01*
X144948Y86562D01*
X144990Y86994D01*
X144948Y87425D01*
X144822Y87840D01*
X144617Y88222D01*
X144343Y88557D01*
X144008Y88832D01*
X143625Y89036D01*
X143211Y89162D01*
X142779Y89204D01*
D02*
G37*
G36*
X156625Y78683D02*
X155275D01*
X155109Y78650D01*
X154969Y78556D01*
X154875Y78416D01*
X154842Y78250D01*
Y76900D01*
X154875Y76734D01*
X154969Y76594D01*
X155109Y76500D01*
X155275Y76467D01*
X156625D01*
X156791Y76500D01*
X156931Y76594D01*
X157025Y76734D01*
X157058Y76900D01*
Y78250D01*
X157025Y78416D01*
X156931Y78556D01*
X156791Y78650D01*
X156625Y78683D01*
D02*
G37*
G36*
X158490Y78685D02*
X158203Y78647D01*
X157935Y78536D01*
X157705Y78360D01*
X157529Y78130D01*
X157418Y77862D01*
X157381Y77575D01*
X157418Y77288D01*
X157529Y77020D01*
X157705Y76790D01*
X157935Y76614D01*
X158203Y76503D01*
X158490Y76466D01*
X158777Y76503D01*
X159045Y76614D01*
X159275Y76790D01*
X159451Y77020D01*
X159562Y77288D01*
X159599Y77575D01*
X159562Y77862D01*
X159451Y78130D01*
X159275Y78360D01*
X159045Y78536D01*
X158777Y78647D01*
X158490Y78685D01*
D02*
G37*
G36*
X129667Y74830D02*
X129642Y74825D01*
X128573D01*
Y73375D01*
X130773D01*
Y74825D01*
X129692D01*
X129667Y74830D01*
D02*
G37*
G36*
X126917Y74779D02*
X126896Y74775D01*
X125773D01*
Y73325D01*
X127973D01*
Y74775D01*
X126938D01*
X126917Y74779D01*
D02*
G37*
G36*
X145250Y74125D02*
X143050D01*
Y72675D01*
X145250D01*
Y73154D01*
X145264Y73225D01*
X145250Y73296D01*
Y74125D01*
D02*
G37*
G36*
X147625Y71600D02*
X145425D01*
Y70150D01*
X147625D01*
Y71600D01*
D02*
G37*
G36*
X163750Y71759D02*
X163463Y71722D01*
X163195Y71611D01*
X162965Y71435D01*
X162789Y71205D01*
X162678Y70937D01*
X162641Y70650D01*
X162678Y70363D01*
X162789Y70095D01*
X162965Y69865D01*
X163195Y69689D01*
X163463Y69578D01*
X163750Y69541D01*
X164037Y69578D01*
X164305Y69689D01*
X164535Y69865D01*
X164711Y70095D01*
X164822Y70363D01*
X164859Y70650D01*
X164822Y70937D01*
X164711Y71205D01*
X164535Y71435D01*
X164305Y71611D01*
X164037Y71722D01*
X163750Y71759D01*
D02*
G37*
G36*
X161050Y70583D02*
X160809Y70551D01*
X160584Y70458D01*
X160390Y70310D01*
X160242Y70116D01*
X160149Y69891D01*
X160117Y69650D01*
X160149Y69409D01*
X160242Y69184D01*
X160390Y68990D01*
X160584Y68842D01*
X160809Y68749D01*
X161050Y68717D01*
X161291Y68749D01*
X161517Y68842D01*
X161710Y68990D01*
X161858Y69184D01*
X161951Y69409D01*
X161983Y69650D01*
X161951Y69891D01*
X161858Y70116D01*
X161710Y70310D01*
X161517Y70458D01*
X161291Y70551D01*
X161050Y70583D01*
D02*
G37*
G36*
X145250Y71125D02*
X143050D01*
Y70135D01*
X142335Y69420D01*
X140589D01*
X140404Y69383D01*
X140247Y69278D01*
X140142Y69121D01*
X140105Y68936D01*
X140142Y68750D01*
X140247Y68593D01*
X140404Y68488D01*
X140589Y68451D01*
X142536D01*
X142721Y68488D01*
X142878Y68593D01*
X143960Y69675D01*
X145250D01*
Y71125D01*
D02*
G37*
G36*
X157495Y67750D02*
X156045D01*
Y65550D01*
X157495D01*
Y65944D01*
X157646D01*
Y65351D01*
X159796D01*
Y67451D01*
X157646D01*
Y67356D01*
X157495D01*
Y67750D01*
D02*
G37*
G36*
X161050Y65583D02*
X160809Y65551D01*
X160584Y65458D01*
X160390Y65310D01*
X160242Y65117D01*
X160149Y64891D01*
X160117Y64650D01*
X160149Y64409D01*
X160242Y64184D01*
X160390Y63990D01*
X160584Y63842D01*
X160809Y63749D01*
X161050Y63717D01*
X161291Y63749D01*
X161517Y63842D01*
X161710Y63990D01*
X161858Y64184D01*
X161951Y64409D01*
X161983Y64650D01*
X161951Y64891D01*
X161858Y65117D01*
X161710Y65310D01*
X161517Y65458D01*
X161291Y65551D01*
X161050Y65583D01*
D02*
G37*
G36*
X155423Y64518D02*
X155247Y64483D01*
X155098Y64383D01*
X154999Y64234D01*
X154964Y64059D01*
X154999Y63883D01*
X155098Y63734D01*
X155247Y63635D01*
X155423Y63600D01*
X155598Y63635D01*
X155747Y63734D01*
X155846Y63883D01*
X155881Y64059D01*
X155846Y64234D01*
X155747Y64383D01*
X155598Y64483D01*
X155423Y64518D01*
D02*
G37*
G36*
X163750Y64759D02*
X163463Y64722D01*
X163195Y64611D01*
X162965Y64435D01*
X162789Y64205D01*
X162678Y63937D01*
X162641Y63650D01*
X162678Y63363D01*
X162789Y63095D01*
X162965Y62865D01*
X163195Y62689D01*
X163463Y62578D01*
X163750Y62541D01*
X164037Y62578D01*
X164305Y62689D01*
X164535Y62865D01*
X164711Y63095D01*
X164822Y63363D01*
X164859Y63650D01*
X164822Y63937D01*
X164711Y64205D01*
X164535Y64435D01*
X164305Y64611D01*
X164037Y64722D01*
X163750Y64759D01*
D02*
G37*
G36*
X141150Y62709D02*
X134015D01*
X133830Y62672D01*
X133673Y62567D01*
X133636Y62512D01*
X133552Y62547D01*
X133265Y62584D01*
X132978Y62547D01*
X132710Y62436D01*
X132481Y62260D01*
X132304Y62030D01*
X132193Y61762D01*
X132156Y61475D01*
X132193Y61188D01*
X132304Y60920D01*
X132481Y60690D01*
X132710Y60514D01*
X132978Y60403D01*
X133265Y60366D01*
X133552Y60403D01*
X133820Y60514D01*
X134050Y60690D01*
X134226Y60920D01*
X134337Y61188D01*
X134375Y61475D01*
X134352Y61645D01*
X134436Y61741D01*
X139375D01*
Y59675D01*
X140825D01*
Y60601D01*
X141474Y61251D01*
X141574Y61399D01*
X141609Y61575D01*
Y62097D01*
X141634Y62225D01*
X141597Y62410D01*
X141492Y62567D01*
X141335Y62672D01*
X141150Y62709D01*
D02*
G37*
G36*
X122800Y63498D02*
X122552Y63465D01*
X122321Y63369D01*
X122122Y63217D01*
X121970Y63019D01*
X121874Y62788D01*
X121842Y62540D01*
X121874Y62292D01*
X121970Y62061D01*
X122122Y61862D01*
X122321Y61710D01*
X122552Y61614D01*
X122800Y61581D01*
X123048Y61614D01*
X123279Y61710D01*
X123478Y61862D01*
X123630Y62061D01*
X123726Y62292D01*
X123758Y62540D01*
X123726Y62788D01*
X123630Y63019D01*
X123478Y63217D01*
X123279Y63369D01*
X123048Y63465D01*
X122800Y63498D01*
D02*
G37*
G36*
X123550Y60808D02*
X123302Y60776D01*
X123071Y60680D01*
X122872Y60528D01*
X122720Y60329D01*
X122624Y60098D01*
X122592Y59850D01*
X122624Y59602D01*
X122720Y59371D01*
X122872Y59172D01*
X123071Y59020D01*
X123302Y58924D01*
X123550Y58892D01*
X123798Y58924D01*
X124029Y59020D01*
X124228Y59172D01*
X124380Y59371D01*
X124476Y59602D01*
X124508Y59850D01*
X124476Y60098D01*
X124380Y60329D01*
X124228Y60528D01*
X124029Y60680D01*
X123798Y60776D01*
X123550Y60808D01*
D02*
G37*
G36*
X127576Y66651D02*
X127030D01*
X126844Y66615D01*
X126687Y66510D01*
X125158Y64980D01*
X125053Y64823D01*
X125016Y64637D01*
Y58238D01*
X124904Y58126D01*
X124663Y58158D01*
X124415Y58126D01*
X124184Y58030D01*
X123985Y57878D01*
X123833Y57679D01*
X123737Y57448D01*
X123705Y57200D01*
X123737Y56952D01*
X123833Y56721D01*
X123985Y56522D01*
X124184Y56370D01*
X124415Y56274D01*
X124663Y56242D01*
X124911Y56274D01*
X125142Y56370D01*
X125340Y56522D01*
X125493Y56721D01*
X125588Y56952D01*
X125621Y57200D01*
X125589Y57441D01*
X125842Y57695D01*
X125947Y57852D01*
X125984Y58037D01*
X125984Y58037D01*
Y64437D01*
X127230Y65683D01*
X127576D01*
X127761Y65720D01*
X127918Y65825D01*
X128023Y65982D01*
X128060Y66167D01*
X128023Y66353D01*
X127918Y66510D01*
X127761Y66615D01*
X127576Y66651D01*
D02*
G37*
G36*
X134850Y59784D02*
X134674Y59749D01*
X134612Y59707D01*
X134024D01*
X133878Y59678D01*
X133754Y59595D01*
X133416Y59258D01*
X133333Y59134D01*
X133304Y58988D01*
Y58649D01*
X133333Y58503D01*
X133416Y58378D01*
X133450Y58345D01*
Y58076D01*
X135850D01*
Y58876D01*
X135216D01*
X135174Y59001D01*
X135274Y59149D01*
X135309Y59325D01*
X135274Y59501D01*
X135174Y59649D01*
X135026Y59749D01*
X134850Y59784D01*
D02*
G37*
G36*
X142779Y48986D02*
X142348Y48943D01*
X141933Y48817D01*
X141551Y48613D01*
X141216Y48338D01*
X140941Y48003D01*
X140737Y47621D01*
X140611Y47206D01*
X140569Y46775D01*
X140611Y46344D01*
X140737Y45929D01*
X140941Y45547D01*
X141216Y45212D01*
X141551Y44937D01*
X141933Y44733D01*
X142348Y44607D01*
X142779Y44564D01*
X143211Y44607D01*
X143625Y44733D01*
X144008Y44937D01*
X144343Y45212D01*
X144617Y45547D01*
X144822Y45929D01*
X144948Y46344D01*
X144990Y46775D01*
X144948Y47206D01*
X144822Y47621D01*
X144617Y48003D01*
X144343Y48338D01*
X144008Y48613D01*
X143625Y48817D01*
X143211Y48943D01*
X142779Y48986D01*
D02*
G37*
%LPD*%
G36*
X154006Y85319D02*
X154183Y85142D01*
X154461Y84726D01*
X154652Y84264D01*
X154750Y83773D01*
Y83523D01*
Y80577D01*
Y80327D01*
X154652Y79836D01*
X154461Y79374D01*
X154183Y78958D01*
X154006Y78781D01*
X154006D01*
X154006Y78781D01*
X152849Y77624D01*
X152555Y77919D01*
X153924Y79288D01*
X154036Y79434D01*
X154107Y79604D01*
X154131Y79787D01*
Y81125D01*
X154121Y81200D01*
X154115Y81275D01*
X154109Y81291D01*
X154107Y81308D01*
X154078Y81378D01*
X154053Y81449D01*
X154043Y81462D01*
X154036Y81478D01*
X154000Y81526D01*
Y82225D01*
X153379D01*
X152447Y83250D01*
X152432Y83263D01*
X152424Y83273D01*
X152407Y83286D01*
X152388Y83308D01*
X152345Y83336D01*
X152307Y83369D01*
X152289Y83377D01*
X152278Y83386D01*
X152258Y83394D01*
X152234Y83410D01*
X152186Y83426D01*
X152140Y83448D01*
X152122Y83451D01*
X152108Y83457D01*
X151031Y83747D01*
Y84575D01*
X151007Y84758D01*
X150936Y84928D01*
X150824Y85074D01*
X150678Y85186D01*
X150508Y85257D01*
X150325Y85281D01*
X150142Y85257D01*
X149972Y85186D01*
X149826Y85074D01*
X149714Y84928D01*
X149643Y84758D01*
X149619Y84575D01*
Y83225D01*
X149643Y83042D01*
X149714Y82872D01*
X149826Y82726D01*
X149851Y82701D01*
X149924Y82645D01*
X149996Y82589D01*
X149996Y82589D01*
X149997Y82589D01*
X150081Y82554D01*
X150166Y82518D01*
X151542Y82147D01*
X152550Y81038D01*
Y80025D01*
X152550D01*
X152584Y79944D01*
X151775Y79135D01*
X150830D01*
Y78272D01*
X150793Y78183D01*
X150769Y78000D01*
X150793Y77817D01*
X150830Y77728D01*
Y76865D01*
X151611D01*
X151809Y76668D01*
Y76584D01*
X150300Y75075D01*
X146302D01*
X145811Y75173D01*
X145349Y75364D01*
X144933Y75642D01*
X144756Y75819D01*
X144351Y76224D01*
X144118Y76573D01*
X143957Y76961D01*
X143875Y77374D01*
Y79300D01*
X143770Y81150D01*
Y83760D01*
Y84011D01*
X143868Y84501D01*
X144059Y84964D01*
X144337Y85380D01*
X144514Y85556D01*
Y85557D01*
X144957Y86000D01*
X145017Y86059D01*
X145157Y86153D01*
X145312Y86217D01*
X145477Y86250D01*
X153075D01*
X154006Y85319D01*
D02*
G37*
G36*
X153669Y69437D02*
Y68615D01*
X153627Y68552D01*
X153592Y68377D01*
X153627Y68201D01*
X153727Y68052D01*
X153875Y67953D01*
X154051Y67918D01*
X154227Y67953D01*
X154375Y68052D01*
X154475Y68201D01*
X154510Y68377D01*
X154475Y68552D01*
X154433Y68615D01*
Y68764D01*
X154529Y68847D01*
X154554Y68844D01*
X155243D01*
X155292Y68727D01*
X155055Y68490D01*
X154950Y68333D01*
X154913Y68147D01*
Y65758D01*
X154854Y65699D01*
X154495D01*
Y67750D01*
X153338D01*
X153310Y67865D01*
X153310D01*
Y69630D01*
X153427Y69678D01*
X153669Y69437D01*
D02*
G37*
G36*
X146787Y64872D02*
X146944Y64768D01*
X147129Y64731D01*
X147667D01*
X147790Y64720D01*
X147790Y63290D01*
X147677Y63256D01*
X147292D01*
X145512Y65037D01*
X145398Y65124D01*
X145438Y65251D01*
X146408D01*
X146787Y64872D01*
D02*
G37*
G36*
X149443Y56750D02*
X147400D01*
Y55395D01*
X147273Y55343D01*
X145453Y57162D01*
X145516Y57280D01*
X145604Y57262D01*
X147821D01*
X148007Y57299D01*
X148164Y57404D01*
X148400Y57640D01*
X149443D01*
Y56750D01*
D02*
G37*
G36*
X144018Y60479D02*
Y57675D01*
X144047Y57529D01*
X144130Y57405D01*
X145202Y56332D01*
X145174Y56212D01*
X145158Y56197D01*
X145007Y56095D01*
X144902Y55938D01*
X144865Y55753D01*
Y54750D01*
X143674Y53559D01*
X143101D01*
X143063Y53686D01*
X143163Y53754D01*
X143917Y54508D01*
X144022Y54665D01*
X144059Y54850D01*
X144022Y55035D01*
X143917Y55192D01*
X143760Y55297D01*
X143735Y55302D01*
Y57390D01*
Y59660D01*
X143825Y59675D01*
Y60463D01*
X143952Y60525D01*
X144018Y60479D01*
D02*
G37*
G36*
X130987Y52327D02*
X130987Y52327D01*
X131434Y51880D01*
X131392Y51742D01*
X131299Y51724D01*
X131151Y51624D01*
X131051Y51476D01*
X131016Y51300D01*
X131051Y51124D01*
X131151Y50976D01*
X131299Y50876D01*
X131373Y50862D01*
X131437Y50797D01*
X131513Y50747D01*
X131482Y50614D01*
X131377Y50601D01*
X131146Y50505D01*
X130947Y50353D01*
X130795Y50154D01*
X130699Y49923D01*
X130667Y49675D01*
X130699Y49427D01*
X130721Y49374D01*
X130614Y49302D01*
X129719Y50197D01*
X129758Y50276D01*
X129783Y50312D01*
X130023Y50343D01*
X130254Y50439D01*
X130453Y50591D01*
X130605Y50790D01*
X130701Y51021D01*
X130733Y51269D01*
X130701Y51517D01*
X130605Y51748D01*
X130465Y51931D01*
X130474Y51999D01*
X130503Y52068D01*
X130557Y52079D01*
X130706Y52178D01*
X130805Y52327D01*
X130809Y52346D01*
X130931Y52383D01*
X130987Y52327D01*
D02*
G37*
G36*
X152718Y53417D02*
Y50021D01*
X152675Y49983D01*
X152427Y49951D01*
X152196Y49855D01*
X151997Y49703D01*
X151845Y49504D01*
X151749Y49273D01*
X151731Y49130D01*
X151604Y49138D01*
Y50063D01*
X152195Y50655D01*
X152278Y50779D01*
X152307Y50925D01*
Y53295D01*
X152344Y53349D01*
X152379Y53525D01*
X152366Y53589D01*
X152483Y53651D01*
X152718Y53417D01*
D02*
G37*
%LPC*%
G36*
X146435Y83910D02*
X145005D01*
Y81640D01*
X146435D01*
Y83910D01*
D02*
G37*
%LPD*%
D10*
X132254Y56071D02*
X134229Y54096D01*
X133265Y61475D02*
X134015Y62225D01*
X140087Y84025D02*
Y84400D01*
X139162Y82750D02*
X140087D01*
X134229Y54096D02*
X142821D01*
X129700Y55625D02*
X133275Y52050D01*
X129700Y55625D02*
Y59960D01*
X141150Y61575D02*
Y62225D01*
X128185Y61475D02*
X129700Y59960D01*
X140250Y60675D02*
X141150Y61575D01*
X136487Y83325D02*
Y84175D01*
X137037Y84725D01*
X139762D01*
X140087Y84400D01*
X138637Y80575D02*
X139537Y81475D01*
X140087D01*
X138637Y83275D02*
X139162Y82750D01*
X140200Y75075D02*
Y75950D01*
X140600Y76350D01*
X141725D01*
D14*
X134650Y58476D02*
D03*
Y57276D02*
D03*
Y56076D02*
D03*
D15*
X148925Y64005D02*
D03*
Y66845D02*
D03*
X151525Y64030D02*
D03*
Y66870D02*
D03*
X148500Y58355D02*
D03*
Y61195D02*
D03*
D29*
X158650Y71454D02*
D03*
Y73754D02*
D03*
X158721Y64101D02*
D03*
Y66401D02*
D03*
D30*
X128875Y81500D02*
D03*
X130725Y64015D02*
D03*
X133265D02*
D03*
Y61475D02*
D03*
X130725D02*
D03*
X128185Y64015D02*
D03*
X158490Y77575D02*
D03*
X163750Y70650D02*
D03*
Y63650D02*
D03*
D31*
X130956Y82957D02*
D03*
D32*
X128185Y61475D02*
D03*
X155950Y77575D02*
D03*
D33*
X161050Y64650D02*
D03*
Y69650D02*
D03*
D34*
X123550Y59850D02*
D03*
X122800Y62540D02*
D03*
X129775Y51269D02*
D03*
X124663Y57200D02*
D03*
X127875Y53075D02*
D03*
X126250Y55150D02*
D03*
X131625Y49675D02*
D03*
X133675Y48362D02*
D03*
X135947Y47300D02*
D03*
X147608Y46775D02*
D03*
X150275Y47725D02*
D03*
X152675Y49025D02*
D03*
X155075Y50450D02*
D03*
X157250Y52100D02*
D03*
X146950Y87500D02*
D03*
X159200Y54100D02*
D03*
D35*
X142779Y46775D02*
D03*
Y86994D02*
D03*
D37*
X149696Y64105D02*
X151908D01*
X148775Y77524D02*
X149375Y76924D01*
X149975Y76324D01*
X148775Y77524D02*
Y78000D01*
X149972Y71855D02*
Y74222D01*
X150009Y71403D02*
X150772Y70640D01*
X137850Y77775D02*
X141550D01*
X142950Y60675D02*
Y63525D01*
Y56425D02*
Y60675D01*
X157800Y64125D02*
X158605D01*
X156324Y62649D02*
X157800Y64125D01*
X158381Y66650D02*
X158605Y66425D01*
X156770Y66650D02*
X158381D01*
X133250Y78754D02*
Y80395D01*
Y78754D02*
X134229Y77775D01*
X133914Y77460D02*
X134229Y77775D01*
X131719Y77460D02*
X133914D01*
X129623Y77050D02*
X129673Y77100D01*
X126873Y77050D02*
X129623D01*
X131359Y77100D02*
X131719Y77460D01*
X129673Y77100D02*
X131359D01*
X129820Y65650D02*
X137025D01*
X128185Y64015D02*
X129820Y65650D01*
X160163Y60463D02*
X160950Y61250D01*
X158675Y60463D02*
X160163D01*
X156324D02*
Y62649D01*
X150825Y62550D02*
X153725Y59650D01*
X155689D01*
X156324Y60285D01*
Y60463D01*
X156918Y69550D02*
X157387Y70018D01*
X154554Y69550D02*
X156918D01*
X157387Y70100D02*
X158136Y70850D01*
X157387Y70018D02*
Y70100D01*
X150772Y70640D02*
X153464D01*
X154127Y69977D01*
X154554Y69550D01*
X150350Y83200D02*
X151924Y82775D01*
X150325Y83225D02*
X150350Y83200D01*
X150325Y83225D02*
Y84575D01*
X152515Y74921D02*
X152683Y74752D01*
X152515Y74921D02*
Y76960D01*
X151475Y78000D02*
X152515Y76960D01*
X151475Y78000D02*
X151638D01*
X153425Y79787D01*
Y81125D01*
X151925Y82775D02*
X153425Y81125D01*
X151924Y82775D02*
X151925Y82775D01*
X158136Y70850D02*
X158575D01*
X151908Y64105D02*
X151931Y64127D01*
X150009Y71403D02*
Y72034D01*
X134229Y77775D02*
X137850D01*
X141938Y64537D02*
X145012D01*
X149972Y74222D02*
X149975Y74225D01*
X141938Y64537D02*
X142950Y63525D01*
X140825Y65650D02*
X141938Y64537D01*
X147000Y62550D02*
X150825D01*
X145012Y64537D02*
X147000Y62550D01*
X137025Y65650D02*
X140825D01*
X137025D02*
Y76950D01*
X137850Y77775D01*
X141550D02*
X141725Y77600D01*
D38*
X151925Y50925D02*
Y53520D01*
X151920Y53525D02*
X151925Y53520D01*
X151349Y59274D02*
X151425Y59350D01*
X151349Y56376D02*
X155075Y52650D01*
X151349Y56376D02*
Y59274D01*
X151974Y56775D02*
X152776D01*
X152788Y56787D01*
X152000Y57825D02*
X153000D01*
X149983Y74752D02*
Y76083D01*
X149375Y76691D02*
X149983Y76083D01*
X149825Y54780D02*
X150900Y53705D01*
Y51800D02*
Y53705D01*
X147608Y48508D02*
X150900Y51800D01*
X150238Y52900D02*
Y53423D01*
X149312Y54350D02*
X150238Y53423D01*
X149825Y54780D02*
Y59725D01*
X147725Y54350D02*
X149312D01*
X144400Y57675D02*
X147725Y54350D01*
X133951Y56076D02*
X134650D01*
X134283Y54975D02*
X134819D01*
X133830Y55429D02*
X134283Y54975D01*
X133830Y55429D02*
Y55955D01*
X133951Y56076D01*
X133860Y58476D02*
X134650D01*
X134024Y59325D02*
X134850D01*
X133687Y58988D02*
X134024Y59325D01*
X133687Y58649D02*
Y58988D01*
Y58649D02*
X133860Y58476D01*
X155799Y68549D02*
X156574D01*
X156700Y68675D01*
X157453D01*
X157583Y68804D01*
X158187D01*
X158420Y69037D01*
Y69367D01*
X157325Y72571D02*
X157358Y72604D01*
X157325Y72032D02*
Y72571D01*
X156277Y70983D02*
X157325Y72032D01*
X149375Y76924D02*
Y77369D01*
Y76691D02*
Y76924D01*
X155787Y70983D02*
X156277D01*
X153000Y57825D02*
X155875Y54950D01*
X152788Y56787D02*
X157250Y52325D01*
X150575Y56100D02*
X153100Y53575D01*
X150575Y56100D02*
Y59100D01*
X133500Y46725D02*
X135372D01*
X131925Y48300D02*
X133500Y46725D01*
X131075Y48300D02*
X131925D01*
X128325Y51050D02*
X131075Y48300D01*
X128325Y51050D02*
Y51675D01*
X154051Y69901D02*
X154127Y69977D01*
X131475Y51300D02*
X131708Y51067D01*
X131900D02*
X133675Y49292D01*
X131708Y51067D02*
X131900D01*
X133675Y48362D02*
Y49292D01*
X135372Y46725D02*
X135947Y47300D01*
X129439Y52789D02*
X129986D01*
X128325Y51675D02*
X129439Y52789D01*
X129986D02*
X130272Y52503D01*
X130381D01*
X150275Y47725D02*
X151221Y48671D01*
Y50221D02*
X151925Y50925D01*
X151221Y48671D02*
Y50221D01*
X147608Y46775D02*
Y48508D01*
X152675Y49025D02*
X153100Y49450D01*
X155075Y50450D02*
Y52650D01*
X153100Y49450D02*
Y53575D01*
X158925Y54375D02*
X159200Y54100D01*
X157300Y54375D02*
X158925D01*
X156725Y54950D02*
X157300Y54375D01*
X157250Y52100D02*
Y52325D01*
X155875Y54950D02*
X156725D01*
X144400Y57675D02*
Y60775D01*
X144275Y60900D02*
X144400Y60775D01*
X137150Y54850D02*
X141969D01*
X154051Y68377D02*
Y69901D01*
X148375Y58300D02*
X148500Y58425D01*
D39*
X145339Y58011D02*
Y58125D01*
Y58011D02*
X145604Y57746D01*
X143875Y53075D02*
X145349Y54549D01*
Y55601D02*
Y55753D01*
Y55601D02*
X147775Y53175D01*
X145349Y54549D02*
Y55753D01*
X133101Y82075D02*
X136950D01*
X131826Y80800D02*
X133101Y82075D01*
X129575Y80800D02*
X131826D01*
X128875Y81500D02*
X129575Y80800D01*
X136950Y82075D02*
X138600Y80425D01*
X132229Y56071D02*
X132254D01*
X131725Y56575D02*
X132229Y56071D01*
X134015Y62225D02*
X141150D01*
X155787Y73683D02*
X157908D01*
X155397Y68147D02*
X155799Y68549D01*
X156620Y66650D02*
X156770D01*
X155397Y65557D02*
Y68147D01*
X155055Y65215D02*
X155397Y65557D01*
X147129Y65215D02*
X155055D01*
X146609Y65735D02*
X147129Y65215D01*
X147821Y57746D02*
X148375Y58300D01*
X145604Y57746D02*
X147821D01*
X131329Y52670D02*
X132799Y51200D01*
X131329Y52670D02*
Y52670D01*
X132799Y51200D02*
X143900D01*
X133775Y53075D02*
X143875D01*
X130725Y56125D02*
X133775Y53075D01*
X142821Y54096D02*
X143575Y54850D01*
X144369Y52244D02*
Y52294D01*
X130545Y53454D02*
X131329Y52670D01*
X130545Y53454D02*
Y53454D01*
X129049Y54950D02*
X130545Y53454D01*
X126250Y55150D02*
X128223D01*
X128423Y54950D01*
X129049D01*
X124663Y57200D02*
X125500Y58037D01*
Y64637D01*
X133304Y52079D02*
X143892D01*
X133275Y52050D02*
X133304Y52079D01*
X144175Y52050D02*
X144369Y52244D01*
X143892Y52079D02*
X143921Y52050D01*
X144175D01*
X125500Y64637D02*
X127030Y66167D01*
X127576D01*
X143231Y65735D02*
X146609D01*
X156595Y66624D02*
X156620Y66650D01*
X157908Y73683D02*
X158575Y74350D01*
X142240Y66243D02*
X144022Y68025D01*
X146525D01*
X140589Y68936D02*
X142536D01*
X144150Y70550D01*
X130725Y56125D02*
Y61475D01*
X147775Y53175D02*
X148500D01*
D40*
X126917Y74320D02*
D03*
X129667Y74371D02*
D03*
X148525Y55650D02*
D03*
X145349Y58926D02*
D03*
X145339Y58125D02*
D03*
X145349Y55753D02*
D03*
X137897Y59725D02*
D03*
X151920Y53525D02*
D03*
X151974Y56775D02*
D03*
X152000Y57825D02*
D03*
X147682Y83291D02*
D03*
Y83991D02*
D03*
Y84691D02*
D03*
Y85391D02*
D03*
X148382Y83291D02*
D03*
Y83991D02*
D03*
Y84691D02*
D03*
Y85391D02*
D03*
X149800Y77000D02*
D03*
X149100D02*
D03*
X148400D02*
D03*
X147700D02*
D03*
X147000D02*
D03*
X146300D02*
D03*
Y77700D02*
D03*
Y78400D02*
D03*
Y79100D02*
D03*
X147000Y77700D02*
D03*
Y78400D02*
D03*
Y79100D02*
D03*
X147700Y77700D02*
D03*
Y78400D02*
D03*
Y79100D02*
D03*
X148400Y77700D02*
D03*
Y78400D02*
D03*
Y79100D02*
D03*
X149100Y77700D02*
D03*
Y78400D02*
D03*
Y79100D02*
D03*
X149800Y77700D02*
D03*
Y78400D02*
D03*
Y79100D02*
D03*
X154000Y84700D02*
D03*
Y84000D02*
D03*
Y83300D02*
D03*
Y82600D02*
D03*
X153300Y85400D02*
D03*
Y84700D02*
D03*
Y84000D02*
D03*
Y83300D02*
D03*
X152600Y85400D02*
D03*
Y84700D02*
D03*
Y84000D02*
D03*
X151900Y85400D02*
D03*
Y84700D02*
D03*
Y84000D02*
D03*
Y81200D02*
D03*
Y80500D02*
D03*
Y79800D02*
D03*
X151200Y81900D02*
D03*
Y81200D02*
D03*
Y80500D02*
D03*
Y79800D02*
D03*
X150500Y81900D02*
D03*
Y81200D02*
D03*
Y80500D02*
D03*
Y79800D02*
D03*
Y79100D02*
D03*
Y78400D02*
D03*
Y77700D02*
D03*
Y77000D02*
D03*
Y76300D02*
D03*
X149800Y81900D02*
D03*
Y81200D02*
D03*
Y80500D02*
D03*
Y79800D02*
D03*
Y76300D02*
D03*
X149100Y85400D02*
D03*
Y84700D02*
D03*
Y84000D02*
D03*
Y83300D02*
D03*
Y82600D02*
D03*
Y81900D02*
D03*
Y81200D02*
D03*
Y80500D02*
D03*
Y79800D02*
D03*
Y76300D02*
D03*
X148400Y82600D02*
D03*
Y81900D02*
D03*
Y81200D02*
D03*
Y80500D02*
D03*
Y79800D02*
D03*
Y76300D02*
D03*
Y75600D02*
D03*
X147700Y82600D02*
D03*
Y81900D02*
D03*
Y81200D02*
D03*
Y80500D02*
D03*
Y79800D02*
D03*
Y76300D02*
D03*
Y75600D02*
D03*
X147000Y85400D02*
D03*
Y84700D02*
D03*
Y84000D02*
D03*
Y83300D02*
D03*
Y82600D02*
D03*
Y81900D02*
D03*
Y81200D02*
D03*
Y80500D02*
D03*
Y79800D02*
D03*
Y76300D02*
D03*
Y75600D02*
D03*
X146300Y81200D02*
D03*
Y80500D02*
D03*
Y79800D02*
D03*
Y76300D02*
D03*
Y75600D02*
D03*
X145600Y81200D02*
D03*
Y80500D02*
D03*
Y79800D02*
D03*
Y79100D02*
D03*
Y78400D02*
D03*
Y77700D02*
D03*
Y77000D02*
D03*
Y76300D02*
D03*
Y75600D02*
D03*
X144900Y81200D02*
D03*
Y80500D02*
D03*
Y79800D02*
D03*
Y79100D02*
D03*
Y78400D02*
D03*
Y77700D02*
D03*
Y77000D02*
D03*
Y76300D02*
D03*
X144200Y84000D02*
D03*
Y83300D02*
D03*
Y82600D02*
D03*
Y81900D02*
D03*
Y81200D02*
D03*
Y80500D02*
D03*
Y79800D02*
D03*
Y79100D02*
D03*
Y78400D02*
D03*
Y77700D02*
D03*
X151900Y63000D02*
D03*
X155075Y61000D02*
D03*
X137100Y80500D02*
D03*
X144059Y55597D02*
D03*
X148775Y57100D02*
D03*
X152050Y59974D02*
D03*
X157600Y58609D02*
D03*
X154638Y75300D02*
D03*
X144766Y74832D02*
D03*
X142526Y81307D02*
D03*
X141024Y56037D02*
D03*
X143656Y66500D02*
D03*
X150238Y52900D02*
D03*
X133250Y80395D02*
D03*
X134633Y57275D02*
D03*
X134850Y59325D02*
D03*
X134819Y54975D02*
D03*
X128325Y57949D02*
D03*
X131725Y56575D02*
D03*
X160950Y61250D02*
D03*
X158420Y69367D02*
D03*
X157182Y68050D02*
D03*
X157358Y72604D02*
D03*
X152683Y66800D02*
D03*
X153895Y67117D02*
D03*
X146575Y66800D02*
D03*
X145650Y72161D02*
D03*
X145811Y83225D02*
D03*
X145225Y49025D02*
D03*
X140087Y84025D02*
D03*
Y82750D02*
D03*
X150575Y59100D02*
D03*
X145811Y53475D02*
D03*
X144369Y52294D02*
D03*
X131475Y51300D02*
D03*
X130381Y52503D02*
D03*
X137200Y63806D02*
D03*
X151228Y66858D02*
D03*
X135175Y74525D02*
D03*
X162125Y75271D02*
D03*
X123900Y72517D02*
D03*
X125100Y70575D02*
D03*
X123150Y68525D02*
D03*
X138025Y47925D02*
D03*
X140850Y49525D02*
D03*
X150325Y87100D02*
D03*
Y84575D02*
D03*
X150350Y83200D02*
D03*
X144275Y60900D02*
D03*
X149825Y59725D02*
D03*
X151425Y59350D02*
D03*
X137150Y54850D02*
D03*
X143900Y51200D02*
D03*
X127576Y66167D02*
D03*
X154051Y68377D02*
D03*
X152675Y69050D02*
D03*
X143231Y65735D02*
D03*
X144805Y73225D02*
D03*
X154051Y72034D02*
D03*
X129025Y69950D02*
D03*
X137897Y58141D02*
D03*
X155423Y64059D02*
D03*
X152298Y64211D02*
D03*
X150190Y71349D02*
D03*
X142240Y66243D02*
D03*
X140589Y68936D02*
D03*
X131826Y55067D02*
D03*
X143575Y54850D02*
D03*
X141969D02*
D03*
X141150Y62225D02*
D03*
X142950Y56425D02*
D03*
Y60675D02*
D03*
X146525Y70725D02*
D03*
X156125Y81125D02*
D03*
X140087Y81475D02*
D03*
X141725Y76350D02*
D03*
Y77600D02*
D03*
D41*
X158675Y60463D02*
D03*
D42*
X156324D02*
D03*
D43*
X129673Y77100D02*
D03*
Y74100D02*
D03*
X155787Y70833D02*
D03*
Y73833D02*
D03*
X140200Y74925D02*
D03*
Y77925D02*
D03*
X138600Y83425D02*
D03*
Y80425D02*
D03*
X126873Y77050D02*
D03*
Y74050D02*
D03*
X136325Y80475D02*
D03*
Y83475D02*
D03*
X148500Y56025D02*
D03*
Y53025D02*
D03*
X144150Y70400D02*
D03*
Y73400D02*
D03*
X146525Y67875D02*
D03*
Y70875D02*
D03*
D44*
X153770Y66650D02*
D03*
X156770D02*
D03*
X156275Y81125D02*
D03*
X153275D02*
D03*
X143100Y60775D02*
D03*
X140100D02*
D03*
D45*
X145720Y82775D02*
D03*
X142880D02*
D03*
X152595Y69000D02*
D03*
X149755D02*
D03*
X149911Y72275D02*
D03*
X152751D02*
D03*
X149913Y74752D02*
D03*
X152753D02*
D03*
X148705Y78000D02*
D03*
X151545D02*
D03*
X143020Y56275D02*
D03*
X140180D02*
D03*
X143020Y58525D02*
D03*
X140180D02*
D03*
M02*
