G04*
G04 #@! TF.GenerationSoftware,Altium Limited,Altium Designer,18.1.7 (191)*
G04*
G04 Layer_Color=128*
%FSLAX43Y43*%
%MOMM*%
G71*
G01*
G75*
%ADD49C,0.051*%
D49*
X128375Y81500D02*
X129375D01*
X128875Y81000D02*
Y82000D01*
X130456Y82957D02*
X131456D01*
X130956Y82457D02*
Y83457D01*
X130225Y64015D02*
X131225D01*
X130725Y63515D02*
Y64515D01*
X132765Y64015D02*
X133765D01*
X133265Y63515D02*
Y64515D01*
X132765Y61475D02*
X133765D01*
X133265Y60975D02*
Y61975D01*
X130225Y61475D02*
X131225D01*
X130725Y60975D02*
Y61975D01*
X127685Y61475D02*
X128685D01*
X128185Y60975D02*
Y61975D01*
X127685Y64015D02*
X128685D01*
X128185Y63515D02*
Y64515D01*
X157990Y77575D02*
X158990D01*
X158490Y77075D02*
Y78075D01*
X155450Y77575D02*
X156450D01*
X155950Y77075D02*
Y78075D01*
X163050Y70650D02*
X164450D01*
X163750Y69950D02*
Y71350D01*
X163050Y63650D02*
X164450D01*
X163750Y62950D02*
Y64350D01*
X160625Y64650D02*
X161475D01*
X161050Y64225D02*
Y65075D01*
X160625Y69650D02*
X161475D01*
X161050Y69225D02*
Y70075D01*
X126767Y74320D02*
X127067D01*
X126917Y74170D02*
Y74470D01*
X129517Y74371D02*
X129817D01*
X129667Y74221D02*
Y74521D01*
X148375Y55650D02*
X148675D01*
X148525Y55500D02*
Y55800D01*
X145199Y58926D02*
X145499D01*
X145349Y58776D02*
Y59076D01*
X145189Y58125D02*
X145489D01*
X145339Y57975D02*
Y58275D01*
X145199Y55753D02*
X145499D01*
X145349Y55603D02*
Y55903D01*
X137747Y59725D02*
X138047D01*
X137897Y59575D02*
Y59875D01*
X151770Y53525D02*
X152070D01*
X151920Y53375D02*
Y53675D01*
X151824Y56775D02*
X152124D01*
X151974Y56625D02*
Y56925D01*
X151850Y57825D02*
X152150D01*
X152000Y57675D02*
Y57975D01*
X147532Y83291D02*
X147832D01*
X147682Y83141D02*
Y83441D01*
X147532Y83991D02*
X147832D01*
X147682Y83841D02*
Y84141D01*
X147532Y84691D02*
X147832D01*
X147682Y84541D02*
Y84841D01*
X147532Y85391D02*
X147832D01*
X147682Y85241D02*
Y85541D01*
X148232Y83291D02*
X148532D01*
X148382Y83141D02*
Y83441D01*
X148232Y83991D02*
X148532D01*
X148382Y83841D02*
Y84141D01*
X148232Y84691D02*
X148532D01*
X148382Y84541D02*
Y84841D01*
X148232Y85391D02*
X148532D01*
X148382Y85241D02*
Y85541D01*
X149650Y77000D02*
X149950D01*
X149800Y76850D02*
Y77150D01*
X148950Y77000D02*
X149250D01*
X149100Y76850D02*
Y77150D01*
X148250Y77000D02*
X148550D01*
X148400Y76850D02*
Y77150D01*
X147550Y77000D02*
X147850D01*
X147700Y76850D02*
Y77150D01*
X146850Y77000D02*
X147150D01*
X147000Y76850D02*
Y77150D01*
X146150Y77000D02*
X146450D01*
X146300Y76850D02*
Y77150D01*
X146150Y77700D02*
X146450D01*
X146300Y77550D02*
Y77850D01*
X146150Y78400D02*
X146450D01*
X146300Y78250D02*
Y78550D01*
X146150Y79100D02*
X146450D01*
X146300Y78950D02*
Y79250D01*
X146850Y77700D02*
X147150D01*
X147000Y77550D02*
Y77850D01*
X146850Y78400D02*
X147150D01*
X147000Y78250D02*
Y78550D01*
X146850Y79100D02*
X147150D01*
X147000Y78950D02*
Y79250D01*
X147550Y77700D02*
X147850D01*
X147700Y77550D02*
Y77850D01*
X147550Y78400D02*
X147850D01*
X147700Y78250D02*
Y78550D01*
X147550Y79100D02*
X147850D01*
X147700Y78950D02*
Y79250D01*
X148250Y77700D02*
X148550D01*
X148400Y77550D02*
Y77850D01*
X148250Y78400D02*
X148550D01*
X148400Y78250D02*
Y78550D01*
X148250Y79100D02*
X148550D01*
X148400Y78950D02*
Y79250D01*
X148950Y77700D02*
X149250D01*
X149100Y77550D02*
Y77850D01*
X148950Y78400D02*
X149250D01*
X149100Y78250D02*
Y78550D01*
X148950Y79100D02*
X149250D01*
X149100Y78950D02*
Y79250D01*
X149650Y77700D02*
X149950D01*
X149800Y77550D02*
Y77850D01*
X149650Y78400D02*
X149950D01*
X149800Y78250D02*
Y78550D01*
X149650Y79100D02*
X149950D01*
X149800Y78950D02*
Y79250D01*
X153850Y84700D02*
X154150D01*
X154000Y84550D02*
Y84850D01*
X153850Y84000D02*
X154150D01*
X154000Y83850D02*
Y84150D01*
X153850Y83300D02*
X154150D01*
X154000Y83150D02*
Y83450D01*
X153850Y82600D02*
X154150D01*
X154000Y82450D02*
Y82750D01*
X153150Y85400D02*
X153450D01*
X153300Y85250D02*
Y85550D01*
X153150Y84700D02*
X153450D01*
X153300Y84550D02*
Y84850D01*
X153150Y84000D02*
X153450D01*
X153300Y83850D02*
Y84150D01*
X153150Y83300D02*
X153450D01*
X153300Y83150D02*
Y83450D01*
X152450Y85400D02*
X152750D01*
X152600Y85250D02*
Y85550D01*
X152450Y84700D02*
X152750D01*
X152600Y84550D02*
Y84850D01*
X152450Y84000D02*
X152750D01*
X152600Y83850D02*
Y84150D01*
X151750Y85400D02*
X152050D01*
X151900Y85250D02*
Y85550D01*
X151750Y84700D02*
X152050D01*
X151900Y84550D02*
Y84850D01*
X151750Y84000D02*
X152050D01*
X151900Y83850D02*
Y84150D01*
X151750Y81200D02*
X152050D01*
X151900Y81050D02*
Y81350D01*
X151750Y80500D02*
X152050D01*
X151900Y80350D02*
Y80650D01*
X151750Y79800D02*
X152050D01*
X151900Y79650D02*
Y79950D01*
X151050Y81900D02*
X151350D01*
X151200Y81750D02*
Y82050D01*
X151050Y81200D02*
X151350D01*
X151200Y81050D02*
Y81350D01*
X151050Y80500D02*
X151350D01*
X151200Y80350D02*
Y80650D01*
X151050Y79800D02*
X151350D01*
X151200Y79650D02*
Y79950D01*
X150350Y81900D02*
X150650D01*
X150500Y81750D02*
Y82050D01*
X150350Y81200D02*
X150650D01*
X150500Y81050D02*
Y81350D01*
X150350Y80500D02*
X150650D01*
X150500Y80350D02*
Y80650D01*
X150350Y79800D02*
X150650D01*
X150500Y79650D02*
Y79950D01*
X150350Y79100D02*
X150650D01*
X150500Y78950D02*
Y79250D01*
X150350Y78400D02*
X150650D01*
X150500Y78250D02*
Y78550D01*
X150350Y77700D02*
X150650D01*
X150500Y77550D02*
Y77850D01*
X150350Y77000D02*
X150650D01*
X150500Y76850D02*
Y77150D01*
X150350Y76300D02*
X150650D01*
X150500Y76150D02*
Y76450D01*
X149650Y81900D02*
X149950D01*
X149800Y81750D02*
Y82050D01*
X149650Y81200D02*
X149950D01*
X149800Y81050D02*
Y81350D01*
X149650Y80500D02*
X149950D01*
X149800Y80350D02*
Y80650D01*
X149650Y79800D02*
X149950D01*
X149800Y79650D02*
Y79950D01*
X149650Y76300D02*
X149950D01*
X149800Y76150D02*
Y76450D01*
X148950Y85400D02*
X149250D01*
X149100Y85250D02*
Y85550D01*
X148950Y84700D02*
X149250D01*
X149100Y84550D02*
Y84850D01*
X148950Y84000D02*
X149250D01*
X149100Y83850D02*
Y84150D01*
X148950Y83300D02*
X149250D01*
X149100Y83150D02*
Y83450D01*
X148950Y82600D02*
X149250D01*
X149100Y82450D02*
Y82750D01*
X148950Y81900D02*
X149250D01*
X149100Y81750D02*
Y82050D01*
X148950Y81200D02*
X149250D01*
X149100Y81050D02*
Y81350D01*
X148950Y80500D02*
X149250D01*
X149100Y80350D02*
Y80650D01*
X148950Y79800D02*
X149250D01*
X149100Y79650D02*
Y79950D01*
X148950Y76300D02*
X149250D01*
X149100Y76150D02*
Y76450D01*
X148250Y82600D02*
X148550D01*
X148400Y82450D02*
Y82750D01*
X148250Y81900D02*
X148550D01*
X148400Y81750D02*
Y82050D01*
X148250Y81200D02*
X148550D01*
X148400Y81050D02*
Y81350D01*
X148250Y80500D02*
X148550D01*
X148400Y80350D02*
Y80650D01*
X148250Y79800D02*
X148550D01*
X148400Y79650D02*
Y79950D01*
X148250Y76300D02*
X148550D01*
X148400Y76150D02*
Y76450D01*
X148250Y75600D02*
X148550D01*
X148400Y75450D02*
Y75750D01*
X147550Y82600D02*
X147850D01*
X147700Y82450D02*
Y82750D01*
X147550Y81900D02*
X147850D01*
X147700Y81750D02*
Y82050D01*
X147550Y81200D02*
X147850D01*
X147700Y81050D02*
Y81350D01*
X147550Y80500D02*
X147850D01*
X147700Y80350D02*
Y80650D01*
X147550Y79800D02*
X147850D01*
X147700Y79650D02*
Y79950D01*
X147550Y76300D02*
X147850D01*
X147700Y76150D02*
Y76450D01*
X147550Y75600D02*
X147850D01*
X147700Y75450D02*
Y75750D01*
X146850Y85400D02*
X147150D01*
X147000Y85250D02*
Y85550D01*
X146850Y84700D02*
X147150D01*
X147000Y84550D02*
Y84850D01*
X146850Y84000D02*
X147150D01*
X147000Y83850D02*
Y84150D01*
X146850Y83300D02*
X147150D01*
X147000Y83150D02*
Y83450D01*
X146850Y82600D02*
X147150D01*
X147000Y82450D02*
Y82750D01*
X146850Y81900D02*
X147150D01*
X147000Y81750D02*
Y82050D01*
X146850Y81200D02*
X147150D01*
X147000Y81050D02*
Y81350D01*
X146850Y80500D02*
X147150D01*
X147000Y80350D02*
Y80650D01*
X146850Y79800D02*
X147150D01*
X147000Y79650D02*
Y79950D01*
X146850Y76300D02*
X147150D01*
X147000Y76150D02*
Y76450D01*
X146850Y75600D02*
X147150D01*
X147000Y75450D02*
Y75750D01*
X146150Y81200D02*
X146450D01*
X146300Y81050D02*
Y81350D01*
X146150Y80500D02*
X146450D01*
X146300Y80350D02*
Y80650D01*
X146150Y79800D02*
X146450D01*
X146300Y79650D02*
Y79950D01*
X146150Y76300D02*
X146450D01*
X146300Y76150D02*
Y76450D01*
X146150Y75600D02*
X146450D01*
X146300Y75450D02*
Y75750D01*
X145450Y81200D02*
X145750D01*
X145600Y81050D02*
Y81350D01*
X145450Y80500D02*
X145750D01*
X145600Y80350D02*
Y80650D01*
X145450Y79800D02*
X145750D01*
X145600Y79650D02*
Y79950D01*
X145450Y79100D02*
X145750D01*
X145600Y78950D02*
Y79250D01*
X145450Y78400D02*
X145750D01*
X145600Y78250D02*
Y78550D01*
X145450Y77700D02*
X145750D01*
X145600Y77550D02*
Y77850D01*
X145450Y77000D02*
X145750D01*
X145600Y76850D02*
Y77150D01*
X145450Y76300D02*
X145750D01*
X145600Y76150D02*
Y76450D01*
X145450Y75600D02*
X145750D01*
X145600Y75450D02*
Y75750D01*
X144750Y81200D02*
X145050D01*
X144900Y81050D02*
Y81350D01*
X144750Y80500D02*
X145050D01*
X144900Y80350D02*
Y80650D01*
X144750Y79800D02*
X145050D01*
X144900Y79650D02*
Y79950D01*
X144750Y79100D02*
X145050D01*
X144900Y78950D02*
Y79250D01*
X144750Y78400D02*
X145050D01*
X144900Y78250D02*
Y78550D01*
X144750Y77700D02*
X145050D01*
X144900Y77550D02*
Y77850D01*
X144750Y77000D02*
X145050D01*
X144900Y76850D02*
Y77150D01*
X144750Y76300D02*
X145050D01*
X144900Y76150D02*
Y76450D01*
X144050Y84000D02*
X144350D01*
X144200Y83850D02*
Y84150D01*
X144050Y83300D02*
X144350D01*
X144200Y83150D02*
Y83450D01*
X144050Y82600D02*
X144350D01*
X144200Y82450D02*
Y82750D01*
X144050Y81900D02*
X144350D01*
X144200Y81750D02*
Y82050D01*
X144050Y81200D02*
X144350D01*
X144200Y81050D02*
Y81350D01*
X144050Y80500D02*
X144350D01*
X144200Y80350D02*
Y80650D01*
X144050Y79800D02*
X144350D01*
X144200Y79650D02*
Y79950D01*
X144050Y79100D02*
X144350D01*
X144200Y78950D02*
Y79250D01*
X144050Y78400D02*
X144350D01*
X144200Y78250D02*
Y78550D01*
X144050Y77700D02*
X144350D01*
X144200Y77550D02*
Y77850D01*
X151750Y63000D02*
X152050D01*
X151900Y62850D02*
Y63150D01*
X154925Y61000D02*
X155225D01*
X155075Y60850D02*
Y61150D01*
X136950Y80500D02*
X137250D01*
X137100Y80350D02*
Y80650D01*
X143909Y55597D02*
X144209D01*
X144059Y55447D02*
Y55747D01*
X148625Y57100D02*
X148925D01*
X148775Y56950D02*
Y57250D01*
X151900Y59974D02*
X152200D01*
X152050Y59824D02*
Y60124D01*
X157450Y58609D02*
X157750D01*
X157600Y58459D02*
Y58759D01*
X154488Y75300D02*
X154788D01*
X154638Y75150D02*
Y75450D01*
X144616Y74832D02*
X144916D01*
X144766Y74682D02*
Y74982D01*
X142376Y81307D02*
X142676D01*
X142526Y81157D02*
Y81457D01*
X140874Y56037D02*
X141174D01*
X141024Y55887D02*
Y56187D01*
X143506Y66500D02*
X143806D01*
X143656Y66350D02*
Y66650D01*
X150088Y52900D02*
X150388D01*
X150238Y52750D02*
Y53050D01*
X133100Y80395D02*
X133400D01*
X133250Y80245D02*
Y80545D01*
X134483Y57275D02*
X134783D01*
X134633Y57125D02*
Y57425D01*
X134700Y59325D02*
X135000D01*
X134850Y59175D02*
Y59475D01*
X134669Y54975D02*
X134969D01*
X134819Y54825D02*
Y55125D01*
X123040Y59850D02*
X124060D01*
X123550Y59340D02*
Y60360D01*
X122290Y62540D02*
X123310D01*
X122800Y62030D02*
Y63050D01*
X128175Y57949D02*
X128475D01*
X128325Y57799D02*
Y58099D01*
X131575Y56575D02*
X131875D01*
X131725Y56425D02*
Y56725D01*
X160800Y61250D02*
X161100D01*
X160950Y61100D02*
Y61400D01*
X158270Y69367D02*
X158570D01*
X158420Y69217D02*
Y69517D01*
X157032Y68050D02*
X157332D01*
X157182Y67900D02*
Y68200D01*
X157208Y72604D02*
X157508D01*
X157358Y72454D02*
Y72754D01*
X152533Y66800D02*
X152833D01*
X152683Y66650D02*
Y66950D01*
X153745Y67117D02*
X154045D01*
X153895Y66967D02*
Y67267D01*
X146425Y66800D02*
X146725D01*
X146575Y66650D02*
Y66950D01*
X145500Y72161D02*
X145800D01*
X145650Y72011D02*
Y72311D01*
X145661Y83225D02*
X145961D01*
X145811Y83075D02*
Y83375D01*
X145075Y49025D02*
X145375D01*
X145225Y48875D02*
Y49175D01*
X140779Y46775D02*
X144779D01*
X142779Y44775D02*
Y48775D01*
X139937Y84025D02*
X140237D01*
X140087Y83875D02*
Y84175D01*
X139937Y82750D02*
X140237D01*
X140087Y82600D02*
Y82900D01*
X140779Y86994D02*
X144779D01*
X142779Y84994D02*
Y88994D01*
X150425Y59100D02*
X150725D01*
X150575Y58950D02*
Y59250D01*
X145661Y53475D02*
X145961D01*
X145811Y53325D02*
Y53625D01*
X144219Y52294D02*
X144519D01*
X144369Y52144D02*
Y52444D01*
X131325Y51300D02*
X131625D01*
X131475Y51150D02*
Y51450D01*
X129265Y51269D02*
X130285D01*
X129775Y50759D02*
Y51779D01*
X124153Y57200D02*
X125173D01*
X124663Y56690D02*
Y57710D01*
X127365Y53075D02*
X128385D01*
X127875Y52565D02*
Y53585D01*
X125740Y55150D02*
X126760D01*
X126250Y54640D02*
Y55660D01*
X130231Y52503D02*
X130531D01*
X130381Y52353D02*
Y52653D01*
X131115Y49675D02*
X132135D01*
X131625Y49165D02*
Y50185D01*
X133165Y48362D02*
X134185D01*
X133675Y47852D02*
Y48872D01*
X135437Y47300D02*
X136457D01*
X135947Y46790D02*
Y47810D01*
X147098Y46775D02*
X148118D01*
X147608Y46265D02*
Y47285D01*
X149765Y47725D02*
X150785D01*
X150275Y47215D02*
Y48235D01*
X152165Y49025D02*
X153185D01*
X152675Y48515D02*
Y49535D01*
X154565Y50450D02*
X155585D01*
X155075Y49940D02*
Y50960D01*
X156740Y52100D02*
X157760D01*
X157250Y51590D02*
Y52610D01*
X137050Y63806D02*
X137350D01*
X137200Y63656D02*
Y63956D01*
X151078Y66858D02*
X151378D01*
X151228Y66708D02*
Y67008D01*
X135025Y74525D02*
X135325D01*
X135175Y74375D02*
Y74675D01*
X161975Y75271D02*
X162275D01*
X162125Y75121D02*
Y75421D01*
X123750Y72517D02*
X124050D01*
X123900Y72367D02*
Y72667D01*
X124950Y70575D02*
X125250D01*
X125100Y70425D02*
Y70725D01*
X123000Y68525D02*
X123300D01*
X123150Y68375D02*
Y68675D01*
X137875Y47925D02*
X138175D01*
X138025Y47775D02*
Y48075D01*
X140700Y49525D02*
X141000D01*
X140850Y49375D02*
Y49675D01*
X150175Y87100D02*
X150475D01*
X150325Y86950D02*
Y87250D01*
X150175Y84575D02*
X150475D01*
X150325Y84425D02*
Y84725D01*
X150200Y83200D02*
X150500D01*
X150350Y83050D02*
Y83350D01*
X146440Y87500D02*
X147460D01*
X146950Y86990D02*
Y88010D01*
X144125Y60900D02*
X144425D01*
X144275Y60750D02*
Y61050D01*
X149675Y59725D02*
X149975D01*
X149825Y59575D02*
Y59875D01*
X151275Y59350D02*
X151575D01*
X151425Y59200D02*
Y59500D01*
X137000Y54850D02*
X137300D01*
X137150Y54700D02*
Y55000D01*
X143750Y51200D02*
X144050D01*
X143900Y51050D02*
Y51350D01*
X127426Y66167D02*
X127726D01*
X127576Y66017D02*
Y66317D01*
X158690Y54100D02*
X159710D01*
X159200Y53590D02*
Y54610D01*
X153901Y68377D02*
X154201D01*
X154051Y68227D02*
Y68527D01*
X152525Y69050D02*
X152825D01*
X152675Y68900D02*
Y69200D01*
X143081Y65735D02*
X143381D01*
X143231Y65585D02*
Y65885D01*
X144655Y73225D02*
X144955D01*
X144805Y73075D02*
Y73375D01*
X153901Y72034D02*
X154201D01*
X154051Y71884D02*
Y72184D01*
X128875Y69950D02*
X129175D01*
X129025Y69800D02*
Y70100D01*
X137747Y58141D02*
X138047D01*
X137897Y57991D02*
Y58291D01*
X155273Y64059D02*
X155573D01*
X155423Y63909D02*
Y64209D01*
X152148Y64211D02*
X152448D01*
X152298Y64061D02*
Y64361D01*
X150040Y71349D02*
X150340D01*
X150190Y71199D02*
Y71499D01*
X142090Y66243D02*
X142390D01*
X142240Y66093D02*
Y66393D01*
X140439Y68936D02*
X140739D01*
X140589Y68786D02*
Y69086D01*
X131676Y55067D02*
X131976D01*
X131826Y54917D02*
Y55217D01*
X143425Y54850D02*
X143725D01*
X143575Y54700D02*
Y55000D01*
X141819Y54850D02*
X142119D01*
X141969Y54700D02*
Y55000D01*
X141000Y62225D02*
X141300D01*
X141150Y62075D02*
Y62375D01*
X142800Y56425D02*
X143100D01*
X142950Y56275D02*
Y56575D01*
X142800Y60675D02*
X143100D01*
X142950Y60525D02*
Y60825D01*
X146375Y70725D02*
X146675D01*
X146525Y70575D02*
Y70875D01*
X155975Y81125D02*
X156275D01*
X156125Y80975D02*
Y81275D01*
X139937Y81475D02*
X140237D01*
X140087Y81325D02*
Y81625D01*
X141575Y76350D02*
X141875D01*
X141725Y76200D02*
Y76500D01*
X141575Y77600D02*
X141875D01*
X141725Y77450D02*
Y77750D01*
M02*
