G04*
G04 #@! TF.GenerationSoftware,Altium Limited,Altium Designer,18.1.7 (191)*
G04*
G04 Layer_Color=16711935*
%FSLAX44Y44*%
%MOMM*%
G71*
G01*
G75*
%ADD32R,1.7032X1.7032*%
%ADD33R,1.3032X1.9032*%
%ADD36R,2.2032X0.8032*%
G04:AMPARAMS|DCode=37|XSize=0.8032mm|YSize=2.2032mm|CornerRadius=0.2516mm|HoleSize=0mm|Usage=FLASHONLY|Rotation=90.000|XOffset=0mm|YOffset=0mm|HoleType=Round|Shape=RoundedRectangle|*
%AMROUNDEDRECTD37*
21,1,0.8032,1.7000,0,0,90.0*
21,1,0.3000,2.2032,0,0,90.0*
1,1,0.5032,0.8500,0.1500*
1,1,0.5032,0.8500,-0.1500*
1,1,0.5032,-0.8500,-0.1500*
1,1,0.5032,-0.8500,0.1500*
%
%ADD37ROUNDEDRECTD37*%
%ADD40R,1.9032X1.3032*%
%ADD44R,1.7032X1.7032*%
%ADD49C,1.7032*%
%ADD50C,1.6532*%
%ADD51C,2.0032*%
%ADD52C,0.7032*%
%ADD53C,4.2032*%
%ADD64R,2.6032X3.5032*%
D32*
X1585750Y676250D02*
D03*
Y641250D02*
D03*
Y743500D02*
D03*
Y708500D02*
D03*
D33*
X1456500Y827750D02*
D03*
X1429500D02*
D03*
X1539202Y666496D02*
D03*
X1566202D02*
D03*
X1429500Y607750D02*
D03*
X1402500D02*
D03*
X1561250Y811250D02*
D03*
X1534250D02*
D03*
X1402500Y585250D02*
D03*
X1429500D02*
D03*
X1402500Y562750D02*
D03*
X1429500D02*
D03*
X1526812Y722750D02*
D03*
X1499812D02*
D03*
X1526832Y747522D02*
D03*
X1499832D02*
D03*
X1514750Y780000D02*
D03*
X1487750D02*
D03*
X1498250Y690000D02*
D03*
X1525250D02*
D03*
D36*
X1347000Y569250D02*
D03*
Y557250D02*
D03*
D37*
Y581250D02*
D03*
D40*
X1485000Y558750D02*
D03*
Y531750D02*
D03*
X1297000Y752750D02*
D03*
Y779750D02*
D03*
X1269000Y779250D02*
D03*
Y752250D02*
D03*
X1386000Y832750D02*
D03*
Y805750D02*
D03*
X1557866Y709834D02*
D03*
Y736834D02*
D03*
X1402000Y777750D02*
D03*
Y750750D02*
D03*
X1363250Y833250D02*
D03*
Y806250D02*
D03*
X1441500Y732500D02*
D03*
Y705500D02*
D03*
X1465250Y707250D02*
D03*
Y680250D02*
D03*
X1485000Y611250D02*
D03*
Y584250D02*
D03*
X1494000Y668000D02*
D03*
Y641000D02*
D03*
X1519312Y668274D02*
D03*
Y641274D02*
D03*
D44*
X1281850Y614750D02*
D03*
X1559500Y775750D02*
D03*
D49*
X1584900D02*
D03*
X1307250Y614750D02*
D03*
X1332650Y614750D02*
D03*
X1281850Y640150D02*
D03*
X1307250Y640150D02*
D03*
X1332650Y640150D02*
D03*
X1389634Y877316D02*
D03*
X1364234Y873506D02*
D03*
X1297750Y512690D02*
D03*
X1234579Y595000D02*
D03*
X1227750Y618353D02*
D03*
X1246629Y572000D02*
D03*
X1278750Y530750D02*
D03*
X1262500Y551500D02*
D03*
X1316250Y496750D02*
D03*
X1336750Y483619D02*
D03*
X1359468Y473000D02*
D03*
X1476081Y467750D02*
D03*
X1502750Y477250D02*
D03*
X1526750Y490250D02*
D03*
X1550750Y504500D02*
D03*
X1572500Y521000D02*
D03*
X1469500Y875000D02*
D03*
X1592000Y541000D02*
D03*
D50*
X1610500Y696500D02*
D03*
Y646500D02*
D03*
D51*
X1637500Y636500D02*
D03*
Y706500D02*
D03*
D52*
X1465750Y668000D02*
D03*
X1456500Y721613D02*
D03*
X1458112Y832250D02*
D03*
X1485550Y850000D02*
D03*
X1473694Y849636D02*
D03*
X1485550Y836426D02*
D03*
X1473694D02*
D03*
X1444200D02*
D03*
X1443806Y822695D02*
D03*
X1474046D02*
D03*
X1484126D02*
D03*
X1539073Y836060D02*
D03*
Y845750D02*
D03*
X1494616Y764974D02*
D03*
X1464376Y786855D02*
D03*
X1494616D02*
D03*
X1484536Y764974D02*
D03*
X1494616Y775750D02*
D03*
X1484536D02*
D03*
Y786855D02*
D03*
X1474456D02*
D03*
Y775750D02*
D03*
X1464376D02*
D03*
X1452250Y490250D02*
D03*
X1400873Y840250D02*
D03*
Y827500D02*
D03*
X1622250Y665576D02*
D03*
X1521240Y578250D02*
D03*
X1521693Y567871D02*
D03*
X1505750Y591000D02*
D03*
X1578250Y660750D02*
D03*
X1458112Y534750D02*
D03*
X1443690Y522940D02*
D03*
X1314750Y513000D02*
D03*
X1303814Y525026D02*
D03*
X1372000Y638055D02*
D03*
X1512283Y668585D02*
D03*
X1351750Y745250D02*
D03*
X1621250Y752714D02*
D03*
X1239000Y725174D02*
D03*
X1251000Y705750D02*
D03*
X1231500Y685250D02*
D03*
X1380250Y479250D02*
D03*
X1408500Y495250D02*
D03*
X1503250Y871000D02*
D03*
Y845750D02*
D03*
X1454296Y786855D02*
D03*
X1503500Y832000D02*
D03*
X1528878Y836060D02*
D03*
Y845754D02*
D03*
X1519085Y846004D02*
D03*
X1528800Y855669D02*
D03*
X1519085D02*
D03*
X1494120Y797371D02*
D03*
X1494514Y811102D02*
D03*
X1484040Y797371D02*
D03*
X1484434Y811102D02*
D03*
X1473960Y797371D02*
D03*
X1474354Y811102D02*
D03*
X1463880Y797371D02*
D03*
X1464274Y811102D02*
D03*
X1453800Y797371D02*
D03*
X1454194Y811102D02*
D03*
X1454296Y775750D02*
D03*
X1474456Y764974D02*
D03*
X1464376D02*
D03*
X1454296D02*
D03*
X1521500Y534816D02*
D03*
X1503750Y529000D02*
D03*
X1454856Y589580D02*
D03*
X1452250Y581250D02*
D03*
X1442750Y609000D02*
D03*
X1498250Y597250D02*
D03*
X1514250Y593500D02*
D03*
X1371500Y548500D02*
D03*
X1354750Y557370D02*
D03*
X1439000Y512000D02*
D03*
X1275760Y661672D02*
D03*
X1347000Y569000D02*
D03*
X1354750Y581500D02*
D03*
X1584198Y693674D02*
D03*
X1540510Y683768D02*
D03*
X1526750Y690500D02*
D03*
X1432306Y657352D02*
D03*
X1448054Y732250D02*
D03*
X1540510Y720344D02*
D03*
X1290250Y699500D02*
D03*
X1368552Y597408D02*
D03*
X1378966Y581406D02*
D03*
X1554226Y640588D02*
D03*
X1575562Y722630D02*
D03*
X1537930Y666790D02*
D03*
X1522984Y642112D02*
D03*
X1501902Y713486D02*
D03*
X1344657Y814514D02*
D03*
X1422400Y662432D02*
D03*
X1405890Y689356D02*
D03*
X1318260Y550672D02*
D03*
X1435750Y548500D02*
D03*
X1601000Y591750D02*
D03*
Y611500D02*
D03*
X1419690Y548500D02*
D03*
X1411500Y622250D02*
D03*
X1429500Y564250D02*
D03*
Y606750D02*
D03*
X1465250Y707250D02*
D03*
X1561250Y811250D02*
D03*
X1400873Y814750D02*
D03*
X1417250Y763500D02*
D03*
Y776000D02*
D03*
X1452250Y557250D02*
D03*
X1485000Y561500D02*
D03*
X1268000Y748750D02*
D03*
X1297250Y749000D02*
D03*
D53*
X1427794Y467750D02*
D03*
Y869937D02*
D03*
D64*
X1531500Y602250D02*
D03*
X1601000D02*
D03*
M02*
