G04*
G04 #@! TF.GenerationSoftware,Altium Limited,Altium Designer,18.1.7 (191)*
G04*
G04 Layer_Physical_Order=1*
G04 Layer_Color=255*
%FSLAX44Y44*%
%MOMM*%
G71*
G01*
G75*
%ADD13R,1.4000X3.3000*%
%ADD14R,1.5000X1.5000*%
%ADD15R,1.1000X1.7000*%
%ADD16O,1.6500X0.5500*%
%ADD17O,0.5500X1.6500*%
%ADD18R,2.0000X0.6000*%
G04:AMPARAMS|DCode=19|XSize=0.6mm|YSize=2mm|CornerRadius=0.15mm|HoleSize=0mm|Usage=FLASHONLY|Rotation=90.000|XOffset=0mm|YOffset=0mm|HoleType=Round|Shape=RoundedRectangle|*
%AMROUNDEDRECTD19*
21,1,0.6000,1.7000,0,0,90.0*
21,1,0.3000,2.0000,0,0,90.0*
1,1,0.3000,0.8500,0.1500*
1,1,0.3000,0.8500,-0.1500*
1,1,0.3000,-0.8500,-0.1500*
1,1,0.3000,-0.8500,0.1500*
%
%ADD19ROUNDEDRECTD19*%
%ADD20O,2.0000X0.7000*%
%ADD21O,2.1000X0.3500*%
%ADD22R,1.7000X1.1000*%
%ADD23R,1.9000X2.1000*%
%ADD24R,1.9000X1.5000*%
%ADD25R,1.3500X0.4000*%
%ADD26R,1.5000X1.5000*%
%ADD27R,1.0000X2.4000*%
%ADD28R,3.3000X2.4000*%
%ADD29O,1.7000X0.6500*%
%ADD30R,1.7000X0.6500*%
%ADD54C,1.0000*%
%ADD55C,0.3500*%
%ADD56C,0.5500*%
%ADD57C,0.5000*%
%ADD58C,1.5000*%
%ADD59C,1.4500*%
%ADD60C,1.8000*%
%ADD61C,0.5000*%
%ADD62C,4.0000*%
G36*
X1452556Y899015D02*
X1467486Y897049D01*
X1482256Y894112D01*
X1496801Y890214D01*
X1511061Y885374D01*
X1524973Y879611D01*
X1538479Y872951D01*
X1551521Y865421D01*
X1564042Y857055D01*
X1575989Y847888D01*
X1587310Y837959D01*
X1597959Y827310D01*
X1607888Y815989D01*
X1617055Y804042D01*
X1625421Y791521D01*
X1632951Y778479D01*
X1639611Y764974D01*
X1645374Y751061D01*
X1650214Y736801D01*
X1654112Y722255D01*
X1657050Y707486D01*
X1659015Y692556D01*
X1660000Y677529D01*
Y670000D01*
Y662471D01*
X1659015Y647444D01*
X1657050Y632514D01*
X1654112Y617744D01*
X1650214Y603199D01*
X1645374Y588939D01*
X1639611Y575027D01*
X1632951Y561521D01*
X1625421Y548479D01*
X1617055Y535958D01*
X1607888Y524011D01*
X1597959Y512690D01*
X1587310Y502041D01*
X1575989Y492112D01*
X1564042Y482945D01*
X1551521Y474579D01*
X1538479Y467049D01*
X1524973Y460389D01*
X1511061Y454626D01*
X1496801Y449786D01*
X1482256Y445888D01*
X1467486Y442951D01*
X1452556Y440985D01*
X1437529Y440000D01*
X1422471D01*
X1407444Y440985D01*
X1392514Y442951D01*
X1377744Y445888D01*
X1363199Y449786D01*
X1348939Y454626D01*
X1335027Y460389D01*
X1321521Y467049D01*
X1308479Y474579D01*
X1295958Y482945D01*
X1284011Y492112D01*
X1272690Y502041D01*
X1262041Y512690D01*
X1252112Y524011D01*
X1242945Y535958D01*
X1234579Y548479D01*
X1227049Y561521D01*
X1220389Y575027D01*
X1214626Y588939D01*
X1209786Y603199D01*
X1205888Y617744D01*
X1202951Y632514D01*
X1200985Y647444D01*
X1200000Y662471D01*
Y670000D01*
Y677529D01*
X1200985Y692556D01*
X1202951Y707486D01*
X1205888Y722255D01*
X1209786Y736801D01*
X1214626Y751061D01*
X1220389Y764974D01*
X1227049Y778479D01*
X1234579Y791521D01*
X1242945Y804042D01*
X1252112Y815989D01*
X1262041Y827310D01*
X1272690Y837959D01*
X1284011Y847888D01*
X1295958Y857055D01*
X1308479Y865421D01*
X1321521Y872951D01*
X1335027Y879611D01*
X1348939Y885374D01*
X1363199Y890214D01*
X1377744Y894112D01*
X1392514Y897049D01*
X1407444Y899015D01*
X1422471Y900000D01*
X1437529D01*
X1452556Y899015D01*
D02*
G37*
%LPC*%
G36*
X1360914Y845840D02*
X1338833D01*
Y845189D01*
X1316300D01*
X1314334Y844798D01*
X1312666Y843684D01*
X1294116Y825134D01*
X1293002Y823466D01*
X1292611Y821500D01*
Y805389D01*
X1284500D01*
X1282534Y804998D01*
X1280866Y803884D01*
X1270773Y793790D01*
X1257960D01*
Y773710D01*
X1278040D01*
Y786523D01*
X1286211Y794694D01*
X1287210Y793897D01*
Y773960D01*
X1300023D01*
X1314266Y759717D01*
X1315933Y758603D01*
X1317900Y758212D01*
X1318569D01*
X1319393Y757661D01*
X1319458Y757648D01*
Y756353D01*
X1319393Y756340D01*
X1317395Y755005D01*
X1316060Y753007D01*
X1315591Y750650D01*
X1316060Y748294D01*
X1317395Y746296D01*
X1319393Y744961D01*
X1319458Y744948D01*
Y743653D01*
X1319393Y743640D01*
X1317395Y742305D01*
X1316060Y740307D01*
X1315591Y737950D01*
X1316060Y735594D01*
X1317395Y733596D01*
X1319393Y732261D01*
X1319458Y732248D01*
Y730953D01*
X1319393Y730940D01*
X1317395Y729605D01*
X1316060Y727607D01*
X1315591Y725250D01*
X1316060Y722894D01*
X1317395Y720896D01*
X1319393Y719561D01*
X1319458Y719548D01*
Y718253D01*
X1319393Y718240D01*
X1317395Y716905D01*
X1316060Y714907D01*
X1315591Y712550D01*
X1315921Y710892D01*
X1314751Y710266D01*
X1310790Y714228D01*
X1310064Y715314D01*
X1308314Y716483D01*
X1306250Y716894D01*
X1302790D01*
Y717040D01*
X1277710D01*
Y705960D01*
X1302790D01*
Y706106D01*
X1304376D01*
X1314266Y696217D01*
X1315933Y695103D01*
X1317900Y694712D01*
X1318569D01*
X1318748Y694591D01*
X1318880Y693066D01*
X1318316Y692544D01*
X1300718D01*
X1300326Y692806D01*
X1298750Y693119D01*
X1281750D01*
X1280174Y692806D01*
X1278837Y691913D01*
X1277944Y690576D01*
X1277631Y689000D01*
Y686000D01*
X1277944Y684424D01*
X1278837Y683087D01*
X1280174Y682194D01*
X1281750Y681881D01*
X1289975D01*
X1290600Y681757D01*
X1318950D01*
X1319393Y681461D01*
X1321750Y680992D01*
X1334750D01*
X1337106Y681461D01*
X1339104Y682796D01*
X1340439Y684794D01*
X1340908Y687150D01*
X1340439Y689507D01*
X1339104Y691505D01*
X1337106Y692840D01*
X1337041Y692853D01*
Y694148D01*
X1337106Y694161D01*
X1339104Y695496D01*
X1340439Y697494D01*
X1340908Y699850D01*
X1340439Y702207D01*
X1339104Y704205D01*
X1337106Y705540D01*
X1337041Y705553D01*
Y706848D01*
X1337106Y706861D01*
X1339104Y708196D01*
X1340439Y710194D01*
X1340908Y712550D01*
X1340439Y714907D01*
X1339104Y716905D01*
X1337106Y718240D01*
X1337041Y718253D01*
Y719548D01*
X1337106Y719561D01*
X1339104Y720896D01*
X1340439Y722894D01*
X1340908Y725250D01*
X1340439Y727607D01*
X1339104Y729605D01*
X1337106Y730940D01*
X1337041Y730953D01*
Y732248D01*
X1337106Y732261D01*
X1339104Y733596D01*
X1340439Y735594D01*
X1340908Y737950D01*
X1340439Y740307D01*
X1339104Y742305D01*
X1337106Y743640D01*
X1337041Y743653D01*
Y744948D01*
X1337106Y744961D01*
X1339104Y746296D01*
X1340439Y748294D01*
X1340908Y750650D01*
X1340439Y753007D01*
X1339104Y755005D01*
X1337351Y756177D01*
X1337283Y757221D01*
X1337356Y757584D01*
X1338078Y758212D01*
X1340569D01*
X1341850Y757957D01*
X1343914Y758367D01*
X1345664Y759536D01*
X1360564Y774436D01*
X1361733Y776186D01*
X1362144Y778250D01*
Y793740D01*
X1361889Y795021D01*
Y795073D01*
X1361498Y797040D01*
X1360384Y798707D01*
X1360106Y798985D01*
X1360578Y799691D01*
X1361027Y801950D01*
X1360578Y804209D01*
X1359298Y806124D01*
X1357383Y807404D01*
X1356133Y807653D01*
Y808948D01*
X1357383Y809196D01*
X1359298Y810476D01*
X1360578Y812391D01*
X1361027Y814650D01*
X1360578Y816909D01*
X1359298Y818824D01*
X1357383Y820104D01*
X1355123Y820554D01*
X1344624D01*
X1342364Y820104D01*
X1340449Y818824D01*
X1339169Y816909D01*
X1338720Y814650D01*
X1339169Y812391D01*
X1340449Y810476D01*
X1342364Y809196D01*
X1343614Y808948D01*
Y807653D01*
X1342364Y807404D01*
X1340449Y806124D01*
X1339169Y804209D01*
X1338720Y801950D01*
X1339169Y799691D01*
X1340449Y797776D01*
X1342364Y796496D01*
X1344624Y796047D01*
X1348510D01*
X1351357Y793200D01*
Y780484D01*
X1339361Y768489D01*
X1337931D01*
X1337106Y769040D01*
X1337041Y769053D01*
Y770348D01*
X1337106Y770361D01*
X1339104Y771696D01*
X1340439Y773694D01*
X1340908Y776050D01*
X1340439Y778407D01*
X1339104Y780405D01*
X1337106Y781740D01*
X1334750Y782209D01*
X1333389D01*
Y784000D01*
X1332997Y785967D01*
X1331883Y787634D01*
X1315634Y803884D01*
X1313967Y804998D01*
X1312000Y805389D01*
X1302889D01*
Y819371D01*
X1318429Y834911D01*
X1338833D01*
Y834260D01*
X1360914D01*
Y845840D01*
D02*
G37*
G36*
X1389634Y887443D02*
X1387013Y887098D01*
X1384571Y886086D01*
X1382473Y884477D01*
X1380864Y882379D01*
X1379852Y879937D01*
X1379507Y877316D01*
X1379852Y874695D01*
X1380864Y872253D01*
X1382473Y870155D01*
X1384240Y868800D01*
Y833628D01*
X1384651Y831564D01*
X1385820Y829814D01*
X1392098Y823536D01*
X1393848Y822367D01*
X1395912Y821956D01*
X1398274D01*
X1398364Y821896D01*
X1399613Y821648D01*
Y820353D01*
X1398364Y820104D01*
X1398274Y820044D01*
X1386652D01*
X1378894Y827802D01*
Y864240D01*
X1378483Y866304D01*
X1377314Y868054D01*
X1374070Y871298D01*
X1374361Y873506D01*
X1374016Y876127D01*
X1373004Y878569D01*
X1371395Y880667D01*
X1369297Y882276D01*
X1366855Y883288D01*
X1364234Y883633D01*
X1361613Y883288D01*
X1359171Y882276D01*
X1357073Y880667D01*
X1355464Y878569D01*
X1354452Y876127D01*
X1354107Y873506D01*
X1354452Y870885D01*
X1355464Y868443D01*
X1357073Y866345D01*
X1359171Y864736D01*
X1361613Y863724D01*
X1364234Y863379D01*
X1366442Y863670D01*
X1368106Y862006D01*
Y825568D01*
X1368517Y823504D01*
X1369686Y821754D01*
X1380604Y810836D01*
X1382353Y809667D01*
X1384418Y809257D01*
X1398274D01*
X1398364Y809196D01*
X1399613Y808948D01*
Y807653D01*
X1398364Y807404D01*
X1396449Y806124D01*
X1395169Y804209D01*
X1394720Y801950D01*
X1395169Y799691D01*
X1396449Y797776D01*
X1398364Y796496D01*
X1400623Y796047D01*
X1411123D01*
X1413383Y796496D01*
X1415298Y797776D01*
X1416577Y799691D01*
X1417027Y801950D01*
X1416577Y804209D01*
X1415298Y806124D01*
X1413383Y807404D01*
X1412133Y807653D01*
Y808948D01*
X1413383Y809196D01*
X1415298Y810476D01*
X1416577Y812391D01*
X1417027Y814650D01*
X1416577Y816909D01*
X1415298Y818824D01*
X1413383Y820104D01*
X1412133Y820353D01*
Y821648D01*
X1413383Y821896D01*
X1415298Y823176D01*
X1416577Y825091D01*
X1417027Y827350D01*
X1416577Y829609D01*
X1415298Y831525D01*
X1413383Y832804D01*
X1412133Y833053D01*
Y834348D01*
X1413383Y834596D01*
X1415298Y835876D01*
X1416577Y837791D01*
X1417027Y840050D01*
X1416577Y842309D01*
X1415298Y844224D01*
X1413383Y845504D01*
X1411123Y845954D01*
X1400623D01*
X1398364Y845504D01*
X1396449Y844224D01*
X1396298Y843998D01*
X1395028Y844383D01*
Y868800D01*
X1396795Y870155D01*
X1398404Y872253D01*
X1399416Y874695D01*
X1399761Y877316D01*
X1399416Y879937D01*
X1398404Y882379D01*
X1396795Y884477D01*
X1394697Y886086D01*
X1392255Y887098D01*
X1389634Y887443D01*
D02*
G37*
G36*
X1575540Y821290D02*
X1555460D01*
Y801210D01*
X1575540D01*
Y821290D01*
D02*
G37*
G36*
X1427794Y892586D02*
X1423375Y892150D01*
X1419126Y890862D01*
X1415211Y888769D01*
X1411778Y885952D01*
X1408962Y882520D01*
X1406869Y878604D01*
X1405580Y874355D01*
X1405145Y869937D01*
X1405580Y865518D01*
X1406869Y861269D01*
X1408962Y857354D01*
X1411778Y853921D01*
X1415211Y851105D01*
X1419126Y849012D01*
X1423375Y847723D01*
X1427794Y847288D01*
X1432212Y847723D01*
X1436110Y848905D01*
X1437126Y848040D01*
X1436283Y846004D01*
X1436233Y845754D01*
X1436136Y845519D01*
X1435160Y840611D01*
Y840356D01*
X1435110Y840106D01*
Y837604D01*
Y811500D01*
X1435124Y811427D01*
X1435114Y811353D01*
X1436160Y792926D01*
Y783655D01*
X1417300D01*
X1415332Y783396D01*
X1413498Y782636D01*
X1411923Y781428D01*
X1410714Y779853D01*
X1409954Y778019D01*
X1409695Y776050D01*
X1409954Y774082D01*
X1410714Y772248D01*
X1411923Y770673D01*
X1413498Y769464D01*
X1413815Y769333D01*
X1413940Y768069D01*
X1413396Y767705D01*
X1412061Y765707D01*
X1411592Y763350D01*
X1412061Y760994D01*
X1413396Y758996D01*
X1415393Y757661D01*
X1415459Y757648D01*
Y756353D01*
X1415393Y756340D01*
X1413396Y755005D01*
X1412061Y753007D01*
X1411592Y750650D01*
X1412061Y748294D01*
X1413396Y746296D01*
X1414749Y745391D01*
X1414880Y743867D01*
X1414317Y743344D01*
X1374728D01*
X1372664Y742933D01*
X1370914Y741764D01*
X1354324Y725174D01*
X1353155Y723424D01*
X1352744Y721360D01*
Y682192D01*
X1340838Y670286D01*
X1295234D01*
X1290206Y675314D01*
X1288457Y676483D01*
X1286393Y676893D01*
X1266608D01*
X1264544Y676483D01*
X1262794Y675314D01*
X1252936Y665456D01*
X1251767Y663706D01*
X1251356Y661642D01*
Y627250D01*
X1251767Y625186D01*
X1252936Y623436D01*
X1258655Y617717D01*
X1243298Y602359D01*
X1243124Y602394D01*
X1241768Y602124D01*
X1241740Y602161D01*
X1239642Y603770D01*
X1237200Y604782D01*
X1234579Y605127D01*
X1231958Y604782D01*
X1229516Y603770D01*
X1227418Y602161D01*
X1225809Y600063D01*
X1224797Y597621D01*
X1224452Y595000D01*
X1224797Y592379D01*
X1225809Y589937D01*
X1227418Y587839D01*
X1229516Y586230D01*
X1231958Y585218D01*
X1234579Y584873D01*
X1237200Y585218D01*
X1239642Y586230D01*
X1241740Y587839D01*
X1243349Y589937D01*
X1243456Y590196D01*
X1243879Y590478D01*
X1244345Y590386D01*
X1246409Y590796D01*
X1248159Y591965D01*
X1265550Y609356D01*
X1271810D01*
Y604710D01*
X1291890D01*
Y624790D01*
X1271810D01*
Y621614D01*
X1270540Y621087D01*
X1262144Y629484D01*
Y659408D01*
X1268842Y666106D01*
X1270833D01*
X1271512Y664836D01*
X1270777Y663736D01*
X1270366Y661672D01*
X1270777Y659608D01*
X1271946Y657858D01*
X1273696Y656689D01*
X1275760Y656278D01*
X1279986D01*
X1285303Y650962D01*
X1284583Y649885D01*
X1284471Y649932D01*
X1281850Y650277D01*
X1279229Y649932D01*
X1276786Y648920D01*
X1274689Y647311D01*
X1273080Y645213D01*
X1272068Y642771D01*
X1271723Y640150D01*
X1272068Y637529D01*
X1273080Y635087D01*
X1274689Y632990D01*
X1276786Y631380D01*
X1279229Y630369D01*
X1281850Y630023D01*
X1284471Y630369D01*
X1286913Y631380D01*
X1289010Y632990D01*
X1290620Y635087D01*
X1291631Y637529D01*
X1291976Y640150D01*
X1291631Y642771D01*
X1291585Y642884D01*
X1292661Y643603D01*
X1297277Y638988D01*
X1297469Y637529D01*
X1298480Y635087D01*
X1300090Y632990D01*
X1302187Y631380D01*
X1304629Y630368D01*
X1307250Y630023D01*
X1309871Y630368D01*
X1312314Y631380D01*
X1314411Y632990D01*
X1316020Y635087D01*
X1317032Y637529D01*
X1317377Y640150D01*
X1317086Y642358D01*
X1322876Y648148D01*
X1348232D01*
X1350028Y648506D01*
X1350702Y647628D01*
X1350777Y647458D01*
X1347212Y643894D01*
X1346043Y642144D01*
X1345632Y640080D01*
Y608532D01*
X1327186Y590086D01*
X1326810Y589523D01*
X1325540Y589908D01*
Y592410D01*
X1322894D01*
Y599494D01*
X1323797Y600397D01*
X1329786D01*
X1331752Y600788D01*
X1333420Y601902D01*
X1335378Y603860D01*
X1336464Y604586D01*
X1337274Y605798D01*
X1337713Y605980D01*
X1339811Y607590D01*
X1341420Y609687D01*
X1342432Y612129D01*
X1342777Y614750D01*
X1342432Y617371D01*
X1341420Y619814D01*
X1339811Y621911D01*
X1337713Y623520D01*
X1335271Y624532D01*
X1332650Y624877D01*
X1330029Y624532D01*
X1327587Y623520D01*
X1325490Y621911D01*
X1323880Y619814D01*
X1322868Y617371D01*
X1322523Y614750D01*
X1322868Y612129D01*
X1323000Y611811D01*
X1322052Y610782D01*
X1321308Y610930D01*
X1319244Y610519D01*
X1317494Y609350D01*
X1316927Y608783D01*
X1315970Y609622D01*
X1316020Y609687D01*
X1317032Y612129D01*
X1317377Y614750D01*
X1317032Y617371D01*
X1316020Y619813D01*
X1314411Y621911D01*
X1312313Y623520D01*
X1309871Y624532D01*
X1307250Y624877D01*
X1304629Y624532D01*
X1302187Y623520D01*
X1300089Y621911D01*
X1298480Y619813D01*
X1297468Y617371D01*
X1297123Y614750D01*
X1297468Y612129D01*
X1298480Y609687D01*
X1300089Y607589D01*
X1302187Y605980D01*
X1304629Y604968D01*
X1307250Y604623D01*
X1309871Y604968D01*
X1312313Y605980D01*
X1312597Y606198D01*
X1313536Y605318D01*
X1312517Y603792D01*
X1312106Y601728D01*
Y592410D01*
X1309460D01*
Y570330D01*
X1325540Y570330D01*
X1325606Y569088D01*
Y565646D01*
X1314446Y554486D01*
X1313277Y552736D01*
X1312866Y550672D01*
X1313277Y548608D01*
X1314446Y546858D01*
X1314767Y546644D01*
X1314381Y545374D01*
X1289000D01*
X1287326Y545041D01*
X1285907Y544093D01*
X1282060Y540246D01*
X1281371Y540532D01*
X1278750Y540877D01*
X1276129Y540532D01*
X1273687Y539520D01*
X1271589Y537911D01*
X1269980Y535813D01*
X1268968Y533371D01*
X1268623Y530750D01*
X1268968Y528129D01*
X1269980Y525687D01*
X1271589Y523589D01*
X1273687Y521980D01*
X1276129Y520968D01*
X1278750Y520623D01*
X1281371Y520968D01*
X1283813Y521980D01*
X1285911Y523589D01*
X1287520Y525687D01*
X1288532Y528129D01*
X1288877Y530750D01*
X1288532Y533371D01*
X1288246Y534060D01*
X1290812Y536626D01*
X1316566D01*
X1317052Y535453D01*
X1310999Y529400D01*
X1306339D01*
X1305780Y529773D01*
X1303814Y530164D01*
X1301847Y529773D01*
X1300180Y528659D01*
X1299066Y526992D01*
X1298675Y525026D01*
X1298889Y523947D01*
X1297824Y522807D01*
X1297750Y522816D01*
X1295129Y522471D01*
X1292687Y521460D01*
X1290589Y519850D01*
X1288980Y517753D01*
X1287968Y515311D01*
X1287623Y512690D01*
X1287968Y510069D01*
X1288980Y507626D01*
X1290589Y505529D01*
X1292687Y503920D01*
X1293376Y503634D01*
Y497371D01*
X1293709Y495697D01*
X1294657Y494278D01*
X1309715Y479220D01*
X1311134Y478272D01*
X1312808Y477939D01*
X1318770D01*
X1320444Y478272D01*
X1321863Y479220D01*
X1325449Y482807D01*
X1326790Y482351D01*
X1326968Y480998D01*
X1327980Y478556D01*
X1329589Y476459D01*
X1331687Y474850D01*
X1334129Y473838D01*
X1336750Y473493D01*
X1339371Y473838D01*
X1341813Y474850D01*
X1343911Y476459D01*
X1345520Y478556D01*
X1346532Y480998D01*
X1346877Y483619D01*
X1346532Y486241D01*
X1345520Y488683D01*
X1343911Y490780D01*
X1341813Y492389D01*
X1339371Y493401D01*
X1338018Y493579D01*
X1337563Y494920D01*
X1342019Y499376D01*
X1386500D01*
X1388174Y499709D01*
X1389593Y500657D01*
X1413123Y524188D01*
X1414297Y523701D01*
Y517314D01*
X1414707Y515250D01*
X1415876Y513500D01*
X1431286Y498090D01*
X1433036Y496921D01*
X1435100Y496510D01*
X1499605D01*
X1501669Y496921D01*
X1503418Y498090D01*
X1534604Y529276D01*
X1535773Y531025D01*
X1536184Y533089D01*
Y582152D01*
X1537357Y582638D01*
X1553622Y566372D01*
X1555197Y565164D01*
X1557032Y564404D01*
X1559000Y564145D01*
X1599750D01*
X1601718Y564404D01*
X1603553Y565164D01*
X1605128Y566372D01*
X1611127Y572372D01*
X1612336Y573947D01*
X1613096Y575782D01*
X1613355Y577750D01*
Y582710D01*
X1615290D01*
Y620790D01*
X1596210D01*
Y613253D01*
X1595861Y611500D01*
X1596210Y609747D01*
Y593503D01*
X1595861Y591750D01*
X1596210Y589997D01*
Y582710D01*
X1598145D01*
Y580900D01*
X1596600Y579355D01*
X1562150D01*
X1559969Y581537D01*
X1560455Y582710D01*
X1577290D01*
Y620790D01*
X1574714D01*
X1574188Y622060D01*
X1590462Y638334D01*
X1591631Y640084D01*
X1591984Y641856D01*
X1599873Y649746D01*
X1600928Y649077D01*
X1600960Y649036D01*
X1600626Y646500D01*
X1600962Y643944D01*
X1601949Y641563D01*
X1603518Y639518D01*
X1605563Y637949D01*
X1607944Y636962D01*
X1610500Y636626D01*
X1613056Y636962D01*
X1615437Y637949D01*
X1617482Y639518D01*
X1619052Y641563D01*
X1620038Y643944D01*
X1620375Y646500D01*
X1620038Y649056D01*
X1619052Y651437D01*
X1618091Y652690D01*
X1618717Y653960D01*
X1619790D01*
Y660626D01*
X1621301D01*
X1622250Y660437D01*
X1624190Y660823D01*
X1624420Y660867D01*
X1625460Y660145D01*
Y652310D01*
X1625460Y651460D01*
X1625460Y650190D01*
Y624960D01*
X1636743D01*
X1637500Y624861D01*
X1638257Y624960D01*
X1649540D01*
Y650190D01*
X1649540Y651040D01*
X1649540Y652310D01*
Y671460D01*
Y690690D01*
X1649540Y691540D01*
X1649540Y692810D01*
Y718040D01*
X1638257D01*
X1637500Y718139D01*
X1636743Y718040D01*
X1625460D01*
Y692810D01*
X1625460Y691960D01*
X1625460Y690690D01*
Y671006D01*
X1624420Y670285D01*
X1624190Y670329D01*
X1622250Y670714D01*
X1621060Y670478D01*
X1619790Y671405D01*
Y682540D01*
X1601210D01*
Y675680D01*
X1600509Y675541D01*
X1599090Y674593D01*
X1597963Y673466D01*
X1596790Y673952D01*
Y682964D01*
X1574710D01*
Y678124D01*
X1570900D01*
X1569954Y679394D01*
X1570124Y680250D01*
X1569791Y681924D01*
X1568843Y683343D01*
X1567424Y684291D01*
X1565750Y684624D01*
X1545586D01*
X1545452Y684758D01*
X1545258Y685734D01*
X1544144Y687402D01*
X1542477Y688516D01*
X1540510Y688907D01*
X1539364Y688679D01*
X1538094Y689626D01*
Y694978D01*
X1538492Y695376D01*
X1543100D01*
X1544046Y694106D01*
X1543876Y693250D01*
X1544209Y691576D01*
X1545157Y690157D01*
X1546576Y689209D01*
X1548250Y688876D01*
X1565750D01*
X1567424Y689209D01*
X1567615Y689336D01*
X1568252D01*
X1569926Y689669D01*
X1571345Y690617D01*
X1573826Y693098D01*
X1574710Y693884D01*
Y693884D01*
X1574710Y693884D01*
X1578632D01*
X1578804Y693674D01*
X1579215Y691610D01*
X1580384Y689860D01*
X1582134Y688691D01*
X1584198Y688280D01*
X1586262Y688691D01*
X1588012Y689860D01*
X1589564Y691412D01*
X1590733Y693162D01*
X1590877Y693884D01*
X1596790D01*
Y709964D01*
X1576164D01*
Y717046D01*
X1576869Y717751D01*
X1577529Y717882D01*
X1579196Y718996D01*
X1580310Y720664D01*
X1580701Y722630D01*
X1580310Y724596D01*
X1579196Y726264D01*
X1577529Y727378D01*
X1575562Y727769D01*
X1573595Y727378D01*
X1571928Y726264D01*
X1571349Y725396D01*
X1570354Y725683D01*
X1570109Y725826D01*
X1569791Y727424D01*
X1568843Y728843D01*
Y729157D01*
X1569791Y730576D01*
X1570124Y732250D01*
X1569791Y733924D01*
X1568843Y735343D01*
X1567424Y736291D01*
X1565750Y736624D01*
X1548250D01*
X1546576Y736291D01*
X1545157Y735343D01*
X1544209Y733924D01*
X1543876Y732250D01*
X1544209Y730576D01*
X1545157Y729157D01*
Y728843D01*
X1544209Y727424D01*
X1543876Y725750D01*
X1544209Y724076D01*
X1545157Y722657D01*
X1546576Y721709D01*
X1548250Y721376D01*
X1565750D01*
X1566944Y721613D01*
X1567749Y720532D01*
X1567416Y718858D01*
Y711293D01*
X1566434Y710488D01*
X1565750Y710624D01*
X1548250D01*
X1546576Y710291D01*
X1545157Y709343D01*
X1544209Y707924D01*
X1543876Y706250D01*
X1544046Y705394D01*
X1543100Y704124D01*
X1536680D01*
X1535006Y703791D01*
X1533587Y702843D01*
X1530627Y699883D01*
X1529679Y698464D01*
X1529346Y696790D01*
Y696238D01*
X1528076Y695375D01*
X1526750Y695639D01*
X1524783Y695248D01*
X1523116Y694134D01*
X1522002Y692467D01*
X1521611Y690500D01*
X1522002Y688533D01*
X1522376Y687974D01*
Y663238D01*
X1522709Y661564D01*
X1523657Y660145D01*
X1528273Y655529D01*
X1529692Y654581D01*
X1531366Y654248D01*
X1538367D01*
X1538644Y653578D01*
X1538784Y652978D01*
X1537903Y651660D01*
X1537570Y649986D01*
Y644488D01*
X1537903Y642814D01*
X1538851Y641395D01*
X1542751Y637495D01*
X1544170Y636547D01*
X1545844Y636214D01*
X1551700D01*
X1552260Y635840D01*
X1554226Y635449D01*
X1556192Y635840D01*
X1557860Y636954D01*
X1558974Y638621D01*
X1559365Y640588D01*
X1559063Y642106D01*
X1559836Y643376D01*
X1578433D01*
X1578457Y643381D01*
X1579082Y642210D01*
X1563936Y627064D01*
X1562767Y625314D01*
X1562356Y623250D01*
Y620790D01*
X1558210D01*
Y584954D01*
X1557037Y584468D01*
X1545855Y595650D01*
Y626338D01*
X1545596Y628306D01*
X1544836Y630140D01*
X1543628Y631716D01*
X1528108Y647236D01*
X1526532Y648444D01*
X1524698Y649204D01*
X1522730Y649463D01*
X1520762Y649204D01*
X1518927Y648444D01*
X1517352Y647236D01*
X1516144Y645660D01*
X1515384Y643826D01*
X1515125Y641858D01*
X1515384Y639890D01*
X1516144Y638055D01*
X1517352Y636480D01*
X1530645Y623188D01*
Y616392D01*
X1529472Y615906D01*
X1508814Y636564D01*
X1507064Y637733D01*
X1505000Y638144D01*
X1482734D01*
X1478684Y642194D01*
X1479199Y643269D01*
X1479298Y643376D01*
X1496750D01*
X1498424Y643709D01*
X1499843Y644657D01*
X1500791Y646076D01*
X1501124Y647750D01*
X1500791Y649424D01*
X1500403Y650004D01*
X1499919Y651000D01*
X1500403Y651996D01*
X1500791Y652576D01*
X1501124Y654250D01*
X1500791Y655924D01*
X1499843Y657343D01*
Y657657D01*
X1500791Y659076D01*
X1501124Y660750D01*
X1500791Y662424D01*
X1499843Y663843D01*
Y664157D01*
X1500791Y665576D01*
X1501124Y667250D01*
X1500791Y668923D01*
X1500403Y669504D01*
X1499919Y670500D01*
X1500403Y671496D01*
X1500791Y672076D01*
X1501124Y673750D01*
X1500791Y675424D01*
X1499843Y676843D01*
Y677157D01*
X1500791Y678576D01*
X1501124Y680250D01*
X1500791Y681924D01*
X1499843Y683343D01*
Y683657D01*
X1500791Y685076D01*
X1501124Y686750D01*
X1500791Y688424D01*
X1499843Y689843D01*
X1498424Y690791D01*
X1496750Y691124D01*
X1479250D01*
X1477576Y690791D01*
X1476157Y689843D01*
X1475209Y688424D01*
X1474876Y686750D01*
X1475209Y685076D01*
X1476157Y683657D01*
Y683343D01*
X1475209Y681924D01*
X1474876Y680250D01*
X1475209Y678576D01*
X1476157Y677157D01*
Y676843D01*
X1475209Y675424D01*
X1474876Y673750D01*
X1475209Y672076D01*
X1475597Y671496D01*
X1476080Y670500D01*
X1475597Y669504D01*
X1475209Y668923D01*
X1474876Y667250D01*
X1475209Y665576D01*
X1476157Y664157D01*
Y663843D01*
X1475209Y662424D01*
X1474876Y660750D01*
X1475209Y659076D01*
X1476157Y657657D01*
Y657343D01*
X1475209Y655924D01*
X1474876Y654250D01*
X1475209Y652576D01*
X1475596Y651996D01*
X1476081Y651000D01*
X1475596Y650004D01*
X1475209Y649424D01*
X1474884Y647790D01*
X1474707Y647669D01*
X1473694Y647184D01*
X1445658Y675220D01*
Y700671D01*
X1446831Y701157D01*
X1452331Y695657D01*
X1453750Y694709D01*
X1455424Y694376D01*
X1467750D01*
X1469424Y694709D01*
X1470843Y695657D01*
X1473933Y698747D01*
X1475149Y698379D01*
X1475209Y698076D01*
X1476157Y696657D01*
X1477576Y695709D01*
X1479250Y695376D01*
X1496750D01*
X1498424Y695709D01*
X1499843Y696657D01*
X1500791Y698076D01*
X1501124Y699750D01*
X1500791Y701424D01*
X1499843Y702843D01*
Y703157D01*
X1500791Y704576D01*
X1501124Y706250D01*
X1500954Y707106D01*
X1501001Y707387D01*
X1501087Y707584D01*
X1501902Y708347D01*
X1501903Y708347D01*
X1503869Y708738D01*
X1505536Y709852D01*
X1506650Y711519D01*
X1507041Y713486D01*
X1506650Y715452D01*
X1505536Y717120D01*
X1503869Y718234D01*
X1501902Y718625D01*
X1501025Y719745D01*
X1500791Y720924D01*
X1499843Y722343D01*
Y722657D01*
X1500791Y724076D01*
X1501124Y725750D01*
X1500954Y726606D01*
X1501900Y727876D01*
X1526750D01*
X1528424Y728209D01*
X1529843Y729157D01*
X1541802Y741116D01*
X1554640D01*
X1556314Y741449D01*
X1557733Y742397D01*
X1581590Y766254D01*
X1582279Y765968D01*
X1584900Y765623D01*
X1587521Y765968D01*
X1589963Y766980D01*
X1592061Y768589D01*
X1593670Y770687D01*
X1594682Y773129D01*
X1595027Y775750D01*
X1594682Y778371D01*
X1593670Y780813D01*
X1592061Y782911D01*
X1589963Y784520D01*
X1587521Y785532D01*
X1584900Y785877D01*
X1582279Y785532D01*
X1579837Y784520D01*
X1577739Y782911D01*
X1576130Y780813D01*
X1575118Y778371D01*
X1574773Y775750D01*
X1575118Y773129D01*
X1575404Y772440D01*
X1570713Y767749D01*
X1569540Y768235D01*
Y785790D01*
X1549460D01*
Y771896D01*
X1522438Y744874D01*
X1456304D01*
X1454630Y744541D01*
X1453211Y743593D01*
X1446928Y737309D01*
X1446441Y737407D01*
X1445658Y738121D01*
Y744898D01*
X1445247Y746962D01*
X1444078Y748712D01*
X1438326Y754464D01*
X1436576Y755633D01*
X1434512Y756044D01*
X1433550D01*
X1433107Y756340D01*
X1433042Y756353D01*
Y757648D01*
X1433107Y757661D01*
X1435105Y758996D01*
X1436440Y760994D01*
X1436909Y763350D01*
X1436440Y765707D01*
X1435459Y767175D01*
X1436078Y768385D01*
X1437280Y768375D01*
X1438786Y764740D01*
X1438928Y764528D01*
X1439025Y764292D01*
X1441361Y760797D01*
X1441541Y760617D01*
X1441683Y760405D01*
X1447498Y754589D01*
X1447710Y754448D01*
X1447891Y754267D01*
X1452051Y751488D01*
X1452287Y751390D01*
X1452498Y751248D01*
X1457121Y749333D01*
X1457371Y749284D01*
X1457607Y749186D01*
X1462514Y748210D01*
X1462769D01*
X1463019Y748160D01*
X1503000D01*
X1503991Y748357D01*
X1504831Y748919D01*
X1541892Y785979D01*
X1541892Y785979D01*
X1543661Y787748D01*
X1543802Y787960D01*
X1543983Y788141D01*
X1546763Y792301D01*
X1546860Y792536D01*
X1547002Y792749D01*
X1548916Y797371D01*
X1548966Y797621D01*
X1549064Y797857D01*
X1550040Y802764D01*
Y803019D01*
X1550090Y803269D01*
Y805771D01*
Y835229D01*
Y837731D01*
X1550040Y837981D01*
Y838236D01*
X1549064Y843143D01*
X1548966Y843379D01*
X1548916Y843629D01*
X1547002Y848251D01*
X1546860Y848464D01*
X1546763Y848699D01*
X1543983Y852859D01*
X1543802Y853040D01*
X1543661Y853252D01*
X1541892Y855021D01*
X1532581Y864331D01*
X1531741Y864893D01*
X1530750Y865090D01*
X1511105D01*
X1510114Y864893D01*
X1509274Y864331D01*
X1508713Y863491D01*
X1508515Y862500D01*
Y839170D01*
X1508472Y838844D01*
X1508484Y838673D01*
X1508450Y838506D01*
Y827050D01*
X1498550D01*
Y838506D01*
X1498517Y838673D01*
X1498528Y838844D01*
X1498485Y839170D01*
Y862500D01*
X1498288Y863491D01*
X1497726Y864331D01*
X1496886Y864893D01*
X1495895Y865090D01*
X1475082D01*
X1474785Y865743D01*
X1474732Y866360D01*
X1476661Y867839D01*
X1478270Y869937D01*
X1479282Y872379D01*
X1479627Y875000D01*
X1479282Y877621D01*
X1478270Y880063D01*
X1476661Y882161D01*
X1474563Y883770D01*
X1472121Y884782D01*
X1469500Y885127D01*
X1466879Y884782D01*
X1464437Y883770D01*
X1462339Y882161D01*
X1461829Y881496D01*
X1460372Y880378D01*
X1452122Y872128D01*
X1451573Y871413D01*
X1450260Y871788D01*
X1450007Y874355D01*
X1448719Y878604D01*
X1446626Y882520D01*
X1443809Y885952D01*
X1440377Y888769D01*
X1436461Y890862D01*
X1432212Y892150D01*
X1427794Y892586D01*
D02*
G37*
G36*
X1307290Y759040D02*
X1287210D01*
Y738960D01*
X1307290D01*
Y759040D01*
D02*
G37*
G36*
X1278040Y758790D02*
X1257960D01*
Y738710D01*
X1278040D01*
Y758790D01*
D02*
G37*
G36*
X1610500Y706375D02*
X1607944Y706038D01*
X1605563Y705051D01*
X1603518Y703482D01*
X1601949Y701437D01*
X1600962Y699056D01*
X1600626Y696500D01*
X1600962Y693944D01*
X1601949Y691563D01*
X1603518Y689518D01*
X1605563Y687949D01*
X1607944Y686962D01*
X1610500Y686626D01*
X1613056Y686962D01*
X1615437Y687949D01*
X1617482Y689518D01*
X1619052Y691563D01*
X1620038Y693944D01*
X1620375Y696500D01*
X1620038Y699056D01*
X1619052Y701437D01*
X1617482Y703482D01*
X1615437Y705051D01*
X1613056Y706038D01*
X1610500Y706375D01*
D02*
G37*
G36*
X1227750Y628479D02*
X1225129Y628134D01*
X1222687Y627123D01*
X1220589Y625513D01*
X1218980Y623416D01*
X1217968Y620974D01*
X1217623Y618353D01*
X1217968Y615732D01*
X1218980Y613290D01*
X1220589Y611192D01*
X1222687Y609583D01*
X1225129Y608571D01*
X1227750Y608226D01*
X1230371Y608571D01*
X1232813Y609583D01*
X1234911Y611192D01*
X1236520Y613290D01*
X1237532Y615732D01*
X1237877Y618353D01*
X1237532Y620974D01*
X1236520Y623416D01*
X1234911Y625513D01*
X1232813Y627123D01*
X1230371Y628134D01*
X1227750Y628479D01*
D02*
G37*
G36*
X1246629Y582127D02*
X1244008Y581782D01*
X1241566Y580770D01*
X1239468Y579161D01*
X1237859Y577063D01*
X1236848Y574621D01*
X1236502Y572000D01*
X1236848Y569379D01*
X1237859Y566937D01*
X1239468Y564839D01*
X1241566Y563230D01*
X1244008Y562218D01*
X1246629Y561873D01*
X1249250Y562218D01*
X1251692Y563230D01*
X1253790Y564839D01*
X1255399Y566937D01*
X1256411Y569379D01*
X1256756Y572000D01*
X1256411Y574621D01*
X1255399Y577063D01*
X1253790Y579161D01*
X1251692Y580770D01*
X1249250Y581782D01*
X1246629Y582127D01*
D02*
G37*
G36*
X1262500Y561627D02*
X1259879Y561282D01*
X1257437Y560270D01*
X1255339Y558661D01*
X1253730Y556563D01*
X1252718Y554121D01*
X1252373Y551500D01*
X1252718Y548879D01*
X1253730Y546437D01*
X1255339Y544339D01*
X1257437Y542730D01*
X1259879Y541718D01*
X1262500Y541373D01*
X1265121Y541718D01*
X1267563Y542730D01*
X1269661Y544339D01*
X1271270Y546437D01*
X1272282Y548879D01*
X1272627Y551500D01*
X1272282Y554121D01*
X1271270Y556563D01*
X1269661Y558661D01*
X1267563Y560270D01*
X1265121Y561282D01*
X1262500Y561627D01*
D02*
G37*
G36*
X1592000Y551127D02*
X1589379Y550782D01*
X1586937Y549770D01*
X1584839Y548161D01*
X1583230Y546063D01*
X1582218Y543621D01*
X1581873Y541000D01*
X1582218Y538379D01*
X1583230Y535937D01*
X1584839Y533839D01*
X1586937Y532230D01*
X1589379Y531218D01*
X1592000Y530873D01*
X1594621Y531218D01*
X1597063Y532230D01*
X1599161Y533839D01*
X1600770Y535937D01*
X1601782Y538379D01*
X1602127Y541000D01*
X1601782Y543621D01*
X1600770Y546063D01*
X1599161Y548161D01*
X1597063Y549770D01*
X1594621Y550782D01*
X1592000Y551127D01*
D02*
G37*
G36*
X1572500Y531127D02*
X1569879Y530782D01*
X1567437Y529770D01*
X1565339Y528161D01*
X1563730Y526063D01*
X1562718Y523621D01*
X1562373Y521000D01*
X1562718Y518379D01*
X1563730Y515937D01*
X1565339Y513839D01*
X1567437Y512230D01*
X1569879Y511218D01*
X1572500Y510873D01*
X1575121Y511218D01*
X1577563Y512230D01*
X1579661Y513839D01*
X1581270Y515937D01*
X1582282Y518379D01*
X1582627Y521000D01*
X1582282Y523621D01*
X1581270Y526063D01*
X1579661Y528161D01*
X1577563Y529770D01*
X1575121Y530782D01*
X1572500Y531127D01*
D02*
G37*
G36*
X1550750Y514627D02*
X1548129Y514282D01*
X1545687Y513270D01*
X1543589Y511661D01*
X1541980Y509563D01*
X1540968Y507121D01*
X1540623Y504500D01*
X1540968Y501879D01*
X1541980Y499437D01*
X1543589Y497339D01*
X1545687Y495730D01*
X1548129Y494718D01*
X1550750Y494373D01*
X1553371Y494718D01*
X1555813Y495730D01*
X1557911Y497339D01*
X1559520Y499437D01*
X1560532Y501879D01*
X1560877Y504500D01*
X1560532Y507121D01*
X1559520Y509563D01*
X1557911Y511661D01*
X1555813Y513270D01*
X1553371Y514282D01*
X1550750Y514627D01*
D02*
G37*
G36*
X1526750Y500377D02*
X1524129Y500032D01*
X1521687Y499020D01*
X1519589Y497411D01*
X1517980Y495313D01*
X1516968Y492871D01*
X1516623Y490250D01*
X1516968Y487629D01*
X1517980Y485187D01*
X1519589Y483089D01*
X1521687Y481480D01*
X1524129Y480468D01*
X1526750Y480123D01*
X1529371Y480468D01*
X1531813Y481480D01*
X1533911Y483089D01*
X1535520Y485187D01*
X1536532Y487629D01*
X1536877Y490250D01*
X1536532Y492871D01*
X1535520Y495313D01*
X1533911Y497411D01*
X1531813Y499020D01*
X1529371Y500032D01*
X1526750Y500377D01*
D02*
G37*
G36*
X1502750Y487377D02*
X1500129Y487032D01*
X1497687Y486020D01*
X1495589Y484411D01*
X1493980Y482313D01*
X1492968Y479871D01*
X1492623Y477250D01*
X1492968Y474629D01*
X1493980Y472187D01*
X1495589Y470089D01*
X1497687Y468480D01*
X1500129Y467468D01*
X1502750Y467123D01*
X1505371Y467468D01*
X1507813Y468480D01*
X1509911Y470089D01*
X1511520Y472187D01*
X1512532Y474629D01*
X1512877Y477250D01*
X1512532Y479871D01*
X1511520Y482313D01*
X1509911Y484411D01*
X1507813Y486020D01*
X1505371Y487032D01*
X1502750Y487377D01*
D02*
G37*
G36*
X1359468Y483127D02*
X1356847Y482782D01*
X1354404Y481770D01*
X1352307Y480161D01*
X1350698Y478063D01*
X1349686Y475621D01*
X1349341Y473000D01*
X1349686Y470379D01*
X1350698Y467937D01*
X1352307Y465839D01*
X1354404Y464230D01*
X1356847Y463218D01*
X1359468Y462873D01*
X1362089Y463218D01*
X1364531Y464230D01*
X1366628Y465839D01*
X1368238Y467937D01*
X1369249Y470379D01*
X1369594Y473000D01*
X1369249Y475621D01*
X1368238Y478063D01*
X1366628Y480161D01*
X1364531Y481770D01*
X1362089Y482782D01*
X1359468Y483127D01*
D02*
G37*
G36*
X1476081Y477877D02*
X1473460Y477532D01*
X1471017Y476520D01*
X1468920Y474911D01*
X1467311Y472813D01*
X1466299Y470371D01*
X1465954Y467750D01*
X1466299Y465129D01*
X1467311Y462687D01*
X1468920Y460589D01*
X1471017Y458980D01*
X1473460Y457968D01*
X1476081Y457623D01*
X1478702Y457968D01*
X1481144Y458980D01*
X1483241Y460589D01*
X1484850Y462687D01*
X1485862Y465129D01*
X1486207Y467750D01*
X1485862Y470371D01*
X1484850Y472813D01*
X1483241Y474911D01*
X1481144Y476520D01*
X1478702Y477532D01*
X1476081Y477877D01*
D02*
G37*
G36*
X1427794Y490399D02*
X1423375Y489964D01*
X1419126Y488675D01*
X1415211Y486582D01*
X1411778Y483765D01*
X1408962Y480333D01*
X1406869Y476417D01*
X1405580Y472169D01*
X1405145Y467750D01*
X1405580Y463331D01*
X1406869Y459083D01*
X1408962Y455167D01*
X1411778Y451735D01*
X1415211Y448918D01*
X1419126Y446825D01*
X1423375Y445536D01*
X1427794Y445101D01*
X1432212Y445536D01*
X1436461Y446825D01*
X1440377Y448918D01*
X1443809Y451735D01*
X1446626Y455167D01*
X1448719Y459083D01*
X1450007Y463331D01*
X1450443Y467750D01*
X1450007Y472169D01*
X1448719Y476417D01*
X1446626Y480333D01*
X1443809Y483765D01*
X1440377Y486582D01*
X1436461Y488675D01*
X1432212Y489964D01*
X1427794Y490399D01*
D02*
G37*
%LPD*%
G36*
X1321535Y783448D02*
X1321106Y782081D01*
X1319393Y781740D01*
X1317395Y780405D01*
X1316060Y778407D01*
X1315591Y776050D01*
X1315921Y774392D01*
X1314751Y773766D01*
X1307290Y781227D01*
Y793841D01*
X1307290Y794040D01*
X1307770Y795111D01*
X1309872D01*
X1321535Y783448D01*
D02*
G37*
G36*
X1540060Y853189D02*
X1541830Y851421D01*
X1544609Y847260D01*
X1546524Y842638D01*
X1547500Y837731D01*
Y835229D01*
Y805771D01*
Y803269D01*
X1546524Y798362D01*
X1544609Y793740D01*
X1541830Y789579D01*
X1540060Y787811D01*
X1540060D01*
X1540060Y787811D01*
X1503000Y750750D01*
X1463019D01*
X1458112Y751726D01*
X1453490Y753641D01*
X1449330Y756421D01*
X1447560Y758189D01*
X1443514Y762236D01*
X1441179Y765731D01*
X1439570Y769614D01*
X1438750Y773737D01*
Y793000D01*
X1437700Y811500D01*
Y837604D01*
Y840106D01*
X1438676Y845013D01*
X1440590Y849636D01*
X1443023Y853276D01*
X1443809Y853921D01*
X1445243Y855669D01*
X1448625Y859051D01*
X1449895Y858524D01*
Y839000D01*
X1449960Y838506D01*
Y824460D01*
X1465040D01*
Y838506D01*
X1465105Y839000D01*
Y862500D01*
X1495895D01*
Y839000D01*
X1495960Y838506D01*
Y824460D01*
X1511040D01*
Y838506D01*
X1511105Y839000D01*
Y862500D01*
X1530750D01*
X1540060Y853189D01*
D02*
G37*
G36*
X1567501Y764537D02*
X1552828Y749864D01*
X1541596D01*
X1541070Y751134D01*
X1555646Y765710D01*
X1567015D01*
X1567501Y764537D01*
D02*
G37*
G36*
X1468920Y734856D02*
X1462157Y728093D01*
X1461209Y726674D01*
X1460876Y725000D01*
Y709775D01*
X1460502Y709216D01*
X1460111Y707250D01*
X1460502Y705283D01*
X1461096Y704394D01*
X1460418Y703124D01*
X1457236D01*
X1452428Y707932D01*
Y729724D01*
X1452802Y730283D01*
X1452933Y730943D01*
X1458116Y736126D01*
X1468394D01*
X1468920Y734856D01*
D02*
G37*
G36*
X1414906Y731671D02*
X1414880Y731167D01*
X1414317Y730644D01*
X1380316D01*
X1378252Y730233D01*
X1376502Y729064D01*
X1367532Y720094D01*
X1366363Y718344D01*
X1365952Y716280D01*
Y678890D01*
X1364029Y676966D01*
X1363042Y677776D01*
X1363121Y677894D01*
X1363532Y679958D01*
Y719126D01*
X1376962Y732557D01*
X1414511D01*
X1414906Y731671D01*
D02*
G37*
G36*
Y718971D02*
X1414880Y718466D01*
X1414317Y717944D01*
X1391492D01*
X1389428Y717533D01*
X1387678Y716364D01*
X1380486Y709172D01*
X1379317Y707422D01*
X1378906Y705358D01*
Y675588D01*
X1377430Y674111D01*
X1377260Y674186D01*
X1376382Y674860D01*
X1376740Y676656D01*
Y714046D01*
X1382550Y719857D01*
X1414511D01*
X1414906Y718971D01*
D02*
G37*
G36*
X1540681Y677157D02*
X1542100Y676209D01*
X1543128Y676004D01*
X1543827Y675629D01*
X1544046Y674606D01*
X1543876Y673750D01*
X1544209Y672076D01*
X1545157Y670657D01*
X1546576Y669709D01*
X1548250Y669376D01*
X1574710D01*
Y666884D01*
X1589722D01*
X1590208Y665711D01*
X1576622Y652124D01*
X1570900D01*
X1569954Y653394D01*
X1570124Y654250D01*
X1569791Y655924D01*
X1568843Y657343D01*
Y657657D01*
X1569791Y659076D01*
X1570124Y660750D01*
X1569791Y662424D01*
X1568843Y663843D01*
X1567424Y664791D01*
X1565750Y665124D01*
X1544166D01*
X1543800Y665051D01*
X1542902Y665949D01*
X1543069Y666790D01*
X1542678Y668756D01*
X1541564Y670423D01*
X1539897Y671537D01*
X1539237Y671668D01*
X1538094Y672812D01*
Y677910D01*
X1538137Y677966D01*
X1539364Y678474D01*
X1540681Y677157D01*
D02*
G37*
G36*
X1436450Y669172D02*
X1453075Y652547D01*
X1452589Y651374D01*
X1435615D01*
X1435129Y652547D01*
X1436120Y653538D01*
X1437289Y655288D01*
X1437700Y657352D01*
X1437289Y659416D01*
X1436120Y661166D01*
X1434370Y662335D01*
X1432306Y662746D01*
X1430242Y662335D01*
X1428889Y661431D01*
X1427737Y662148D01*
X1427794Y662432D01*
X1427383Y664496D01*
X1426214Y666246D01*
X1425052Y667022D01*
X1425438Y668292D01*
X1430750D01*
X1433107Y668761D01*
X1435105Y670096D01*
X1435833D01*
X1436450Y669172D01*
D02*
G37*
G36*
X1318135Y658229D02*
X1316828Y657356D01*
X1309458Y649986D01*
X1307250Y650277D01*
X1304629Y649932D01*
X1302479Y649041D01*
X1293291Y658229D01*
X1293817Y659499D01*
X1317749D01*
X1318135Y658229D01*
D02*
G37*
G36*
X1522706Y607416D02*
Y588296D01*
X1523117Y586232D01*
X1524286Y584482D01*
X1524660Y584108D01*
X1524585Y583604D01*
X1523211Y582994D01*
X1523206Y582998D01*
X1521240Y583389D01*
X1519273Y582998D01*
X1518714Y582624D01*
X1509459D01*
X1507096Y584987D01*
X1507465Y586202D01*
X1507717Y586252D01*
X1509384Y587366D01*
X1510498Y589034D01*
X1511340Y589383D01*
X1512283Y588752D01*
X1514250Y588361D01*
X1516216Y588752D01*
X1517884Y589866D01*
X1518998Y591534D01*
X1519389Y593500D01*
X1518998Y595466D01*
X1518624Y596026D01*
Y601250D01*
X1518291Y602924D01*
X1517343Y604343D01*
X1496843Y624843D01*
X1495424Y625791D01*
X1493939Y626086D01*
X1494064Y627356D01*
X1502766D01*
X1522706Y607416D01*
D02*
G37*
G36*
X1390082Y670200D02*
Y666952D01*
X1383836Y660706D01*
X1382667Y658956D01*
X1382257Y656892D01*
Y627370D01*
X1382296Y627171D01*
Y621870D01*
X1382707Y619806D01*
X1383876Y618056D01*
X1385626Y616887D01*
X1387690Y616476D01*
X1389754Y616887D01*
X1391504Y618056D01*
X1391876D01*
X1393626Y616887D01*
X1395690Y616476D01*
X1397754Y616887D01*
X1399504Y618056D01*
X1399876D01*
X1401626Y616887D01*
X1403690Y616476D01*
X1405754Y616887D01*
X1407504Y618056D01*
X1407876D01*
X1409626Y616887D01*
X1411690Y616476D01*
X1413754Y616887D01*
X1415504Y618056D01*
X1415876D01*
X1417626Y616887D01*
X1419690Y616476D01*
X1421754Y616887D01*
X1423504Y618056D01*
X1423876D01*
X1425626Y616887D01*
X1427690Y616476D01*
X1429754Y616887D01*
X1430196Y617182D01*
X1431316Y616583D01*
Y616060D01*
X1431649Y614386D01*
X1432597Y612967D01*
X1437871Y607693D01*
X1438002Y607034D01*
X1439116Y605366D01*
X1440784Y604252D01*
X1442750Y603861D01*
X1444716Y604252D01*
X1445606Y604847D01*
X1447017Y604262D01*
X1447207Y603306D01*
X1447843Y602355D01*
X1448291Y601370D01*
X1447843Y600385D01*
X1447207Y599434D01*
X1446797Y597370D01*
X1447207Y595306D01*
X1448376Y593556D01*
X1450126Y592387D01*
X1452190Y591976D01*
X1463190D01*
X1465254Y592387D01*
X1466166Y592996D01*
X1486716D01*
X1496164Y583547D01*
X1495678Y582374D01*
X1471500D01*
X1469826Y582041D01*
X1469755Y581993D01*
X1468344Y582578D01*
X1468173Y583434D01*
X1467004Y585184D01*
X1465254Y586353D01*
X1463190Y586763D01*
X1452190D01*
X1450126Y586353D01*
X1448376Y585184D01*
X1447207Y583434D01*
X1446797Y581370D01*
X1447207Y579306D01*
X1448376Y577556D01*
Y577184D01*
X1447207Y575434D01*
X1446797Y573370D01*
X1447062Y572034D01*
X1446158Y570764D01*
X1430620D01*
X1430616Y570763D01*
X1424194Y577184D01*
X1408194Y593184D01*
X1406445Y594353D01*
X1404380Y594763D01*
X1403099Y594509D01*
X1380471D01*
X1379190Y594763D01*
X1368190D01*
X1366126Y594353D01*
X1364376Y593184D01*
X1363207Y591434D01*
X1362796Y589370D01*
X1363207Y587306D01*
X1364376Y585556D01*
X1366126Y584387D01*
X1368190Y583976D01*
X1379190D01*
X1380471Y584231D01*
X1401891D01*
X1406186Y579937D01*
X1405700Y578764D01*
X1368190D01*
X1366126Y578353D01*
X1364376Y577184D01*
X1363409Y575736D01*
X1362139Y576079D01*
Y579250D01*
X1361747Y581217D01*
X1360634Y582884D01*
X1358384Y585134D01*
X1356716Y586247D01*
X1354750Y586639D01*
X1352784Y586247D01*
X1351116Y585134D01*
X1350002Y583466D01*
X1349611Y581500D01*
X1350002Y579534D01*
X1351116Y577866D01*
X1351861Y577122D01*
Y569250D01*
X1352252Y567284D01*
X1353366Y565616D01*
X1355090Y563892D01*
X1354477Y562709D01*
X1352686Y562353D01*
X1350936Y561184D01*
X1349767Y559434D01*
X1349356Y557370D01*
X1349767Y555306D01*
X1350936Y553556D01*
X1352686Y552387D01*
X1354750Y551976D01*
X1366414D01*
X1367013Y550856D01*
X1366752Y550466D01*
X1366621Y549807D01*
X1362188Y545374D01*
X1322139D01*
X1321753Y546644D01*
X1322074Y546858D01*
X1334814Y559598D01*
X1335983Y561348D01*
X1336394Y563412D01*
Y584038D01*
X1354840Y602484D01*
X1356009Y604234D01*
X1356420Y606298D01*
Y637846D01*
X1388114Y669540D01*
X1388812Y670585D01*
X1390082Y670200D01*
D02*
G37*
G36*
X1506590Y564778D02*
X1508009Y563830D01*
X1509682Y563497D01*
X1519167D01*
X1519726Y563124D01*
X1521693Y562733D01*
X1523659Y563124D01*
X1524126Y563436D01*
X1525396Y562757D01*
Y539801D01*
X1524126Y539123D01*
X1523466Y539564D01*
X1521500Y539955D01*
X1519534Y539564D01*
X1517866Y538450D01*
X1516752Y536782D01*
X1516621Y536123D01*
X1513872Y533374D01*
X1506275D01*
X1505717Y533748D01*
X1503750Y534139D01*
X1501783Y533748D01*
X1500116Y532634D01*
X1499002Y530966D01*
X1498611Y529000D01*
X1499002Y527034D01*
X1500116Y525366D01*
X1501783Y524252D01*
X1503750Y523861D01*
X1505717Y524252D01*
X1506275Y524626D01*
X1513040D01*
X1513526Y523453D01*
X1497371Y507298D01*
X1443596D01*
X1443069Y508568D01*
X1443983Y509936D01*
X1444394Y512000D01*
X1443983Y514064D01*
X1442814Y515814D01*
X1442050Y516578D01*
X1442675Y517748D01*
X1443690Y517547D01*
X1445754Y517957D01*
X1447504Y519126D01*
X1448673Y520876D01*
X1449084Y522940D01*
Y543370D01*
Y548870D01*
X1448673Y550934D01*
X1447504Y552684D01*
X1445754Y553853D01*
X1443690Y554264D01*
X1441626Y553853D01*
X1439876Y552684D01*
X1439504D01*
X1437754Y553853D01*
X1435690Y554264D01*
X1433626Y553853D01*
X1431876Y552684D01*
X1431504D01*
X1429754Y553853D01*
X1427690Y554264D01*
X1425626Y553853D01*
X1423876Y552684D01*
X1423504D01*
X1421754Y553853D01*
X1419690Y554264D01*
X1417626Y553853D01*
X1415876Y552684D01*
X1415504D01*
X1413754Y553853D01*
X1411690Y554264D01*
X1409626Y553853D01*
X1407876Y552684D01*
X1407504D01*
X1405754Y553853D01*
X1403690Y554264D01*
X1401626Y553853D01*
X1399876Y552684D01*
X1399504D01*
X1397754Y553853D01*
X1395690Y554264D01*
X1393626Y553853D01*
X1391876Y552684D01*
X1391504D01*
X1389754Y553853D01*
X1387690Y554264D01*
X1385626Y553853D01*
X1383876Y552684D01*
X1382707Y550934D01*
X1382296Y548870D01*
Y544162D01*
X1376258Y538124D01*
X1368969D01*
X1368483Y539297D01*
X1372807Y543621D01*
X1373466Y543752D01*
X1375134Y544866D01*
X1376248Y546534D01*
X1376639Y548500D01*
X1376248Y550466D01*
X1375987Y550856D01*
X1376586Y551976D01*
X1379190D01*
X1381254Y552387D01*
X1383004Y553556D01*
X1384173Y555306D01*
X1384583Y557370D01*
X1384173Y559434D01*
X1383537Y560385D01*
X1383089Y561370D01*
X1383537Y562355D01*
X1384173Y563306D01*
X1384583Y565370D01*
X1384318Y566706D01*
X1385222Y567976D01*
X1418146D01*
X1425686Y560436D01*
X1427436Y559267D01*
X1429500Y558857D01*
X1431564Y559267D01*
X1432626Y559976D01*
X1446158D01*
X1447062Y558706D01*
X1446797Y557370D01*
X1447207Y555306D01*
X1448376Y553556D01*
X1450126Y552387D01*
X1452190Y551976D01*
X1463190D01*
X1465254Y552387D01*
X1467004Y553556D01*
X1468173Y555306D01*
X1468584Y557370D01*
X1468173Y559434D01*
X1467538Y560385D01*
X1467089Y561370D01*
X1467538Y562355D01*
X1468173Y563306D01*
X1468584Y565370D01*
X1468173Y567434D01*
X1467734Y568091D01*
X1468220Y569264D01*
X1468544Y569329D01*
X1469963Y570277D01*
X1473312Y573626D01*
X1474767D01*
X1475210Y572540D01*
X1475210Y572356D01*
Y552460D01*
X1495290D01*
Y572356D01*
X1495290Y572540D01*
X1495734Y573626D01*
X1497742D01*
X1506590Y564778D01*
D02*
G37*
G36*
X1386713Y518369D02*
X1388132Y517421D01*
X1389806Y517088D01*
X1391212D01*
X1392016Y517248D01*
X1392642Y516077D01*
X1384688Y508124D01*
X1340207D01*
X1338533Y507791D01*
X1337114Y506843D01*
X1328508Y498237D01*
X1327111Y498635D01*
X1327065Y498829D01*
X1345812Y517576D01*
X1382957D01*
X1384631Y517909D01*
X1385615Y518566D01*
X1386516D01*
X1386713Y518369D01*
D02*
G37*
%LPC*%
G36*
X1429500Y611889D02*
X1427534Y611497D01*
X1425867Y610384D01*
X1424753Y608717D01*
X1424362Y606750D01*
X1424753Y604784D01*
X1425867Y603116D01*
X1427534Y602002D01*
X1429500Y601611D01*
X1431467Y602002D01*
X1433134Y603116D01*
X1434248Y604784D01*
X1434639Y606750D01*
X1434248Y608717D01*
X1433134Y610384D01*
X1431467Y611497D01*
X1429500Y611889D01*
D02*
G37*
G36*
X1379190Y618764D02*
X1368190D01*
X1366126Y618353D01*
X1364376Y617184D01*
X1363207Y615434D01*
X1362796Y613370D01*
X1363207Y611306D01*
X1363842Y610355D01*
X1364291Y609370D01*
X1363842Y608385D01*
X1363207Y607434D01*
X1362796Y605370D01*
X1363207Y603306D01*
X1364376Y601556D01*
X1366126Y600387D01*
X1368190Y599976D01*
X1379190D01*
X1381254Y600387D01*
X1383004Y601556D01*
X1384173Y603306D01*
X1384583Y605370D01*
X1384173Y607434D01*
X1383537Y608385D01*
X1383089Y609370D01*
X1383537Y610355D01*
X1384173Y611306D01*
X1384583Y613370D01*
X1384173Y615434D01*
X1383004Y617184D01*
X1381254Y618353D01*
X1379190Y618764D01*
D02*
G37*
%LPD*%
D13*
X1567750Y601750D02*
D03*
X1605750D02*
D03*
D14*
X1485250Y527500D02*
D03*
Y562500D02*
D03*
X1268000Y783750D02*
D03*
Y748750D02*
D03*
X1297250Y749000D02*
D03*
Y784000D02*
D03*
D15*
X1317500Y581370D02*
D03*
X1290500D02*
D03*
D16*
X1373690Y613370D02*
D03*
Y605370D02*
D03*
Y597370D02*
D03*
Y589370D02*
D03*
Y581370D02*
D03*
Y573370D02*
D03*
Y565370D02*
D03*
Y557370D02*
D03*
X1457690D02*
D03*
Y565370D02*
D03*
Y573370D02*
D03*
Y581370D02*
D03*
Y589370D02*
D03*
Y597370D02*
D03*
Y605370D02*
D03*
Y613370D02*
D03*
D17*
X1387690Y543370D02*
D03*
X1395690D02*
D03*
X1403690D02*
D03*
X1411690D02*
D03*
X1419690D02*
D03*
X1427690D02*
D03*
X1435690D02*
D03*
X1443690D02*
D03*
Y627370D02*
D03*
X1435690D02*
D03*
X1427690D02*
D03*
X1419690D02*
D03*
X1411690D02*
D03*
X1403690D02*
D03*
X1395690D02*
D03*
X1387690D02*
D03*
D18*
X1290250Y711500D02*
D03*
Y699500D02*
D03*
D19*
Y687500D02*
D03*
D20*
X1424250Y674450D02*
D03*
Y687150D02*
D03*
Y699850D02*
D03*
Y712550D02*
D03*
Y725250D02*
D03*
Y737950D02*
D03*
Y750650D02*
D03*
Y763350D02*
D03*
Y776050D02*
D03*
X1328250Y674450D02*
D03*
Y687150D02*
D03*
Y699850D02*
D03*
Y712550D02*
D03*
Y725250D02*
D03*
Y737950D02*
D03*
Y750650D02*
D03*
Y763350D02*
D03*
Y776050D02*
D03*
D21*
X1488000Y732250D02*
D03*
Y725750D02*
D03*
Y719250D02*
D03*
Y712750D02*
D03*
Y706250D02*
D03*
Y699750D02*
D03*
Y693250D02*
D03*
Y686750D02*
D03*
Y680250D02*
D03*
Y673750D02*
D03*
Y667250D02*
D03*
Y660750D02*
D03*
Y654250D02*
D03*
Y647750D02*
D03*
X1557000Y732250D02*
D03*
Y725750D02*
D03*
Y719250D02*
D03*
Y712750D02*
D03*
Y706250D02*
D03*
Y699750D02*
D03*
Y693250D02*
D03*
Y686750D02*
D03*
Y680250D02*
D03*
Y673750D02*
D03*
Y667250D02*
D03*
Y660750D02*
D03*
Y654250D02*
D03*
Y647750D02*
D03*
D22*
X1585750Y674924D02*
D03*
Y701924D02*
D03*
D23*
X1637500Y638000D02*
D03*
Y705000D02*
D03*
D24*
Y661500D02*
D03*
Y681500D02*
D03*
D25*
X1610500Y671500D02*
D03*
Y678000D02*
D03*
Y665000D02*
D03*
Y684500D02*
D03*
Y658500D02*
D03*
D26*
X1530500Y811250D02*
D03*
X1565500D02*
D03*
X1281850Y614750D02*
D03*
X1559500Y775750D02*
D03*
D27*
X1503500Y839000D02*
D03*
X1480500D02*
D03*
X1457500D02*
D03*
D28*
X1480500Y781000D02*
D03*
D29*
X1405873Y801950D02*
D03*
Y814650D02*
D03*
Y827350D02*
D03*
Y840050D02*
D03*
X1349874Y801950D02*
D03*
Y814650D02*
D03*
Y827350D02*
D03*
D30*
Y840050D02*
D03*
D54*
X1444414Y776050D02*
G03*
X1445500Y776500I0J1535D01*
G01*
X1446250Y775750D02*
X1453250D01*
X1445500Y776500D02*
X1446250Y775750D01*
X1424250Y776050D02*
X1444414D01*
X1503500Y839000D02*
Y875500D01*
X1605750Y577750D02*
Y601750D01*
X1522730Y641858D02*
X1538250Y626338D01*
X1465750Y875000D02*
X1469500D01*
X1457500Y866750D02*
X1465750Y875000D01*
X1457500Y839000D02*
Y866750D01*
X1538250Y592500D02*
Y626338D01*
Y592500D02*
X1559000Y571750D01*
X1599750D01*
X1605750Y577750D01*
X1417300Y776050D02*
X1424250D01*
D55*
X1598400Y667717D02*
X1602183Y671500D01*
X1598400Y667705D02*
Y667717D01*
X1595969Y665274D02*
X1598400Y667705D01*
X1595957Y665274D02*
X1595969D01*
X1578433Y647750D02*
X1595957Y665274D01*
X1557000Y647750D02*
X1578433D01*
X1488000Y732250D02*
X1526750D01*
X1539990Y745490D01*
X1554640D01*
X1524250Y740500D02*
X1559500Y775750D01*
X1456304Y740500D02*
X1524250D01*
X1448054Y732250D02*
X1456304Y740500D01*
X1472500Y732250D02*
X1488000D01*
X1465250Y725000D02*
X1472500Y732250D01*
X1465250Y707250D02*
Y725000D01*
X1475250Y706250D02*
X1488000D01*
X1467750Y698750D02*
X1475250Y706250D01*
X1448054Y706120D02*
Y732250D01*
Y706120D02*
X1455424Y698750D01*
X1467750D01*
X1610500Y665000D02*
X1621674D01*
X1622250Y665576D01*
X1509682Y567871D02*
X1521693D01*
X1499554Y578000D02*
X1509682Y567871D01*
X1488528Y597370D02*
X1507648Y578250D01*
X1521240D01*
X1505750Y591000D02*
Y601406D01*
X1491306Y615850D02*
X1505750Y601406D01*
X1584576Y673750D02*
X1585750Y674924D01*
X1557000Y673750D02*
X1584576D01*
X1318770Y482313D02*
X1340207Y503750D01*
X1312808Y482313D02*
X1318770D01*
X1297750Y497371D02*
X1312808Y482313D01*
X1314750Y513000D02*
X1329600Y527850D01*
X1380514D01*
X1297750Y497371D02*
Y512690D01*
X1278750Y530750D02*
X1289000Y541000D01*
X1364000D01*
X1371500Y548500D01*
X1321535Y533750D02*
X1378070D01*
X1312811Y525026D02*
X1321535Y533750D01*
X1303814Y525026D02*
X1312811D01*
X1316250Y496750D02*
X1318800D01*
X1344000Y521950D02*
X1382957D01*
X1318800Y496750D02*
X1344000Y521950D01*
X1340207Y503750D02*
X1386500D01*
X1403440Y533690D02*
X1403690D01*
X1388328Y522940D02*
X1389806Y521462D01*
X1383948Y522940D02*
X1388328D01*
X1382957Y521950D02*
X1383948Y522940D01*
X1389750Y529750D02*
X1395690Y535690D01*
X1382414Y529750D02*
X1389750D01*
X1380514Y527850D02*
X1382414Y529750D01*
X1391212Y521462D02*
X1403440Y533690D01*
X1389806Y521462D02*
X1391212D01*
X1515684Y529000D02*
X1521500Y534816D01*
X1503750Y529000D02*
X1515684D01*
X1471500Y578000D02*
X1499554D01*
X1466870Y573370D02*
X1471500Y578000D01*
X1457690Y573370D02*
X1466870D01*
X1457690Y597370D02*
X1488528D01*
X1435690Y616060D02*
X1442750Y609000D01*
X1435690Y616060D02*
Y627370D01*
X1485550Y609950D02*
X1498250Y597250D01*
X1475612Y609950D02*
X1485550D01*
X1470090Y615472D02*
X1475612Y609950D01*
X1470090Y615472D02*
Y616228D01*
X1458948Y627370D02*
X1470090Y616228D01*
X1443690Y627370D02*
X1458948D01*
X1453562Y641100D02*
X1475990Y618672D01*
X1481256Y621750D02*
X1493750D01*
X1456006Y647000D02*
X1481256Y621750D01*
X1475990Y617916D02*
Y618672D01*
X1493750Y621750D02*
X1514250Y601250D01*
X1431712Y647000D02*
X1456006D01*
X1434156Y641100D02*
X1453562D01*
X1475990Y617916D02*
X1478056Y615850D01*
X1491306D01*
X1427690Y634634D02*
X1434156Y641100D01*
X1427690Y627370D02*
Y634634D01*
X1419690Y634978D02*
X1431712Y647000D01*
X1514250Y593500D02*
Y601250D01*
X1419690Y627370D02*
Y634978D01*
X1386500Y503750D02*
X1411690Y528940D01*
Y543370D01*
X1395690Y535690D02*
Y543370D01*
X1378070Y533750D02*
X1387690Y543370D01*
X1403690Y533690D02*
Y543370D01*
X1540510Y683514D02*
Y683768D01*
X1533720Y671000D02*
Y696790D01*
X1526750Y663238D02*
Y690500D01*
X1540510Y683514D02*
X1543774Y680250D01*
X1533720Y671000D02*
X1537930Y666790D01*
X1533720Y696790D02*
X1536680Y699750D01*
X1526750Y663238D02*
X1531366Y658622D01*
X1540510Y720344D02*
X1541604Y719250D01*
X1557000D01*
X1602183Y671500D02*
X1610500D01*
X1541944Y644488D02*
X1545844Y640588D01*
X1554226D01*
X1541944Y644488D02*
Y649986D01*
X1546208Y654250D01*
X1557000D01*
X1544166Y660750D02*
X1557000D01*
X1542038Y658622D02*
X1544166Y660750D01*
X1531366Y658622D02*
X1542038D01*
X1596804Y654304D02*
X1601000Y658500D01*
X1571790Y718858D02*
X1575562Y722630D01*
X1571790Y697248D02*
Y718858D01*
X1568252Y693710D02*
X1571790Y697248D01*
X1557460Y693710D02*
X1568252D01*
X1557000Y693250D02*
X1557460Y693710D01*
X1536680Y699750D02*
X1557000D01*
X1543774Y680250D02*
X1557000D01*
X1501166Y712750D02*
X1501902Y713486D01*
X1488000Y712750D02*
X1501166D01*
X1554640Y745490D02*
X1584900Y775750D01*
X1465250Y707250D02*
X1466250Y706250D01*
X1601000Y658500D02*
X1610500D01*
D56*
X1567750Y623250D02*
X1586648Y642148D01*
X1440264Y672986D02*
Y744898D01*
Y672986D02*
X1480500Y632750D01*
X1395912Y827350D02*
X1405873D01*
X1389634Y833628D02*
Y877316D01*
Y833628D02*
X1395912Y827350D01*
X1364234Y873506D02*
X1373500Y864240D01*
Y825568D02*
Y864240D01*
Y825568D02*
X1384418Y814650D01*
X1405873D01*
X1586648Y644148D02*
X1596804Y654304D01*
X1586648Y642148D02*
Y644148D01*
X1567750Y601750D02*
Y623250D01*
X1356750Y778250D02*
Y793740D01*
X1443690Y522940D02*
Y543370D01*
X1234579Y595000D02*
X1241124D01*
X1243124Y597000D01*
X1244345Y595779D01*
X1263316Y614750D01*
X1269250D01*
X1387650Y627370D02*
Y656892D01*
X1269250Y614750D02*
X1281850D01*
X1530790Y533089D02*
Y585606D01*
X1435100Y501904D02*
X1499605D01*
X1530790Y533089D01*
X1528100Y588296D02*
X1530790Y585606D01*
X1505000Y632750D02*
X1528100Y609650D01*
Y588296D02*
Y609650D01*
X1480500Y632750D02*
X1505000D01*
X1354750Y557370D02*
X1373690D01*
X1286393Y671500D02*
X1293000Y664892D01*
X1266608Y671500D02*
X1286393D01*
X1256750Y661642D02*
X1266608Y671500D01*
X1419690Y517314D02*
Y543370D01*
X1427690Y523310D02*
X1439000Y512000D01*
X1427690Y523310D02*
Y543370D01*
X1419690Y517314D02*
X1435100Y501904D01*
X1317500Y601728D02*
X1321308Y605536D01*
X1317500Y581370D02*
Y601728D01*
X1331000Y586272D02*
X1351026Y606298D01*
X1331000Y563412D02*
Y586272D01*
X1318260Y550672D02*
X1331000Y563412D01*
X1275760Y661672D02*
X1282220D01*
X1303742Y640150D01*
X1307250D01*
X1293000Y664892D02*
X1343072D01*
X1358138Y679958D01*
X1256750Y627250D02*
Y661642D01*
Y627250D02*
X1269250Y614750D01*
X1584198Y693674D02*
X1585750Y695226D01*
Y701924D01*
X1411690Y627370D02*
Y636736D01*
X1432306Y657352D01*
X1403730Y643762D02*
X1422400Y662432D01*
X1434512Y750650D02*
X1440264Y744898D01*
X1424250Y750650D02*
X1434512D01*
X1395690Y627370D02*
Y649438D01*
X1405890Y659638D01*
X1403690Y627370D02*
Y639150D01*
X1403730D02*
Y643762D01*
X1405890Y659638D02*
Y689356D01*
X1387650Y656892D02*
X1395476Y664718D01*
Y694182D01*
X1401144Y699850D01*
X1424250D01*
X1384300Y673354D02*
Y705358D01*
X1351026Y640080D02*
X1384300Y673354D01*
X1351026Y606298D02*
Y640080D01*
X1332650Y608400D02*
Y614750D01*
X1384300Y705358D02*
X1391492Y712550D01*
X1424250D01*
X1371346Y676656D02*
Y716280D01*
X1348232Y653542D02*
X1371346Y676656D01*
X1320642Y653542D02*
X1348232D01*
X1380316Y725250D02*
X1424250D01*
X1371346Y716280D02*
X1380316Y725250D01*
X1358138Y721360D02*
X1374728Y737950D01*
X1358138Y679958D02*
Y721360D01*
X1374728Y737950D02*
X1424250D01*
X1307250Y640150D02*
X1320642Y653542D01*
X1360880Y565370D02*
X1373690D01*
Y573370D02*
X1420380D01*
X1429500Y564250D01*
X1404380Y589370D02*
X1420380Y573370D01*
X1429500Y564250D02*
X1430620Y565370D01*
X1457690D01*
X1290250Y687500D02*
X1290600Y687150D01*
X1328250D01*
X1290250Y711500D02*
X1306250D01*
X1341850Y763350D02*
X1356750Y778250D01*
D57*
Y793740D02*
Y795073D01*
X1349874Y801950D02*
X1356750Y795073D01*
X1297750Y821500D02*
X1316300Y840050D01*
X1349874D01*
X1329786Y605536D02*
X1332650Y608400D01*
X1321308Y605536D02*
X1329786D01*
X1357000Y569250D02*
Y579250D01*
X1354750Y581500D02*
X1357000Y579250D01*
Y569250D02*
X1360880Y565370D01*
X1317900Y699850D02*
X1328250D01*
X1306250Y711500D02*
X1317900Y699850D01*
X1297250Y784000D02*
X1317900Y763350D01*
X1328250D02*
X1341850D01*
X1317900D02*
X1328250D01*
X1297750Y800250D02*
Y821500D01*
X1268000Y783750D02*
X1284500Y800250D01*
X1297750D02*
X1312000D01*
X1284500D02*
X1297750D01*
X1312000D02*
X1328250Y784000D01*
X1373690Y589370D02*
X1404380D01*
X1328250Y776050D02*
Y784000D01*
D58*
X1584900Y775750D02*
D03*
X1307250Y614750D02*
D03*
X1332650Y614750D02*
D03*
X1281850Y640150D02*
D03*
X1307250Y640150D02*
D03*
X1332650Y640150D02*
D03*
X1389634Y877316D02*
D03*
X1364234Y873506D02*
D03*
X1297750Y512690D02*
D03*
X1234579Y595000D02*
D03*
X1227750Y618353D02*
D03*
X1246629Y572000D02*
D03*
X1278750Y530750D02*
D03*
X1262500Y551500D02*
D03*
X1316250Y496750D02*
D03*
X1336750Y483619D02*
D03*
X1359468Y473000D02*
D03*
X1476081Y467750D02*
D03*
X1502750Y477250D02*
D03*
X1526750Y490250D02*
D03*
X1550750Y504500D02*
D03*
X1572500Y521000D02*
D03*
X1469500Y875000D02*
D03*
X1592000Y541000D02*
D03*
D59*
X1610500Y696500D02*
D03*
Y646500D02*
D03*
D60*
X1637500Y636500D02*
D03*
Y706500D02*
D03*
D61*
X1465750Y668000D02*
D03*
X1456500Y721613D02*
D03*
X1458112Y832250D02*
D03*
X1485550Y850000D02*
D03*
X1473694Y849636D02*
D03*
X1485550Y836426D02*
D03*
X1473694D02*
D03*
X1444200D02*
D03*
X1443806Y822695D02*
D03*
X1474046D02*
D03*
X1484126D02*
D03*
X1539073Y836060D02*
D03*
Y845750D02*
D03*
X1494616Y764974D02*
D03*
X1464376Y786855D02*
D03*
X1494616D02*
D03*
X1484536Y764974D02*
D03*
X1494616Y775750D02*
D03*
X1484536D02*
D03*
Y786855D02*
D03*
X1474456D02*
D03*
Y775750D02*
D03*
X1464376D02*
D03*
X1452250Y490250D02*
D03*
X1400873Y840250D02*
D03*
Y827500D02*
D03*
X1622250Y665576D02*
D03*
X1521240Y578250D02*
D03*
X1521693Y567871D02*
D03*
X1505750Y591000D02*
D03*
X1578250Y660750D02*
D03*
X1458112Y534750D02*
D03*
X1443690Y522940D02*
D03*
X1314750Y513000D02*
D03*
X1303814Y525026D02*
D03*
X1372000Y638055D02*
D03*
X1512283Y668585D02*
D03*
X1351750Y745250D02*
D03*
X1621250Y752714D02*
D03*
X1239000Y725174D02*
D03*
X1251000Y705750D02*
D03*
X1231500Y685250D02*
D03*
X1380250Y479250D02*
D03*
X1408500Y495250D02*
D03*
X1503250Y871000D02*
D03*
Y845750D02*
D03*
X1454296Y786855D02*
D03*
X1503500Y832000D02*
D03*
X1528878Y836060D02*
D03*
Y845754D02*
D03*
X1519085Y846004D02*
D03*
X1528800Y855669D02*
D03*
X1519085D02*
D03*
X1494120Y797371D02*
D03*
X1494514Y811102D02*
D03*
X1484040Y797371D02*
D03*
X1484434Y811102D02*
D03*
X1473960Y797371D02*
D03*
X1474354Y811102D02*
D03*
X1463880Y797371D02*
D03*
X1464274Y811102D02*
D03*
X1453800Y797371D02*
D03*
X1454194Y811102D02*
D03*
X1454296Y775750D02*
D03*
X1474456Y764974D02*
D03*
X1464376D02*
D03*
X1454296D02*
D03*
X1521500Y534816D02*
D03*
X1503750Y529000D02*
D03*
X1454856Y589580D02*
D03*
X1452250Y581250D02*
D03*
X1442750Y609000D02*
D03*
X1498250Y597250D02*
D03*
X1514250Y593500D02*
D03*
X1371500Y548500D02*
D03*
X1354750Y557370D02*
D03*
X1439000Y512000D02*
D03*
X1275760Y661672D02*
D03*
X1347000Y569000D02*
D03*
X1354750Y581500D02*
D03*
X1584198Y693674D02*
D03*
X1540510Y683768D02*
D03*
X1526750Y690500D02*
D03*
X1432306Y657352D02*
D03*
X1448054Y732250D02*
D03*
X1540510Y720344D02*
D03*
X1290250Y699500D02*
D03*
X1368552Y597408D02*
D03*
X1378966Y581406D02*
D03*
X1554226Y640588D02*
D03*
X1575562Y722630D02*
D03*
X1537930Y666790D02*
D03*
X1522984Y642112D02*
D03*
X1501902Y713486D02*
D03*
X1344657Y814514D02*
D03*
X1422400Y662432D02*
D03*
X1405890Y689356D02*
D03*
X1318260Y550672D02*
D03*
X1435750Y548500D02*
D03*
X1601000Y591750D02*
D03*
Y611500D02*
D03*
X1419690Y548500D02*
D03*
X1411500Y622250D02*
D03*
X1429500Y564250D02*
D03*
Y606750D02*
D03*
X1465250Y707250D02*
D03*
X1561250Y811250D02*
D03*
X1400873Y814750D02*
D03*
X1417250Y763500D02*
D03*
Y776000D02*
D03*
X1452250Y557250D02*
D03*
X1485000Y561500D02*
D03*
X1268000Y748750D02*
D03*
X1297250Y749000D02*
D03*
D62*
X1427794Y467750D02*
D03*
Y869937D02*
D03*
M02*
