G04*
G04 #@! TF.GenerationSoftware,Altium Limited,Altium Designer,18.1.7 (191)*
G04*
G04 Layer_Color=8388736*
%FSLAX44Y44*%
%MOMM*%
G71*
G01*
G75*
%ADD31R,1.6032X3.5032*%
%ADD32R,1.7032X1.7032*%
%ADD33R,1.3032X1.9032*%
%ADD34O,1.8532X0.7532*%
%ADD35O,0.7532X1.8532*%
%ADD36R,2.2032X0.8032*%
G04:AMPARAMS|DCode=37|XSize=0.8032mm|YSize=2.2032mm|CornerRadius=0.2516mm|HoleSize=0mm|Usage=FLASHONLY|Rotation=90.000|XOffset=0mm|YOffset=0mm|HoleType=Round|Shape=RoundedRectangle|*
%AMROUNDEDRECTD37*
21,1,0.8032,1.7000,0,0,90.0*
21,1,0.3000,2.2032,0,0,90.0*
1,1,0.5032,0.8500,0.1500*
1,1,0.5032,0.8500,-0.1500*
1,1,0.5032,-0.8500,-0.1500*
1,1,0.5032,-0.8500,0.1500*
%
%ADD37ROUNDEDRECTD37*%
%ADD38O,2.2032X0.9032*%
%ADD39O,2.3032X0.5532*%
%ADD40R,1.9032X1.3032*%
%ADD41R,2.1032X2.3032*%
%ADD42R,2.1032X1.7032*%
%ADD43R,1.5532X0.6032*%
%ADD44R,1.7032X1.7032*%
%ADD45R,1.2032X2.6032*%
%ADD46R,3.5032X2.6032*%
%ADD47O,1.9032X0.8532*%
%ADD48R,1.9032X0.8532*%
%ADD49C,1.7032*%
%ADD50C,1.6532*%
%ADD51C,2.0032*%
%ADD52C,0.7032*%
%ADD53C,4.2032*%
D31*
X1567750Y601750D02*
D03*
X1605750D02*
D03*
D32*
X1485250Y527500D02*
D03*
Y562500D02*
D03*
X1268000Y783750D02*
D03*
Y748750D02*
D03*
X1297250Y749000D02*
D03*
Y784000D02*
D03*
D33*
X1317500Y581370D02*
D03*
X1290500D02*
D03*
D34*
X1373690Y613370D02*
D03*
Y605370D02*
D03*
Y597370D02*
D03*
Y589370D02*
D03*
Y581370D02*
D03*
Y573370D02*
D03*
Y565370D02*
D03*
Y557370D02*
D03*
X1457690D02*
D03*
Y565370D02*
D03*
Y573370D02*
D03*
Y581370D02*
D03*
Y589370D02*
D03*
Y597370D02*
D03*
Y605370D02*
D03*
Y613370D02*
D03*
D35*
X1387690Y543370D02*
D03*
X1395690D02*
D03*
X1403690D02*
D03*
X1411690D02*
D03*
X1419690D02*
D03*
X1427690D02*
D03*
X1435690D02*
D03*
X1443690D02*
D03*
Y627370D02*
D03*
X1435690D02*
D03*
X1427690D02*
D03*
X1419690D02*
D03*
X1411690D02*
D03*
X1403690D02*
D03*
X1395690D02*
D03*
X1387690D02*
D03*
D36*
X1290250Y711500D02*
D03*
Y699500D02*
D03*
D37*
Y687500D02*
D03*
D38*
X1424250Y674450D02*
D03*
Y687150D02*
D03*
Y699850D02*
D03*
Y712550D02*
D03*
Y725250D02*
D03*
Y737950D02*
D03*
Y750650D02*
D03*
Y763350D02*
D03*
Y776050D02*
D03*
X1328250Y674450D02*
D03*
Y687150D02*
D03*
Y699850D02*
D03*
Y712550D02*
D03*
Y725250D02*
D03*
Y737950D02*
D03*
Y750650D02*
D03*
Y763350D02*
D03*
Y776050D02*
D03*
D39*
X1488000Y732250D02*
D03*
Y725750D02*
D03*
Y719250D02*
D03*
Y712750D02*
D03*
Y706250D02*
D03*
Y699750D02*
D03*
Y693250D02*
D03*
Y686750D02*
D03*
Y680250D02*
D03*
Y673750D02*
D03*
Y667250D02*
D03*
Y660750D02*
D03*
Y654250D02*
D03*
Y647750D02*
D03*
X1557000Y732250D02*
D03*
Y725750D02*
D03*
Y719250D02*
D03*
Y712750D02*
D03*
Y706250D02*
D03*
Y699750D02*
D03*
Y693250D02*
D03*
Y686750D02*
D03*
Y680250D02*
D03*
Y673750D02*
D03*
Y667250D02*
D03*
Y660750D02*
D03*
Y654250D02*
D03*
Y647750D02*
D03*
D40*
X1585750Y674924D02*
D03*
Y701924D02*
D03*
D41*
X1637500Y638000D02*
D03*
Y705000D02*
D03*
D42*
Y661500D02*
D03*
Y681500D02*
D03*
D43*
X1610500Y671500D02*
D03*
Y678000D02*
D03*
Y665000D02*
D03*
Y684500D02*
D03*
Y658500D02*
D03*
D44*
X1530500Y811250D02*
D03*
X1565500D02*
D03*
X1281850Y614750D02*
D03*
X1559500Y775750D02*
D03*
D45*
X1503500Y839000D02*
D03*
X1480500D02*
D03*
X1457500D02*
D03*
D46*
X1480500Y781000D02*
D03*
D47*
X1405873Y801950D02*
D03*
Y814650D02*
D03*
Y827350D02*
D03*
Y840050D02*
D03*
X1349874Y801950D02*
D03*
Y814650D02*
D03*
Y827350D02*
D03*
D48*
Y840050D02*
D03*
D49*
X1584900Y775750D02*
D03*
X1307250Y614750D02*
D03*
X1332650Y614750D02*
D03*
X1281850Y640150D02*
D03*
X1307250Y640150D02*
D03*
X1332650Y640150D02*
D03*
X1389634Y877316D02*
D03*
X1364234Y873506D02*
D03*
X1297750Y512690D02*
D03*
X1234579Y595000D02*
D03*
X1227750Y618353D02*
D03*
X1246629Y572000D02*
D03*
X1278750Y530750D02*
D03*
X1262500Y551500D02*
D03*
X1316250Y496750D02*
D03*
X1336750Y483619D02*
D03*
X1359468Y473000D02*
D03*
X1476081Y467750D02*
D03*
X1502750Y477250D02*
D03*
X1526750Y490250D02*
D03*
X1550750Y504500D02*
D03*
X1572500Y521000D02*
D03*
X1469500Y875000D02*
D03*
X1592000Y541000D02*
D03*
D50*
X1610500Y696500D02*
D03*
Y646500D02*
D03*
D51*
X1637500Y636500D02*
D03*
Y706500D02*
D03*
D52*
X1465750Y668000D02*
D03*
X1456500Y721613D02*
D03*
X1458112Y832250D02*
D03*
X1485550Y850000D02*
D03*
X1473694Y849636D02*
D03*
X1485550Y836426D02*
D03*
X1473694D02*
D03*
X1444200D02*
D03*
X1443806Y822695D02*
D03*
X1474046D02*
D03*
X1484126D02*
D03*
X1539073Y836060D02*
D03*
Y845750D02*
D03*
X1494616Y764974D02*
D03*
X1464376Y786855D02*
D03*
X1494616D02*
D03*
X1484536Y764974D02*
D03*
X1494616Y775750D02*
D03*
X1484536D02*
D03*
Y786855D02*
D03*
X1474456D02*
D03*
Y775750D02*
D03*
X1464376D02*
D03*
X1452250Y490250D02*
D03*
X1400873Y840250D02*
D03*
Y827500D02*
D03*
X1622250Y665576D02*
D03*
X1521240Y578250D02*
D03*
X1521693Y567871D02*
D03*
X1505750Y591000D02*
D03*
X1578250Y660750D02*
D03*
X1458112Y534750D02*
D03*
X1443690Y522940D02*
D03*
X1314750Y513000D02*
D03*
X1303814Y525026D02*
D03*
X1372000Y638055D02*
D03*
X1512283Y668585D02*
D03*
X1351750Y745250D02*
D03*
X1621250Y752714D02*
D03*
X1239000Y725174D02*
D03*
X1251000Y705750D02*
D03*
X1231500Y685250D02*
D03*
X1380250Y479250D02*
D03*
X1408500Y495250D02*
D03*
X1503250Y871000D02*
D03*
Y845750D02*
D03*
X1454296Y786855D02*
D03*
X1503500Y832000D02*
D03*
X1528878Y836060D02*
D03*
Y845754D02*
D03*
X1519085Y846004D02*
D03*
X1528800Y855669D02*
D03*
X1519085D02*
D03*
X1494120Y797371D02*
D03*
X1494514Y811102D02*
D03*
X1484040Y797371D02*
D03*
X1484434Y811102D02*
D03*
X1473960Y797371D02*
D03*
X1474354Y811102D02*
D03*
X1463880Y797371D02*
D03*
X1464274Y811102D02*
D03*
X1453800Y797371D02*
D03*
X1454194Y811102D02*
D03*
X1454296Y775750D02*
D03*
X1474456Y764974D02*
D03*
X1464376D02*
D03*
X1454296D02*
D03*
X1521500Y534816D02*
D03*
X1503750Y529000D02*
D03*
X1454856Y589580D02*
D03*
X1452250Y581250D02*
D03*
X1442750Y609000D02*
D03*
X1498250Y597250D02*
D03*
X1514250Y593500D02*
D03*
X1371500Y548500D02*
D03*
X1354750Y557370D02*
D03*
X1439000Y512000D02*
D03*
X1275760Y661672D02*
D03*
X1347000Y569000D02*
D03*
X1354750Y581500D02*
D03*
X1584198Y693674D02*
D03*
X1540510Y683768D02*
D03*
X1526750Y690500D02*
D03*
X1432306Y657352D02*
D03*
X1448054Y732250D02*
D03*
X1540510Y720344D02*
D03*
X1290250Y699500D02*
D03*
X1368552Y597408D02*
D03*
X1378966Y581406D02*
D03*
X1554226Y640588D02*
D03*
X1575562Y722630D02*
D03*
X1537930Y666790D02*
D03*
X1522984Y642112D02*
D03*
X1501902Y713486D02*
D03*
X1344657Y814514D02*
D03*
X1422400Y662432D02*
D03*
X1405890Y689356D02*
D03*
X1318260Y550672D02*
D03*
X1435750Y548500D02*
D03*
X1601000Y591750D02*
D03*
Y611500D02*
D03*
X1419690Y548500D02*
D03*
X1411500Y622250D02*
D03*
X1429500Y564250D02*
D03*
Y606750D02*
D03*
X1465250Y707250D02*
D03*
X1561250Y811250D02*
D03*
X1400873Y814750D02*
D03*
X1417250Y763500D02*
D03*
Y776000D02*
D03*
X1452250Y557250D02*
D03*
X1485000Y561500D02*
D03*
X1268000Y748750D02*
D03*
X1297250Y749000D02*
D03*
D53*
X1427794Y467750D02*
D03*
Y869937D02*
D03*
M02*
