G04*
G04 #@! TF.GenerationSoftware,Altium Limited,Altium Designer,18.1.7 (191)*
G04*
G04 Layer_Color=32768*
%FSLAX44Y44*%
%MOMM*%
G71*
G01*
G75*
%ADD12C,0.2000*%
%ADD65C,0.1000*%
%ADD66C,0.0500*%
D12*
X1650750Y630000D02*
Y713000D01*
X1605250Y630000D02*
X1650750D01*
X1605250D02*
Y712500D01*
Y713000D02*
X1650750D01*
D65*
X1463000Y818250D02*
X1463000Y837250D01*
X1423000Y837250D02*
X1423000Y818250D01*
X1423000Y837250D02*
X1463000Y837250D01*
X1423000Y818250D02*
X1463000Y818250D01*
X1438000Y827750D02*
X1448000Y827750D01*
X1443000Y832750D02*
X1443000Y822750D01*
X1532702Y656996D02*
Y675996D01*
X1572702Y656996D02*
Y675996D01*
X1532702Y656996D02*
X1572702D01*
X1532702Y675996D02*
X1572702D01*
X1547702Y666496D02*
X1557702D01*
X1552702Y661496D02*
Y671496D01*
X1475500Y565250D02*
X1494500D01*
X1475500Y525250D02*
X1494500D01*
X1475500D02*
Y565250D01*
X1494500Y525250D02*
Y565250D01*
X1485000Y540250D02*
Y550250D01*
X1480000Y545250D02*
X1490000D01*
X1287500Y746250D02*
X1306500D01*
X1287500Y786250D02*
X1306500D01*
Y746250D02*
Y786250D01*
X1287500Y746250D02*
Y786250D01*
X1297000Y761250D02*
Y771250D01*
X1292000Y766250D02*
X1302000D01*
X1259500Y785750D02*
X1278500D01*
X1259500Y745750D02*
X1278500D01*
X1259500D02*
Y785750D01*
X1278500Y745750D02*
Y785750D01*
X1269000Y760750D02*
Y770750D01*
X1264000Y765750D02*
X1274000D01*
X1586750Y596750D02*
Y606750D01*
X1581750Y601750D02*
X1591750D01*
X1559750Y619250D02*
X1613750D01*
X1559750Y584250D02*
X1613750D01*
X1559750D02*
Y619250D01*
X1613750Y584250D02*
Y619250D01*
X1324000Y590870D02*
X1324000Y571870D01*
X1284000Y571870D02*
X1284000Y590870D01*
X1284000Y571870D02*
X1324000Y571870D01*
X1284000Y590870D02*
X1324000Y590870D01*
X1299000Y581370D02*
X1309000Y581370D01*
X1304000Y576370D02*
X1304000Y586370D01*
X1363190Y532870D02*
Y637870D01*
X1468190Y532870D02*
Y637870D01*
X1363190D02*
X1468190D01*
X1363190Y532870D02*
X1468190D01*
X1410690Y585370D02*
X1420690D01*
X1415690Y580370D02*
Y590370D01*
X1436000Y598250D02*
Y617250D01*
X1396000Y598250D02*
Y617250D01*
X1436000D01*
X1396000Y598250D02*
X1436000D01*
X1411000Y607750D02*
X1421000D01*
X1416000Y602750D02*
Y612750D01*
X1376500Y839250D02*
X1395500D01*
X1376500Y799250D02*
X1395500D01*
X1376500D02*
Y839250D01*
X1395500Y799250D02*
Y839250D01*
X1386000Y814250D02*
Y824250D01*
X1381000Y819250D02*
X1391000D01*
X1567750Y801750D02*
Y820750D01*
X1527750Y801750D02*
Y820750D01*
X1567750D01*
X1527750Y801750D02*
X1567750D01*
X1542750Y811250D02*
X1552750D01*
X1547750Y806250D02*
Y816250D01*
X1548366Y703334D02*
X1567366D01*
X1548366Y743334D02*
X1567366D01*
Y703334D02*
Y743334D01*
X1548366Y703334D02*
Y743334D01*
X1557866Y718334D02*
Y728334D01*
X1552866Y723334D02*
X1562866D01*
X1397000Y764250D02*
X1407000D01*
X1402000Y759250D02*
Y769250D01*
X1392500Y744250D02*
Y784250D01*
X1411500Y744250D02*
Y784250D01*
X1392500D02*
X1411500D01*
X1392500Y744250D02*
X1411500D01*
X1358250Y819750D02*
X1368250D01*
X1363250Y814750D02*
Y824750D01*
X1353750Y799750D02*
Y839750D01*
X1372750Y799750D02*
Y839750D01*
X1353750D02*
X1372750D01*
X1353750Y799750D02*
X1372750D01*
X1436500Y719000D02*
X1446500D01*
X1441500Y714000D02*
Y724000D01*
X1432000Y699000D02*
Y739000D01*
X1451000Y699000D02*
Y739000D01*
X1432000D02*
X1451000D01*
X1432000Y699000D02*
X1451000D01*
X1460250Y693750D02*
X1470250D01*
X1465250Y688750D02*
Y698750D01*
X1455750Y673750D02*
Y713750D01*
X1474750Y673750D02*
Y713750D01*
X1455750D02*
X1474750D01*
X1455750Y673750D02*
X1474750D01*
X1416000Y580250D02*
Y590250D01*
X1411000Y585250D02*
X1421000D01*
X1396000Y575750D02*
X1436000D01*
X1396000Y594750D02*
X1436000D01*
X1396000Y575750D02*
Y594750D01*
X1436000Y575750D02*
Y594750D01*
X1480000Y597750D02*
X1490000D01*
X1485000Y592750D02*
Y602750D01*
X1475500Y577750D02*
Y617750D01*
X1494500Y577750D02*
Y617750D01*
X1475500D02*
X1494500D01*
X1475500Y577750D02*
X1494500D01*
X1416000Y557750D02*
Y567750D01*
X1411000Y562750D02*
X1421000D01*
X1396000Y553250D02*
X1436000D01*
X1396000Y572250D02*
X1436000D01*
X1396000Y553250D02*
Y572250D01*
X1436000Y553250D02*
Y572250D01*
X1489000Y654500D02*
X1499000D01*
X1494000Y649500D02*
Y659500D01*
X1484500Y634500D02*
Y674500D01*
X1503500Y634500D02*
Y674500D01*
X1484500D02*
X1503500D01*
X1484500Y634500D02*
X1503500D01*
X1514312Y654774D02*
X1524312D01*
X1519312Y649774D02*
Y659774D01*
X1509812Y634774D02*
Y674774D01*
X1528812Y634774D02*
Y674774D01*
X1509812D02*
X1528812D01*
X1509812Y634774D02*
X1528812D01*
X1513312Y717750D02*
Y727750D01*
X1508312Y722750D02*
X1518312D01*
X1493312Y732250D02*
X1533312D01*
X1493312Y713250D02*
X1533312D01*
Y732250D01*
X1493312Y713250D02*
Y732250D01*
X1513332Y742522D02*
Y752522D01*
X1508332Y747522D02*
X1518332D01*
X1493332Y757022D02*
X1533332D01*
X1493332Y738022D02*
X1533332D01*
Y757022D01*
X1493332Y738022D02*
Y757022D01*
X1501250Y775000D02*
Y785000D01*
X1496250Y780000D02*
X1506250D01*
X1481250Y789500D02*
X1521250D01*
X1481250Y770500D02*
X1521250D01*
Y789500D01*
X1481250Y770500D02*
Y789500D01*
X1376250Y720250D02*
Y730250D01*
X1371250Y725250D02*
X1381250D01*
X1475000Y635000D02*
Y745000D01*
X1570000Y635000D02*
Y745000D01*
X1475000D02*
X1570000D01*
X1475000Y635000D02*
X1570000D01*
X1517500Y690000D02*
X1527500D01*
X1522500Y685000D02*
Y695000D01*
X1580750Y688424D02*
X1590750D01*
X1585750Y683424D02*
Y693424D01*
X1576250Y668424D02*
Y708424D01*
X1595250Y668424D02*
Y708424D01*
X1576250Y668424D02*
X1595250D01*
X1576250Y708424D02*
X1595250D01*
X1444500Y853500D02*
X1516500D01*
X1444500Y766500D02*
X1516500D01*
Y853500D01*
X1444500Y766500D02*
Y853500D01*
X1480500Y805000D02*
Y815000D01*
X1475500Y810000D02*
X1485500D01*
X1377873Y816000D02*
Y826000D01*
X1372873Y821000D02*
X1382873D01*
X1511750Y685000D02*
Y695000D01*
X1506750Y690000D02*
X1516750D01*
X1491750Y680500D02*
X1531750D01*
X1491750Y699500D02*
X1531750D01*
X1491750Y680500D02*
Y699500D01*
X1531750Y680500D02*
Y699500D01*
D66*
X1313250Y662250D02*
X1439250D01*
X1313250Y788250D02*
X1439250D01*
Y662250D02*
Y788250D01*
X1313250Y662250D02*
Y788250D01*
X1336623Y791500D02*
X1419124D01*
X1336623Y850500D02*
X1419124D01*
Y791500D02*
Y850500D01*
X1336623Y791500D02*
Y850500D01*
M02*
