G04*
G04 #@! TF.GenerationSoftware,Altium Limited,Altium Designer,18.1.7 (191)*
G04*
G04 Layer_Color=8421504*
%FSLAX44Y44*%
%MOMM*%
G71*
G01*
G75*
%ADD13R,1.4000X3.3000*%
%ADD14R,1.5000X1.5000*%
%ADD15R,1.1000X1.7000*%
%ADD16O,1.6500X0.5500*%
%ADD17O,0.5500X1.6500*%
%ADD18R,2.0000X0.6000*%
G04:AMPARAMS|DCode=19|XSize=0.6mm|YSize=2mm|CornerRadius=0.15mm|HoleSize=0mm|Usage=FLASHONLY|Rotation=90.000|XOffset=0mm|YOffset=0mm|HoleType=Round|Shape=RoundedRectangle|*
%AMROUNDEDRECTD19*
21,1,0.6000,1.7000,0,0,90.0*
21,1,0.3000,2.0000,0,0,90.0*
1,1,0.3000,0.8500,0.1500*
1,1,0.3000,0.8500,-0.1500*
1,1,0.3000,-0.8500,-0.1500*
1,1,0.3000,-0.8500,0.1500*
%
%ADD19ROUNDEDRECTD19*%
%ADD20O,2.0000X0.7000*%
%ADD21O,2.1000X0.3500*%
%ADD22R,1.7000X1.1000*%
%ADD23R,1.9000X2.1000*%
%ADD24R,1.9000X1.5000*%
%ADD25R,1.3500X0.4000*%
%ADD26R,1.5000X1.5000*%
%ADD27R,1.0000X2.4000*%
%ADD28R,3.3000X2.4000*%
%ADD29O,1.7000X0.6500*%
%ADD30R,1.7000X0.6500*%
D13*
X1567750Y601750D02*
D03*
X1605750D02*
D03*
D14*
X1485250Y527500D02*
D03*
Y562500D02*
D03*
X1268000Y783750D02*
D03*
Y748750D02*
D03*
X1297250Y749000D02*
D03*
Y784000D02*
D03*
D15*
X1317500Y581370D02*
D03*
X1290500D02*
D03*
D16*
X1373690Y613370D02*
D03*
Y605370D02*
D03*
Y597370D02*
D03*
Y589370D02*
D03*
Y581370D02*
D03*
Y573370D02*
D03*
Y565370D02*
D03*
Y557370D02*
D03*
X1457690D02*
D03*
Y565370D02*
D03*
Y573370D02*
D03*
Y581370D02*
D03*
Y589370D02*
D03*
Y597370D02*
D03*
Y605370D02*
D03*
Y613370D02*
D03*
D17*
X1387690Y543370D02*
D03*
X1395690D02*
D03*
X1403690D02*
D03*
X1411690D02*
D03*
X1419690D02*
D03*
X1427690D02*
D03*
X1435690D02*
D03*
X1443690D02*
D03*
Y627370D02*
D03*
X1435690D02*
D03*
X1427690D02*
D03*
X1419690D02*
D03*
X1411690D02*
D03*
X1403690D02*
D03*
X1395690D02*
D03*
X1387690D02*
D03*
D18*
X1290250Y711500D02*
D03*
Y699500D02*
D03*
D19*
Y687500D02*
D03*
D20*
X1424250Y674450D02*
D03*
Y687150D02*
D03*
Y699850D02*
D03*
Y712550D02*
D03*
Y725250D02*
D03*
Y737950D02*
D03*
Y750650D02*
D03*
Y763350D02*
D03*
Y776050D02*
D03*
X1328250Y674450D02*
D03*
Y687150D02*
D03*
Y699850D02*
D03*
Y712550D02*
D03*
Y725250D02*
D03*
Y737950D02*
D03*
Y750650D02*
D03*
Y763350D02*
D03*
Y776050D02*
D03*
D21*
X1488000Y732250D02*
D03*
Y725750D02*
D03*
Y719250D02*
D03*
Y712750D02*
D03*
Y706250D02*
D03*
Y699750D02*
D03*
Y693250D02*
D03*
Y686750D02*
D03*
Y680250D02*
D03*
Y673750D02*
D03*
Y667250D02*
D03*
Y660750D02*
D03*
Y654250D02*
D03*
Y647750D02*
D03*
X1557000Y732250D02*
D03*
Y725750D02*
D03*
Y719250D02*
D03*
Y712750D02*
D03*
Y706250D02*
D03*
Y699750D02*
D03*
Y693250D02*
D03*
Y686750D02*
D03*
Y680250D02*
D03*
Y673750D02*
D03*
Y667250D02*
D03*
Y660750D02*
D03*
Y654250D02*
D03*
Y647750D02*
D03*
D22*
X1585750Y674924D02*
D03*
Y701924D02*
D03*
D23*
X1637500Y638000D02*
D03*
Y705000D02*
D03*
D24*
Y661500D02*
D03*
Y681500D02*
D03*
D25*
X1610500Y671500D02*
D03*
Y678000D02*
D03*
Y665000D02*
D03*
Y684500D02*
D03*
Y658500D02*
D03*
D26*
X1530500Y811250D02*
D03*
X1565500D02*
D03*
D27*
X1503500Y839000D02*
D03*
X1480500D02*
D03*
X1457500D02*
D03*
D28*
X1480500Y781000D02*
D03*
D29*
X1405873Y801950D02*
D03*
Y814650D02*
D03*
Y827350D02*
D03*
Y840050D02*
D03*
X1349874Y801950D02*
D03*
Y814650D02*
D03*
Y827350D02*
D03*
D30*
Y840050D02*
D03*
M02*
