G04*
G04 #@! TF.GenerationSoftware,Altium Limited,Altium Designer,18.1.7 (191)*
G04*
G04 Layer_Physical_Order=2*
G04 Layer_Color=16711680*
%FSLAX44Y44*%
%MOMM*%
G71*
G01*
G75*
%ADD14R,1.5000X1.5000*%
%ADD15R,1.1000X1.7000*%
%ADD18R,2.0000X0.6000*%
G04:AMPARAMS|DCode=19|XSize=0.6mm|YSize=2mm|CornerRadius=0.15mm|HoleSize=0mm|Usage=FLASHONLY|Rotation=90.000|XOffset=0mm|YOffset=0mm|HoleType=Round|Shape=RoundedRectangle|*
%AMROUNDEDRECTD19*
21,1,0.6000,1.7000,0,0,90.0*
21,1,0.3000,2.0000,0,0,90.0*
1,1,0.3000,0.8500,0.1500*
1,1,0.3000,0.8500,-0.1500*
1,1,0.3000,-0.8500,-0.1500*
1,1,0.3000,-0.8500,0.1500*
%
%ADD19ROUNDEDRECTD19*%
%ADD22R,1.7000X1.1000*%
%ADD26R,1.5000X1.5000*%
%ADD54C,1.0000*%
%ADD55C,0.3500*%
%ADD56C,0.5500*%
%ADD57C,0.5000*%
%ADD58C,1.5000*%
%ADD59C,1.4500*%
%ADD60C,1.8000*%
%ADD61C,0.5000*%
%ADD62C,4.0000*%
%ADD63R,2.4000X3.3000*%
G36*
X1452556Y899015D02*
X1467486Y897049D01*
X1482256Y894112D01*
X1496801Y890214D01*
X1511061Y885374D01*
X1524973Y879611D01*
X1538479Y872951D01*
X1551521Y865421D01*
X1564042Y857055D01*
X1575989Y847888D01*
X1587310Y837959D01*
X1597959Y827310D01*
X1607888Y815989D01*
X1617055Y804042D01*
X1625421Y791521D01*
X1632951Y778479D01*
X1639611Y764974D01*
X1645374Y751061D01*
X1650214Y736801D01*
X1654112Y722255D01*
X1657050Y707486D01*
X1659015Y692556D01*
X1660000Y677529D01*
Y670000D01*
Y662471D01*
X1659015Y647444D01*
X1657050Y632514D01*
X1654112Y617744D01*
X1650214Y603199D01*
X1645374Y588939D01*
X1639611Y575027D01*
X1632951Y561521D01*
X1625421Y548479D01*
X1617055Y535958D01*
X1607888Y524011D01*
X1597959Y512690D01*
X1587310Y502041D01*
X1575989Y492112D01*
X1564042Y482945D01*
X1551521Y474579D01*
X1538479Y467049D01*
X1524973Y460389D01*
X1511061Y454626D01*
X1496801Y449786D01*
X1482256Y445888D01*
X1467486Y442951D01*
X1452556Y440985D01*
X1437529Y440000D01*
X1422471D01*
X1407444Y440985D01*
X1392514Y442951D01*
X1377744Y445888D01*
X1363199Y449786D01*
X1348939Y454626D01*
X1335027Y460389D01*
X1321521Y467049D01*
X1308479Y474579D01*
X1295958Y482945D01*
X1284011Y492112D01*
X1272690Y502041D01*
X1262041Y512690D01*
X1252112Y524011D01*
X1242945Y535958D01*
X1234579Y548479D01*
X1227049Y561521D01*
X1220389Y575027D01*
X1214626Y588939D01*
X1209786Y603199D01*
X1205888Y617744D01*
X1202951Y632514D01*
X1200985Y647444D01*
X1200000Y662471D01*
Y670000D01*
Y677529D01*
X1200985Y692556D01*
X1202951Y707486D01*
X1205888Y722255D01*
X1209786Y736801D01*
X1214626Y751061D01*
X1220389Y764974D01*
X1227049Y778479D01*
X1234579Y791521D01*
X1242945Y804042D01*
X1252112Y815989D01*
X1262041Y827310D01*
X1272690Y837959D01*
X1284011Y847888D01*
X1295958Y857055D01*
X1308479Y865421D01*
X1321521Y872951D01*
X1335027Y879611D01*
X1348939Y885374D01*
X1363199Y890214D01*
X1377744Y894112D01*
X1392514Y897049D01*
X1407444Y899015D01*
X1422471Y900000D01*
X1437529D01*
X1452556Y899015D01*
D02*
G37*
%LPC*%
G36*
X1389634Y887443D02*
X1387013Y887098D01*
X1384571Y886086D01*
X1382473Y884477D01*
X1380864Y882379D01*
X1379852Y879937D01*
X1379507Y877316D01*
X1379852Y874695D01*
X1380864Y872253D01*
X1382473Y870155D01*
X1384571Y868546D01*
X1387013Y867534D01*
X1389634Y867189D01*
X1392255Y867534D01*
X1394697Y868546D01*
X1396795Y870155D01*
X1398404Y872253D01*
X1399416Y874695D01*
X1399761Y877316D01*
X1399416Y879937D01*
X1398404Y882379D01*
X1396795Y884477D01*
X1394697Y886086D01*
X1392255Y887098D01*
X1389634Y887443D01*
D02*
G37*
G36*
X1364234Y883633D02*
X1361613Y883288D01*
X1359171Y882276D01*
X1357073Y880667D01*
X1355464Y878569D01*
X1354452Y876127D01*
X1354107Y873506D01*
X1354452Y870885D01*
X1355464Y868443D01*
X1357073Y866345D01*
X1359171Y864736D01*
X1361613Y863724D01*
X1364234Y863379D01*
X1366855Y863724D01*
X1369297Y864736D01*
X1371395Y866345D01*
X1373004Y868443D01*
X1374016Y870885D01*
X1374361Y873506D01*
X1374016Y876127D01*
X1373004Y878569D01*
X1371395Y880667D01*
X1369297Y882276D01*
X1366855Y883288D01*
X1364234Y883633D01*
D02*
G37*
G36*
X1397623Y852389D02*
X1370373D01*
X1368407Y851998D01*
X1366740Y850884D01*
X1361240Y845384D01*
X1360126Y843717D01*
X1359735Y841750D01*
Y841290D01*
X1352210D01*
Y825210D01*
X1374290D01*
X1374960Y824710D01*
Y824710D01*
X1387146D01*
X1387990Y823866D01*
X1389657Y822752D01*
X1391623Y822361D01*
X1400873D01*
X1402840Y822752D01*
X1404507Y823866D01*
X1405621Y825534D01*
X1406012Y827500D01*
X1405621Y829466D01*
X1404507Y831134D01*
X1402840Y832248D01*
X1400873Y832639D01*
X1397040D01*
Y835222D01*
X1398310Y835901D01*
X1398907Y835502D01*
X1400873Y835111D01*
X1402840Y835502D01*
X1404507Y836616D01*
X1405621Y838283D01*
X1406012Y840250D01*
Y844000D01*
X1405621Y845966D01*
X1404507Y847634D01*
X1401257Y850884D01*
X1399590Y851998D01*
X1397623Y852389D01*
D02*
G37*
G36*
X1569290Y822290D02*
X1553210D01*
Y800210D01*
X1569290D01*
Y822290D01*
D02*
G37*
G36*
X1400873Y819889D02*
X1395373D01*
X1393407Y819498D01*
X1391740Y818384D01*
X1387146Y813790D01*
X1374960D01*
Y797710D01*
X1397040D01*
Y809149D01*
X1397502Y809611D01*
X1400873D01*
X1402840Y810002D01*
X1404507Y811116D01*
X1405621Y812784D01*
X1406012Y814750D01*
X1405621Y816717D01*
X1404507Y818384D01*
X1402840Y819498D01*
X1400873Y819889D01*
D02*
G37*
G36*
X1427794Y892586D02*
X1423375Y892150D01*
X1419126Y890862D01*
X1415211Y888769D01*
X1411778Y885952D01*
X1408962Y882520D01*
X1406869Y878604D01*
X1405580Y874355D01*
X1405145Y869937D01*
X1405580Y865518D01*
X1406869Y861269D01*
X1408962Y857354D01*
X1411778Y853921D01*
X1415211Y851105D01*
X1419126Y849012D01*
X1423375Y847723D01*
X1427794Y847288D01*
X1432212Y847723D01*
X1436110Y848905D01*
X1437126Y848040D01*
X1436283Y846004D01*
X1436233Y845754D01*
X1436136Y845519D01*
X1435160Y840611D01*
Y840356D01*
X1435110Y840106D01*
Y837604D01*
Y811500D01*
X1435124Y811427D01*
X1435114Y811353D01*
X1436160Y792926D01*
Y773737D01*
X1436210Y773487D01*
Y773232D01*
X1437030Y769109D01*
X1437128Y768874D01*
X1437177Y768624D01*
X1438786Y764740D01*
X1438928Y764528D01*
X1439025Y764292D01*
X1441361Y760797D01*
X1441541Y760617D01*
X1441683Y760405D01*
X1447498Y754589D01*
X1447710Y754448D01*
X1447891Y754267D01*
X1452051Y751488D01*
X1452287Y751390D01*
X1452498Y751248D01*
X1457121Y749333D01*
X1457371Y749284D01*
X1457607Y749186D01*
X1462514Y748210D01*
X1462769D01*
X1463019Y748160D01*
X1491792D01*
Y736482D01*
X1492111D01*
Y733790D01*
X1491772D01*
Y711710D01*
X1492887D01*
X1493500Y710229D01*
X1494709Y708654D01*
X1502112Y701250D01*
X1503687Y700042D01*
X1505522Y699282D01*
X1507490Y699023D01*
X1517210D01*
Y678960D01*
X1533290D01*
Y695338D01*
X1534463Y695824D01*
X1536136Y694151D01*
Y686293D01*
X1535762Y685734D01*
X1535371Y683768D01*
X1535762Y681802D01*
X1536876Y680134D01*
X1538544Y679020D01*
X1539622Y678806D01*
X1539497Y677536D01*
X1531162D01*
Y658174D01*
X1472894D01*
X1469902Y661166D01*
X1468152Y662335D01*
X1466088Y662746D01*
X1432306D01*
X1432095Y662704D01*
X1431470Y663874D01*
X1442452Y674856D01*
X1454210D01*
Y672210D01*
X1476290D01*
Y688290D01*
X1454210D01*
Y685644D01*
X1440218D01*
X1438154Y685233D01*
X1436404Y684064D01*
X1418586Y666246D01*
X1417417Y664496D01*
X1417006Y662432D01*
X1417417Y660368D01*
X1418085Y659369D01*
X1418026Y659247D01*
X1417253Y658328D01*
X1417166Y658339D01*
X1413628Y661878D01*
X1412052Y663086D01*
X1410218Y663846D01*
X1408250Y664105D01*
X1377855D01*
Y766350D01*
X1381650Y770145D01*
X1390960D01*
Y769710D01*
X1404876D01*
X1405002Y768440D01*
X1404034Y768248D01*
X1402366Y767134D01*
X1398367Y763134D01*
X1397253Y761467D01*
X1396861Y759500D01*
Y758790D01*
X1390960D01*
Y742710D01*
X1413040D01*
Y758361D01*
X1417250D01*
X1419216Y758752D01*
X1420884Y759866D01*
X1421998Y761534D01*
X1422389Y763500D01*
X1421998Y765467D01*
X1420884Y767134D01*
X1420112Y767649D01*
X1420253Y769083D01*
X1421053Y769414D01*
X1422628Y770622D01*
X1423836Y772197D01*
X1424596Y774032D01*
X1424855Y776000D01*
X1424596Y777968D01*
X1423836Y779802D01*
X1422628Y781378D01*
X1420878Y783128D01*
X1419302Y784336D01*
X1417468Y785096D01*
X1415500Y785355D01*
X1413040D01*
Y785790D01*
X1390960D01*
Y785355D01*
X1345440D01*
X1336025Y794770D01*
Y801022D01*
X1341912Y806909D01*
X1344657D01*
X1346626Y807168D01*
X1348460Y807928D01*
X1350035Y809136D01*
X1351243Y810712D01*
X1352003Y812546D01*
X1352262Y814514D01*
X1352003Y816482D01*
X1351243Y818316D01*
X1350035Y819892D01*
X1348460Y821100D01*
X1346626Y821860D01*
X1344657Y822119D01*
X1338762D01*
X1336794Y821860D01*
X1334960Y821100D01*
X1333384Y819892D01*
X1323042Y809550D01*
X1321834Y807974D01*
X1321074Y806140D01*
X1320815Y804172D01*
Y791620D01*
X1321074Y789652D01*
X1321834Y787818D01*
X1322749Y786625D01*
X1322233Y785355D01*
X1308040D01*
Y787790D01*
X1285960D01*
Y786855D01*
X1280040D01*
Y787290D01*
X1257960D01*
Y771210D01*
X1280040D01*
Y771645D01*
X1294570D01*
X1295198Y771164D01*
X1297032Y770404D01*
X1299000Y770145D01*
X1362079D01*
X1362645Y769500D01*
Y664105D01*
X1298200D01*
X1296231Y663846D01*
X1294397Y663086D01*
X1292822Y661878D01*
X1289644Y658699D01*
X1288374Y659226D01*
Y663190D01*
X1288041Y664864D01*
X1287093Y666283D01*
X1280283Y673093D01*
X1278864Y674041D01*
X1277190Y674374D01*
X1266000D01*
X1264326Y674041D01*
X1262907Y673093D01*
X1224657Y634843D01*
X1223709Y633424D01*
X1223376Y631750D01*
Y627408D01*
X1222687Y627123D01*
X1220589Y625513D01*
X1218980Y623416D01*
X1217968Y620974D01*
X1217623Y618353D01*
X1217968Y615732D01*
X1218980Y613290D01*
X1220589Y611192D01*
X1222687Y609583D01*
X1225129Y608571D01*
X1227750Y608226D01*
X1230371Y608571D01*
X1232813Y609583D01*
X1234911Y611192D01*
X1236520Y613290D01*
X1237532Y615732D01*
X1237877Y618353D01*
X1237532Y620974D01*
X1236520Y623416D01*
X1234911Y625513D01*
X1232813Y627123D01*
X1232124Y627408D01*
Y629938D01*
X1248336Y646151D01*
X1249606Y645624D01*
Y582747D01*
X1248644Y581861D01*
X1246629Y582127D01*
X1244008Y581782D01*
X1241566Y580770D01*
X1239468Y579161D01*
X1237859Y577063D01*
X1236848Y574621D01*
X1236502Y572000D01*
X1236848Y569379D01*
X1237859Y566937D01*
X1239468Y564839D01*
X1241566Y563230D01*
X1244008Y562218D01*
X1246629Y561873D01*
X1249250Y562218D01*
X1251692Y563230D01*
X1253790Y564839D01*
X1255399Y566937D01*
X1256411Y569379D01*
X1256756Y572000D01*
X1256465Y574208D01*
X1258814Y576557D01*
X1259983Y578307D01*
X1260394Y580371D01*
Y644141D01*
X1261356Y645103D01*
X1262626Y644577D01*
Y633000D01*
X1262959Y631326D01*
X1263907Y629907D01*
X1269617Y624198D01*
X1271036Y623249D01*
X1271810Y623095D01*
Y604710D01*
X1284623D01*
X1291861Y597472D01*
Y556250D01*
X1291976Y555674D01*
X1291078Y554776D01*
X1290488Y554894D01*
X1286463D01*
X1286043Y555314D01*
X1284293Y556483D01*
X1282229Y556894D01*
X1271016D01*
X1269661Y558661D01*
X1267563Y560270D01*
X1265121Y561282D01*
X1262500Y561627D01*
X1259879Y561282D01*
X1257437Y560270D01*
X1255339Y558661D01*
X1253730Y556563D01*
X1252718Y554121D01*
X1252373Y551500D01*
X1252718Y548879D01*
X1253730Y546437D01*
X1255339Y544339D01*
X1257437Y542730D01*
X1259879Y541718D01*
X1262500Y541373D01*
X1265121Y541718D01*
X1267563Y542730D01*
X1269661Y544339D01*
X1271016Y546106D01*
X1279995D01*
X1280415Y545686D01*
X1282165Y544517D01*
X1284229Y544106D01*
X1288254D01*
X1298829Y533532D01*
X1298303Y532262D01*
X1294388D01*
X1292714Y531929D01*
X1291295Y530981D01*
X1289942Y529628D01*
X1288803Y530189D01*
X1288877Y530750D01*
X1288532Y533371D01*
X1287520Y535813D01*
X1285911Y537911D01*
X1283813Y539520D01*
X1281371Y540532D01*
X1278750Y540877D01*
X1276129Y540532D01*
X1273687Y539520D01*
X1271589Y537911D01*
X1269980Y535813D01*
X1268968Y533371D01*
X1268623Y530750D01*
X1268968Y528129D01*
X1269980Y525687D01*
X1271589Y523589D01*
X1273687Y521980D01*
X1276129Y520968D01*
X1278750Y520623D01*
X1279327Y520699D01*
X1279926Y519497D01*
X1279209Y518424D01*
X1278876Y516750D01*
Y510500D01*
X1279209Y508826D01*
X1280157Y507407D01*
X1307657Y479907D01*
X1309076Y478959D01*
X1310750Y478626D01*
X1317438D01*
X1331907Y464157D01*
X1333326Y463209D01*
X1335000Y462876D01*
X1353718D01*
X1355392Y463209D01*
X1355957Y463587D01*
X1356847Y463218D01*
X1359468Y462873D01*
X1362089Y463218D01*
X1364531Y464230D01*
X1366628Y465839D01*
X1368238Y467937D01*
X1369249Y470379D01*
X1369594Y473000D01*
X1369249Y475621D01*
X1368238Y478063D01*
X1366628Y480161D01*
X1364531Y481770D01*
X1362089Y482782D01*
X1359468Y483127D01*
X1356847Y482782D01*
X1354404Y481770D01*
X1352307Y480161D01*
X1350698Y478063D01*
X1349686Y475621D01*
X1349341Y473000D01*
X1349397Y472579D01*
X1348559Y471624D01*
X1336995D01*
X1336510Y472243D01*
X1336606Y472742D01*
X1337014Y473528D01*
X1339371Y473838D01*
X1341813Y474850D01*
X1343911Y476459D01*
X1345520Y478556D01*
X1346532Y480998D01*
X1346877Y483619D01*
X1346532Y486241D01*
X1345520Y488683D01*
X1343911Y490780D01*
X1341813Y492389D01*
X1341124Y492675D01*
Y492924D01*
X1340791Y494598D01*
X1339843Y496017D01*
X1330426Y505433D01*
X1330912Y506606D01*
X1439000D01*
X1441064Y507017D01*
X1442814Y508186D01*
X1443983Y509936D01*
X1444394Y512000D01*
X1443983Y514064D01*
X1443507Y514776D01*
X1443814Y515517D01*
X1445564Y516686D01*
X1447504Y518626D01*
X1448673Y520376D01*
X1449084Y522440D01*
Y522940D01*
X1448673Y525004D01*
X1447504Y526754D01*
X1445754Y527923D01*
X1445238Y528026D01*
X1444869Y529241D01*
X1456064Y540436D01*
X1457233Y542186D01*
X1457377Y542911D01*
X1458593Y543280D01*
X1473936Y527936D01*
X1473960Y527920D01*
Y523710D01*
X1496040D01*
Y532734D01*
X1497213Y533220D01*
X1499189Y531245D01*
X1499002Y530966D01*
X1498611Y529000D01*
X1499002Y527034D01*
X1500116Y525366D01*
X1501783Y524252D01*
X1503750Y523861D01*
X1504896Y524089D01*
X1506166Y523142D01*
Y521352D01*
X1472988Y488173D01*
X1472039Y486754D01*
X1471707Y485081D01*
Y476805D01*
X1471017Y476520D01*
X1468920Y474911D01*
X1467311Y472813D01*
X1466299Y470371D01*
X1465954Y467750D01*
X1466299Y465129D01*
X1467311Y462687D01*
X1468920Y460589D01*
X1471017Y458980D01*
X1473460Y457968D01*
X1476081Y457623D01*
X1478702Y457968D01*
X1481144Y458980D01*
X1483241Y460589D01*
X1484850Y462687D01*
X1485862Y465129D01*
X1486207Y467750D01*
X1485862Y470371D01*
X1484850Y472813D01*
X1483241Y474911D01*
X1481144Y476520D01*
X1480455Y476805D01*
Y483269D01*
X1513512Y516326D01*
X1513606Y516389D01*
X1513778Y516357D01*
X1514876Y515981D01*
Y511062D01*
X1509120Y505305D01*
X1508171Y503886D01*
X1507838Y502212D01*
Y488524D01*
X1506060Y486746D01*
X1505371Y487032D01*
X1502750Y487377D01*
X1500129Y487032D01*
X1497687Y486020D01*
X1495589Y484411D01*
X1493980Y482313D01*
X1492968Y479871D01*
X1492623Y477250D01*
X1492968Y474629D01*
X1493980Y472187D01*
X1495589Y470089D01*
X1497687Y468480D01*
X1500129Y467468D01*
X1502750Y467123D01*
X1505371Y467468D01*
X1507813Y468480D01*
X1509911Y470089D01*
X1511520Y472187D01*
X1512532Y474629D01*
X1512877Y477250D01*
X1512532Y479871D01*
X1512246Y480560D01*
X1515305Y483619D01*
X1516254Y485038D01*
X1516388Y485713D01*
X1517708Y485843D01*
X1517980Y485187D01*
X1519589Y483089D01*
X1521687Y481480D01*
X1524129Y480468D01*
X1526750Y480123D01*
X1529371Y480468D01*
X1531813Y481480D01*
X1533911Y483089D01*
X1535520Y485187D01*
X1536532Y487629D01*
X1536877Y490250D01*
X1536532Y492871D01*
X1535520Y495313D01*
X1535374Y495503D01*
Y534031D01*
X1536547Y534517D01*
X1546376Y524688D01*
Y513555D01*
X1545687Y513270D01*
X1543589Y511661D01*
X1541980Y509563D01*
X1540968Y507121D01*
X1540623Y504500D01*
X1540968Y501879D01*
X1541980Y499437D01*
X1543589Y497339D01*
X1545687Y495730D01*
X1548129Y494718D01*
X1550750Y494373D01*
X1553371Y494718D01*
X1555813Y495730D01*
X1557911Y497339D01*
X1559520Y499437D01*
X1560532Y501879D01*
X1560877Y504500D01*
X1560532Y507121D01*
X1559520Y509563D01*
X1557911Y511661D01*
X1555813Y513270D01*
X1555124Y513555D01*
Y526500D01*
X1554791Y528174D01*
X1553843Y529593D01*
X1521947Y561488D01*
X1522366Y562866D01*
X1523659Y563124D01*
X1524218Y563497D01*
X1526067D01*
X1563663Y525901D01*
X1562718Y523621D01*
X1562373Y521000D01*
X1562718Y518379D01*
X1563730Y515937D01*
X1565339Y513839D01*
X1567437Y512230D01*
X1569879Y511218D01*
X1572500Y510873D01*
X1575121Y511218D01*
X1577563Y512230D01*
X1579661Y513839D01*
X1581270Y515937D01*
X1582282Y518379D01*
X1582627Y521000D01*
X1582282Y523621D01*
X1581270Y526063D01*
X1579661Y528161D01*
X1577563Y529770D01*
X1575121Y530782D01*
X1572500Y531127D01*
X1571006Y530930D01*
X1557944Y543991D01*
X1558570Y545162D01*
X1558750Y545126D01*
X1565438D01*
X1569907Y540657D01*
X1571326Y539709D01*
X1573000Y539376D01*
X1582087D01*
X1582218Y538379D01*
X1583230Y535937D01*
X1584839Y533839D01*
X1586937Y532230D01*
X1589379Y531218D01*
X1592000Y530873D01*
X1594621Y531218D01*
X1597063Y532230D01*
X1599161Y533839D01*
X1600770Y535937D01*
X1601782Y538379D01*
X1602127Y541000D01*
X1601782Y543621D01*
X1600770Y546063D01*
X1599161Y548161D01*
X1597063Y549770D01*
X1594621Y550782D01*
X1592000Y551127D01*
X1589379Y550782D01*
X1586937Y549770D01*
X1584839Y548161D01*
X1584811Y548124D01*
X1574812D01*
X1570343Y552593D01*
X1568924Y553541D01*
X1567250Y553874D01*
X1560562D01*
X1533093Y581343D01*
X1532199Y581940D01*
X1532584Y583210D01*
X1546040D01*
Y594645D01*
X1564000D01*
X1565968Y594904D01*
X1567802Y595664D01*
X1569377Y596873D01*
X1581128Y608623D01*
X1582336Y610198D01*
X1583096Y612032D01*
X1583355Y614001D01*
Y628100D01*
X1586465Y631210D01*
X1595790D01*
Y648529D01*
X1597450Y648859D01*
X1598869Y649807D01*
X1600627Y651566D01*
X1601704Y650846D01*
X1600962Y649056D01*
X1600626Y646500D01*
X1600962Y643944D01*
X1601949Y641563D01*
X1603518Y639518D01*
X1605563Y637949D01*
X1607944Y636962D01*
X1610500Y636626D01*
X1613056Y636962D01*
X1615437Y637949D01*
X1617482Y639518D01*
X1619052Y641563D01*
X1620038Y643944D01*
X1620375Y646500D01*
X1620038Y649056D01*
X1619052Y651437D01*
X1617482Y653482D01*
X1615437Y655052D01*
X1614703Y655356D01*
X1614955Y656626D01*
X1619342D01*
X1621016Y656959D01*
X1622435Y657907D01*
X1625343Y660815D01*
X1626291Y662234D01*
X1626381Y662687D01*
X1626998Y663609D01*
X1627389Y665576D01*
X1626998Y667542D01*
X1625884Y669209D01*
X1624216Y670323D01*
X1622250Y670714D01*
X1620284Y670323D01*
X1618616Y669209D01*
X1617502Y667542D01*
X1617111Y665576D01*
X1616946Y665374D01*
X1603876D01*
X1602202Y665041D01*
X1600783Y664093D01*
X1593964Y657274D01*
X1576531D01*
X1575512Y657071D01*
X1574242Y657941D01*
Y663364D01*
X1577088Y666210D01*
X1595790D01*
Y686290D01*
X1582918D01*
X1582437Y687412D01*
X1583150Y688280D01*
X1584198D01*
X1586262Y688691D01*
X1588012Y689860D01*
X1589181Y691610D01*
X1589592Y693674D01*
X1589181Y695738D01*
X1588211Y697190D01*
X1588669Y698460D01*
X1595790D01*
Y718540D01*
X1580418D01*
X1579739Y719810D01*
X1580310Y720664D01*
X1580701Y722630D01*
X1580310Y724596D01*
X1579196Y726264D01*
X1577529Y727378D01*
X1575562Y727769D01*
X1573595Y727378D01*
X1571928Y726264D01*
X1570814Y724596D01*
X1570683Y723937D01*
X1564620Y717874D01*
X1546826D01*
Y706767D01*
X1545556Y706241D01*
X1539792Y712006D01*
X1538217Y713214D01*
X1536382Y713974D01*
X1534414Y714233D01*
X1510640D01*
X1507852Y717021D01*
Y733790D01*
X1507321D01*
Y736482D01*
X1507872D01*
Y751960D01*
X1519372Y763459D01*
X1519933Y764299D01*
X1520130Y765291D01*
Y766454D01*
X1519933Y767445D01*
X1519372Y768285D01*
X1516866Y770791D01*
X1516026Y771353D01*
X1515035Y771550D01*
X1509300D01*
Y788450D01*
X1516665D01*
X1517656Y788647D01*
X1518496Y789209D01*
X1528041Y798754D01*
X1528603Y799594D01*
X1528800Y800585D01*
Y808788D01*
X1528713Y809224D01*
X1528647Y809664D01*
X1528615Y809718D01*
X1528603Y809779D01*
X1528356Y810149D01*
X1528126Y810530D01*
X1517040Y822725D01*
X1516856Y822861D01*
X1516705Y823034D01*
X1516453Y823159D01*
X1516228Y823326D01*
X1516005Y823381D01*
X1515799Y823483D01*
X1502356Y827114D01*
X1501604Y827427D01*
X1501602Y827428D01*
X1501599Y827429D01*
X1500999Y827678D01*
X1500485Y828074D01*
X1500483Y828075D01*
X1500481Y828077D01*
X1499834Y828574D01*
X1499824Y828584D01*
X1498926Y829754D01*
X1498427Y830958D01*
X1498235Y832420D01*
Y845580D01*
X1498427Y847042D01*
X1498926Y848247D01*
X1499719Y849280D01*
X1500754Y850074D01*
X1501958Y850573D01*
X1503250Y850743D01*
X1504542Y850573D01*
X1505746Y850074D01*
X1506781Y849281D01*
X1507574Y848246D01*
X1508073Y847042D01*
X1508265Y845580D01*
Y837891D01*
X1508298Y837726D01*
X1508287Y837558D01*
X1508396Y837235D01*
X1508462Y836900D01*
X1508556Y836760D01*
X1508610Y836601D01*
X1508834Y836344D01*
X1509024Y836060D01*
X1509164Y835966D01*
X1509274Y835840D01*
X1509580Y835688D01*
X1509864Y835498D01*
X1510029Y835466D01*
X1510180Y835391D01*
X1520546Y832591D01*
X1520597Y832588D01*
X1520955Y832419D01*
X1521105Y832381D01*
X1521240Y832305D01*
X1521532Y832207D01*
X1521620Y832172D01*
X1521638Y832163D01*
X1521835Y832030D01*
X1521874Y832014D01*
X1522105Y831818D01*
X1522241Y831743D01*
X1522351Y831635D01*
X1522575Y831486D01*
X1522702Y831390D01*
X1522864Y831205D01*
X1522952Y831137D01*
X1522955Y831133D01*
X1522961Y831124D01*
X1522976Y831107D01*
X1523038Y831030D01*
X1523075Y830998D01*
X1532575Y820548D01*
X1532626Y820511D01*
X1532660Y820459D01*
X1533030Y820212D01*
X1533388Y819947D01*
X1533449Y819932D01*
X1533501Y819897D01*
X1533937Y819811D01*
X1534368Y819703D01*
X1534430Y819713D01*
X1534492Y819700D01*
X1539700D01*
Y801557D01*
X1539463Y801201D01*
X1539265Y800210D01*
Y798040D01*
X1539073Y796578D01*
X1538574Y795374D01*
X1537677Y794204D01*
X1524489Y781016D01*
X1524489Y781016D01*
X1523927Y780176D01*
X1523730Y779185D01*
X1523927Y778194D01*
X1524489Y777354D01*
X1527046Y774796D01*
X1527886Y774235D01*
X1528878Y774038D01*
X1529869Y774235D01*
X1530709Y774796D01*
X1541892Y785979D01*
X1541892Y785979D01*
X1543661Y787748D01*
X1543802Y787960D01*
X1543983Y788141D01*
X1546763Y792301D01*
X1546860Y792536D01*
X1547002Y792749D01*
X1548916Y797371D01*
X1548966Y797621D01*
X1549064Y797857D01*
X1550040Y802764D01*
Y803019D01*
X1550090Y803269D01*
Y805771D01*
Y835229D01*
Y837731D01*
X1550040Y837981D01*
Y838236D01*
X1549064Y843143D01*
X1548966Y843379D01*
X1548916Y843629D01*
X1547002Y848251D01*
X1546860Y848464D01*
X1546763Y848699D01*
X1543983Y852859D01*
X1543802Y853040D01*
X1543661Y853252D01*
X1541892Y855021D01*
X1532581Y864331D01*
X1531741Y864893D01*
X1530750Y865090D01*
X1475082D01*
X1474785Y865743D01*
X1474732Y866360D01*
X1476661Y867839D01*
X1478270Y869937D01*
X1479282Y872379D01*
X1479627Y875000D01*
X1479282Y877621D01*
X1478270Y880063D01*
X1476661Y882161D01*
X1474563Y883770D01*
X1472121Y884782D01*
X1469500Y885127D01*
X1466879Y884782D01*
X1464437Y883770D01*
X1462339Y882161D01*
X1460730Y880063D01*
X1459718Y877621D01*
X1459373Y875000D01*
X1459718Y872379D01*
X1460730Y869937D01*
X1462339Y867839D01*
X1464268Y866360D01*
X1464215Y865743D01*
X1463918Y865090D01*
X1454769D01*
X1454519Y865040D01*
X1454264D01*
X1452615Y864712D01*
X1452379Y864614D01*
X1452129Y864565D01*
X1450890Y864051D01*
X1450106Y864578D01*
X1449837Y864955D01*
X1450007Y865518D01*
X1450443Y869937D01*
X1450007Y874355D01*
X1448719Y878604D01*
X1446626Y882520D01*
X1443809Y885952D01*
X1440377Y888769D01*
X1436461Y890862D01*
X1432212Y892150D01*
X1427794Y892586D01*
D02*
G37*
G36*
X1569540Y785790D02*
X1549460D01*
Y765710D01*
X1569540D01*
Y785790D01*
D02*
G37*
G36*
X1584900Y785877D02*
X1582279Y785532D01*
X1579837Y784520D01*
X1577739Y782911D01*
X1576130Y780813D01*
X1575118Y778371D01*
X1574773Y775750D01*
X1575118Y773129D01*
X1576130Y770687D01*
X1577739Y768589D01*
X1579837Y766980D01*
X1582279Y765968D01*
X1584900Y765623D01*
X1587521Y765968D01*
X1589963Y766980D01*
X1592061Y768589D01*
X1593670Y770687D01*
X1594682Y773129D01*
X1595027Y775750D01*
X1594682Y778371D01*
X1593670Y780813D01*
X1592061Y782911D01*
X1589963Y784520D01*
X1587521Y785532D01*
X1584900Y785877D01*
D02*
G37*
G36*
X1308040Y760790D02*
X1285960D01*
Y744710D01*
X1294599D01*
X1295284Y744252D01*
X1297250Y743861D01*
X1299217Y744252D01*
X1299901Y744710D01*
X1308040D01*
Y760790D01*
D02*
G37*
G36*
X1280040Y760290D02*
X1257960D01*
Y744210D01*
X1265723D01*
X1266033Y744002D01*
X1268000Y743611D01*
X1269967Y744002D01*
X1270277Y744210D01*
X1280040D01*
Y760290D01*
D02*
G37*
G36*
X1595790Y753540D02*
X1575710D01*
Y742228D01*
X1568906D01*
Y744874D01*
X1546826D01*
Y728794D01*
X1568906D01*
Y731441D01*
X1579084D01*
X1581148Y731851D01*
X1582898Y733020D01*
X1583338Y733460D01*
X1595790D01*
Y753540D01*
D02*
G37*
G36*
X1452540Y740540D02*
X1430460D01*
Y724460D01*
X1452540D01*
Y729892D01*
X1452802Y730283D01*
X1453193Y732250D01*
X1452802Y734216D01*
X1452540Y734607D01*
Y740540D01*
D02*
G37*
G36*
X1476290Y715290D02*
X1454210D01*
Y699210D01*
X1476290D01*
Y715290D01*
D02*
G37*
G36*
X1637500Y718139D02*
X1634487Y717743D01*
X1631680Y716580D01*
X1629270Y714730D01*
X1627420Y712320D01*
X1626257Y709512D01*
X1625860Y706500D01*
X1626257Y703487D01*
X1627420Y700680D01*
X1629270Y698270D01*
X1631680Y696420D01*
X1634487Y695257D01*
X1637500Y694860D01*
X1640512Y695257D01*
X1643320Y696420D01*
X1645730Y698270D01*
X1647580Y700680D01*
X1648743Y703487D01*
X1649139Y706500D01*
X1648743Y709512D01*
X1647580Y712320D01*
X1645730Y714730D01*
X1643320Y716580D01*
X1640512Y717743D01*
X1637500Y718139D01*
D02*
G37*
G36*
X1610500Y706375D02*
X1607944Y706038D01*
X1605563Y705051D01*
X1603518Y703482D01*
X1601949Y701437D01*
X1600962Y699056D01*
X1600626Y696500D01*
X1600962Y693944D01*
X1601949Y691563D01*
X1603518Y689518D01*
X1605563Y687949D01*
X1607944Y686962D01*
X1610500Y686626D01*
X1613056Y686962D01*
X1615437Y687949D01*
X1617482Y689518D01*
X1619052Y691563D01*
X1620038Y693944D01*
X1620375Y696500D01*
X1620038Y699056D01*
X1619052Y701437D01*
X1617482Y703482D01*
X1615437Y705051D01*
X1613056Y706038D01*
X1610500Y706375D01*
D02*
G37*
G36*
X1452540Y713540D02*
X1430460D01*
Y702087D01*
X1423122Y694750D01*
X1405890D01*
X1403826Y694339D01*
X1402076Y693170D01*
X1400907Y691420D01*
X1400496Y689356D01*
X1400907Y687292D01*
X1402076Y685542D01*
X1403826Y684373D01*
X1405890Y683962D01*
X1425356D01*
X1427421Y684373D01*
X1429170Y685542D01*
X1441088Y697460D01*
X1452540D01*
Y713540D01*
D02*
G37*
G36*
X1637500Y648140D02*
X1634487Y647743D01*
X1631680Y646580D01*
X1629270Y644731D01*
X1627420Y642320D01*
X1626257Y639513D01*
X1625860Y636500D01*
X1626257Y633488D01*
X1627420Y630680D01*
X1629270Y628270D01*
X1631680Y626420D01*
X1634487Y625257D01*
X1637500Y624861D01*
X1640512Y625257D01*
X1643320Y626420D01*
X1645730Y628270D01*
X1647580Y630680D01*
X1648743Y633488D01*
X1649139Y636500D01*
X1648743Y639513D01*
X1647580Y642320D01*
X1645730Y644731D01*
X1643320Y646580D01*
X1640512Y647743D01*
X1637500Y648140D01*
D02*
G37*
G36*
X1234579Y605127D02*
X1231958Y604782D01*
X1229516Y603770D01*
X1227418Y602161D01*
X1225809Y600063D01*
X1224797Y597621D01*
X1224452Y595000D01*
X1224797Y592379D01*
X1225809Y589937D01*
X1227418Y587839D01*
X1229516Y586230D01*
X1231958Y585218D01*
X1234579Y584873D01*
X1237200Y585218D01*
X1239642Y586230D01*
X1241740Y587839D01*
X1243349Y589937D01*
X1244360Y592379D01*
X1244706Y595000D01*
X1244360Y597621D01*
X1243349Y600063D01*
X1241740Y602161D01*
X1239642Y603770D01*
X1237200Y604782D01*
X1234579Y605127D01*
D02*
G37*
G36*
X1615540Y621290D02*
X1586460D01*
Y583210D01*
X1615540D01*
Y621290D01*
D02*
G37*
G36*
X1427794Y490399D02*
X1423375Y489964D01*
X1419126Y488675D01*
X1415211Y486582D01*
X1411778Y483765D01*
X1408962Y480333D01*
X1406869Y476417D01*
X1405580Y472169D01*
X1405145Y467750D01*
X1405580Y463331D01*
X1406869Y459083D01*
X1408962Y455167D01*
X1411778Y451735D01*
X1415211Y448918D01*
X1419126Y446825D01*
X1423375Y445536D01*
X1427794Y445101D01*
X1432212Y445536D01*
X1436461Y446825D01*
X1440377Y448918D01*
X1443809Y451735D01*
X1446626Y455167D01*
X1448719Y459083D01*
X1450007Y463331D01*
X1450443Y467750D01*
X1450007Y472169D01*
X1448719Y476417D01*
X1446626Y480333D01*
X1443809Y483765D01*
X1440377Y486582D01*
X1436461Y488675D01*
X1432212Y489964D01*
X1427794Y490399D01*
D02*
G37*
%LPD*%
G36*
X1540060Y853189D02*
X1541830Y851421D01*
X1544609Y847260D01*
X1546524Y842638D01*
X1547500Y837731D01*
Y835229D01*
Y805771D01*
Y803269D01*
X1546524Y798362D01*
X1544609Y793740D01*
X1541830Y789579D01*
X1540060Y787811D01*
X1540060D01*
X1540060Y787811D01*
X1528878Y776628D01*
X1526320Y779185D01*
X1539628Y792493D01*
X1540836Y794068D01*
X1541596Y795902D01*
X1541855Y797870D01*
Y800210D01*
X1542290D01*
Y822290D01*
X1534492D01*
X1524877Y832866D01*
X1524710Y833007D01*
X1524627Y833116D01*
X1524444Y833257D01*
X1524233Y833495D01*
X1523778Y833796D01*
X1523361Y834148D01*
X1523172Y834237D01*
X1523054Y834328D01*
X1522831Y834421D01*
X1522576Y834589D01*
X1522059Y834762D01*
X1521566Y834994D01*
X1521370Y835029D01*
X1521222Y835091D01*
X1510855Y837891D01*
Y845750D01*
X1510596Y847718D01*
X1509836Y849553D01*
X1508628Y851128D01*
X1507052Y852336D01*
X1505218Y853096D01*
X1503250Y853355D01*
X1501282Y853096D01*
X1499447Y852336D01*
X1497872Y851128D01*
X1496664Y849553D01*
X1495904Y847718D01*
X1495645Y845750D01*
Y832250D01*
X1495904Y830282D01*
X1496664Y828447D01*
X1497872Y826872D01*
X1498122Y826622D01*
X1498905Y826022D01*
X1499684Y825421D01*
X1499691Y825418D01*
X1499698Y825414D01*
X1500609Y825036D01*
X1501517Y824658D01*
X1515124Y820983D01*
X1526210Y808788D01*
Y800585D01*
X1516665Y791040D01*
X1506710D01*
Y768960D01*
X1515035D01*
X1517541Y766454D01*
Y765291D01*
X1503000Y750750D01*
X1463019D01*
X1458112Y751726D01*
X1453490Y753641D01*
X1449330Y756421D01*
X1447560Y758189D01*
X1443514Y762236D01*
X1441179Y765731D01*
X1439570Y769614D01*
X1438750Y773737D01*
Y793000D01*
X1437700Y811500D01*
Y837604D01*
Y840106D01*
X1438676Y845013D01*
X1440590Y849636D01*
X1443023Y853276D01*
X1443809Y853921D01*
X1445243Y855669D01*
X1449574Y860000D01*
X1450169Y860594D01*
X1451567Y861529D01*
X1453120Y862172D01*
X1454769Y862500D01*
X1530750D01*
X1540060Y853189D01*
D02*
G37*
G36*
X1571728Y654283D02*
X1562407Y644962D01*
X1556752D01*
X1556192Y645336D01*
X1554226Y645727D01*
X1552260Y645336D01*
X1550592Y644222D01*
X1549478Y642554D01*
X1549087Y640588D01*
X1549478Y638621D01*
X1550592Y636954D01*
X1552260Y635840D01*
X1554226Y635449D01*
X1556192Y635840D01*
X1556752Y636214D01*
X1564219D01*
X1565893Y636547D01*
X1567312Y637495D01*
X1574537Y644720D01*
X1575710Y644234D01*
Y641965D01*
X1570372Y636628D01*
X1569164Y635052D01*
X1568404Y633218D01*
X1568145Y631250D01*
Y617151D01*
X1560850Y609855D01*
X1546040D01*
Y621290D01*
X1523215D01*
X1513628Y630878D01*
X1512212Y631964D01*
X1512253Y632536D01*
X1512565Y633234D01*
X1530352D01*
Y647386D01*
X1551178D01*
X1553242Y647797D01*
X1554992Y648966D01*
X1557786Y651760D01*
X1558955Y653510D01*
X1559342Y655456D01*
X1571242D01*
X1571728Y654283D01*
D02*
G37*
G36*
X1466846Y648966D02*
X1468596Y647797D01*
X1470660Y647386D01*
X1482960D01*
Y633105D01*
X1473150D01*
X1455567Y650688D01*
X1455591Y651029D01*
X1455907Y651958D01*
X1463854D01*
X1466846Y648966D01*
D02*
G37*
G36*
X1464622Y620122D02*
X1466198Y618914D01*
X1466957Y618599D01*
X1468032Y618154D01*
X1470000Y617895D01*
X1505100D01*
X1516960Y606035D01*
Y599162D01*
X1515690Y598352D01*
X1514250Y598639D01*
X1512283Y598248D01*
X1510616Y597134D01*
X1509502Y595466D01*
X1508660Y595117D01*
X1507717Y595748D01*
X1505750Y596139D01*
X1504409Y595872D01*
X1503316Y596833D01*
X1503309Y596850D01*
X1503389Y597250D01*
X1502998Y599216D01*
X1501884Y600884D01*
X1500217Y601998D01*
X1498250Y602389D01*
X1496284Y601998D01*
X1494616Y600884D01*
X1493502Y599216D01*
X1493111Y597250D01*
X1493502Y595284D01*
X1493876Y594725D01*
Y592290D01*
X1473960D01*
Y582857D01*
X1458270D01*
X1456064Y585064D01*
X1454314Y586233D01*
X1452250Y586644D01*
X1450186Y586233D01*
X1449644Y585871D01*
X1448374Y586550D01*
Y607750D01*
X1448041Y609424D01*
X1447704Y609928D01*
X1447498Y610966D01*
X1446384Y612634D01*
X1444716Y613748D01*
X1442750Y614139D01*
X1440784Y613748D01*
X1439116Y612634D01*
X1438810Y612175D01*
X1437540Y612561D01*
Y618790D01*
X1437105D01*
Y635250D01*
X1436941Y636500D01*
X1437882Y637770D01*
X1446975D01*
X1464622Y620122D01*
D02*
G37*
G36*
X1413997Y639997D02*
X1421895Y632100D01*
Y618790D01*
X1421460D01*
Y596710D01*
X1421460D01*
Y596290D01*
X1421460D01*
Y574210D01*
X1421460D01*
Y573790D01*
X1421460D01*
Y554288D01*
X1420479Y553482D01*
X1419690Y553639D01*
X1417724Y553248D01*
X1417165Y552874D01*
X1374026D01*
X1373466Y553248D01*
X1371500Y553639D01*
X1369534Y553248D01*
X1367866Y552134D01*
X1366752Y550466D01*
X1366361Y548500D01*
X1366586Y547369D01*
X1365632Y546099D01*
X1344418D01*
X1339981Y550537D01*
X1340467Y551710D01*
X1359540D01*
Y555617D01*
X1359889Y557370D01*
X1359540Y559123D01*
Y562790D01*
X1334460D01*
Y557717D01*
X1333287Y557231D01*
X1325249Y565268D01*
Y606174D01*
X1326519Y606800D01*
X1327587Y605980D01*
X1330029Y604969D01*
X1332650Y604624D01*
X1335271Y604969D01*
X1337713Y605980D01*
X1339811Y607590D01*
X1341420Y609687D01*
X1342432Y612129D01*
X1342777Y614750D01*
X1342625Y615901D01*
X1343463Y616856D01*
X1394460D01*
Y596710D01*
X1410540D01*
Y607523D01*
X1415134Y612116D01*
X1416248Y613783D01*
X1416639Y615750D01*
Y620969D01*
X1416894Y622250D01*
X1416483Y624314D01*
X1415314Y626064D01*
X1413564Y627233D01*
X1411500Y627644D01*
X1340150D01*
X1338086Y627233D01*
X1336336Y626064D01*
X1335610Y624978D01*
X1335177Y624544D01*
X1332650Y624877D01*
X1330029Y624532D01*
X1327587Y623520D01*
X1326519Y622701D01*
X1325249Y623327D01*
Y627290D01*
X1324858Y629257D01*
X1323744Y630924D01*
X1317044Y637623D01*
X1317377Y640150D01*
X1317032Y642771D01*
X1316020Y645213D01*
X1314411Y647311D01*
X1313914Y647692D01*
X1314322Y648895D01*
X1405100D01*
X1413997Y639997D01*
D02*
G37*
G36*
X1493876Y566790D02*
X1473960D01*
Y554635D01*
X1472787Y554149D01*
X1456136Y570800D01*
X1456662Y572070D01*
X1478214D01*
X1480278Y572481D01*
X1482028Y573650D01*
X1484588Y576210D01*
X1493876D01*
Y566790D01*
D02*
G37*
G36*
X1439057Y605455D02*
X1439116Y605366D01*
X1439340Y605217D01*
X1439626Y604976D01*
Y576750D01*
X1439959Y575076D01*
X1440907Y573657D01*
X1451023Y563541D01*
X1450654Y562326D01*
X1450186Y562233D01*
X1448436Y561064D01*
X1447267Y559314D01*
X1446856Y557250D01*
Y546484D01*
X1436516Y536144D01*
X1432670D01*
X1432291Y537414D01*
X1439564Y544686D01*
X1440733Y546436D01*
X1441144Y548500D01*
X1440733Y550564D01*
X1439564Y552314D01*
X1437814Y553483D01*
X1437540Y553537D01*
Y573790D01*
X1437540D01*
Y574210D01*
X1437540D01*
Y596290D01*
X1437540D01*
Y596710D01*
X1437540D01*
Y605439D01*
X1438669Y605782D01*
X1439057Y605455D01*
D02*
G37*
%LPC*%
G36*
X1464540Y838790D02*
X1448460D01*
Y816710D01*
X1464540D01*
Y838790D01*
D02*
G37*
G36*
X1355500Y586869D02*
X1338500D01*
X1336924Y586555D01*
X1335587Y585663D01*
X1334694Y584326D01*
X1334381Y582750D01*
Y579750D01*
X1334694Y578174D01*
X1335587Y576837D01*
X1336924Y575944D01*
X1338500Y575631D01*
X1355500D01*
X1357076Y575944D01*
X1358413Y576837D01*
X1359306Y578174D01*
X1359619Y579750D01*
Y580145D01*
X1359889Y581500D01*
X1359498Y583466D01*
X1359468Y583511D01*
X1359306Y584326D01*
X1358413Y585663D01*
X1357076Y586555D01*
X1355500Y586869D01*
D02*
G37*
%LPD*%
D14*
X1585750Y676250D02*
D03*
Y641250D02*
D03*
Y743500D02*
D03*
Y708500D02*
D03*
D15*
X1456500Y827750D02*
D03*
X1429500D02*
D03*
X1539202Y666496D02*
D03*
X1566202D02*
D03*
X1429500Y607750D02*
D03*
X1402500D02*
D03*
X1561250Y811250D02*
D03*
X1534250D02*
D03*
X1402500Y585250D02*
D03*
X1429500D02*
D03*
X1402500Y562750D02*
D03*
X1429500D02*
D03*
X1526812Y722750D02*
D03*
X1499812D02*
D03*
X1526832Y747522D02*
D03*
X1499832D02*
D03*
X1514750Y780000D02*
D03*
X1487750D02*
D03*
X1498250Y690000D02*
D03*
X1525250D02*
D03*
D18*
X1347000Y569250D02*
D03*
Y557250D02*
D03*
D19*
Y581250D02*
D03*
D22*
X1485000Y558750D02*
D03*
Y531750D02*
D03*
X1297000Y752750D02*
D03*
Y779750D02*
D03*
X1269000Y779250D02*
D03*
Y752250D02*
D03*
X1386000Y832750D02*
D03*
Y805750D02*
D03*
X1557866Y709834D02*
D03*
Y736834D02*
D03*
X1402000Y777750D02*
D03*
Y750750D02*
D03*
X1363250Y833250D02*
D03*
Y806250D02*
D03*
X1441500Y732500D02*
D03*
Y705500D02*
D03*
X1465250Y707250D02*
D03*
Y680250D02*
D03*
X1485000Y611250D02*
D03*
Y584250D02*
D03*
X1494000Y668000D02*
D03*
Y641000D02*
D03*
X1519312Y668274D02*
D03*
Y641274D02*
D03*
D26*
X1281850Y614750D02*
D03*
X1559500Y775750D02*
D03*
D54*
X1499716Y718554D02*
Y742216D01*
X1487750Y775239D02*
X1499750Y763239D01*
X1500086Y714032D02*
X1507490Y706628D01*
X1487750Y775239D02*
Y780000D01*
X1507490Y706628D02*
X1534414D01*
X1541272Y699770D01*
X1429500Y607750D02*
Y635250D01*
Y606750D02*
Y607750D01*
X1328420Y804172D02*
X1338762Y814514D01*
X1344657D01*
X1328420Y791620D02*
Y804172D01*
X1503500Y832000D02*
X1519239Y827749D01*
X1503250Y832250D02*
X1503500Y832000D01*
X1503250Y832250D02*
Y845750D01*
X1525146Y749208D02*
X1526832Y747522D01*
X1525146Y749208D02*
Y769604D01*
X1514750Y780000D02*
X1525146Y769604D01*
X1514750Y780000D02*
X1516380D01*
X1534250Y797870D01*
Y811250D01*
X1519250Y827750D02*
X1534250Y811250D01*
X1519239Y827749D02*
X1519250Y827750D01*
X1429500Y585250D02*
Y606750D01*
X1581362Y708500D02*
X1585750D01*
X1569076Y696214D02*
X1581362Y708500D01*
X1544828Y696214D02*
X1569076D01*
X1541272Y699770D02*
X1544828Y696214D01*
X1575750Y631250D02*
X1585750Y641250D01*
X1575750Y614001D02*
Y631250D01*
X1519085Y641046D02*
X1519312Y641274D01*
X1496960Y641046D02*
X1519085D01*
X1500086Y714032D02*
Y720344D01*
X1342290Y777750D02*
X1378500D01*
X1299000D02*
X1342290D01*
X1328420Y791620D02*
X1342290Y777750D01*
X1297000Y779750D02*
X1299000Y777750D01*
X1296500Y779250D02*
X1297000Y779750D01*
X1269000Y779250D02*
X1296500D01*
X1419375Y645375D02*
X1450125D01*
X1499716Y742216D02*
X1499750Y742250D01*
X1564000Y602250D02*
X1575750Y614001D01*
X1531500Y602250D02*
X1564000D01*
X1419375Y645375D02*
X1429500Y635250D01*
X1408250Y656500D02*
X1419375Y645375D01*
X1508250Y625500D02*
X1531500Y602250D01*
X1470000Y625500D02*
X1508250D01*
X1450125Y645375D02*
X1470000Y625500D01*
X1370250Y656500D02*
X1408250D01*
X1298200D02*
X1370250D01*
Y769500D01*
X1378500Y777750D01*
X1402000D01*
X1281850Y640150D02*
X1298200Y656500D01*
X1429500Y564250D02*
Y585250D01*
X1415500Y777750D02*
X1417250Y776000D01*
X1402000Y777750D02*
X1415500D01*
D55*
X1493750Y766914D02*
Y773694D01*
Y766914D02*
X1499832Y760832D01*
Y747522D02*
Y760832D01*
X1622250Y663908D02*
Y665576D01*
X1619342Y661000D02*
X1622250Y663908D01*
X1521240Y578250D02*
X1530000D01*
X1558750Y549500D01*
X1521693Y567871D02*
X1527879D01*
X1572500Y523250D01*
X1505750Y561000D02*
X1531000Y535750D01*
X1505750Y561000D02*
Y591000D01*
X1603876Y661000D02*
X1619342D01*
X1595776Y652900D02*
X1603876Y661000D01*
X1576531Y652900D02*
X1595776D01*
X1554226Y640588D02*
X1564219D01*
X1576531Y652900D01*
X1335000Y467250D02*
X1353718D01*
X1319250Y483000D02*
X1335000Y467250D01*
X1310750Y483000D02*
X1319250D01*
X1283250Y510500D02*
X1310750Y483000D01*
X1283250Y510500D02*
Y516750D01*
X1540510Y699008D02*
X1541272Y699770D01*
X1314750Y513000D02*
X1317076Y510674D01*
X1319000D02*
X1336750Y492924D01*
X1317076Y510674D02*
X1319000D01*
X1336750Y483619D02*
Y492924D01*
X1353718Y467250D02*
X1359468Y473000D01*
X1294388Y527888D02*
X1299862D01*
X1283250Y516750D02*
X1294388Y527888D01*
X1299862D02*
X1302724Y525026D01*
X1303814D01*
X1227750Y631750D02*
X1266000Y670000D01*
X1227750Y618353D02*
Y631750D01*
X1502750Y477250D02*
X1512212Y486712D01*
Y502212D02*
X1519250Y509250D01*
X1512212Y486712D02*
Y502212D01*
X1519250Y532566D02*
X1521500Y534816D01*
X1519250Y509250D02*
Y532566D01*
X1510540Y519500D02*
Y537710D01*
X1476081Y467750D02*
Y485081D01*
X1510500Y519500D02*
X1510540D01*
X1476081Y485081D02*
X1510500Y519500D01*
X1526750Y490250D02*
X1531000Y494500D01*
X1514250Y563000D02*
X1550750Y526500D01*
Y504500D02*
Y526500D01*
X1531000Y494500D02*
Y535750D01*
X1589250Y543750D02*
X1592000Y541000D01*
X1573000Y543750D02*
X1589250D01*
X1567250Y549500D02*
X1573000Y543750D01*
X1572500Y521000D02*
Y523250D01*
X1558750Y549500D02*
X1567250D01*
X1498250Y550000D02*
X1510540Y537710D01*
X1477250Y543500D02*
X1493119D01*
X1503750Y532869D01*
Y529000D02*
Y532869D01*
X1444000Y576750D02*
X1477250Y543500D01*
X1444000Y576750D02*
Y607750D01*
X1442750Y609000D02*
X1444000Y607750D01*
X1498250Y550000D02*
Y597250D01*
X1514250Y563000D02*
Y593500D01*
X1371500Y548500D02*
X1419690D01*
X1266000Y670000D02*
X1277190D01*
X1284000Y663190D01*
Y658650D02*
Y663190D01*
X1274000Y653000D02*
X1278350D01*
X1267000Y646000D02*
X1274000Y653000D01*
X1278350D02*
X1284000Y658650D01*
X1267000Y633000D02*
Y646000D01*
Y633000D02*
X1272710Y627290D01*
X1294710D01*
X1307250Y614750D01*
X1540510Y683768D02*
Y699008D01*
X1562766Y709834D02*
X1575562Y722630D01*
X1557866Y709834D02*
X1562766D01*
X1483750Y583000D02*
X1485000Y584250D01*
D56*
X1478214Y577464D02*
X1483750Y583000D01*
X1456036Y577464D02*
X1478214D01*
X1579500Y676250D02*
X1585750D01*
X1569746Y666496D02*
X1579500Y676250D01*
X1566202Y666496D02*
X1569746D01*
X1313290Y526698D02*
X1327988Y512000D01*
X1313290Y526698D02*
Y526698D01*
X1327988Y512000D02*
X1439000D01*
X1438750Y530750D02*
X1452250Y544250D01*
X1337750Y530750D02*
X1438750D01*
X1307250Y561250D02*
X1337750Y530750D01*
X1428210Y540960D02*
X1435750Y548500D01*
X1443690Y522440D02*
Y522940D01*
X1305448Y534540D02*
X1313290Y526698D01*
X1305448Y534540D02*
Y534540D01*
X1290488Y549500D02*
X1305448Y534540D01*
X1262500Y551500D02*
X1282229D01*
X1284229Y549500D01*
X1290488D01*
X1246629Y572000D02*
X1255000Y580371D01*
Y646375D01*
X1452250Y581250D02*
X1456036Y577464D01*
X1333040Y520790D02*
X1438917D01*
X1332750Y520500D02*
X1333040Y520790D01*
X1441750Y520500D02*
X1443690Y522440D01*
X1438917Y520790D02*
X1439207Y520500D01*
X1441750D01*
X1452250Y544250D02*
Y557250D01*
X1255000Y646375D02*
X1270297Y661672D01*
X1275760D01*
X1580891Y693674D02*
X1584198D01*
X1568953Y681736D02*
X1580891Y693674D01*
X1560159Y681736D02*
X1568953D01*
X1553972Y675549D02*
X1560159Y681736D01*
X1553972Y655574D02*
Y675549D01*
X1551178Y652780D02*
X1553972Y655574D01*
X1470660Y652780D02*
X1551178D01*
X1466088Y657352D02*
X1470660Y652780D01*
X1432306Y657352D02*
X1466088D01*
X1565948Y666242D02*
X1566202Y666496D01*
X1579084Y736834D02*
X1585750Y743500D01*
X1557866Y736834D02*
X1579084D01*
X1422400Y662432D02*
X1440218Y680250D01*
X1465250D01*
X1405890Y689356D02*
X1425356D01*
X1441500Y705500D01*
X1307250Y561250D02*
Y614750D01*
X1340150Y622250D02*
X1411500D01*
X1452250Y557250D02*
X1477750Y531750D01*
X1485000D01*
D57*
X1400873Y840250D02*
Y844000D01*
X1391623Y827500D02*
X1400873D01*
X1342290Y540960D02*
X1428210D01*
X1320110Y563140D02*
X1342290Y540960D01*
X1297000Y556250D02*
X1332750Y520500D01*
X1297000Y556250D02*
Y599600D01*
X1411500Y615750D02*
Y622250D01*
X1281850Y614750D02*
X1297000Y599600D01*
X1402500Y606750D02*
X1411500Y615750D01*
X1307250Y640150D02*
X1320110Y627290D01*
Y563140D02*
Y627290D01*
X1332650Y614750D02*
X1340150Y622250D01*
X1364873Y833250D02*
Y841750D01*
X1370373Y847250D01*
X1397623D01*
X1400873Y844000D01*
X1386373Y805750D02*
X1395373Y814750D01*
X1400873D01*
X1386373Y832750D02*
X1391623Y827500D01*
X1402000Y750750D02*
Y759500D01*
X1406000Y763500D01*
X1417250D01*
D58*
X1584900Y775750D02*
D03*
X1307250Y614750D02*
D03*
X1332650Y614750D02*
D03*
X1281850Y640150D02*
D03*
X1307250Y640150D02*
D03*
X1332650Y640150D02*
D03*
X1389634Y877316D02*
D03*
X1364234Y873506D02*
D03*
X1297750Y512690D02*
D03*
X1234579Y595000D02*
D03*
X1227750Y618353D02*
D03*
X1246629Y572000D02*
D03*
X1278750Y530750D02*
D03*
X1262500Y551500D02*
D03*
X1316250Y496750D02*
D03*
X1336750Y483619D02*
D03*
X1359468Y473000D02*
D03*
X1476081Y467750D02*
D03*
X1502750Y477250D02*
D03*
X1526750Y490250D02*
D03*
X1550750Y504500D02*
D03*
X1572500Y521000D02*
D03*
X1469500Y875000D02*
D03*
X1592000Y541000D02*
D03*
D59*
X1610500Y696500D02*
D03*
Y646500D02*
D03*
D60*
X1637500Y636500D02*
D03*
Y706500D02*
D03*
D61*
X1465750Y668000D02*
D03*
X1456500Y721613D02*
D03*
X1458112Y832250D02*
D03*
X1485550Y850000D02*
D03*
X1473694Y849636D02*
D03*
X1485550Y836426D02*
D03*
X1473694D02*
D03*
X1444200D02*
D03*
X1443806Y822695D02*
D03*
X1474046D02*
D03*
X1484126D02*
D03*
X1539073Y836060D02*
D03*
Y845750D02*
D03*
X1494616Y764974D02*
D03*
X1464376Y786855D02*
D03*
X1494616D02*
D03*
X1484536Y764974D02*
D03*
X1494616Y775750D02*
D03*
X1484536D02*
D03*
Y786855D02*
D03*
X1474456D02*
D03*
Y775750D02*
D03*
X1464376D02*
D03*
X1452250Y490250D02*
D03*
X1400873Y840250D02*
D03*
Y827500D02*
D03*
X1622250Y665576D02*
D03*
X1521240Y578250D02*
D03*
X1521693Y567871D02*
D03*
X1505750Y591000D02*
D03*
X1578250Y660750D02*
D03*
X1458112Y534750D02*
D03*
X1443690Y522940D02*
D03*
X1314750Y513000D02*
D03*
X1303814Y525026D02*
D03*
X1372000Y638055D02*
D03*
X1512283Y668585D02*
D03*
X1351750Y745250D02*
D03*
X1621250Y752714D02*
D03*
X1239000Y725174D02*
D03*
X1251000Y705750D02*
D03*
X1231500Y685250D02*
D03*
X1380250Y479250D02*
D03*
X1408500Y495250D02*
D03*
X1503250Y871000D02*
D03*
Y845750D02*
D03*
X1454296Y786855D02*
D03*
X1503500Y832000D02*
D03*
X1528878Y836060D02*
D03*
Y845754D02*
D03*
X1519085Y846004D02*
D03*
X1528800Y855669D02*
D03*
X1519085D02*
D03*
X1494120Y797371D02*
D03*
X1494514Y811102D02*
D03*
X1484040Y797371D02*
D03*
X1484434Y811102D02*
D03*
X1473960Y797371D02*
D03*
X1474354Y811102D02*
D03*
X1463880Y797371D02*
D03*
X1464274Y811102D02*
D03*
X1453800Y797371D02*
D03*
X1454194Y811102D02*
D03*
X1454296Y775750D02*
D03*
X1474456Y764974D02*
D03*
X1464376D02*
D03*
X1454296D02*
D03*
X1521500Y534816D02*
D03*
X1503750Y529000D02*
D03*
X1454856Y589580D02*
D03*
X1452250Y581250D02*
D03*
X1442750Y609000D02*
D03*
X1498250Y597250D02*
D03*
X1514250Y593500D02*
D03*
X1371500Y548500D02*
D03*
X1354750Y557370D02*
D03*
X1439000Y512000D02*
D03*
X1275760Y661672D02*
D03*
X1347000Y569000D02*
D03*
X1354750Y581500D02*
D03*
X1584198Y693674D02*
D03*
X1540510Y683768D02*
D03*
X1526750Y690500D02*
D03*
X1432306Y657352D02*
D03*
X1448054Y732250D02*
D03*
X1540510Y720344D02*
D03*
X1290250Y699500D02*
D03*
X1368552Y597408D02*
D03*
X1378966Y581406D02*
D03*
X1554226Y640588D02*
D03*
X1575562Y722630D02*
D03*
X1537930Y666790D02*
D03*
X1522984Y642112D02*
D03*
X1501902Y713486D02*
D03*
X1344657Y814514D02*
D03*
X1422400Y662432D02*
D03*
X1405890Y689356D02*
D03*
X1318260Y550672D02*
D03*
X1435750Y548500D02*
D03*
X1601000Y591750D02*
D03*
Y611500D02*
D03*
X1419690Y548500D02*
D03*
X1411500Y622250D02*
D03*
X1429500Y564250D02*
D03*
Y606750D02*
D03*
X1465250Y707250D02*
D03*
X1561250Y811250D02*
D03*
X1400873Y814750D02*
D03*
X1417250Y763500D02*
D03*
Y776000D02*
D03*
X1452250Y557250D02*
D03*
X1485000Y561500D02*
D03*
X1268000Y748750D02*
D03*
X1297250Y749000D02*
D03*
D62*
X1427794Y467750D02*
D03*
Y869937D02*
D03*
D63*
X1531500Y602250D02*
D03*
X1601000D02*
D03*
M02*
